<?xml version="1.0" encoding="utf-8"?>
<svg version="1.1" id="Layer_1" xmlns="http://www.w3.org/2000/svg" xmlns:xlink="http://www.w3.org/1999/xlink" height="1297" width="2512">
	<polygon points="977,1295 84,1297 2091,1297 " style="fill:rgb(255, 234, 106);stroke-width:none"/>
	<polygon points="2512,1297 2363,1290 2091,1297 " style="fill:rgb(0, 0, 165);stroke-width:none"/>
	<polygon points="2363,1290 2259,1166 2091,1297 " style="fill:rgb(0, 0, 165);stroke-width:none"/>
	<polygon points="0,496 129,530 132,425 " style="fill:rgb(106, 168, 255);stroke-width:none"/>
	<polygon points="84,1297 0,1244 0,1297 " style="fill:rgb(36, 0, 8);stroke-width:none"/>
	<polygon points="0,1192 0,1244 84,1297 " style="fill:rgb(36, 0, 8);stroke-width:none"/>
	<polygon points="1479,1232 1138,1259 977,1295 " style="fill:rgb(243, 228, 117);stroke-width:none"/>
	<polygon points="2486,1183 2363,1290 2512,1297 " style="fill:rgb(0, 0, 165);stroke-width:none"/>
	<polygon points="2363,1290 2486,1183 2259,1166 " style="fill:rgb(0, 0, 165);stroke-width:none"/>
	<polygon points="2486,1183 2284,1081 2259,1166 " style="fill:rgb(0, 0, 165);stroke-width:none"/>
	<polygon points="2284,1081 2507,894 2218,1006 " style="fill:rgb(0, 0, 163);stroke-width:none"/>
	<polygon points="2260,527 2223,685 2284,705 " style="fill:rgb(198, 184, 141);stroke-width:none"/>
	<polygon points="2223,685 2260,527 2066,583 " style="fill:rgb(216, 210, 139);stroke-width:none"/>
	<polygon points="2260,527 2075,368 2066,583 " style="fill:rgb(249, 251, 131);stroke-width:none"/>
	<polygon points="2075,368 2260,527 2298,390 " style="fill:rgb(255, 255, 135);stroke-width:none"/>
	<polygon points="0,41 144,226 0,0 " style="fill:rgb(122, 0, 0);stroke-width:none"/>
	<polygon points="0,319 144,226 0,261 " style="fill:rgb(118, 0, 0);stroke-width:none"/>
	<polygon points="0,319 0,496 132,425 " style="fill:rgb(111, 14, 101);stroke-width:none"/>
	<polygon points="182,338 276,445 232,269 " style="fill:rgb(126, 0, 0);stroke-width:none"/>
	<polygon points="144,226 182,338 232,269 " style="fill:rgb(123, 0, 0);stroke-width:none"/>
	<polygon points="182,338 0,319 132,425 " style="fill:rgb(114, 0, 0);stroke-width:none"/>
	<polygon points="0,319 182,338 144,226 " style="fill:rgb(117, 0, 0);stroke-width:none"/>
	<polygon points="276,445 556,168 232,269 " style="fill:rgb(135, 0, 0);stroke-width:none"/>
	<polygon points="807,58 556,168 722,311 " style="fill:rgb(142, 0, 0);stroke-width:none"/>
	<polygon points="556,168 807,58 0,0 " style="fill:rgb(125, 0, 0);stroke-width:none"/>
	<polygon points="144,226 556,168 0,0 " style="fill:rgb(124, 0, 0);stroke-width:none"/>
	<polygon points="556,168 144,226 232,269 " style="fill:rgb(129, 0, 0);stroke-width:none"/>
	<polygon points="129,530 164,481 132,425 " style="fill:rgb(111, 157, 238);stroke-width:none"/>
	<polygon points="0,496 56,588 129,530 " style="fill:rgb(101, 255, 255);stroke-width:none"/>
	<polygon points="1939,1250 1805,1256 2091,1297 " style="fill:rgb(0, 0, 158);stroke-width:none"/>
	<polygon points="1805,1256 977,1295 2091,1297 " style="fill:rgb(139, 100, 144);stroke-width:none"/>
	<polygon points="1805,1256 1479,1232 977,1295 " style="fill:rgb(202, 182, 132);stroke-width:none"/>
	<polygon points="2135,1018 1939,1250 2091,1297 " style="fill:rgb(0, 0, 162);stroke-width:none"/>
	<polygon points="2259,1166 2135,1018 2091,1297 " style="fill:rgb(0, 0, 165);stroke-width:none"/>
	<polygon points="2135,1018 2284,1081 2218,1006 " style="fill:rgb(0, 0, 165);stroke-width:none"/>
	<polygon points="2284,1081 2135,1018 2259,1166 " style="fill:rgb(0, 0, 165);stroke-width:none"/>
	<polygon points="1550,893 1677,1002 1657,781 " style="fill:rgb(187, 146, 119);stroke-width:none"/>
	<polygon points="1476,854 1550,893 1657,781 " style="fill:rgb(215, 178, 110);stroke-width:none"/>
	<polygon points="366,1284 84,1297 977,1295 " style="fill:rgb(183, 70, 52);stroke-width:none"/>
	<polygon points="366,961 304,734 259,821 " style="fill:rgb(132, 255, 255);stroke-width:none"/>
	<polygon points="1138,1259 1050,935 977,1295 " style="fill:rgb(255, 234, 106);stroke-width:none"/>
	<polygon points="1050,935 920,957 977,1295 " style="fill:rgb(255, 230, 100);stroke-width:none"/>
	<polygon points="1218,1057 1050,935 1138,1259 " style="fill:rgb(250, 233, 112);stroke-width:none"/>
	<polygon points="617,635 703,752 808,684 " style="fill:rgb(205, 255, 223);stroke-width:none"/>
	<polygon points="703,752 617,635 592,808 " style="fill:rgb(199, 255, 247);stroke-width:none"/>
	<polygon points="2284,705 2368,776 2512,586 " style="fill:rgb(170, 146, 143);stroke-width:none"/>
	<polygon points="2507,894 2368,776 2218,1006 " style="fill:rgb(4, 0, 155);stroke-width:none"/>
	<polygon points="2512,1079 2486,1183 2512,1297 " style="fill:rgb(0, 0, 165);stroke-width:none"/>
	<polygon points="2486,1183 2512,1079 2284,1081 " style="fill:rgb(0, 0, 165);stroke-width:none"/>
	<polygon points="2512,1079 2507,894 2284,1081 " style="fill:rgb(0, 0, 165);stroke-width:none"/>
	<polygon points="2189,267 2075,368 2298,390 " style="fill:rgb(254, 255, 134);stroke-width:none"/>
	<polygon points="2408,231 2189,267 2298,390 " style="fill:rgb(246, 248, 134);stroke-width:none"/>
	<polygon points="2260,527 2406,471 2298,390 " style="fill:rgb(253, 255, 135);stroke-width:none"/>
	<polygon points="2406,471 2284,705 2512,586 " style="fill:rgb(220, 216, 139);stroke-width:none"/>
	<polygon points="2406,471 2260,527 2284,705 " style="fill:rgb(228, 226, 138);stroke-width:none"/>
	<polygon points="1888,125 1783,48 1869,228 " style="fill:rgb(171, 134, 131);stroke-width:none"/>
	<polygon points="1888,125 1986,254 1943,86 " style="fill:rgb(184, 157, 135);stroke-width:none"/>
	<polygon points="144,226 0,242 0,261 " style="fill:rgb(119, 0, 0);stroke-width:none"/>
	<polygon points="0,41 0,242 144,226 " style="fill:rgb(121, 0, 0);stroke-width:none"/>
	<polygon points="169,391 182,338 132,425 " style="fill:rgb(118, 0, 22);stroke-width:none"/>
	<polygon points="182,338 169,391 276,445 " style="fill:rgb(123, 0, 39);stroke-width:none"/>
	<polygon points="164,481 169,391 132,425 " style="fill:rgb(115, 62, 140);stroke-width:none"/>
	<polygon points="169,391 164,481 276,445 " style="fill:rgb(121, 78, 148);stroke-width:none"/>
	<polygon points="556,168 708,350 722,311 " style="fill:rgb(153, 0, 0);stroke-width:none"/>
	<polygon points="708,350 556,168 276,445 " style="fill:rgb(148, 0, 0);stroke-width:none"/>
	<polygon points="708,350 750,345 722,311 " style="fill:rgb(165, 0, 0);stroke-width:none"/>
	<polygon points="708,350 276,445 306,540 " style="fill:rgb(148, 93, 123);stroke-width:none"/>
	<polygon points="617,635 708,350 306,540 " style="fill:rgb(166, 177, 179);stroke-width:none"/>
	<polygon points="304,734 189,707 259,821 " style="fill:rgb(118, 255, 255);stroke-width:none"/>
	<polygon points="56,588 189,707 129,530 " style="fill:rgb(98, 255, 255);stroke-width:none"/>
	<polygon points="1265,1160 1218,1057 1138,1259 " style="fill:rgb(242, 227, 118);stroke-width:none"/>
	<polygon points="1265,1160 1479,1232 1455,1192 " style="fill:rgb(207, 188, 131);stroke-width:none"/>
	<polygon points="1265,1160 1138,1259 1479,1232 " style="fill:rgb(229, 213, 124);stroke-width:none"/>
	<polygon points="1492,994 1550,893 1476,854 " style="fill:rgb(208, 178, 121);stroke-width:none"/>
	<polygon points="1265,1160 1492,994 1218,1057 " style="fill:rgb(223, 207, 126);stroke-width:none"/>
	<polygon points="1550,893 1492,994 1677,1002 " style="fill:rgb(177, 143, 130);stroke-width:none"/>
	<polygon points="1203,998 1050,935 1218,1057 " style="fill:rgb(249, 236, 118);stroke-width:none"/>
	<polygon points="1492,994 1203,998 1218,1057 " style="fill:rgb(227, 211, 125);stroke-width:none"/>
	<polygon points="1805,1256 1715,1217 1479,1232 " style="fill:rgb(123, 78, 146);stroke-width:none"/>
	<polygon points="1715,1217 1805,1256 1728,1192 " style="fill:rgb(88, 31, 150);stroke-width:none"/>
	<polygon points="1780,781 2050,796 2066,583 " style="fill:rgb(188, 143, 115);stroke-width:none"/>
	<polygon points="2050,796 1780,781 1972,946 " style="fill:rgb(130, 68, 125);stroke-width:none"/>
	<polygon points="1677,1002 1780,781 1657,781 " style="fill:rgb(183, 135, 114);stroke-width:none"/>
	<polygon points="2114,749 2223,685 2066,583 " style="fill:rgb(184, 161, 137);stroke-width:none"/>
	<polygon points="2050,796 2114,749 2066,583 " style="fill:rgb(174, 137, 130);stroke-width:none"/>
	<polygon points="1820,1094 1677,1002 1728,1192 " style="fill:rgb(91, 36, 150);stroke-width:none"/>
	<polygon points="1805,1256 1820,1094 1728,1192 " style="fill:rgb(72, 10, 151);stroke-width:none"/>
	<polygon points="1820,1094 1805,1256 1939,1250 " style="fill:rgb(39, 0, 154);stroke-width:none"/>
	<polygon points="1897,998 1820,1094 1939,1250 " style="fill:rgb(23, 0, 156);stroke-width:none"/>
	<polygon points="1973,981 1897,998 1939,1250 " style="fill:rgb(0, 0, 158);stroke-width:none"/>
	<polygon points="2135,1018 1973,981 1939,1250 " style="fill:rgb(0, 0, 160);stroke-width:none"/>
	<polygon points="1897,998 1973,981 1972,946 " style="fill:rgb(27, 0, 149);stroke-width:none"/>
	<polygon points="1973,981 2135,1018 1972,946 " style="fill:rgb(0, 0, 155);stroke-width:none"/>
	<polygon points="1231,120 1106,317 1244,354 " style="fill:rgb(183, 14, 0);stroke-width:none"/>
	<polygon points="1047,677 1033,560 808,684 " style="fill:rgb(227, 237, 150);stroke-width:none"/>
	<polygon points="617,635 451,668 592,808 " style="fill:rgb(183, 255, 255);stroke-width:none"/>
	<polygon points="366,961 451,668 304,734 " style="fill:rgb(149, 255, 255);stroke-width:none"/>
	<polygon points="451,668 617,635 306,540 " style="fill:rgb(161, 255, 255);stroke-width:none"/>
	<polygon points="304,734 451,668 306,540 " style="fill:rgb(144, 255, 255);stroke-width:none"/>
	<polygon points="838,248 807,58 722,311 " style="fill:rgb(150, 0, 0);stroke-width:none"/>
	<polygon points="750,345 838,248 722,311 " style="fill:rgb(163, 0, 0);stroke-width:none"/>
	<polygon points="1042,339 838,248 909,421 " style="fill:rgb(180, 7, 0);stroke-width:none"/>
	<polygon points="838,248 750,345 909,421 " style="fill:rgb(173, 0, 0);stroke-width:none"/>
	<polygon points="351,1234 366,1284 475,1202 " style="fill:rgb(158, 25, 43);stroke-width:none"/>
	<polygon points="118,897 0,877 0,1192 " style="fill:rgb(41, 0, 85);stroke-width:none"/>
	<polygon points="118,897 366,961 259,821 " style="fill:rgb(110, 178, 255);stroke-width:none"/>
	<polygon points="451,668 483,969 592,808 " style="fill:rgb(182, 255, 255);stroke-width:none"/>
	<polygon points="483,969 451,668 366,961 " style="fill:rgb(166, 248, 248);stroke-width:none"/>
	<polygon points="920,957 691,1182 977,1295 " style="fill:rgb(252, 213, 90);stroke-width:none"/>
	<polygon points="691,1182 366,1284 977,1295 " style="fill:rgb(230, 161, 72);stroke-width:none"/>
	<polygon points="366,1284 691,1182 475,1202 " style="fill:rgb(192, 88, 55);stroke-width:none"/>
	<polygon points="2370,99 2389,0 2376,0 " style="fill:rgb(116, 59, 137);stroke-width:none"/>
	<polygon points="2389,0 2370,99 2512,60 " style="fill:rgb(131, 81, 137);stroke-width:none"/>
	<polygon points="2512,398 2406,471 2512,586 " style="fill:rgb(250, 255, 136);stroke-width:none"/>
	<polygon points="1888,125 1905,45 1783,48 " style="fill:rgb(140, 103, 144);stroke-width:none"/>
	<polygon points="1905,45 1888,125 1943,86 " style="fill:rgb(148, 116, 146);stroke-width:none"/>
	<polygon points="1905,45 1943,86 2128,34 " style="fill:rgb(131, 98, 153);stroke-width:none"/>
	<polygon points="2188,0 1905,45 2128,34 " style="fill:rgb(111, 68, 152);stroke-width:none"/>
	<polygon points="1483,0 1905,45 2188,0 " style="fill:rgb(112, 72, 156);stroke-width:none"/>
	<polygon points="1905,45 1483,0 1783,48 " style="fill:rgb(117, 56, 132);stroke-width:none"/>
	<polygon points="1710,486 1949,309 1869,228 " style="fill:rgb(238, 203, 101);stroke-width:none"/>
	<polygon points="1986,254 1949,309 2075,368 " style="fill:rgb(240, 226, 120);stroke-width:none"/>
	<polygon points="2075,368 1949,309 2066,583 " style="fill:rgb(254, 243, 117);stroke-width:none"/>
	<polygon points="1949,309 1710,486 2066,583 " style="fill:rgb(251, 222, 101);stroke-width:none"/>
	<polygon points="2189,267 2103,272 2075,368 " style="fill:rgb(245, 244, 131);stroke-width:none"/>
	<polygon points="2103,272 1986,254 2075,368 " style="fill:rgb(240, 232, 126);stroke-width:none"/>
	<polygon points="1231,120 1283,121 1281,0 " style="fill:rgb(135, 0, 0);stroke-width:none"/>
	<polygon points="1283,121 1357,95 1281,0 " style="fill:rgb(133, 0, 0);stroke-width:none"/>
	<polygon points="1283,121 1231,120 1244,354 " style="fill:rgb(170, 0, 0);stroke-width:none"/>
	<polygon points="1357,95 1391,0 1281,0 " style="fill:rgb(119, 0, 0);stroke-width:none"/>
	<polygon points="1391,0 1357,95 1436,104 " style="fill:rgb(132, 0, 10);stroke-width:none"/>
	<polygon points="1357,95 1486,249 1436,104 " style="fill:rgb(162, 21, 34);stroke-width:none"/>
	<polygon points="1486,249 1496,206 1436,104 " style="fill:rgb(176, 60, 51);stroke-width:none"/>
	<polygon points="1483,0 1655,106 1783,48 " style="fill:rgb(127, 45, 107);stroke-width:none"/>
	<polygon points="1783,48 1655,106 1869,228 " style="fill:rgb(166, 117, 122);stroke-width:none"/>
	<polygon points="1486,249 1655,106 1496,206 " style="fill:rgb(180, 84, 69);stroke-width:none"/>
	<polygon points="1655,106 1710,486 1869,228 " style="fill:rgb(217, 168, 97);stroke-width:none"/>
	<polygon points="1655,106 1486,249 1710,486 " style="fill:rgb(212, 141, 79);stroke-width:none"/>
	<polygon points="708,350 855,486 750,345 " style="fill:rgb(177, 46, 37);stroke-width:none"/>
	<polygon points="750,345 855,486 909,421 " style="fill:rgb(186, 82, 58);stroke-width:none"/>
	<polygon points="855,486 617,635 808,684 " style="fill:rgb(202, 238, 186);stroke-width:none"/>
	<polygon points="855,486 708,350 617,635 " style="fill:rgb(185, 152, 128);stroke-width:none"/>
	<polygon points="1033,560 855,486 808,684 " style="fill:rgb(213, 212, 145);stroke-width:none"/>
	<polygon points="855,486 1033,560 909,421 " style="fill:rgb(204, 151, 99);stroke-width:none"/>
	<polygon points="56,588 0,578 0,632 " style="fill:rgb(95, 255, 255);stroke-width:none"/>
	<polygon points="0,562 0,578 56,588 " style="fill:rgb(98, 255, 255);stroke-width:none"/>
	<polygon points="0,551 56,588 0,496 " style="fill:rgb(100, 255, 255);stroke-width:none"/>
	<polygon points="0,551 0,562 56,588 " style="fill:rgb(98, 255, 255);stroke-width:none"/>
	<polygon points="189,707 223,553 129,530 " style="fill:rgb(111, 255, 255);stroke-width:none"/>
	<polygon points="223,553 164,481 129,530 " style="fill:rgb(113, 225, 255);stroke-width:none"/>
	<polygon points="223,553 304,734 306,540 " style="fill:rgb(129, 255, 255);stroke-width:none"/>
	<polygon points="223,553 189,707 304,734 " style="fill:rgb(119, 255, 255);stroke-width:none"/>
	<polygon points="276,445 223,553 306,540 " style="fill:rgb(129, 204, 255);stroke-width:none"/>
	<polygon points="164,481 223,553 276,445 " style="fill:rgb(122, 177, 243);stroke-width:none"/>
	<polygon points="1498,1099 1265,1160 1455,1192 " style="fill:rgb(205, 186, 131);stroke-width:none"/>
	<polygon points="1498,1099 1492,994 1265,1160 " style="fill:rgb(202, 182, 132);stroke-width:none"/>
	<polygon points="1088,894 1203,998 1100,882 " style="fill:rgb(252, 251, 127);stroke-width:none"/>
	<polygon points="1203,998 1088,894 1050,935 " style="fill:rgb(252, 250, 126);stroke-width:none"/>
	<polygon points="1084,872 1088,894 1100,882 " style="fill:rgb(252, 255, 135);stroke-width:none"/>
	<polygon points="1088,894 1084,872 1050,935 " style="fill:rgb(252, 255, 134);stroke-width:none"/>
	<polygon points="1780,781 1712,704 1657,781 " style="fill:rgb(214, 166, 100);stroke-width:none"/>
	<polygon points="1712,704 1569,597 1657,781 " style="fill:rgb(234, 187, 91);stroke-width:none"/>
	<polygon points="1712,704 1780,781 2066,583 " style="fill:rgb(216, 170, 101);stroke-width:none"/>
	<polygon points="2145,877 2114,749 2050,796 " style="fill:rgb(102, 43, 141);stroke-width:none"/>
	<polygon points="2145,877 2135,1018 2218,1006 " style="fill:rgb(0, 0, 161);stroke-width:none"/>
	<polygon points="2145,877 2050,796 1972,946 " style="fill:rgb(65, 0, 142);stroke-width:none"/>
	<polygon points="2135,1018 2145,877 1972,946 " style="fill:rgb(0, 0, 153);stroke-width:none"/>
	<polygon points="2368,776 2145,877 2218,1006 " style="fill:rgb(10, 0, 154);stroke-width:none"/>
	<polygon points="1820,1094 1804,980 1677,1002 " style="fill:rgb(80, 20, 151);stroke-width:none"/>
	<polygon points="1804,980 1820,1094 1897,998 " style="fill:rgb(46, 0, 154);stroke-width:none"/>
	<polygon points="1804,980 1780,781 1677,1002 " style="fill:rgb(140, 87, 128);stroke-width:none"/>
	<polygon points="1804,980 1897,998 1972,946 " style="fill:rgb(54, 0, 146);stroke-width:none"/>
	<polygon points="1780,781 1804,980 1972,946 " style="fill:rgb(119, 56, 130);stroke-width:none"/>
	<polygon points="1074,417 1042,339 909,421 " style="fill:rgb(196, 78, 41);stroke-width:none"/>
	<polygon points="1033,560 1074,417 909,421 " style="fill:rgb(207, 137, 81);stroke-width:none"/>
	<polygon points="1074,417 1106,317 1042,339 " style="fill:rgb(194, 59, 25);stroke-width:none"/>
	<polygon points="1106,317 1074,417 1244,354 " style="fill:rgb(200, 76, 33);stroke-width:none"/>
	<polygon points="1271,864 1492,994 1476,854 " style="fill:rgb(226, 204, 120);stroke-width:none"/>
	<polygon points="1271,864 1203,998 1492,994 " style="fill:rgb(233, 219, 124);stroke-width:none"/>
	<polygon points="1461,639 1569,597 1563,490 " style="fill:rgb(246, 193, 80);stroke-width:none"/>
	<polygon points="1106,317 975,0 1042,339 " style="fill:rgb(164, 0, 0);stroke-width:none"/>
	<polygon points="975,0 838,248 1042,339 " style="fill:rgb(156, 0, 0);stroke-width:none"/>
	<polygon points="838,248 975,0 807,58 " style="fill:rgb(134, 0, 0);stroke-width:none"/>
	<polygon points="975,0 1106,317 1231,120 " style="fill:rgb(150, 0, 0);stroke-width:none"/>
	<polygon points="975,0 1231,120 1281,0 " style="fill:rgb(122, 0, 0);stroke-width:none"/>
	<polygon points="807,58 975,0 0,0 " style="fill:rgb(120, 0, 0);stroke-width:none"/>
	<polygon points="294,1177 118,897 0,1192 " style="fill:rgb(51, 0, 12);stroke-width:none"/>
	<polygon points="294,1177 0,1192 84,1297 " style="fill:rgb(46, 0, 11);stroke-width:none"/>
	<polygon points="118,897 294,1177 366,961 " style="fill:rgb(107, 0, 38);stroke-width:none"/>
	<polygon points="366,1284 294,1177 84,1297 " style="fill:rgb(102, 0, 26);stroke-width:none"/>
	<polygon points="351,1234 294,1177 366,1284 " style="fill:rgb(137, 0, 36);stroke-width:none"/>
	<polygon points="1084,872 1112,783 1047,677 " style="fill:rgb(247, 255, 141);stroke-width:none"/>
	<polygon points="1112,783 1084,872 1100,882 " style="fill:rgb(251, 255, 137);stroke-width:none"/>
	<polygon points="815,936 691,1182 920,957 " style="fill:rgb(248, 201, 85);stroke-width:none"/>
	<polygon points="691,1182 815,936 650,1084 " style="fill:rgb(236, 175, 76);stroke-width:none"/>
	<polygon points="815,936 747,942 650,1084 " style="fill:rgb(237, 205, 105);stroke-width:none"/>
	<polygon points="686,875 703,752 592,808 " style="fill:rgb(210, 255, 224);stroke-width:none"/>
	<polygon points="686,875 815,936 703,752 " style="fill:rgb(225, 255, 191);stroke-width:none"/>
	<polygon points="815,936 686,875 747,942 " style="fill:rgb(233, 251, 155);stroke-width:none"/>
	<polygon points="2368,776 2512,800 2512,586 " style="fill:rgb(150, 118, 144);stroke-width:none"/>
	<polygon points="2512,800 2368,776 2507,894 " style="fill:rgb(70, 5, 150);stroke-width:none"/>
	<polygon points="2512,886 2512,800 2507,894 " style="fill:rgb(36, 0, 153);stroke-width:none"/>
	<polygon points="2512,1079 2512,896 2507,894 " style="fill:rgb(0, 0, 160);stroke-width:none"/>
	<polygon points="2512,896 2512,886 2507,894 " style="fill:rgb(4, 0, 155);stroke-width:none"/>
	<polygon points="2512,31 2389,0 2512,60 " style="fill:rgb(114, 56, 137);stroke-width:none"/>
	<polygon points="2226,0 2370,99 2376,0 " style="fill:rgb(116, 59, 137);stroke-width:none"/>
	<polygon points="2512,236 2512,198 2408,231 " style="fill:rgb(224, 216, 134);stroke-width:none"/>
	<polygon points="2370,99 2512,104 2512,60 " style="fill:rgb(154, 115, 136);stroke-width:none"/>
	<polygon points="2512,104 2370,99 2408,231 " style="fill:rgb(188, 164, 135);stroke-width:none"/>
	<polygon points="2512,198 2512,104 2408,231 " style="fill:rgb(205, 188, 134);stroke-width:none"/>
	<polygon points="2426,328 2408,231 2298,390 " style="fill:rgb(250, 254, 134);stroke-width:none"/>
	<polygon points="2406,471 2426,328 2298,390 " style="fill:rgb(255, 255, 134);stroke-width:none"/>
	<polygon points="2512,398 2426,328 2406,471 " style="fill:rgb(255, 255, 134);stroke-width:none"/>
	<polygon points="1949,309 1888,236 1869,228 " style="fill:rgb(221, 194, 116);stroke-width:none"/>
	<polygon points="1888,236 1949,309 1986,254 " style="fill:rgb(226, 203, 119);stroke-width:none"/>
	<polygon points="1888,236 1888,125 1869,228 " style="fill:rgb(199, 168, 123);stroke-width:none"/>
	<polygon points="1888,236 1986,254 1888,125 " style="fill:rgb(204, 178, 125);stroke-width:none"/>
	<polygon points="1710,486 1503,410 1563,490 " style="fill:rgb(242, 182, 75);stroke-width:none"/>
	<polygon points="1486,249 1503,410 1710,486 " style="fill:rgb(230, 161, 72);stroke-width:none"/>
	<polygon points="1496,206 1468,47 1436,104 " style="fill:rgb(152, 19, 45);stroke-width:none"/>
	<polygon points="1655,106 1468,47 1496,206 " style="fill:rgb(155, 47, 70);stroke-width:none"/>
	<polygon points="1468,47 1655,106 1483,0 " style="fill:rgb(126, 7, 71);stroke-width:none"/>
	<polygon points="1391,0 1468,47 1483,0 " style="fill:rgb(115, 0, 31);stroke-width:none"/>
	<polygon points="1468,47 1391,0 1436,104 " style="fill:rgb(126, 0, 25);stroke-width:none"/>
	<polygon points="0,699 56,588 0,632 " style="fill:rgb(91, 255, 255);stroke-width:none"/>
	<polygon points="0,699 189,707 56,588 " style="fill:rgb(88, 255, 255);stroke-width:none"/>
	<polygon points="0,761 94,869 189,707 " style="fill:rgb(74, 255, 255);stroke-width:none"/>
	<polygon points="189,707 94,869 259,821 " style="fill:rgb(95, 255, 255);stroke-width:none"/>
	<polygon points="94,869 118,897 259,821 " style="fill:rgb(80, 204, 255);stroke-width:none"/>
	<polygon points="1492,994 1512,1113 1677,1002 " style="fill:rgb(161, 129, 140);stroke-width:none"/>
	<polygon points="1498,1099 1512,1113 1492,994 " style="fill:rgb(180, 154, 137);stroke-width:none"/>
	<polygon points="1677,1002 1512,1113 1728,1192 " style="fill:rgb(133, 92, 145);stroke-width:none"/>
	<polygon points="1512,1113 1715,1217 1728,1192 " style="fill:rgb(128, 86, 145);stroke-width:none"/>
	<polygon points="1715,1217 1512,1113 1479,1232 " style="fill:rgb(158, 126, 141);stroke-width:none"/>
	<polygon points="1479,1232 1512,1113 1455,1192 " style="fill:rgb(185, 160, 136);stroke-width:none"/>
	<polygon points="1512,1113 1498,1099 1455,1192 " style="fill:rgb(183, 158, 136);stroke-width:none"/>
	<polygon points="1712,704 1680,570 1569,597 " style="fill:rgb(243, 193, 85);stroke-width:none"/>
	<polygon points="1680,570 1710,486 1563,490 " style="fill:rgb(246, 193, 79);stroke-width:none"/>
	<polygon points="1569,597 1680,570 1563,490 " style="fill:rgb(246, 193, 79);stroke-width:none"/>
	<polygon points="1710,486 1680,570 2066,583 " style="fill:rgb(246, 205, 91);stroke-width:none"/>
	<polygon points="1680,570 1712,704 2066,583 " style="fill:rgb(236, 192, 93);stroke-width:none"/>
	<polygon points="2114,749 2228,721 2223,685 " style="fill:rgb(152, 120, 144);stroke-width:none"/>
	<polygon points="2145,877 2228,721 2114,749 " style="fill:rgb(105, 54, 148);stroke-width:none"/>
	<polygon points="2223,685 2228,721 2284,705 " style="fill:rgb(161, 133, 144);stroke-width:none"/>
	<polygon points="2228,721 2368,776 2284,705 " style="fill:rgb(141, 104, 145);stroke-width:none"/>
	<polygon points="2228,721 2145,877 2368,776 " style="fill:rgb(97, 44, 148);stroke-width:none"/>
	<polygon points="1459,761 1461,639 1269,730 " style="fill:rgb(245, 212, 99);stroke-width:none"/>
	<polygon points="1459,761 1271,864 1476,854 " style="fill:rgb(238, 213, 112);stroke-width:none"/>
	<polygon points="1271,864 1459,761 1269,730 " style="fill:rgb(245, 225, 112);stroke-width:none"/>
	<polygon points="1459,761 1476,854 1657,781 " style="fill:rgb(228, 191, 104);stroke-width:none"/>
	<polygon points="1569,597 1459,761 1657,781 " style="fill:rgb(237, 194, 93);stroke-width:none"/>
	<polygon points="1461,639 1459,761 1569,597 " style="fill:rgb(244, 200, 89);stroke-width:none"/>
	<polygon points="1119,509 1074,417 1033,560 " style="fill:rgb(217, 158, 88);stroke-width:none"/>
	<polygon points="1099,576 1033,560 1047,677 " style="fill:rgb(230, 214, 123);stroke-width:none"/>
	<polygon points="1099,576 1119,509 1033,560 " style="fill:rgb(225, 187, 105);stroke-width:none"/>
	<polygon points="1119,509 1099,576 1115,563 " style="fill:rgb(227, 187, 102);stroke-width:none"/>
	<polygon points="335,1175 294,1177 351,1234 " style="fill:rgb(133, 0, 35);stroke-width:none"/>
	<polygon points="294,1177 335,1175 366,961 " style="fill:rgb(135, 0, 35);stroke-width:none"/>
	<polygon points="1253,864 1271,864 1269,730 " style="fill:rgb(247, 237, 120);stroke-width:none"/>
	<polygon points="1112,783 1253,864 1269,730 " style="fill:rgb(249, 243, 124);stroke-width:none"/>
	<polygon points="1253,864 1112,783 1100,882 " style="fill:rgb(250, 253, 131);stroke-width:none"/>
	<polygon points="1203,998 1253,864 1100,882 " style="fill:rgb(249, 246, 126);stroke-width:none"/>
	<polygon points="1271,864 1253,864 1203,998 " style="fill:rgb(245, 238, 124);stroke-width:none"/>
	<polygon points="438,1158 351,1234 475,1202 " style="fill:rgb(166, 39, 46);stroke-width:none"/>
	<polygon points="438,1158 335,1175 351,1234 " style="fill:rgb(150, 10, 40);stroke-width:none"/>
	<polygon points="335,1175 438,1158 366,961 " style="fill:rgb(152, 14, 41);stroke-width:none"/>
	<polygon points="585,1168 691,1182 650,1084 " style="fill:rgb(223, 148, 69);stroke-width:none"/>
	<polygon points="561,1100 585,1168 650,1084 " style="fill:rgb(214, 130, 65);stroke-width:none"/>
	<polygon points="691,1182 585,1168 475,1202 " style="fill:rgb(211, 123, 63);stroke-width:none"/>
	<polygon points="585,1168 561,1100 475,1202 " style="fill:rgb(200, 103, 58);stroke-width:none"/>
	<polygon points="872,904 815,936 920,957 " style="fill:rgb(247, 254, 138);stroke-width:none"/>
	<polygon points="872,904 1047,677 808,684 " style="fill:rgb(235, 255, 174);stroke-width:none"/>
	<polygon points="703,752 872,904 808,684 " style="fill:rgb(225, 255, 198);stroke-width:none"/>
	<polygon points="815,936 872,904 703,752 " style="fill:rgb(234, 255, 176);stroke-width:none"/>
	<polygon points="872,904 1084,872 1047,677 " style="fill:rgb(246, 255, 153);stroke-width:none"/>
	<polygon points="1050,935 872,904 920,957 " style="fill:rgb(252, 255, 134);stroke-width:none"/>
	<polygon points="1084,872 872,904 1050,935 " style="fill:rgb(252, 255, 139);stroke-width:none"/>
	<polygon points="495,1003 438,1158 561,1100 " style="fill:rgb(189, 82, 54);stroke-width:none"/>
	<polygon points="495,1003 483,969 366,961 " style="fill:rgb(174, 118, 111);stroke-width:none"/>
	<polygon points="438,1158 495,1003 366,961 " style="fill:rgb(170, 46, 47);stroke-width:none"/>
	<polygon points="747,942 575,1011 650,1084 " style="fill:rgb(226, 158, 75);stroke-width:none"/>
	<polygon points="686,875 575,1011 747,942 " style="fill:rgb(222, 224, 144);stroke-width:none"/>
	<polygon points="575,1011 561,1100 650,1084 " style="fill:rgb(213, 128, 64);stroke-width:none"/>
	<polygon points="575,1011 495,1003 561,1100 " style="fill:rgb(201, 105, 59);stroke-width:none"/>
	<polygon points="495,1003 575,1011 483,969 " style="fill:rgb(193, 124, 88);stroke-width:none"/>
	<polygon points="483,969 575,1011 592,808 " style="fill:rgb(198, 210, 166);stroke-width:none"/>
	<polygon points="575,1011 686,875 592,808 " style="fill:rgb(209, 248, 186);stroke-width:none"/>
	<polygon points="2226,0 2279,154 2370,99 " style="fill:rgb(152, 112, 136);stroke-width:none"/>
	<polygon points="2279,154 2189,267 2408,231 " style="fill:rgb(222, 213, 134);stroke-width:none"/>
	<polygon points="2370,99 2279,154 2408,231 " style="fill:rgb(197, 177, 134);stroke-width:none"/>
	<polygon points="2426,328 2512,362 2512,318 " style="fill:rgb(253, 255, 134);stroke-width:none"/>
	<polygon points="2512,291 2512,236 2408,231 " style="fill:rgb(234, 231, 134);stroke-width:none"/>
	<polygon points="2426,328 2512,291 2408,231 " style="fill:rgb(243, 244, 134);stroke-width:none"/>
	<polygon points="1419,312 1503,410 1486,249 " style="fill:rgb(213, 123, 59);stroke-width:none"/>
	<polygon points="1419,312 1283,121 1244,354 " style="fill:rgb(190, 52, 24);stroke-width:none"/>
	<polygon points="1283,121 1419,312 1357,95 " style="fill:rgb(168, 9, 14);stroke-width:none"/>
	<polygon points="1419,312 1486,249 1357,95 " style="fill:rgb(184, 60, 41);stroke-width:none"/>
	<polygon points="1074,417 1230,466 1244,354 " style="fill:rgb(212, 116, 55);stroke-width:none"/>
	<polygon points="1119,509 1230,466 1074,417 " style="fill:rgb(217, 143, 73);stroke-width:none"/>
	<polygon points="1368,473 1461,639 1563,490 " style="fill:rgb(243, 185, 77);stroke-width:none"/>
	<polygon points="0,733 0,761 189,707 " style="fill:rgb(80, 255, 255);stroke-width:none"/>
	<polygon points="94,869 0,813 0,877 " style="fill:rgb(63, 208, 255);stroke-width:none"/>
	<polygon points="0,813 94,869 0,761 " style="fill:rgb(69, 255, 255);stroke-width:none"/>
	<polygon points="118,897 107,889 0,877 " style="fill:rgb(58, 144, 255);stroke-width:none"/>
	<polygon points="107,889 94,869 0,877 " style="fill:rgb(60, 164, 255);stroke-width:none"/>
	<polygon points="94,869 107,889 118,897 " style="fill:rgb(59, 150, 255);stroke-width:none"/>
	<polygon points="561,1100 452,1165 475,1202 " style="fill:rgb(188, 81, 54);stroke-width:none"/>
	<polygon points="452,1165 438,1158 475,1202 " style="fill:rgb(176, 58, 49);stroke-width:none"/>
	<polygon points="438,1158 452,1165 561,1100 " style="fill:rgb(185, 74, 52);stroke-width:none"/>
	<polygon points="2389,0 2512,2 2512,0 " style="fill:rgb(109, 49, 137);stroke-width:none"/>
	<polygon points="2512,10 2512,2 2389,0 " style="fill:rgb(109, 49, 137);stroke-width:none"/>
	<polygon points="2512,31 2512,21 2389,0 " style="fill:rgb(109, 49, 137);stroke-width:none"/>
	<polygon points="2512,21 2512,10 2389,0 " style="fill:rgb(109, 49, 137);stroke-width:none"/>
	<polygon points="2279,154 2139,202 2189,267 " style="fill:rgb(218, 208, 134);stroke-width:none"/>
	<polygon points="2139,202 2103,272 2189,267 " style="fill:rgb(231, 226, 133);stroke-width:none"/>
	<polygon points="2103,272 2139,202 1986,254 " style="fill:rgb(226, 216, 131);stroke-width:none"/>
	<polygon points="1943,86 2139,202 2128,34 " style="fill:rgb(164, 136, 143);stroke-width:none"/>
	<polygon points="1986,254 2139,202 1943,86 " style="fill:rgb(199, 180, 134);stroke-width:none"/>
	<polygon points="2179,101 2226,0 2188,0 " style="fill:rgb(116, 59, 137);stroke-width:none"/>
	<polygon points="2179,101 2279,154 2226,0 " style="fill:rgb(152, 112, 136);stroke-width:none"/>
	<polygon points="2179,101 2188,0 2128,34 " style="fill:rgb(124, 71, 137);stroke-width:none"/>
	<polygon points="2139,202 2179,101 2128,34 " style="fill:rgb(169, 138, 136);stroke-width:none"/>
	<polygon points="2179,101 2139,202 2279,154 " style="fill:rgb(192, 170, 135);stroke-width:none"/>
	<polygon points="2512,378 2426,328 2512,398 " style="fill:rgb(255, 255, 134);stroke-width:none"/>
	<polygon points="2512,378 2512,362 2426,328 " style="fill:rgb(255, 255, 134);stroke-width:none"/>
	<polygon points="2512,291 2506,305 2512,318 " style="fill:rgb(248, 251, 134);stroke-width:none"/>
	<polygon points="2506,305 2426,328 2512,318 " style="fill:rgb(250, 254, 134);stroke-width:none"/>
	<polygon points="2506,305 2512,291 2426,328 " style="fill:rgb(248, 252, 134);stroke-width:none"/>
	<polygon points="1194,573 1119,509 1115,563 " style="fill:rgb(229, 186, 98);stroke-width:none"/>
	<polygon points="1194,573 1230,466 1119,509 " style="fill:rgb(227, 172, 86);stroke-width:none"/>
	<polygon points="1099,576 1194,573 1115,563 " style="fill:rgb(231, 196, 105);stroke-width:none"/>
	<polygon points="1194,573 1368,473 1230,466 " style="fill:rgb(231, 169, 78);stroke-width:none"/>
	<polygon points="1194,573 1099,576 1047,677 " style="fill:rgb(234, 213, 116);stroke-width:none"/>
	<polygon points="1461,639 1194,573 1269,730 " style="fill:rgb(245, 211, 99);stroke-width:none"/>
	<polygon points="1368,473 1194,573 1461,639 " style="fill:rgb(240, 190, 84);stroke-width:none"/>
	<polygon points="1112,783 1194,573 1047,677 " style="fill:rgb(241, 235, 128);stroke-width:none"/>
	<polygon points="1194,573 1112,783 1269,730 " style="fill:rgb(245, 232, 119);stroke-width:none"/>
	<polygon points="1503,410 1501,420 1563,490 " style="fill:rgb(236, 169, 71);stroke-width:none"/>
	<polygon points="1501,420 1368,473 1563,490 " style="fill:rgb(236, 169, 70);stroke-width:none"/>
	<polygon points="0,699 0,720 189,707 " style="fill:rgb(83, 255, 255);stroke-width:none"/>
	<polygon points="0,720 0,733 189,707 " style="fill:rgb(82, 255, 255);stroke-width:none"/>
	<polygon points="1501,420 1362,437 1368,473 " style="fill:rgb(231, 157, 67);stroke-width:none"/>
	<polygon points="1362,437 1419,312 1244,354 " style="fill:rgb(214, 117, 51);stroke-width:none"/>
	<polygon points="1419,312 1362,437 1503,410 " style="fill:rgb(223, 139, 61);stroke-width:none"/>
	<polygon points="1362,437 1501,420 1503,410 " style="fill:rgb(230, 156, 66);stroke-width:none"/>
	<polygon points="1230,466 1362,437 1244,354 " style="fill:rgb(219, 132, 59);stroke-width:none"/>
	<polygon points="1368,473 1362,437 1230,466 " style="fill:rgb(228, 154, 68);stroke-width:none"/>
</svg>