<?xml version="1.0" encoding="utf-8"?>
<svg version="1.1" id="Layer_1" xmlns="http://www.w3.org/2000/svg" xmlns:xlink="http://www.w3.org/1999/xlink" height="1297" width="2512">
	<polygon points="2364,1176 2328,1226 2512,1297 " style="fill:rgb(0, 255, 0);stroke-width:none"/>
	<polygon points="2512,1096 2364,1176 2512,1297 " style="fill:rgb(0, 255, 0);stroke-width:none"/>
	<polygon points="2396,650 2512,1096 2512,0 " style="fill:rgb(252, 0, 255);stroke-width:none"/>
	<polygon points="1501,36 1520,0 1325,0 " style="fill:rgb(213, 98, 231);stroke-width:none"/>
	<polygon points="0,521 104,274 0,0 " style="fill:rgb(227, 43, 196);stroke-width:none"/>
	<polygon points="228,310 104,274 0,521 " style="fill:rgb(225, 70, 193);stroke-width:none"/>
	<polygon points="0,521 63,785 318,619 " style="fill:rgb(208, 255, 154);stroke-width:none"/>
	<polygon points="2216,1297 1920,1278 882,1297 " style="fill:rgb(166, 255, 0);stroke-width:none"/>
	<polygon points="2328,1226 2216,1297 2260,1297 " style="fill:rgb(0, 255, 0);stroke-width:none"/>
	<polygon points="1920,1278 1423,1246 882,1297 " style="fill:rgb(255, 0, 142);stroke-width:none"/>
	<polygon points="1423,1246 1920,1278 1603,1204 " style="fill:rgb(183, 255, 0);stroke-width:none"/>
	<polygon points="341,1297 716,1297 436,1171 " style="fill:rgb(96, 255, 0);stroke-width:none"/>
	<polygon points="2264,1297 2328,1226 2260,1297 " style="fill:rgb(0, 255, 0);stroke-width:none"/>
	<polygon points="2328,1226 2264,1297 2512,1297 " style="fill:rgb(0, 255, 0);stroke-width:none"/>
	<polygon points="1792,374 1968,104 1684,319 " style="fill:rgb(200, 198, 249);stroke-width:none"/>
	<polygon points="2361,446 2396,650 2512,0 " style="fill:rgb(225, 0, 255);stroke-width:none"/>
	<polygon points="2146,558 2361,446 2290,338 " style="fill:rgb(247, 0, 255);stroke-width:none"/>
	<polygon points="2355,131 2361,446 2512,0 " style="fill:rgb(177, 255, 255);stroke-width:none"/>
	<polygon points="1333,71 1501,36 1325,0 " style="fill:rgb(215, 85, 228);stroke-width:none"/>
	<polygon points="1333,71 1369,201 1501,36 " style="fill:rgb(214, 88, 228);stroke-width:none"/>
	<polygon points="406,185 230,0 228,310 " style="fill:rgb(227, 43, 196);stroke-width:none"/>
	<polygon points="104,274 126,21 0,0 " style="fill:rgb(227, 43, 196);stroke-width:none"/>
	<polygon points="126,21 104,274 228,310 " style="fill:rgb(227, 43, 196);stroke-width:none"/>
	<polygon points="230,0 126,21 228,310 " style="fill:rgb(227, 43, 196);stroke-width:none"/>
	<polygon points="2,1225 160,1097 114,885 " style="fill:rgb(141, 255, 6);stroke-width:none"/>
	<polygon points="63,785 2,1225 114,885 " style="fill:rgb(162, 255, 52);stroke-width:none"/>
	<polygon points="2,1225 144,1264 160,1097 " style="fill:rgb(112, 255, 0);stroke-width:none"/>
	<polygon points="2,1225 63,785 0,521 " style="fill:rgb(182, 255, 97);stroke-width:none"/>
	<polygon points="394,898 195,1044 436,1171 " style="fill:rgb(147, 255, 20);stroke-width:none"/>
	<polygon points="160,1097 195,1044 114,885 " style="fill:rgb(153, 255, 33);stroke-width:none"/>
	<polygon points="818,1055 796,925 651,969 " style="fill:rgb(173, 255, 82);stroke-width:none"/>
	<polygon points="796,925 658,857 651,969 " style="fill:rgb(173, 255, 77);stroke-width:none"/>
	<polygon points="2410,840 2512,1096 2396,650 " style="fill:rgb(139, 255, 0);stroke-width:none"/>
	<polygon points="2410,840 2432,957 2512,1096 " style="fill:rgb(55, 255, 0);stroke-width:none"/>
	<polygon points="2432,957 2410,840 2352,872 " style="fill:rgb(118, 255, 0);stroke-width:none"/>
	<polygon points="2121,579 2146,558 2054,567 " style="fill:rgb(239, 0, 255);stroke-width:none"/>
	<polygon points="2361,446 2315,644 2396,650 " style="fill:rgb(252, 0, 255);stroke-width:none"/>
	<polygon points="2315,644 2361,446 2146,558 " style="fill:rgb(254, 0, 255);stroke-width:none"/>
	<polygon points="2106,317 2146,558 2290,338 " style="fill:rgb(232, 0, 255);stroke-width:none"/>
	<polygon points="1963,566 1840,547 1777,626 " style="fill:rgb(221, 0, 255);stroke-width:none"/>
	<polygon points="2047,646 2121,579 2054,567 " style="fill:rgb(235, 0, 255);stroke-width:none"/>
	<polygon points="1963,566 2047,646 2054,567 " style="fill:rgb(231, 0, 255);stroke-width:none"/>
	<polygon points="1920,1278 1651,1148 1603,1204 " style="fill:rgb(153, 255, 0);stroke-width:none"/>
	<polygon points="1789,1063 1651,1148 1920,1278 " style="fill:rgb(136, 255, 0);stroke-width:none"/>
	<polygon points="2461,0 2355,131 2512,0 " style="fill:rgb(177, 255, 255);stroke-width:none"/>
	<polygon points="2361,446 2324,170 2290,338 " style="fill:rgb(205, 0, 255);stroke-width:none"/>
	<polygon points="2355,131 2324,170 2361,446 " style="fill:rgb(177, 255, 255);stroke-width:none"/>
	<polygon points="1895,0 1708,0 1968,104 " style="fill:rgb(198, 221, 249);stroke-width:none"/>
	<polygon points="1369,201 1459,275 1501,36 " style="fill:rgb(213, 97, 230);stroke-width:none"/>
	<polygon points="1459,275 1596,218 1501,36 " style="fill:rgb(211, 115, 234);stroke-width:none"/>
	<polygon points="1598,33 1520,0 1501,36 " style="fill:rgb(210, 120, 235);stroke-width:none"/>
	<polygon points="419,43 406,185 510,0 " style="fill:rgb(227, 43, 196);stroke-width:none"/>
	<polygon points="406,185 419,43 230,0 " style="fill:rgb(227, 43, 196);stroke-width:none"/>
	<polygon points="308,353 406,185 228,310 " style="fill:rgb(226, 43, 196);stroke-width:none"/>
	<polygon points="515,611 308,353 318,619 " style="fill:rgb(217, 215, 175);stroke-width:none"/>
	<polygon points="308,353 0,521 318,619 " style="fill:rgb(219, 178, 180);stroke-width:none"/>
	<polygon points="308,353 228,310 0,521 " style="fill:rgb(224, 85, 191);stroke-width:none"/>
	<polygon points="147,8 230,0 0,0 " style="fill:rgb(227, 43, 196);stroke-width:none"/>
	<polygon points="126,21 147,8 0,0 " style="fill:rgb(227, 43, 196);stroke-width:none"/>
	<polygon points="147,8 126,21 230,0 " style="fill:rgb(227, 43, 196);stroke-width:none"/>
	<polygon points="1719,1056 1651,1148 1789,1063 " style="fill:rgb(175, 255, 0);stroke-width:none"/>
	<polygon points="474,924 593,1038 651,969 " style="fill:rgb(159, 255, 46);stroke-width:none"/>
	<polygon points="658,857 474,924 651,969 " style="fill:rgb(170, 255, 71);stroke-width:none"/>
	<polygon points="474,924 394,898 436,1171 " style="fill:rgb(155, 255, 38);stroke-width:none"/>
	<polygon points="593,1038 474,924 436,1171 " style="fill:rgb(146, 255, 17);stroke-width:none"/>
	<polygon points="0,1241 2,1225 0,521 " style="fill:rgb(156, 255, 39);stroke-width:none"/>
	<polygon points="195,1044 250,891 114,885 " style="fill:rgb(166, 255, 61);stroke-width:none"/>
	<polygon points="250,891 195,1044 394,898 " style="fill:rgb(165, 255, 60);stroke-width:none"/>
	<polygon points="388,652 363,727 531,685 " style="fill:rgb(203, 255, 143);stroke-width:none"/>
	<polygon points="388,652 515,611 318,619 " style="fill:rgb(209, 255, 157);stroke-width:none"/>
	<polygon points="363,727 388,652 318,619 " style="fill:rgb(205, 255, 148);stroke-width:none"/>
	<polygon points="699,1182 716,1297 882,1297 " style="fill:rgb(141, 255, 25);stroke-width:none"/>
	<polygon points="818,1055 699,1182 882,1297 " style="fill:rgb(166, 255, 80);stroke-width:none"/>
	<polygon points="716,1297 699,1182 436,1171 " style="fill:rgb(106, 255, 0);stroke-width:none"/>
	<polygon points="699,1182 593,1038 436,1171 " style="fill:rgb(127, 255, 0);stroke-width:none"/>
	<polygon points="593,1038 699,1182 651,969 " style="fill:rgb(142, 255, 8);stroke-width:none"/>
	<polygon points="699,1182 818,1055 651,969 " style="fill:rgb(152, 255, 36);stroke-width:none"/>
	<polygon points="978,1181 818,1055 882,1297 " style="fill:rgb(199, 255, 158);stroke-width:none"/>
	<polygon points="818,1055 978,1181 1019,1019 " style="fill:rgb(207, 255, 169);stroke-width:none"/>
	<polygon points="1019,1019 978,1181 1223,1023 " style="fill:rgb(228, 2, 205);stroke-width:none"/>
	<polygon points="1423,1246 978,1181 882,1297 " style="fill:rgb(255, 0, 255);stroke-width:none"/>
	<polygon points="978,1181 1423,1246 1223,1023 " style="fill:rgb(250, 0, 230);stroke-width:none"/>
	<polygon points="681,707 658,857 796,925 " style="fill:rgb(186, 255, 107);stroke-width:none"/>
	<polygon points="406,185 645,159 510,0 " style="fill:rgb(227, 43, 196);stroke-width:none"/>
	<polygon points="2405,835 2286,718 2352,872 " style="fill:rgb(174, 255, 17);stroke-width:none"/>
	<polygon points="2410,840 2405,835 2352,872 " style="fill:rgb(148, 255, 0);stroke-width:none"/>
	<polygon points="2286,718 2405,835 2396,650 " style="fill:rgb(211, 220, 197);stroke-width:none"/>
	<polygon points="2405,835 2410,840 2396,650 " style="fill:rgb(192, 255, 102);stroke-width:none"/>
	<polygon points="2326,662 2286,718 2396,650 " style="fill:rgb(233, 0, 255);stroke-width:none"/>
	<polygon points="2315,644 2326,662 2396,650 " style="fill:rgb(240, 0, 255);stroke-width:none"/>
	<polygon points="2326,662 2315,644 2286,718 " style="fill:rgb(233, 0, 255);stroke-width:none"/>
	<polygon points="2146,558 2030,421 2054,567 " style="fill:rgb(237, 0, 255);stroke-width:none"/>
	<polygon points="2106,317 2030,421 2146,558 " style="fill:rgb(231, 0, 255);stroke-width:none"/>
	<polygon points="2070,262 2106,317 2115,218 " style="fill:rgb(187, 255, 255);stroke-width:none"/>
	<polygon points="2070,262 2030,421 2106,317 " style="fill:rgb(210, 0, 255);stroke-width:none"/>
	<polygon points="2070,262 1968,104 1792,374 " style="fill:rgb(194, 255, 253);stroke-width:none"/>
	<polygon points="1761,591 1840,547 1792,374 " style="fill:rgb(218, 0, 255);stroke-width:none"/>
	<polygon points="1840,547 1761,591 1777,626 " style="fill:rgb(218, 0, 255);stroke-width:none"/>
	<polygon points="1761,591 1792,374 1684,319 " style="fill:rgb(213, 0, 255);stroke-width:none"/>
	<polygon points="1726,954 1719,1056 1789,1063 " style="fill:rgb(178, 255, 0);stroke-width:none"/>
	<polygon points="2216,1297 2277,1060 1920,1278 " style="fill:rgb(0, 255, 0);stroke-width:none"/>
	<polygon points="2277,1060 2216,1297 2328,1226 " style="fill:rgb(0, 255, 0);stroke-width:none"/>
	<polygon points="2277,1060 2328,1226 2364,1176 " style="fill:rgb(0, 255, 0);stroke-width:none"/>
	<polygon points="2277,1060 1902,966 1920,1278 " style="fill:rgb(45, 255, 0);stroke-width:none"/>
	<polygon points="1902,966 2277,1060 2153,899 " style="fill:rgb(98, 255, 0);stroke-width:none"/>
	<polygon points="2153,899 2188,682 2047,646 " style="fill:rgb(209, 255, 179);stroke-width:none"/>
	<polygon points="2047,646 2188,682 2121,579 " style="fill:rgb(233, 0, 255);stroke-width:none"/>
	<polygon points="2121,579 2188,682 2146,558 " style="fill:rgb(240, 0, 255);stroke-width:none"/>
	<polygon points="2315,644 2188,682 2286,718 " style="fill:rgb(231, 0, 255);stroke-width:none"/>
	<polygon points="2188,682 2315,644 2146,558 " style="fill:rgb(241, 0, 255);stroke-width:none"/>
	<polygon points="1936,0 2027,19 2142,0 " style="fill:rgb(189, 255, 255);stroke-width:none"/>
	<polygon points="2205,62 2461,0 2142,0 " style="fill:rgb(177, 255, 255);stroke-width:none"/>
	<polygon points="2461,0 2205,62 2355,131 " style="fill:rgb(177, 255, 255);stroke-width:none"/>
	<polygon points="2205,62 2324,170 2355,131 " style="fill:rgb(177, 255, 255);stroke-width:none"/>
	<polygon points="2324,170 2255,214 2290,338 " style="fill:rgb(177, 255, 255);stroke-width:none"/>
	<polygon points="2106,317 2255,214 2115,218 " style="fill:rgb(183, 255, 255);stroke-width:none"/>
	<polygon points="2255,214 2106,317 2290,338 " style="fill:rgb(193, 102, 255);stroke-width:none"/>
	<polygon points="2205,62 2255,214 2324,170 " style="fill:rgb(177, 255, 255);stroke-width:none"/>
	<polygon points="1333,71 1280,112 1369,201 " style="fill:rgb(216, 74, 225);stroke-width:none"/>
	<polygon points="1104,229 1207,537 1354,376 " style="fill:rgb(209, 255, 190);stroke-width:none"/>
	<polygon points="1207,537 1383,592 1354,376 " style="fill:rgb(203, 255, 179);stroke-width:none"/>
	<polygon points="1383,592 1207,537 1170,636 " style="fill:rgb(202, 255, 163);stroke-width:none"/>
	<polygon points="1596,218 1486,316 1684,319 " style="fill:rgb(208, 130, 238);stroke-width:none"/>
	<polygon points="1459,275 1486,316 1596,218 " style="fill:rgb(211, 117, 233);stroke-width:none"/>
	<polygon points="1598,33 1631,167 1708,0 " style="fill:rgb(206, 149, 240);stroke-width:none"/>
	<polygon points="1631,167 1596,218 1684,319 " style="fill:rgb(206, 147, 239);stroke-width:none"/>
	<polygon points="1596,218 1631,167 1501,36 " style="fill:rgb(209, 129, 236);stroke-width:none"/>
	<polygon points="1631,167 1598,33 1501,36 " style="fill:rgb(209, 129, 236);stroke-width:none"/>
	<polygon points="1968,104 1631,167 1684,319 " style="fill:rgb(202, 186, 245);stroke-width:none"/>
	<polygon points="1708,0 1631,167 1968,104 " style="fill:rgb(201, 189, 245);stroke-width:none"/>
	<polygon points="1623,0 1598,33 1708,0 " style="fill:rgb(206, 149, 240);stroke-width:none"/>
	<polygon points="568,778 474,924 658,857 " style="fill:rgb(181, 255, 94);stroke-width:none"/>
	<polygon points="568,778 681,707 531,685 " style="fill:rgb(199, 255, 134);stroke-width:none"/>
	<polygon points="681,707 568,778 658,857 " style="fill:rgb(191, 255, 118);stroke-width:none"/>
	<polygon points="474,924 568,778 394,898 " style="fill:rgb(178, 255, 89);stroke-width:none"/>
	<polygon points="363,727 568,778 531,685 " style="fill:rgb(198, 255, 132);stroke-width:none"/>
	<polygon points="568,778 363,727 394,898 " style="fill:rgb(188, 255, 111);stroke-width:none"/>
	<polygon points="101,1297 211,1297 144,1264 " style="fill:rgb(88, 255, 0);stroke-width:none"/>
	<polygon points="101,1297 0,1241 0,1297 " style="fill:rgb(90, 255, 0);stroke-width:none"/>
	<polygon points="2,1225 101,1297 144,1264 " style="fill:rgb(95, 255, 0);stroke-width:none"/>
	<polygon points="0,1241 101,1297 2,1225 " style="fill:rgb(97, 255, 0);stroke-width:none"/>
	<polygon points="232,1220 211,1297 341,1297 " style="fill:rgb(92, 255, 0);stroke-width:none"/>
	<polygon points="232,1220 341,1297 436,1171 " style="fill:rgb(103, 255, 0);stroke-width:none"/>
	<polygon points="144,1264 232,1220 160,1097 " style="fill:rgb(112, 255, 0);stroke-width:none"/>
	<polygon points="211,1297 232,1220 144,1264 " style="fill:rgb(95, 255, 0);stroke-width:none"/>
	<polygon points="195,1044 232,1220 436,1171 " style="fill:rgb(124, 255, 0);stroke-width:none"/>
	<polygon points="232,1220 195,1044 160,1097 " style="fill:rgb(129, 255, 0);stroke-width:none"/>
	<polygon points="886,571 990,607 897,389 " style="fill:rgb(208, 255, 159);stroke-width:none"/>
	<polygon points="755,550 886,571 897,389 " style="fill:rgb(211, 255, 165);stroke-width:none"/>
	<polygon points="886,571 755,550 808,632 " style="fill:rgb(208, 255, 156);stroke-width:none"/>
	<polygon points="363,727 253,817 394,898 " style="fill:rgb(187, 255, 107);stroke-width:none"/>
	<polygon points="253,817 250,891 394,898 " style="fill:rgb(178, 255, 88);stroke-width:none"/>
	<polygon points="63,785 253,817 318,619 " style="fill:rgb(197, 255, 129);stroke-width:none"/>
	<polygon points="253,817 363,727 318,619 " style="fill:rgb(199, 255, 134);stroke-width:none"/>
	<polygon points="388,652 513,629 515,611 " style="fill:rgb(209, 255, 156);stroke-width:none"/>
	<polygon points="1145,628 1068,789 1170,636 " style="fill:rgb(203, 255, 152);stroke-width:none"/>
	<polygon points="1068,789 1145,628 990,607 " style="fill:rgb(202, 255, 149);stroke-width:none"/>
	<polygon points="1207,537 1145,628 1170,636 " style="fill:rgb(202, 255, 157);stroke-width:none"/>
	<polygon points="1145,628 1207,537 990,607 " style="fill:rgb(202, 255, 154);stroke-width:none"/>
	<polygon points="818,1055 963,878 796,925 " style="fill:rgb(193, 255, 130);stroke-width:none"/>
	<polygon points="963,878 818,1055 1019,1019 " style="fill:rgb(203, 255, 154);stroke-width:none"/>
	<polygon points="742,635 681,707 808,632 " style="fill:rgb(205, 255, 148);stroke-width:none"/>
	<polygon points="734,0 748,7 882,0 " style="fill:rgb(226, 37, 201);stroke-width:none"/>
	<polygon points="748,7 734,0 716,131 " style="fill:rgb(226, 40, 198);stroke-width:none"/>
	<polygon points="645,159 582,0 510,0 " style="fill:rgb(227, 43, 196);stroke-width:none"/>
	<polygon points="734,0 582,0 716,131 " style="fill:rgb(227, 43, 196);stroke-width:none"/>
	<polygon points="582,0 645,159 716,131 " style="fill:rgb(227, 43, 196);stroke-width:none"/>
	<polygon points="554,330 755,550 897,389 " style="fill:rgb(221, 149, 184);stroke-width:none"/>
	<polygon points="736,155 897,389 903,246 " style="fill:rgb(225, 36, 203);stroke-width:none"/>
	<polygon points="748,7 736,155 882,0 " style="fill:rgb(226, 37, 201);stroke-width:none"/>
	<polygon points="736,155 748,7 716,131 " style="fill:rgb(226, 39, 198);stroke-width:none"/>
	<polygon points="1988,489 1963,566 2054,567 " style="fill:rgb(231, 0, 255);stroke-width:none"/>
	<polygon points="2030,421 1988,489 2054,567 " style="fill:rgb(232, 0, 255);stroke-width:none"/>
	<polygon points="1761,591 1618,699 1777,626 " style="fill:rgb(213, 122, 222);stroke-width:none"/>
	<polygon points="1618,699 1761,591 1525,622 " style="fill:rgb(210, 202, 207);stroke-width:none"/>
	<polygon points="1719,1056 1605,1120 1651,1148 " style="fill:rgb(190, 255, 0);stroke-width:none"/>
	<polygon points="1726,954 1605,1120 1719,1056 " style="fill:rgb(189, 255, 0);stroke-width:none"/>
	<polygon points="1605,1120 1423,1246 1603,1204 " style="fill:rgb(219, 255, 7);stroke-width:none"/>
	<polygon points="1651,1148 1605,1120 1603,1204 " style="fill:rgb(198, 255, 0);stroke-width:none"/>
	<polygon points="2277,1060 2204,905 2153,899 " style="fill:rgb(83, 255, 0);stroke-width:none"/>
	<polygon points="2188,682 2204,905 2286,718 " style="fill:rgb(197, 255, 124);stroke-width:none"/>
	<polygon points="2204,905 2188,682 2153,899 " style="fill:rgb(171, 255, 0);stroke-width:none"/>
	<polygon points="2333,1005 2277,1060 2364,1176 " style="fill:rgb(0, 255, 0);stroke-width:none"/>
	<polygon points="2512,1096 2333,1005 2364,1176 " style="fill:rgb(0, 255, 0);stroke-width:none"/>
	<polygon points="2432,957 2333,1005 2512,1096 " style="fill:rgb(1, 255, 0);stroke-width:none"/>
	<polygon points="2333,1005 2432,957 2352,872 " style="fill:rgb(73, 255, 0);stroke-width:none"/>
	<polygon points="2333,1005 2204,905 2277,1060 " style="fill:rgb(31, 255, 0);stroke-width:none"/>
	<polygon points="1843,1033 1789,1063 1920,1278 " style="fill:rgb(120, 255, 0);stroke-width:none"/>
	<polygon points="1902,966 1843,1033 1920,1278 " style="fill:rgb(116, 255, 0);stroke-width:none"/>
	<polygon points="1843,1033 1726,954 1789,1063 " style="fill:rgb(170, 255, 0);stroke-width:none"/>
	<polygon points="1843,1033 1902,966 1726,954 " style="fill:rgb(169, 255, 0);stroke-width:none"/>
	<polygon points="1897,818 2153,899 2047,646 " style="fill:rgb(197, 255, 112);stroke-width:none"/>
	<polygon points="1897,818 1902,966 2153,899 " style="fill:rgb(167, 255, 0);stroke-width:none"/>
	<polygon points="1897,818 1963,566 1777,626 " style="fill:rgb(218, 27, 236);stroke-width:none"/>
	<polygon points="1897,818 2047,646 1963,566 " style="fill:rgb(220, 0, 246);stroke-width:none"/>
	<polygon points="1902,966 1897,818 1726,954 " style="fill:rgb(182, 255, 0);stroke-width:none"/>
	<polygon points="1618,699 1897,818 1777,626 " style="fill:rgb(211, 238, 192);stroke-width:none"/>
	<polygon points="1897,818 1618,699 1726,954 " style="fill:rgb(203, 255, 117);stroke-width:none"/>
	<polygon points="1970,57 1936,0 1912,0 " style="fill:rgb(194, 254, 253);stroke-width:none"/>
	<polygon points="1895,0 1970,57 1912,0 " style="fill:rgb(194, 248, 253);stroke-width:none"/>
	<polygon points="1970,57 1895,0 1968,104 " style="fill:rgb(194, 255, 253);stroke-width:none"/>
	<polygon points="2027,19 1970,57 1968,104 " style="fill:rgb(191, 255, 255);stroke-width:none"/>
	<polygon points="2027,19 2120,148 2142,0 " style="fill:rgb(186, 255, 255);stroke-width:none"/>
	<polygon points="2120,148 2205,62 2142,0 " style="fill:rgb(183, 255, 255);stroke-width:none"/>
	<polygon points="2120,148 2027,19 1968,104 " style="fill:rgb(189, 255, 255);stroke-width:none"/>
	<polygon points="2255,214 2120,148 2115,218 " style="fill:rgb(182, 255, 255);stroke-width:none"/>
	<polygon points="2120,148 2255,214 2205,62 " style="fill:rgb(181, 255, 255);stroke-width:none"/>
	<polygon points="2120,148 2070,262 2115,218 " style="fill:rgb(186, 255, 255);stroke-width:none"/>
	<polygon points="2070,262 2120,148 1968,104 " style="fill:rgb(188, 255, 255);stroke-width:none"/>
	<polygon points="1280,112 1333,224 1369,201 " style="fill:rgb(216, 74, 225);stroke-width:none"/>
	<polygon points="1333,224 1104,229 1354,376 " style="fill:rgb(217, 91, 219);stroke-width:none"/>
	<polygon points="1333,224 1459,275 1369,201 " style="fill:rgb(215, 85, 228);stroke-width:none"/>
	<polygon points="990,607 973,305 897,389 " style="fill:rgb(211, 255, 171);stroke-width:none"/>
	<polygon points="1207,537 973,305 990,607 " style="fill:rgb(206, 255, 164);stroke-width:none"/>
	<polygon points="973,305 1207,537 1104,229 " style="fill:rgb(213, 228, 189);stroke-width:none"/>
	<polygon points="897,389 973,305 903,246 " style="fill:rgb(220, 120, 195);stroke-width:none"/>
	<polygon points="1404,364 1333,224 1354,376 " style="fill:rgb(211, 167, 215);stroke-width:none"/>
	<polygon points="1486,316 1470,464 1684,319 " style="fill:rgb(208, 151, 231);stroke-width:none"/>
	<polygon points="1470,464 1761,591 1684,319 " style="fill:rgb(210, 93, 242);stroke-width:none"/>
	<polygon points="1761,591 1470,464 1525,622 " style="fill:rgb(209, 193, 216);stroke-width:none"/>
	<polygon points="1470,464 1383,592 1525,622 " style="fill:rgb(205, 255, 192);stroke-width:none"/>
	<polygon points="1383,592 1470,464 1354,376 " style="fill:rgb(205, 255, 194);stroke-width:none"/>
	<polygon points="1598,33 1591,0 1520,0 " style="fill:rgb(209, 128, 236);stroke-width:none"/>
	<polygon points="1623,0 1591,0 1598,33 " style="fill:rgb(208, 137, 238);stroke-width:none"/>
	<polygon points="477,0 419,43 510,0 " style="fill:rgb(227, 43, 196);stroke-width:none"/>
	<polygon points="250,891 171,843 114,885 " style="fill:rgb(177, 255, 87);stroke-width:none"/>
	<polygon points="253,817 171,843 250,891 " style="fill:rgb(181, 255, 95);stroke-width:none"/>
	<polygon points="171,843 63,785 114,885 " style="fill:rgb(183, 255, 99);stroke-width:none"/>
	<polygon points="171,843 253,817 63,785 " style="fill:rgb(186, 255, 107);stroke-width:none"/>
	<polygon points="524,656 388,652 531,685 " style="fill:rgb(205, 255, 149);stroke-width:none"/>
	<polygon points="524,656 513,629 388,652 " style="fill:rgb(207, 255, 153);stroke-width:none"/>
	<polygon points="1070,851 963,878 1019,1019 " style="fill:rgb(209, 255, 163);stroke-width:none"/>
	<polygon points="963,878 1070,851 1068,789 " style="fill:rgb(206, 255, 155);stroke-width:none"/>
	<polygon points="1070,851 1019,1019 1223,1023 " style="fill:rgb(218, 188, 181);stroke-width:none"/>
	<polygon points="1319,831 1070,851 1223,1023 " style="fill:rgb(216, 238, 172);stroke-width:none"/>
	<polygon points="1070,851 1319,831 1068,789 " style="fill:rgb(209, 255, 161);stroke-width:none"/>
	<polygon points="940,769 963,878 1068,789 " style="fill:rgb(203, 255, 149);stroke-width:none"/>
	<polygon points="963,878 940,769 796,925 " style="fill:rgb(199, 255, 140);stroke-width:none"/>
	<polygon points="681,707 940,769 808,632 " style="fill:rgb(201, 255, 141);stroke-width:none"/>
	<polygon points="940,769 681,707 796,925 " style="fill:rgb(195, 255, 129);stroke-width:none"/>
	<polygon points="755,550 742,587 808,632 " style="fill:rgb(210, 255, 158);stroke-width:none"/>
	<polygon points="742,587 742,635 808,632 " style="fill:rgb(208, 255, 154);stroke-width:none"/>
	<polygon points="644,173 645,159 406,185 " style="fill:rgb(227, 43, 196);stroke-width:none"/>
	<polygon points="554,330 644,173 406,185 " style="fill:rgb(227, 43, 196);stroke-width:none"/>
	<polygon points="308,353 479,331 406,185 " style="fill:rgb(226, 44, 196);stroke-width:none"/>
	<polygon points="479,331 554,330 406,185 " style="fill:rgb(226, 43, 196);stroke-width:none"/>
	<polygon points="479,331 308,353 515,611 " style="fill:rgb(223, 112, 188);stroke-width:none"/>
	<polygon points="554,330 479,331 515,611 " style="fill:rgb(223, 107, 188);stroke-width:none"/>
	<polygon points="1897,453 1840,547 1963,566 " style="fill:rgb(224, 0, 255);stroke-width:none"/>
	<polygon points="1988,489 1897,453 1963,566 " style="fill:rgb(227, 0, 255);stroke-width:none"/>
	<polygon points="1840,547 1897,453 1792,374 " style="fill:rgb(219, 0, 255);stroke-width:none"/>
	<polygon points="1897,453 1988,489 2030,421 " style="fill:rgb(226, 0, 255);stroke-width:none"/>
	<polygon points="1897,453 2070,262 1792,374 " style="fill:rgb(213, 0, 255);stroke-width:none"/>
	<polygon points="2070,262 1897,453 2030,421 " style="fill:rgb(218, 0, 255);stroke-width:none"/>
	<polygon points="1618,699 1450,964 1726,954 " style="fill:rgb(208, 255, 120);stroke-width:none"/>
	<polygon points="1450,964 1605,1120 1726,954 " style="fill:rgb(207, 255, 52);stroke-width:none"/>
	<polygon points="1423,1246 1450,964 1223,1023 " style="fill:rgb(236, 25, 166);stroke-width:none"/>
	<polygon points="1605,1120 1450,964 1423,1246 " style="fill:rgb(226, 255, 86);stroke-width:none"/>
	<polygon points="1318,779 1618,699 1525,622 " style="fill:rgb(207, 255, 175);stroke-width:none"/>
	<polygon points="1383,592 1318,779 1525,622 " style="fill:rgb(205, 255, 172);stroke-width:none"/>
	<polygon points="1318,779 1383,592 1170,636 " style="fill:rgb(204, 255, 162);stroke-width:none"/>
	<polygon points="1068,789 1318,779 1170,636 " style="fill:rgb(205, 255, 156);stroke-width:none"/>
	<polygon points="1319,831 1318,779 1068,789 " style="fill:rgb(209, 255, 161);stroke-width:none"/>
	<polygon points="2286,718 2314,887 2352,872 " style="fill:rgb(164, 255, 0);stroke-width:none"/>
	<polygon points="2204,905 2314,887 2286,718 " style="fill:rgb(157, 255, 0);stroke-width:none"/>
	<polygon points="2314,887 2333,1005 2352,872 " style="fill:rgb(94, 255, 0);stroke-width:none"/>
	<polygon points="2333,1005 2314,887 2204,905 " style="fill:rgb(84, 255, 0);stroke-width:none"/>
	<polygon points="1936,0 2014,19 2027,19 " style="fill:rgb(191, 255, 255);stroke-width:none"/>
	<polygon points="2014,19 1970,57 2027,19 " style="fill:rgb(191, 255, 255);stroke-width:none"/>
	<polygon points="1970,57 2014,19 1936,0 " style="fill:rgb(192, 255, 255);stroke-width:none"/>
	<polygon points="1333,224 1140,125 1104,229 " style="fill:rgb(220, 54, 219);stroke-width:none"/>
	<polygon points="1140,125 1333,224 1280,112 " style="fill:rgb(218, 62, 222);stroke-width:none"/>
	<polygon points="1140,125 1180,0 1093,51 " style="fill:rgb(221, 48, 217);stroke-width:none"/>
	<polygon points="956,80 736,155 903,246 " style="fill:rgb(225, 35, 204);stroke-width:none"/>
	<polygon points="1450,387 1470,464 1486,316 " style="fill:rgb(208, 205, 216);stroke-width:none"/>
	<polygon points="433,12 477,0 444,0 " style="fill:rgb(227, 43, 196);stroke-width:none"/>
	<polygon points="477,0 433,12 419,43 " style="fill:rgb(227, 43, 196);stroke-width:none"/>
	<polygon points="433,12 444,0 230,0 " style="fill:rgb(227, 43, 196);stroke-width:none"/>
	<polygon points="419,43 433,12 230,0 " style="fill:rgb(227, 43, 196);stroke-width:none"/>
	<polygon points="951,680 1068,789 990,607 " style="fill:rgb(202, 255, 147);stroke-width:none"/>
	<polygon points="951,680 940,769 1068,789 " style="fill:rgb(202, 255, 146);stroke-width:none"/>
	<polygon points="886,571 951,680 990,607 " style="fill:rgb(204, 255, 149);stroke-width:none"/>
	<polygon points="951,680 886,571 808,632 " style="fill:rgb(204, 255, 149);stroke-width:none"/>
	<polygon points="940,769 951,680 808,632 " style="fill:rgb(202, 255, 144);stroke-width:none"/>
	<polygon points="742,635 600,603 681,707 " style="fill:rgb(207, 255, 152);stroke-width:none"/>
	<polygon points="742,587 600,603 742,635 " style="fill:rgb(211, 255, 160);stroke-width:none"/>
	<polygon points="600,603 742,587 755,550 " style="fill:rgb(213, 255, 165);stroke-width:none"/>
	<polygon points="513,629 600,603 515,611 " style="fill:rgb(210, 255, 160);stroke-width:none"/>
	<polygon points="524,656 600,603 513,629 " style="fill:rgb(209, 255, 157);stroke-width:none"/>
	<polygon points="681,707 600,603 531,685 " style="fill:rgb(205, 255, 148);stroke-width:none"/>
	<polygon points="600,603 524,656 531,685 " style="fill:rgb(207, 255, 152);stroke-width:none"/>
	<polygon points="600,603 554,330 515,611 " style="fill:rgb(218, 200, 177);stroke-width:none"/>
	<polygon points="554,330 600,603 755,550 " style="fill:rgb(220, 176, 180);stroke-width:none"/>
	<polygon points="650,188 644,173 554,330 " style="fill:rgb(227, 43, 196);stroke-width:none"/>
	<polygon points="650,188 554,330 897,389 " style="fill:rgb(226, 50, 196);stroke-width:none"/>
	<polygon points="736,155 650,188 897,389 " style="fill:rgb(226, 38, 200);stroke-width:none"/>
	<polygon points="650,188 736,155 716,131 " style="fill:rgb(226, 42, 197);stroke-width:none"/>
	<polygon points="645,159 650,188 716,131 " style="fill:rgb(227, 43, 196);stroke-width:none"/>
	<polygon points="644,173 650,188 645,159 " style="fill:rgb(227, 43, 196);stroke-width:none"/>
	<polygon points="1327,839 1318,779 1319,831 " style="fill:rgb(211, 255, 162);stroke-width:none"/>
	<polygon points="1327,839 1319,831 1223,1023 " style="fill:rgb(217, 242, 167);stroke-width:none"/>
	<polygon points="1450,964 1327,839 1223,1023 " style="fill:rgb(221, 198, 166);stroke-width:none"/>
	<polygon points="1327,839 1450,964 1618,699 " style="fill:rgb(211, 255, 153);stroke-width:none"/>
	<polygon points="1318,779 1327,839 1618,699 " style="fill:rgb(209, 255, 162);stroke-width:none"/>
	<polygon points="1180,0 1012,0 1093,51 " style="fill:rgb(222, 44, 215);stroke-width:none"/>
	<polygon points="1012,0 956,80 1093,51 " style="fill:rgb(223, 39, 211);stroke-width:none"/>
	<polygon points="1180,0 1253,75 1325,0 " style="fill:rgb(218, 62, 222);stroke-width:none"/>
	<polygon points="1253,75 1333,71 1325,0 " style="fill:rgb(217, 70, 224);stroke-width:none"/>
	<polygon points="1253,75 1280,112 1333,71 " style="fill:rgb(217, 67, 223);stroke-width:none"/>
	<polygon points="1253,75 1140,125 1280,112 " style="fill:rgb(219, 58, 220);stroke-width:none"/>
	<polygon points="1140,125 1253,75 1180,0 " style="fill:rgb(220, 54, 219);stroke-width:none"/>
	<polygon points="1071,203 956,80 903,246 " style="fill:rgb(224, 37, 209);stroke-width:none"/>
	<polygon points="973,305 1071,203 903,246 " style="fill:rgb(224, 37, 210);stroke-width:none"/>
	<polygon points="1071,203 973,305 1104,229 " style="fill:rgb(222, 41, 213);stroke-width:none"/>
	<polygon points="1140,125 1071,203 1104,229 " style="fill:rgb(221, 45, 215);stroke-width:none"/>
	<polygon points="1071,203 1140,125 1093,51 " style="fill:rgb(221, 45, 215);stroke-width:none"/>
	<polygon points="956,80 1071,203 1093,51 " style="fill:rgb(223, 40, 212);stroke-width:none"/>
	<polygon points="1427,347 1450,387 1486,316 " style="fill:rgb(209, 181, 219);stroke-width:none"/>
	<polygon points="1427,347 1486,316 1459,275 " style="fill:rgb(210, 147, 225);stroke-width:none"/>
	<polygon points="1333,224 1427,347 1459,275 " style="fill:rgb(213, 113, 225);stroke-width:none"/>
	<polygon points="1404,364 1427,347 1333,224 " style="fill:rgb(211, 152, 219);stroke-width:none"/>
	<polygon points="1440,388 1404,364 1354,376 " style="fill:rgb(208, 224, 209);stroke-width:none"/>
	<polygon points="1470,464 1440,388 1354,376 " style="fill:rgb(207, 245, 207);stroke-width:none"/>
	<polygon points="1450,387 1440,388 1470,464 " style="fill:rgb(207, 231, 211);stroke-width:none"/>
	<polygon points="1440,388 1427,347 1404,364 " style="fill:rgb(208, 206, 213);stroke-width:none"/>
	<polygon points="1427,347 1440,388 1450,387 " style="fill:rgb(208, 207, 214);stroke-width:none"/>
	<polygon points="922,35 1012,0 882,0 " style="fill:rgb(224, 36, 208);stroke-width:none"/>
	<polygon points="1012,0 922,35 956,80 " style="fill:rgb(224, 36, 209);stroke-width:none"/>
	<polygon points="736,155 922,35 882,0 " style="fill:rgb(225, 35, 204);stroke-width:none"/>
	<polygon points="956,80 922,35 736,155 " style="fill:rgb(225, 35, 205);stroke-width:none"/>
</svg>