<?xml version="1.0" encoding="utf-8"?>
<svg version="1.1" id="Layer_1" xmlns="http://www.w3.org/2000/svg" xmlns:xlink="http://www.w3.org/1999/xlink" height="1297" width="2512">
	<polygon points="1956,1193 1691,994 1679,1297 " style="fill:rgb(255, 255, 255);stroke-width:none"/>
	<polygon points="1263,0 1209,0 1299,178 " style="fill:rgb(255, 255, 255);stroke-width:none"/>
	<polygon points="1209,0 1185,0 1299,178 " style="fill:rgb(255, 255, 255);stroke-width:none"/>
	<polygon points="2394,1241 2512,1100 2320,1051 " style="fill:rgb(255, 255, 255);stroke-width:none"/>
	<polygon points="2512,1100 2512,753 2391,830 " style="fill:rgb(255, 230, 255);stroke-width:none"/>
	<polygon points="2158,1297 1947,1273 1679,1297 " style="fill:rgb(255, 255, 255);stroke-width:none"/>
	<polygon points="1947,1273 1956,1193 1679,1297 " style="fill:rgb(255, 255, 255);stroke-width:none"/>
	<polygon points="2456,632 2512,753 2512,643 " style="fill:rgb(138, 181, 105);stroke-width:none"/>
	<polygon points="2512,753 2456,632 2391,830 " style="fill:rgb(206, 195, 209);stroke-width:none"/>
	<polygon points="161,1073 198,1140 346,1017 " style="fill:rgb(255, 124, 255);stroke-width:none"/>
	<polygon points="1427,954 1235,1176 1679,1297 " style="fill:rgb(126, 255, 190);stroke-width:none"/>
	<polygon points="2394,1241 2186,1297 2512,1297 " style="fill:rgb(255, 255, 255);stroke-width:none"/>
	<polygon points="2158,1297 2186,1297 2151,1277 " style="fill:rgb(255, 255, 255);stroke-width:none"/>
	<polygon points="2186,1297 2394,1241 2320,1051 " style="fill:rgb(255, 255, 255);stroke-width:none"/>
	<polygon points="2512,1100 2463,1226 2512,1297 " style="fill:rgb(255, 255, 255);stroke-width:none"/>
	<polygon points="2463,1226 2394,1241 2512,1297 " style="fill:rgb(255, 255, 255);stroke-width:none"/>
	<polygon points="2394,1241 2463,1226 2512,1100 " style="fill:rgb(255, 255, 255);stroke-width:none"/>
	<polygon points="2015,1268 2158,1297 2151,1277 " style="fill:rgb(255, 255, 255);stroke-width:none"/>
	<polygon points="2015,1268 1947,1273 2158,1297 " style="fill:rgb(255, 255, 255);stroke-width:none"/>
	<polygon points="1947,1273 2015,1268 1956,1193 " style="fill:rgb(255, 255, 255);stroke-width:none"/>
	<polygon points="2329,914 2311,1037 2320,1051 " style="fill:rgb(255, 250, 255);stroke-width:none"/>
	<polygon points="2329,914 2512,1100 2391,830 " style="fill:rgb(255, 240, 255);stroke-width:none"/>
	<polygon points="2512,1100 2329,914 2320,1051 " style="fill:rgb(255, 254, 255);stroke-width:none"/>
	<polygon points="2456,632 2238,641 2391,830 " style="fill:rgb(162, 186, 143);stroke-width:none"/>
	<polygon points="1185,0 1021,73 1299,178 " style="fill:rgb(255, 255, 255);stroke-width:none"/>
	<polygon points="19,181 43,0 0,0 " style="fill:rgb(255, 185, 255);stroke-width:none"/>
	<polygon points="0,231 19,181 0,0 " style="fill:rgb(255, 185, 255);stroke-width:none"/>
	<polygon points="161,1073 115,1212 198,1140 " style="fill:rgb(255, 124, 255);stroke-width:none"/>
	<polygon points="98,1290 115,1212 0,1297 " style="fill:rgb(255, 124, 255);stroke-width:none"/>
	<polygon points="115,1212 0,986 0,1297 " style="fill:rgb(255, 124, 255);stroke-width:none"/>
	<polygon points="115,1212 161,1073 0,986 " style="fill:rgb(255, 124, 255);stroke-width:none"/>
	<polygon points="1691,994 1656,996 1679,1297 " style="fill:rgb(224, 255, 255);stroke-width:none"/>
	<polygon points="1656,996 1427,954 1679,1297 " style="fill:rgb(174, 255, 255);stroke-width:none"/>
	<polygon points="2117,1102 2013,1019 1956,1193 " style="fill:rgb(255, 255, 255);stroke-width:none"/>
	<polygon points="2117,1102 2015,1268 2151,1277 " style="fill:rgb(255, 255, 255);stroke-width:none"/>
	<polygon points="2015,1268 2117,1102 1956,1193 " style="fill:rgb(255, 255, 255);stroke-width:none"/>
	<polygon points="2186,1297 2117,1102 2151,1277 " style="fill:rgb(255, 255, 255);stroke-width:none"/>
	<polygon points="2117,1102 2186,1297 2320,1051 " style="fill:rgb(255, 255, 255);stroke-width:none"/>
	<polygon points="2160,788 2329,914 2391,830 " style="fill:rgb(255, 219, 255);stroke-width:none"/>
	<polygon points="2238,641 2160,788 2391,830 " style="fill:rgb(224, 199, 235);stroke-width:none"/>
	<polygon points="1844,624 1685,356 1537,596 " style="fill:rgb(98, 213, 95);stroke-width:none"/>
	<polygon points="2498,39 2314,26 2512,74 " style="fill:rgb(119, 60, 0);stroke-width:none"/>
	<polygon points="2314,26 2260,0 2186,21 " style="fill:rgb(119, 60, 0);stroke-width:none"/>
	<polygon points="2314,26 2349,238 2512,74 " style="fill:rgb(119, 60, 0);stroke-width:none"/>
	<polygon points="1586,11 1939,0 1263,0 " style="fill:rgb(255, 255, 255);stroke-width:none"/>
	<polygon points="634,243 845,284 738,159 " style="fill:rgb(255, 194, 255);stroke-width:none"/>
	<polygon points="598,331 634,243 521,334 " style="fill:rgb(237, 204, 255);stroke-width:none"/>
	<polygon points="634,243 598,331 845,284 " style="fill:rgb(255, 198, 255);stroke-width:none"/>
	<polygon points="1021,73 1226,279 1299,178 " style="fill:rgb(255, 255, 255);stroke-width:none"/>
	<polygon points="198,1140 396,1103 346,1017 " style="fill:rgb(255, 124, 255);stroke-width:none"/>
	<polygon points="401,1116 396,1103 198,1140 " style="fill:rgb(255, 124, 255);stroke-width:none"/>
	<polygon points="339,1292 401,1116 198,1140 " style="fill:rgb(255, 124, 255);stroke-width:none"/>
	<polygon points="115,1212 339,1292 198,1140 " style="fill:rgb(255, 124, 255);stroke-width:none"/>
	<polygon points="339,1292 115,1212 98,1290 " style="fill:rgb(255, 124, 255);stroke-width:none"/>
	<polygon points="339,1292 0,1297 1679,1297 " style="fill:rgb(255, 124, 255);stroke-width:none"/>
	<polygon points="339,1292 98,1290 0,1297 " style="fill:rgb(255, 124, 255);stroke-width:none"/>
	<polygon points="1235,1176 339,1292 1679,1297 " style="fill:rgb(182, 209, 196);stroke-width:none"/>
	<polygon points="339,1292 1235,1176 904,1156 " style="fill:rgb(255, 154, 255);stroke-width:none"/>
	<polygon points="521,1221 339,1292 904,1156 " style="fill:rgb(255, 124, 255);stroke-width:none"/>
	<polygon points="605,1120 396,1103 401,1116 " style="fill:rgb(255, 124, 255);stroke-width:none"/>
	<polygon points="1427,954 1229,1065 1235,1176 " style="fill:rgb(114, 242, 152);stroke-width:none"/>
	<polygon points="2512,616 2512,486 2456,632 " style="fill:rgb(63, 156, 0);stroke-width:none"/>
	<polygon points="2433,433 2238,641 2456,632 " style="fill:rgb(58, 153, 0);stroke-width:none"/>
	<polygon points="2512,486 2433,433 2456,632 " style="fill:rgb(38, 140, 0);stroke-width:none"/>
	<polygon points="1997,41 2023,192 2186,21 " style="fill:rgb(169, 131, 81);stroke-width:none"/>
	<polygon points="2160,788 1862,821 2010,919 " style="fill:rgb(232, 223, 255);stroke-width:none"/>
	<polygon points="1793,771 1862,821 1844,624 " style="fill:rgb(102, 210, 97);stroke-width:none"/>
	<polygon points="1844,624 1897,613 1950,395 " style="fill:rgb(78, 190, 42);stroke-width:none"/>
	<polygon points="1897,613 2016,447 1950,395 " style="fill:rgb(78, 179, 29);stroke-width:none"/>
	<polygon points="1862,821 1897,613 1844,624 " style="fill:rgb(92, 203, 75);stroke-width:none"/>
	<polygon points="1897,613 1862,821 2160,788 " style="fill:rgb(135, 205, 132);stroke-width:none"/>
	<polygon points="2016,447 1897,613 2238,641 " style="fill:rgb(69, 174, 10);stroke-width:none"/>
	<polygon points="1897,613 2160,788 2238,641 " style="fill:rgb(122, 189, 95);stroke-width:none"/>
	<polygon points="1685,356 1541,376 1537,596 " style="fill:rgb(142, 232, 173);stroke-width:none"/>
	<polygon points="1226,279 1541,376 1469,238 " style="fill:rgb(255, 255, 255);stroke-width:none"/>
	<polygon points="1469,238 1541,376 1672,230 " style="fill:rgb(255, 255, 255);stroke-width:none"/>
	<polygon points="1541,376 1685,356 1672,230 " style="fill:rgb(213, 247, 255);stroke-width:none"/>
	<polygon points="1814,307 1844,624 1950,395 " style="fill:rgb(104, 193, 77);stroke-width:none"/>
	<polygon points="1814,307 1685,356 1844,624 " style="fill:rgb(124, 208, 121);stroke-width:none"/>
	<polygon points="1685,356 1814,307 1672,230 " style="fill:rgb(214, 236, 255);stroke-width:none"/>
	<polygon points="1673,753 1844,624 1537,596 " style="fill:rgb(75, 211, 63);stroke-width:none"/>
	<polygon points="1673,753 1793,771 1844,624 " style="fill:rgb(86, 210, 77);stroke-width:none"/>
	<polygon points="2512,11 2498,39 2512,74 " style="fill:rgb(119, 60, 0);stroke-width:none"/>
	<polygon points="2498,39 2496,0 2314,26 " style="fill:rgb(119, 60, 0);stroke-width:none"/>
	<polygon points="2496,0 2260,0 2314,26 " style="fill:rgb(119, 60, 0);stroke-width:none"/>
	<polygon points="2496,0 2512,11 2512,0 " style="fill:rgb(119, 60, 0);stroke-width:none"/>
	<polygon points="2512,11 2496,0 2498,39 " style="fill:rgb(119, 60, 0);stroke-width:none"/>
	<polygon points="2260,0 2024,0 2186,21 " style="fill:rgb(140, 90, 0);stroke-width:none"/>
	<polygon points="2024,0 1997,41 2186,21 " style="fill:rgb(169, 131, 81);stroke-width:none"/>
	<polygon points="1997,41 2024,0 1939,0 " style="fill:rgb(193, 165, 154);stroke-width:none"/>
	<polygon points="2167,226 2314,26 2186,21 " style="fill:rgb(119, 60, 0);stroke-width:none"/>
	<polygon points="2167,226 2349,238 2314,26 " style="fill:rgb(119, 60, 0);stroke-width:none"/>
	<polygon points="2023,192 2167,226 2186,21 " style="fill:rgb(151, 105, 27);stroke-width:none"/>
	<polygon points="2038,276 2167,226 2023,192 " style="fill:rgb(166, 127, 74);stroke-width:none"/>
	<polygon points="1581,35 1586,11 1263,0 " style="fill:rgb(255, 255, 255);stroke-width:none"/>
	<polygon points="1581,35 1469,238 1672,230 " style="fill:rgb(255, 255, 255);stroke-width:none"/>
	<polygon points="19,181 215,0 43,0 " style="fill:rgb(255, 185, 255);stroke-width:none"/>
	<polygon points="423,836 493,698 385,795 " style="fill:rgb(150, 228, 180);stroke-width:none"/>
	<polygon points="343,896 423,836 385,795 " style="fill:rgb(202, 213, 226);stroke-width:none"/>
	<polygon points="177,447 0,231 0,986 " style="fill:rgb(91, 246, 128);stroke-width:none"/>
	<polygon points="217,608 177,447 0,986 " style="fill:rgb(103, 242, 138);stroke-width:none"/>
	<polygon points="177,447 19,181 0,231 " style="fill:rgb(254, 199, 255);stroke-width:none"/>
	<polygon points="1226,279 1336,198 1299,178 " style="fill:rgb(255, 255, 255);stroke-width:none"/>
	<polygon points="1336,198 1226,279 1469,238 " style="fill:rgb(255, 255, 255);stroke-width:none"/>
	<polygon points="1581,35 1336,198 1469,238 " style="fill:rgb(255, 255, 255);stroke-width:none"/>
	<polygon points="1336,198 1263,0 1299,178 " style="fill:rgb(255, 255, 255);stroke-width:none"/>
	<polygon points="1336,198 1581,35 1263,0 " style="fill:rgb(255, 255, 255);stroke-width:none"/>
	<polygon points="583,875 605,1120 666,930 " style="fill:rgb(255, 169, 255);stroke-width:none"/>
	<polygon points="443,1172 339,1292 521,1221 " style="fill:rgb(255, 124, 255);stroke-width:none"/>
	<polygon points="339,1292 443,1172 401,1116 " style="fill:rgb(255, 124, 255);stroke-width:none"/>
	<polygon points="605,1120 443,1172 521,1221 " style="fill:rgb(255, 124, 255);stroke-width:none"/>
	<polygon points="443,1172 605,1120 401,1116 " style="fill:rgb(255, 124, 255);stroke-width:none"/>
	<polygon points="640,1142 521,1221 904,1156 " style="fill:rgb(255, 124, 255);stroke-width:none"/>
	<polygon points="640,1142 605,1120 521,1221 " style="fill:rgb(255, 124, 255);stroke-width:none"/>
	<polygon points="640,1142 804,1018 666,930 " style="fill:rgb(255, 146, 255);stroke-width:none"/>
	<polygon points="605,1120 640,1142 666,930 " style="fill:rgb(255, 129, 255);stroke-width:none"/>
	<polygon points="1656,996 1583,872 1427,954 " style="fill:rgb(97, 240, 129);stroke-width:none"/>
	<polygon points="1583,872 1673,753 1562,832 " style="fill:rgb(76, 224, 82);stroke-width:none"/>
	<polygon points="990,1054 874,1066 904,1156 " style="fill:rgb(255, 177, 255);stroke-width:none"/>
	<polygon points="874,1066 640,1142 904,1156 " style="fill:rgb(255, 149, 255);stroke-width:none"/>
	<polygon points="640,1142 874,1066 804,1018 " style="fill:rgb(255, 141, 255);stroke-width:none"/>
	<polygon points="990,1054 1123,1047 1118,815 " style="fill:rgb(124, 214, 129);stroke-width:none"/>
	<polygon points="1229,1065 1123,1047 1235,1176 " style="fill:rgb(138, 228, 164);stroke-width:none"/>
	<polygon points="1235,1176 1123,1047 904,1156 " style="fill:rgb(181, 210, 195);stroke-width:none"/>
	<polygon points="1123,1047 990,1054 904,1156 " style="fill:rgb(228, 194, 234);stroke-width:none"/>
	<polygon points="1541,376 1427,594 1537,596 " style="fill:rgb(110, 229, 130);stroke-width:none"/>
	<polygon points="1123,1047 1280,874 1118,815 " style="fill:rgb(76, 222, 80);stroke-width:none"/>
	<polygon points="1280,874 1123,1047 1229,1065 " style="fill:rgb(97, 226, 111);stroke-width:none"/>
	<polygon points="1280,874 1229,1065 1427,954 " style="fill:rgb(75, 232, 91);stroke-width:none"/>
	<polygon points="845,284 1039,365 1021,73 " style="fill:rgb(255, 255, 255);stroke-width:none"/>
	<polygon points="1039,365 1226,279 1021,73 " style="fill:rgb(255, 255, 255);stroke-width:none"/>
	<polygon points="583,875 681,901 599,742 " style="fill:rgb(199, 214, 223);stroke-width:none"/>
	<polygon points="681,901 583,875 666,930 " style="fill:rgb(255, 196, 255);stroke-width:none"/>
	<polygon points="899,884 990,1054 1118,815 " style="fill:rgb(125, 213, 128);stroke-width:none"/>
	<polygon points="874,1066 899,884 804,1018 " style="fill:rgb(252, 186, 254);stroke-width:none"/>
	<polygon points="899,884 874,1066 990,1054 " style="fill:rgb(221, 192, 223);stroke-width:none"/>
	<polygon points="855,411 1039,365 845,284 " style="fill:rgb(213, 249, 255);stroke-width:none"/>
	<polygon points="1039,365 855,411 1024,477 " style="fill:rgb(168, 254, 234);stroke-width:none"/>
	<polygon points="598,331 855,411 845,284 " style="fill:rgb(207, 225, 247);stroke-width:none"/>
	<polygon points="2512,629 2512,616 2456,632 " style="fill:rgb(94, 168, 34);stroke-width:none"/>
	<polygon points="2512,435 2433,433 2512,486 " style="fill:rgb(29, 122, 0);stroke-width:none"/>
	<polygon points="1586,11 1793,153 1939,0 " style="fill:rgb(247, 234, 255);stroke-width:none"/>
	<polygon points="1581,35 1793,153 1586,11 " style="fill:rgb(255, 255, 255);stroke-width:none"/>
	<polygon points="1793,153 1581,35 1672,230 " style="fill:rgb(255, 255, 255);stroke-width:none"/>
	<polygon points="2013,1019 2075,944 2010,919 " style="fill:rgb(255, 248, 255);stroke-width:none"/>
	<polygon points="2075,944 2160,788 2010,919 " style="fill:rgb(255, 230, 255);stroke-width:none"/>
	<polygon points="2075,944 2139,980 2160,788 " style="fill:rgb(255, 234, 255);stroke-width:none"/>
	<polygon points="2117,1102 2142,1029 2013,1019 " style="fill:rgb(255, 255, 255);stroke-width:none"/>
	<polygon points="2142,1029 2075,944 2013,1019 " style="fill:rgb(255, 255, 255);stroke-width:none"/>
	<polygon points="2075,944 2142,1029 2139,980 " style="fill:rgb(255, 251, 255);stroke-width:none"/>
	<polygon points="2329,914 2268,957 2311,1037 " style="fill:rgb(255, 244, 255);stroke-width:none"/>
	<polygon points="2160,788 2268,957 2329,914 " style="fill:rgb(255, 228, 255);stroke-width:none"/>
	<polygon points="2139,980 2268,957 2160,788 " style="fill:rgb(255, 233, 255);stroke-width:none"/>
	<polygon points="1747,913 1656,996 1691,994 " style="fill:rgb(164, 249, 224);stroke-width:none"/>
	<polygon points="1747,913 1583,872 1656,996 " style="fill:rgb(127, 240, 165);stroke-width:none"/>
	<polygon points="2349,238 2512,176 2512,74 " style="fill:rgb(119, 60, 0);stroke-width:none"/>
	<polygon points="2512,236 2512,176 2349,238 " style="fill:rgb(119, 60, 0);stroke-width:none"/>
	<polygon points="2512,237 2512,236 2349,238 " style="fill:rgb(119, 60, 0);stroke-width:none"/>
	<polygon points="2016,447 1990,301 1950,395 " style="fill:rgb(104, 168, 46);stroke-width:none"/>
	<polygon points="1990,301 1814,307 1950,395 " style="fill:rgb(146, 185, 120);stroke-width:none"/>
	<polygon points="1814,307 1990,301 1819,192 " style="fill:rgb(204, 202, 215);stroke-width:none"/>
	<polygon points="1990,301 2038,276 2023,192 " style="fill:rgb(174, 153, 115);stroke-width:none"/>
	<polygon points="2082,307 2167,226 2038,276 " style="fill:rgb(139, 122, 33);stroke-width:none"/>
	<polygon points="2082,307 1990,301 2016,447 " style="fill:rgb(106, 154, 32);stroke-width:none"/>
	<polygon points="1990,301 2082,307 2038,276 " style="fill:rgb(139, 147, 65);stroke-width:none"/>
	<polygon points="2082,307 2016,447 2238,641 " style="fill:rgb(52, 148, 0);stroke-width:none"/>
	<polygon points="2433,433 2082,307 2238,641 " style="fill:rgb(29, 124, 0);stroke-width:none"/>
	<polygon points="2082,307 2433,433 2349,238 " style="fill:rgb(62, 85, 0);stroke-width:none"/>
	<polygon points="2167,226 2082,307 2349,238 " style="fill:rgb(115, 72, 0);stroke-width:none"/>
	<polygon points="215,0 1001,4 1185,0 " style="fill:rgb(255, 214, 255);stroke-width:none"/>
	<polygon points="1001,4 215,0 454,33 " style="fill:rgb(255, 185, 255);stroke-width:none"/>
	<polygon points="733,51 1001,4 454,33 " style="fill:rgb(255, 190, 255);stroke-width:none"/>
	<polygon points="385,795 480,682 367,642 " style="fill:rgb(113, 239, 147);stroke-width:none"/>
	<polygon points="493,698 480,682 385,795 " style="fill:rgb(121, 237, 154);stroke-width:none"/>
	<polygon points="367,642 480,682 521,334 " style="fill:rgb(91, 246, 128);stroke-width:none"/>
	<polygon points="480,682 493,698 599,742 " style="fill:rgb(113, 239, 147);stroke-width:none"/>
	<polygon points="212,700 343,896 385,795 " style="fill:rgb(165, 224, 193);stroke-width:none"/>
	<polygon points="212,700 385,795 367,642 " style="fill:rgb(115, 239, 149);stroke-width:none"/>
	<polygon points="217,608 212,700 367,642 " style="fill:rgb(95, 245, 131);stroke-width:none"/>
	<polygon points="212,700 217,608 0,986 " style="fill:rgb(142, 231, 173);stroke-width:none"/>
	<polygon points="307,435 367,642 521,334 " style="fill:rgb(114, 239, 148);stroke-width:none"/>
	<polygon points="396,1103 377,940 346,1017 " style="fill:rgb(255, 150, 255);stroke-width:none"/>
	<polygon points="605,1120 377,940 396,1103 " style="fill:rgb(255, 134, 255);stroke-width:none"/>
	<polygon points="583,875 377,940 605,1120 " style="fill:rgb(255, 168, 255);stroke-width:none"/>
	<polygon points="377,940 343,896 346,1017 " style="fill:rgb(255, 179, 255);stroke-width:none"/>
	<polygon points="377,940 423,836 343,896 " style="fill:rgb(249, 200, 255);stroke-width:none"/>
	<polygon points="1583,872 1464,875 1427,954 " style="fill:rgb(72, 233, 87);stroke-width:none"/>
	<polygon points="1464,875 1583,872 1562,832 " style="fill:rgb(71, 228, 81);stroke-width:none"/>
	<polygon points="1464,875 1280,874 1427,954 " style="fill:rgb(61, 230, 71);stroke-width:none"/>
	<polygon points="1673,753 1602,742 1562,832 " style="fill:rgb(71, 219, 70);stroke-width:none"/>
	<polygon points="1602,742 1673,753 1537,596 " style="fill:rgb(68, 215, 61);stroke-width:none"/>
	<polygon points="1471,746 1602,742 1537,596 " style="fill:rgb(64, 218, 59);stroke-width:none"/>
	<polygon points="1401,665 1471,746 1537,596 " style="fill:rgb(66, 221, 65);stroke-width:none"/>
	<polygon points="1427,594 1401,665 1537,596 " style="fill:rgb(77, 224, 83);stroke-width:none"/>
	<polygon points="1280,874 1420,760 1253,771 " style="fill:rgb(50, 224, 50);stroke-width:none"/>
	<polygon points="1420,760 1401,665 1253,771 " style="fill:rgb(54, 224, 54);stroke-width:none"/>
	<polygon points="1401,665 1420,760 1471,746 " style="fill:rgb(56, 222, 54);stroke-width:none"/>
	<polygon points="1043,455 1039,365 1024,477 " style="fill:rgb(163, 255, 229);stroke-width:none"/>
	<polygon points="1188,759 1101,710 1118,815 " style="fill:rgb(60, 227, 66);stroke-width:none"/>
	<polygon points="1280,874 1188,759 1118,815 " style="fill:rgb(57, 224, 58);stroke-width:none"/>
	<polygon points="1188,759 1280,874 1253,771 " style="fill:rgb(53, 225, 53);stroke-width:none"/>
	<polygon points="998,777 899,884 1118,815 " style="fill:rgb(89, 222, 96);stroke-width:none"/>
	<polygon points="899,884 807,921 804,1018 " style="fill:rgb(222, 195, 228);stroke-width:none"/>
	<polygon points="804,1018 807,921 666,930 " style="fill:rgb(255, 182, 255);stroke-width:none"/>
	<polygon points="807,921 681,901 666,930 " style="fill:rgb(255, 191, 255);stroke-width:none"/>
	<polygon points="2512,641 2456,632 2512,643 " style="fill:rgb(104, 171, 51);stroke-width:none"/>
	<polygon points="2512,641 2512,629 2456,632 " style="fill:rgb(100, 170, 44);stroke-width:none"/>
	<polygon points="2484,383 2512,435 2512,380 " style="fill:rgb(34, 107, 0);stroke-width:none"/>
	<polygon points="2512,435 2484,383 2433,433 " style="fill:rgb(31, 112, 0);stroke-width:none"/>
	<polygon points="2433,433 2484,383 2349,238 " style="fill:rgb(50, 92, 0);stroke-width:none"/>
	<polygon points="2512,237 2484,383 2512,380 " style="fill:rgb(58, 87, 0);stroke-width:none"/>
	<polygon points="2484,383 2512,237 2349,238 " style="fill:rgb(87, 73, 0);stroke-width:none"/>
	<polygon points="1793,189 1793,153 1672,230 " style="fill:rgb(251, 239, 255);stroke-width:none"/>
	<polygon points="1793,153 1793,189 1819,192 " style="fill:rgb(240, 226, 255);stroke-width:none"/>
	<polygon points="1814,307 1793,189 1672,230 " style="fill:rgb(249, 238, 255);stroke-width:none"/>
	<polygon points="1793,189 1814,307 1819,192 " style="fill:rgb(239, 224, 255);stroke-width:none"/>
	<polygon points="2142,1029 2180,1016 2139,980 " style="fill:rgb(255, 255, 255);stroke-width:none"/>
	<polygon points="2180,1016 2268,957 2139,980 " style="fill:rgb(255, 248, 255);stroke-width:none"/>
	<polygon points="2268,957 2180,1016 2311,1037 " style="fill:rgb(255, 251, 255);stroke-width:none"/>
	<polygon points="2180,1016 2142,1029 2117,1102 " style="fill:rgb(255, 255, 255);stroke-width:none"/>
	<polygon points="2311,1037 2180,1016 2320,1051 " style="fill:rgb(255, 255, 255);stroke-width:none"/>
	<polygon points="2180,1016 2117,1102 2320,1051 " style="fill:rgb(255, 255, 255);stroke-width:none"/>
	<polygon points="1749,865 1862,821 1793,771 " style="fill:rgb(126, 222, 142);stroke-width:none"/>
	<polygon points="1673,753 1749,865 1793,771 " style="fill:rgb(100, 219, 106);stroke-width:none"/>
	<polygon points="1583,872 1749,865 1673,753 " style="fill:rgb(93, 225, 103);stroke-width:none"/>
	<polygon points="1747,913 1749,865 1583,872 " style="fill:rgb(118, 233, 145);stroke-width:none"/>
	<polygon points="1956,1193 1879,945 1691,994 " style="fill:rgb(255, 255, 255);stroke-width:none"/>
	<polygon points="2013,1019 1879,945 1956,1193 " style="fill:rgb(255, 255, 255);stroke-width:none"/>
	<polygon points="1961,170 1990,301 2023,192 " style="fill:rgb(192, 163, 150);stroke-width:none"/>
	<polygon points="1990,301 1961,170 1819,192 " style="fill:rgb(210, 188, 204);stroke-width:none"/>
	<polygon points="1997,41 1961,170 2023,192 " style="fill:rgb(191, 162, 148);stroke-width:none"/>
	<polygon points="1961,170 1997,41 1939,0 " style="fill:rgb(199, 173, 171);stroke-width:none"/>
	<polygon points="1793,153 1961,170 1939,0 " style="fill:rgb(217, 197, 224);stroke-width:none"/>
	<polygon points="1961,170 1793,153 1819,192 " style="fill:rgb(227, 210, 253);stroke-width:none"/>
	<polygon points="1013,42 1021,73 1185,0 " style="fill:rgb(255, 255, 255);stroke-width:none"/>
	<polygon points="1001,4 1013,42 1185,0 " style="fill:rgb(255, 255, 255);stroke-width:none"/>
	<polygon points="629,59 733,51 454,33 " style="fill:rgb(255, 185, 255);stroke-width:none"/>
	<polygon points="501,58 629,59 454,33 " style="fill:rgb(255, 185, 255);stroke-width:none"/>
	<polygon points="733,51 629,59 738,159 " style="fill:rgb(255, 185, 255);stroke-width:none"/>
	<polygon points="629,59 634,243 738,159 " style="fill:rgb(255, 185, 255);stroke-width:none"/>
	<polygon points="520,136 501,58 454,33 " style="fill:rgb(255, 185, 255);stroke-width:none"/>
	<polygon points="520,136 307,435 521,334 " style="fill:rgb(238, 203, 255);stroke-width:none"/>
	<polygon points="634,243 520,136 521,334 " style="fill:rgb(255, 185, 255);stroke-width:none"/>
	<polygon points="629,59 520,136 634,243 " style="fill:rgb(255, 185, 255);stroke-width:none"/>
	<polygon points="520,136 629,59 501,58 " style="fill:rgb(255, 185, 255);stroke-width:none"/>
	<polygon points="734,563 855,411 598,331 " style="fill:rgb(134, 236, 169);stroke-width:none"/>
	<polygon points="734,563 598,331 521,334 " style="fill:rgb(148, 229, 178);stroke-width:none"/>
	<polygon points="480,682 734,563 521,334 " style="fill:rgb(96, 244, 132);stroke-width:none"/>
	<polygon points="760,673 734,563 599,742 " style="fill:rgb(97, 244, 133);stroke-width:none"/>
	<polygon points="734,563 480,682 599,742 " style="fill:rgb(98, 244, 133);stroke-width:none"/>
	<polygon points="147,859 212,700 0,986 " style="fill:rgb(207, 212, 230);stroke-width:none"/>
	<polygon points="212,700 147,859 343,896 " style="fill:rgb(181, 219, 207);stroke-width:none"/>
	<polygon points="161,1073 147,859 0,986 " style="fill:rgb(255, 170, 255);stroke-width:none"/>
	<polygon points="147,859 161,1073 346,1017 " style="fill:rgb(255, 166, 255);stroke-width:none"/>
	<polygon points="343,896 147,859 346,1017 " style="fill:rgb(255, 188, 255);stroke-width:none"/>
	<polygon points="212,516 177,447 217,608 " style="fill:rgb(96, 244, 133);stroke-width:none"/>
	<polygon points="212,516 217,608 367,642 " style="fill:rgb(89, 246, 125);stroke-width:none"/>
	<polygon points="307,435 212,516 367,642 " style="fill:rgb(95, 245, 131);stroke-width:none"/>
	<polygon points="377,940 496,836 423,836 " style="fill:rgb(228, 206, 249);stroke-width:none"/>
	<polygon points="496,836 377,940 583,875 " style="fill:rgb(242, 202, 255);stroke-width:none"/>
	<polygon points="496,836 583,875 599,742 " style="fill:rgb(180, 220, 207);stroke-width:none"/>
	<polygon points="493,698 496,836 599,742 " style="fill:rgb(139, 232, 170);stroke-width:none"/>
	<polygon points="423,836 496,836 493,698 " style="fill:rgb(159, 226, 188);stroke-width:none"/>
	<polygon points="1490,795 1464,875 1562,832 " style="fill:rgb(63, 226, 67);stroke-width:none"/>
	<polygon points="1602,742 1490,795 1562,832 " style="fill:rgb(64, 222, 64);stroke-width:none"/>
	<polygon points="1490,795 1602,742 1471,746 " style="fill:rgb(60, 220, 57);stroke-width:none"/>
	<polygon points="1158,460 1043,455 1024,477 " style="fill:rgb(145, 253, 204);stroke-width:none"/>
	<polygon points="1043,455 1158,460 1039,365 " style="fill:rgb(168, 255, 238);stroke-width:none"/>
	<polygon points="1464,875 1429,774 1280,874 " style="fill:rgb(53, 226, 55);stroke-width:none"/>
	<polygon points="1429,774 1420,760 1280,874 " style="fill:rgb(51, 224, 50);stroke-width:none"/>
	<polygon points="1490,795 1429,774 1464,875 " style="fill:rgb(56, 224, 57);stroke-width:none"/>
	<polygon points="1420,760 1429,774 1471,746 " style="fill:rgb(54, 222, 52);stroke-width:none"/>
	<polygon points="1429,774 1490,795 1471,746 " style="fill:rgb(55, 222, 53);stroke-width:none"/>
	<polygon points="1101,710 1064,771 1118,815 " style="fill:rgb(64, 227, 71);stroke-width:none"/>
	<polygon points="998,777 878,771 899,884 " style="fill:rgb(104, 223, 116);stroke-width:none"/>
	<polygon points="878,771 807,921 899,884 " style="fill:rgb(148, 214, 160);stroke-width:none"/>
	<polygon points="993,683 878,771 998,777 " style="fill:rgb(81, 231, 97);stroke-width:none"/>
	<polygon points="993,683 1064,771 1101,710 " style="fill:rgb(68, 231, 81);stroke-width:none"/>
	<polygon points="993,683 734,563 760,673 " style="fill:rgb(86, 243, 118);stroke-width:none"/>
	<polygon points="855,411 993,683 1024,477 " style="fill:rgb(110, 248, 155);stroke-width:none"/>
	<polygon points="734,563 993,683 855,411 " style="fill:rgb(97, 247, 137);stroke-width:none"/>
	<polygon points="1946,950 2013,1019 2010,919 " style="fill:rgb(255, 249, 255);stroke-width:none"/>
	<polygon points="1946,950 1879,945 2013,1019 " style="fill:rgb(255, 252, 255);stroke-width:none"/>
	<polygon points="1862,821 1946,950 2010,919 " style="fill:rgb(245, 235, 255);stroke-width:none"/>
	<polygon points="1879,945 1946,950 1862,821 " style="fill:rgb(226, 237, 255);stroke-width:none"/>
	<polygon points="1749,865 1816,922 1862,821 " style="fill:rgb(156, 230, 190);stroke-width:none"/>
	<polygon points="1816,922 1879,945 1862,821 " style="fill:rgb(195, 235, 244);stroke-width:none"/>
	<polygon points="1816,922 1749,865 1747,913 " style="fill:rgb(158, 236, 199);stroke-width:none"/>
	<polygon points="1816,922 1747,913 1691,994 " style="fill:rgb(175, 245, 232);stroke-width:none"/>
	<polygon points="1879,945 1816,922 1691,994 " style="fill:rgb(207, 248, 255);stroke-width:none"/>
	<polygon points="910,55 1001,4 733,51 " style="fill:rgb(255, 236, 255);stroke-width:none"/>
	<polygon points="910,55 1013,42 1001,4 " style="fill:rgb(255, 255, 255);stroke-width:none"/>
	<polygon points="1013,42 910,55 1021,73 " style="fill:rgb(255, 255, 255);stroke-width:none"/>
	<polygon points="910,55 733,51 738,159 " style="fill:rgb(255, 212, 255);stroke-width:none"/>
	<polygon points="845,284 910,55 738,159 " style="fill:rgb(255, 223, 255);stroke-width:none"/>
	<polygon points="910,55 845,284 1021,73 " style="fill:rgb(255, 247, 255);stroke-width:none"/>
	<polygon points="328,26 215,0 19,181 " style="fill:rgb(255, 185, 255);stroke-width:none"/>
	<polygon points="215,0 328,26 454,33 " style="fill:rgb(255, 185, 255);stroke-width:none"/>
	<polygon points="328,26 520,136 454,33 " style="fill:rgb(255, 185, 255);stroke-width:none"/>
	<polygon points="212,516 268,425 177,447 " style="fill:rgb(118, 238, 152);stroke-width:none"/>
	<polygon points="268,425 212,516 307,435 " style="fill:rgb(120, 238, 153);stroke-width:none"/>
	<polygon points="177,447 268,425 19,181 " style="fill:rgb(192, 217, 217);stroke-width:none"/>
	<polygon points="268,425 328,26 19,181 " style="fill:rgb(255, 185, 255);stroke-width:none"/>
	<polygon points="520,136 268,425 307,435 " style="fill:rgb(208, 212, 232);stroke-width:none"/>
	<polygon points="328,26 268,425 520,136 " style="fill:rgb(255, 185, 255);stroke-width:none"/>
	<polygon points="1238,506 1401,665 1427,594 " style="fill:rgb(87, 231, 105);stroke-width:none"/>
	<polygon points="1238,506 1541,376 1226,279 " style="fill:rgb(194, 255, 255);stroke-width:none"/>
	<polygon points="1238,506 1427,594 1541,376 " style="fill:rgb(128, 239, 166);stroke-width:none"/>
	<polygon points="1401,665 1238,506 1253,771 " style="fill:rgb(70, 229, 80);stroke-width:none"/>
	<polygon points="1052,777 998,777 1118,815 " style="fill:rgb(72, 226, 79);stroke-width:none"/>
	<polygon points="1064,771 1052,777 1118,815 " style="fill:rgb(68, 226, 74);stroke-width:none"/>
	<polygon points="1052,777 993,683 998,777 " style="fill:rgb(73, 230, 86);stroke-width:none"/>
	<polygon points="993,683 1052,777 1064,771 " style="fill:rgb(70, 230, 82);stroke-width:none"/>
	<polygon points="807,921 816,723 681,901 " style="fill:rgb(181, 213, 200);stroke-width:none"/>
	<polygon points="878,771 816,723 807,921 " style="fill:rgb(128, 223, 146);stroke-width:none"/>
	<polygon points="816,723 760,673 599,742 " style="fill:rgb(113, 238, 146);stroke-width:none"/>
	<polygon points="681,901 816,723 599,742 " style="fill:rgb(159, 226, 188);stroke-width:none"/>
	<polygon points="816,723 993,683 760,673 " style="fill:rgb(88, 238, 114);stroke-width:none"/>
	<polygon points="993,683 816,723 878,771 " style="fill:rgb(87, 234, 109);stroke-width:none"/>
	<polygon points="1178,430 1238,506 1226,279 " style="fill:rgb(185, 255, 255);stroke-width:none"/>
	<polygon points="1238,506 1178,430 1158,460 " style="fill:rgb(146, 252, 205);stroke-width:none"/>
	<polygon points="1039,365 1178,430 1226,279 " style="fill:rgb(219, 255, 255);stroke-width:none"/>
	<polygon points="1158,460 1178,430 1039,365 " style="fill:rgb(175, 255, 248);stroke-width:none"/>
	<polygon points="1127,622 1188,759 1253,771 " style="fill:rgb(59, 228, 66);stroke-width:none"/>
	<polygon points="1238,506 1127,622 1253,771 " style="fill:rgb(74, 234, 92);stroke-width:none"/>
	<polygon points="1188,759 1127,622 1101,710 " style="fill:rgb(64, 231, 75);stroke-width:none"/>
	<polygon points="1127,622 1238,506 1158,460 " style="fill:rgb(113, 245, 154);stroke-width:none"/>
	<polygon points="1127,622 1158,460 1024,477 " style="fill:rgb(116, 247, 161);stroke-width:none"/>
	<polygon points="993,683 1127,622 1024,477 " style="fill:rgb(87, 242, 119);stroke-width:none"/>
	<polygon points="1127,622 993,683 1101,710 " style="fill:rgb(70, 235, 88);stroke-width:none"/>
</svg>