<svg id="Layer_1" data-name="Layer 1" xmlns="http://www.w3.org/2000/svg" xmlns:xlink="http://www.w3.org/1999/xlink" viewBox="0 0 478.65 443.46"><defs><style>.cls-1{fill:none;}.cls-2{fill:#cddd51;}.cls-3{fill:#fff;}.cls-4{clip-path:url(#clip-path);}</style><clipPath id="clip-path"><path class="cls-1" d="M95.55,263.17c1-14.17,3.71-28.36,5.66-42.47,3.18-22.88,4.29-47.23-5.79-68-4.16-8.58-10.08-16.31-13.39-25.3-3.64-9.92-1.81-19.79,3.38-28.9,7-12.37,19-21.16,31.24-28.45,44.66-26.6,97.44-37.11,148.77-28.68a220.67,220.67,0,0,1,32.47,7.85c7.86,2.56,101.32,33.91,100.66,77.34-.32,21.27-24.5,33.94-39.57,45.1-14.72,10.89-29.15,26.49-27.39,44.71,1.48,15.19,13.67,26.71,23.26,38.59,19.06,23.64,29.85,54.64,26,84.77S357.29,398.27,329,409.43c-22.89,9.05-48.61,6.51-72.87,2.31-35.48-6.15-71.08-15.87-101.19-35.63s-54.3-50.84-59-86.55A128.62,128.62,0,0,1,95.55,263.17Z"/></clipPath></defs><path class="cls-2" d="M95.55,263.17c1-14.17,3.71-28.36,5.66-42.47,3.18-22.88,4.29-47.23-5.79-68-4.16-8.58-10.08-16.31-13.39-25.3-3.64-9.92-1.81-19.79,3.38-28.9,7-12.37,19-21.16,31.24-28.45,44.66-26.6,97.44-37.11,148.77-28.68a220.67,220.67,0,0,1,32.47,7.85c7.86,2.56,101.32,33.91,100.66,77.34-.32,21.27-24.5,33.94-39.57,45.1-14.72,10.89-29.15,26.49-27.39,44.71,1.48,15.19,13.67,26.71,23.26,38.59,19.06,23.64,29.85,54.64,26,84.77S357.29,398.27,329,409.43c-22.89,9.05-48.61,6.51-72.87,2.31-35.48-6.15-71.08-15.87-101.19-35.63s-54.3-50.84-59-86.55A128.62,128.62,0,0,1,95.55,263.17Z"/><path class="cls-3" d="M178.79,175.89c-1.51,3-1.79,6.34-2.41,9.57-.45,2.35-.67,4.74-1,7.12a6.86,6.86,0,0,1-1.17,3.29,8.59,8.59,0,0,0-.91,3.61c-.67,4.38-1.26,8.78-1.9,13.16a2.47,2.47,0,0,1-.76,1.57c.14-1.88.28-3.76.42-5.73-.88.53-.56,2.4-1.87,1.89-1.12-.44-.05-1.62-.15-2.46a12.12,12.12,0,0,0-.61-2.73c-.07-.21-1-.4-1.22-.22-1.31,1-1.44-.14-1.65-.91a25.74,25.74,0,0,1-.41-2.67c-.91,1.58-1.05,3.43-.82,6.9a6,6,0,0,1-.38-1.41,36.36,36.36,0,0,1,0-4.43,19.93,19.93,0,0,0-.6-6.64c-1.2-5.12-2-10.33-2.81-15.53-.58-3.68-1-7.39-1.41-11.09a1.63,1.63,0,0,1,.25-1.16c1,3.12.68,6.4,1.57,9.58,0-1.32,0-2.63,0-3.95,0-2.59-.58-5.18.32-7.75.18-.51.32-1.32-.78-1.28-.15,0-.39-.5-.46-.79-.23-1-.4-2.07-.65-3.38l-.37,1.51c.12-2.3-1.23-4.52-.28-6.83a.79.79,0,0,0-.05-.62c-1.16-1.89-.53-4-.74-6a28.56,28.56,0,0,1-.33-3.56c0-2.17.24-4.34.33-6.51a9,9,0,0,1-.08-2.06,15.6,15.6,0,0,1,1.28-2.17c1.17-2.23,2.31-4.48,3.46-6.73.32.73-1,1.63.35,2.51a9.24,9.24,0,0,1,.57-2.38c.89-1.6.95-1.56.72-2.37,2.41-1.29,4.64-1.77,7.35-.23s5.9,1,9.15,1.42c-.32-.4-.42-.63-.57-.68-3-1-6-2-9-2.77-1-.26-1.76-.42-1.81-1.6a2,2,0,0,0-1.51-1.83l-1,.8c.27-1.1,1-2.17.07-3.32-.13-.18,0-.72.19-1,1.24-2,2.69-3.61,5.15-4a3.26,3.26,0,0,0,1.79-.85c1.38-1.49,2.62-3.11,3.95-4.66a5,5,0,0,0,1.27-2.34c.13-.64,1-1.28,1.7-1.64,1.42-.75,3.1-1,4.19-2.34.23-.3.89-.32,1.35-.34.77,0,.74,0,1.66-1.09.21-.25.77-.19,1.43-.33-1.23-.71-2.54-1.11-2.84-2.59,0-.21-.88-.34-1.35-.35-1.47,0-2.95.09-4.43.1-.65,0-1.29-.09-2.33-.17,1.34-1.48,2.67-.89,3.82-1s2.49,0,4,0c-1.32-1.44-3-1.06-4.28-1.56-.67-.25-1.87-.66-1.84-.89.14-1.12,1.21-.84,2-1,1.45-.25,2.88-.59,4.33-.8a15.83,15.83,0,0,1,3.15-.19c2,.1,3.93.36,5.9.48.33,0,.68-.3,1-.46-.19-.35-.29-.87-.58-1-1-.44-2-.68-3-1.12a6.28,6.28,0,0,1-1.28-1.1c.56-.16,1.12-.33,1.69-.47a1,1,0,0,1,.42,0c3.87.47,7.74,1,11.62,1.39a24.92,24.92,0,0,0,4.64.26,16.06,16.06,0,0,0,3.45-1.06l-4-1.78a4.24,4.24,0,0,1-1.12-.58,4.09,4.09,0,0,1-.63-1c.36-.17.75-.51,1.08-.47,1.68.19,3.35.46,5,.76s3.59.72,5.76,1.16c-1.84-1.06-3.37-1.9-4.87-2.81a6.87,6.87,0,0,1-1.1-1.06c.44-.26.88-.75,1.32-.76,2.68,0,5.36,0,8,.19,2.17.12,4.33.42,6.84.67-3-1.1-6-.86-8.68-2.26.52-1.07,1.28-1,2-.84,3.82.66,7.65,1.26,11.45,2,3.31.65,6.6,1.46,9.9,2.19a1.68,1.68,0,0,0,1.36-.23,14.57,14.57,0,0,0-2-.72c-4.05-.9-8.11-1.75-12.17-2.64a8.85,8.85,0,0,1-1.44-.58l0-.49a5.43,5.43,0,0,1,1.45-.3c2.87.28,5.74.56,8.6,1a8.19,8.19,0,0,0,4.31,0c1.05-.39,2.37,0,3.57,0a15,15,0,0,0,3.63-.29c-1.44-.24-2.89-.43-4.31-.75a4.74,4.74,0,0,1-1.32-.84c.47-.34.94-1,1.4-1a71.16,71.16,0,0,1,7.58.55,3.43,3.43,0,0,0,3.38-1.06c1.2-1.28,2.58-2.4,3.91-3.57a3.06,3.06,0,0,1,1.23-.78,4.88,4.88,0,0,1,1.5.15,3.72,3.72,0,0,1-.37,1.44c-1,1.24-2.07,2.39-3,3.66a7.89,7.89,0,0,0,4.3-4.14c.63-1.26,1.33-2.48,2.06-3.69a1.27,1.27,0,0,1,2-.35c.93.58.38,1.19,0,1.79-.61,1-1.23,2-1.84,3l-.61,1.67.44.27,2-2.25-.26-.21-1.54.54a12.23,12.23,0,0,0,4.89-8.25c0-.22.32-.41.53-.67,1.46,1.17.19,2.58.48,3.84,1.67-1.32,1.24-3.51,2.31-5.32,1.62,1.67-.06,4.32,2.09,5.48a14.53,14.53,0,0,1,1.33-1.91c.75-.82,1.69-.54,1.76.56a7,7,0,0,0,1.05,3.75c.27.37,0,1.24-.2,1.81-.48,1.4-1.1,2.75-1.6,4.15A19.28,19.28,0,0,0,280.9,78l.38.21c.3-.32.7-.58.86-1,1.25-2.76,2.44-5.54,3.65-8.31.06-.13,0-.32.07-.41.47-.56,1-1.59,1.43-1.54,1,.13.44,1.1.44,1.74a2.84,2.84,0,0,0,0,1.24c.22.45.68.78,1.13.13a3.66,3.66,0,0,0,.28-.56c.32-.72.67-1.69,1.56-1.38.67.24,1.18,1.08,1.64,1.73a6.63,6.63,0,0,1,.5,1.66,6.25,6.25,0,0,1,.7-1.77c.41-.47,1.11-1.1,1.58-1s1.06.84,1.27,1.43a6.59,6.59,0,0,1,.07,2.09v3.76c.72.27,1.6.35,2,.83a4.15,4.15,0,0,1,.67,2.16c.27,2.66.42,5.34.7,8a3.19,3.19,0,0,0,.77,1.87,3,3,0,0,1,.81,2.87c-.3,2.37-.45,4.75-.67,7.35,2.45-2,1.47-4.89,2.53-7.22.8,1.14.8,1.14,1,3.47,2-1.3,3.53.36,5.27.78a1.31,1.31,0,0,1,.37,1.14c-1.8,2.38-.21,4.38.67,6.43a8,8,0,0,0,1.71,2.65,3.41,3.41,0,0,1,1,3.13L307,108.17c1.33-1.22,2.84-.47,4.52-.4l-2.55-4.47c-1.34,1.25-2.65,2.22-3,4.12a17.47,17.47,0,0,1-1.37,3.24c1.2.44,2.42.93,3.66,1.34s2.42.89,3.8,0c1-.66,2.92-.3,3.09.31.39,1.37-.86,1.76-1.61,2.41-.58.51-1.31.86-1.85,1.41-.29.28-.32.83-.47,1.26l.49.22a4.7,4.7,0,0,1,.8-1c.42-.31,1.07-.75,1.4-.61a1.89,1.89,0,0,1,1,1.35c0,1.61-.15,3.23-.26,4.85a4.07,4.07,0,0,0,.15,1.9c.52-1.29,1.1-2.55,1.55-3.86a2,2,0,0,1,2.3-1.35,1.46,1.46,0,0,1,1.3,1.86c-.52,2.47.66,4.65,1.15,6.9a63.57,63.57,0,0,1,1.51,10.64c.23,5,.88,10,1.24,14.95.17,2.38.07,4.78.11,7.17,0,1.26.22,2.54.14,3.79-.27,4.37-.63,8.72-1,13.08a62.52,62.52,0,0,1-.55,6.73c-.47,2.61-1.43,5.13-2,7.73-.89,4.2-1.59,8.44-2.42,12.65a11.08,11.08,0,0,1-.76,2l-.66-.11c-.38-3.31-.75-6.62-1.13-10-.35,0-1,.19-1.47,0a2.12,2.12,0,0,1-.83-1.37c-.2-1.18-.21-2.38-.32-3.57q-.51-5.57-1.05-11.13c-.12-1.2-.78-1.55-2-1.08.4,1.61.9,3.21,1.17,4.85a20.94,20.94,0,0,1-.14,2.84c0,1.4.13,2.79.28,4.18a20,20,0,0,0,.53,2.26l0,0-.68,1.07a11.09,11.09,0,0,1-1.06-5.08c-.14-5-1.69-9.55-3.56-14.06-.13-.33-.21-.78-.46-.94-3.31-2.09-4.87-5.55-6.88-8.66a2.7,2.7,0,0,0-.43-.38,11.77,11.77,0,0,1-1.07,2,1.85,1.85,0,0,1-1.37.69,1.64,1.64,0,0,1-1.06-1.1c-.24-1.24-.18-2.53-.39-3.77a12.65,12.65,0,0,0-.82-3c-1-2.4-2.2-4.73-3.16-7.16a20.85,20.85,0,0,0-2.29-3.4c-.65-1-.33-2.63-.85-3.81a82.49,82.49,0,0,1-4.55-13.62,21.31,21.31,0,0,0-1.77-5.28c-.44-.79-1.82-1.14-2.84-1.49a4.61,4.61,0,0,0-1.88,0,2.19,2.19,0,0,1-2.37-1,2.35,2.35,0,0,0-2.29-1.21,2.27,2.27,0,0,1-1.24-.17c-3-2.12-6.47-1.38-9.57-.92-8,1.16-16,2.83-23.91,4.42a91.65,91.65,0,0,0-9.81,2.53c-7.49,2.37-15.25,3.7-22.74,6a4,4,0,0,1-2.09,0l5.22-1.58-.05-.28c-1.12.18-2.26.29-3.36.56-2.45.62-4.87,1.39-7.34,2a1.51,1.51,0,0,0-1.38,1.71c-.25,5.85-.57,11.69-.85,17.53-.06,1.26.08,2.54-1.42,3.21-.32.14-.41.79-.81,1.63l3.56-2.11.32.32a4.69,4.69,0,0,1-.71.92c-1.5,1.17-3,2.29-4.55,3.45-.33.25-.88.66-.83.88.42,1.89-1.28,2.06-2.19,2.87-1.94,1.74-3.86,3.48-5.76,5.26A21.38,21.38,0,0,0,181,173,2.64,2.64,0,0,0,178.79,175.89Zm15.77-43.11.16.4c-1.87.94-.79,2.41-1,3.66.16-1,.32-2,.58-3.51,1.17,1.9,2.33,1.51,3.56,1.09s2.57-.7,3.85-1.09a7.77,7.77,0,0,0,1.17-.55l-.07-.49a19.2,19.2,0,0,0-2.4,0,10.14,10.14,0,0,1-6.52-1.35,15.2,15.2,0,0,0-5.69-1.93c-2.49-.43-5-.95-7.47-1.37-.28,0-.63.31-.95.49.27.19.5.49.79.57.5.15,1.18,0,1.53.27,2.42,1.9,5.4,2.21,8.22,2.95C191.73,132.3,193.15,132.5,194.56,132.78Zm108.53,35.76.66-.24c-.12-1.25-.21-2.5-.36-3.74-.06-.55-.08-1.41-.41-1.58-2.2-1.15-1.68-3.21-1.79-5-.24-4-.4-8-.58-12a10.51,10.51,0,0,0-.33,2.93,71.32,71.32,0,0,1-.55,9.27c-.51,2.81-.4,5.21,1.48,7.46A27.45,27.45,0,0,1,303.09,168.54Zm-12.25-58,.2.35a3.62,3.62,0,0,0,1.08-.37c.79-.6,1.48-1.31,2.26-1.92a16.51,16.51,0,0,0,5.16-6.84,3,3,0,0,0,.39-1.35c-.15-1-.47-2-.8-3.34l-2.72,3.53,2.27.19a6,6,0,0,1-.35,2.13,15.07,15.07,0,0,1-2.28,2.77C294.36,107.38,292.58,109,290.84,110.57ZM249,121.48l.07.15c3-.55,5.93-1.16,8.92-1.62,1.54-.23,3.14-.79,4.6.57.7.64,1.24.15,1.52-1a1.65,1.65,0,0,1,.73-.88c.8-.52,1.65-1,2.48-1.42l-.1-.19Zm-64.25,3.26,4.83,2.43a20.79,20.79,0,0,0,2.09,1c.2.06.54-.26.81-.41-.16-.19-.28-.48-.48-.54-.86-.28-1.77-.42-2.62-.74a2.32,2.32,0,0,1-1.82-2.68c0-.73,0-1.46,0-2.19l-.43-.1ZM294,156.18l.25-.07c-.06-.25-.1-.51-.16-.76-.23-.91-1.2-1.85.14-2.69.1-.07.05-.41,0-.61-.16-1.58-.34-3.15-.55-5.05-1,1-2.23,1.57-1.91,2.79C292.39,152,293.28,154.06,294,156.18Zm-83.2-52-.25-.44a84.53,84.53,0,0,0-11.42,4.92c3.8-1.16,7.56-2.47,11.29-3.81C210.64,104.77,210.71,104.4,210.83,104.17ZM231,82.61l-11-.87C223.62,83.34,227.34,82.91,231,82.61Zm90.13,61.27-.55,0v6.3c0,.8,0,1.58,1.39,1.41C321.73,149,321.45,146.43,321.17,143.88ZM261.69,92.57c2.77-.85,5.36-2.65,6.08-4.1C265.27,89.46,262.61,91.19,261.69,92.57ZM182,119.78a4.07,4.07,0,0,0-2.87,3c2.46,1.14,2.53,1.12,3.26-1l-1.66.52-.22-.29Zm8.15-2a3.21,3.21,0,0,0,3.15-.39,1.13,1.13,0,0,0,.25-1.06,1,1,0,0,0-.9-.48C191.55,116.08,190.42,116.32,190.12,117.79Zm131.9,48h.4V153.17H322ZM159.24,136.9a14.54,14.54,0,0,0-.5,8.57C158.44,142.75,159.73,140.11,159.24,136.9Zm24.53-26.59.51.38,4.25-5.64A19.67,19.67,0,0,0,183.77,110.31Zm102,18.88c-.52.54-1.36,1.09-1.28,1.38a28.89,28.89,0,0,0,1.47,3.62l.31-.13Zm-94.05,9.33c1.29-1,.8-2.11.83-3.06,0-.24-.52-.48-.8-.73-.23.29-.68.61-.65.87A26,26,0,0,0,191.74,138.52ZM274,119.42l.21.44,5.42-2.67C276.83,116.62,275.54,118.32,274,119.42Zm23.7,32.66-.66,0a13.59,13.59,0,0,0,.66,5.7ZM293,138.34a17.35,17.35,0,0,0-2.55.27,1.16,1.16,0,0,0-.65.9,1.1,1.1,0,0,0,.85.67A2.2,2.2,0,0,0,293,138.34Zm-76-28.6c1.3,1.08,2.65.6,4.41-1.37Zm.49,19c2.16.49,3.78-.25,5.44-.66C221.3,128.27,219.49,127.36,217.55,128.75Zm95.28,20.9c.34-2,.69-3.93,1-5.9C312.09,145.47,312.56,147.58,312.83,149.65Zm-146.32,39,.51.13,1.2-5.64-.57-.12Zm1.69,3.55-.59-.18-.79,4.95.46.08ZM212.3,84.67c2.7,1.82,2.7,1.82,3.89.68Zm-21.8,58.38.53.21c.64-1.06,1.47-2.06.74-3.58Zm92.44-51.9c-1.82.29-2.13,1.49-2.5,2.64Zm19.45,46.6c.94-1.33,1.51-2.28,1.22-3.63C302.29,135.56,302.29,135.56,302.39,137.75Zm10.27,23.82c.06-1.6.89-3.17.13-4.67a25.42,25.42,0,0,0-.38,4.15C312.4,161.22,312.57,161.4,312.66,161.57ZM176.59,142.92l-.35-.13-1.78,4.44a1,1,0,0,0,.83-.68C175.74,145.35,176.16,144.13,176.59,142.92Zm103.78-18.65,2.07.82c.07-.31.3-.73.18-.91C282.16,123.5,281.56,123,280.37,124.27Zm10.85,19-2.3-.11,1,2ZM186.4,157.76c-1.2,1.33-1.2,1.33-.64,2.79ZM320.3,132.7c-.73,2.4-.73,2.4.39,2.89C320.55,134.56,320.42,133.63,320.3,132.7ZM284.52,77.14l-.42,0a9.37,9.37,0,0,0-.79,1.46c-.08.22.16.56.25.84.29-.14.8-.22.84-.41A11.16,11.16,0,0,0,284.52,77.14ZM167.81,180.74l.6.09.62-3.15-.44-.1ZM225.17,94l0-.56-3.27.24,0,.32Zm64.2-17.6L288.73,79C290.36,78.4,289.59,77.33,289.37,76.37Zm-129.89,80,.29.12.24-2.77-.53-.05ZM305.25,165l-.31.08.48,3.6.32-.05ZM268.48,76.78l-.36-.31-1.76,1.85.5.43Zm-74.32,72.3.13.09v-3.61h-.13Zm-25.52,24.38.45.18.81-2.75-.42-.12Zm-8-13.92h.26l.18-2.59-.44,0Zm84.65-73.76-.11-.63-2,.5.09.47ZM262.4,78l-.39-.35-1.95,1.66.32.37Zm16.71-6.6-.32-.11c-.31.81-.62,1.61-.94,2.42l.47.16C278.58,73.06,278.84,72.23,279.11,71.41ZM174.63,121.12c.69.25,1.11,1.17,1.54,0,.1-.26,0-.61-.08-1.13Zm-6.5,80.3-.53-.19-.29,2.28.27.05Zm2.3-65.27.33.26,1.11-2-.38-.21Zm6.66-7.22-.21.58,1.55.27,0-.32Z"/><path class="cls-3" d="M187.72,187l-1.92-.22,1.71-2.35-1.26.28c0-.12-.1-.33-.05-.36.75-.51,1.52-1,2.27-1.51a23.12,23.12,0,0,0,2.68-2,33.06,33.06,0,0,1,3.72-2.63c3.23-2.37,7-2.39,10.6-2.79a143.66,143.66,0,0,1,20.21-1.25,8.51,8.51,0,0,0,2.46-.48c1.76-.47,2.58-.2,3.59,1.34.43.64.78,1.34,1.17,2s.82,1.09-.22,1.47c-.11,0-.06.68,0,1a20.28,20.28,0,0,1,.76,2.82c.1,1-.65,1.46-1.27.82-1.55-1.61-3.46-1.39-5.34-1.33-3.51.12-7,.25-10.53.52a18.22,18.22,0,0,0-4,.95,21.83,21.83,0,0,0-4.22,1.42c-1,.53-2.32.22-3.44.51-2,.53-4,1.33-6,1.82a12.43,12.43,0,0,1-4.15.41,10.7,10.7,0,0,0-5.51,1c-.59.25-1.21.73-1.65,0C187.15,188.2,187.55,187.57,187.72,187Z"/><path class="cls-3" d="M258.58,173.4c.72,0,.85,1.3,1.65.4a1.4,1.4,0,0,1,1-.23q6.1,0,12.22.14c2.06,0,4.18.6,6.11.51s3.41,1.14,5.2.72a.5.5,0,0,1,.4.08c1.6,1.59,3.72,1.31,5.67,1.75,1.35.31,2.48,1.5,3.75,2.22a11.12,11.12,0,0,0,3.21,1.49,10.43,10.43,0,0,1,6.37,4.06,2.15,2.15,0,0,1,0,1.87,1.88,1.88,0,0,1-1.44.86,11.93,11.93,0,0,1-2.68-.5c-4.57-1.12-9.28-1.7-13.67-3.55a3,3,0,0,0-1.23-.15,7.25,7.25,0,0,1-4-.92,9,9,0,0,0-5-1.37c-3.27.45-6.51-.29-9.77.28a74.57,74.57,0,0,1-8.6.67c-1.33.07-1.7-.83-1.61-2.23C256.25,177.16,257.8,175.49,258.58,173.4Z"/><path class="cls-3" d="M246.49,422.44a5.1,5.1,0,0,1-1.65-3.44A35.37,35.37,0,0,0,241,408.74a38.4,38.4,0,0,1-1.88-3.45,28.6,28.6,0,0,1,7,11.84,14.11,14.11,0,0,0,.15-2c-.16-2-.36-4.08-.62-6.1-.77-6,1.71-10.87,5.36-15.28a25.68,25.68,0,0,1,4.46-4.19,31.49,31.49,0,0,1,4.76-2.65c2.19-1.1,4.43-2.11,6.64-3.2a28.28,28.28,0,0,0,2.58-1.44c2.09-1.29,4.17-2.62,6.23-4s4.09-2.76,6.2-4a94.16,94.16,0,0,0,13.15-9.57,50.18,50.18,0,0,0,7.78-8.31c.32-.44.7-.83,1.34-1.58-.3,3.58-.95,6.5-3.43,8.74a98.44,98.44,0,0,1-18.65,13.81,12.68,12.68,0,0,0-2.33,1.46,65.15,65.15,0,0,1-11.92,7.58,53,53,0,0,1-6.33,2.88,16.65,16.65,0,0,0-5.39,3.23c-3,2.7-5.67,5.62-7.16,9.53a17.69,17.69,0,0,0-1.28,6.79,30.55,30.55,0,0,1-1,10.24A15.35,15.35,0,0,0,246.49,422.44Z"/><path class="cls-3" d="M189.6,326.11l-.36,1.16,3.44-.63.16.3a6.38,6.38,0,0,1-1.06.57A15.21,15.21,0,0,0,185,332c-1.81,2-3.74,3.85-5.46,5.89a8.48,8.48,0,0,0-1.65,8.53,37.3,37.3,0,0,0,1.15,4.06c.36.8.11,2.44,1.88,2.07.09,0,.25.32.37.49,3.16,4.33,6.22,8.74,9.49,13,2.28,2.95,4.79,5.74,7.33,8.47a33.13,33.13,0,0,0,4,3.17c2,1.6,4.18,3.12,6.15,4.83a16.75,16.75,0,0,0,5.36,3.29c2.46.88,4.89,1.84,7.31,2.8,4.66,1.84,8.6,4.85,12.52,7.84a6.76,6.76,0,0,1,2.56,6.49c-.49-.65-.71-.91-.88-1.19a21.12,21.12,0,0,0-5.52-5.75c-5-3.88-10.67-6.29-16.52-8.42a17.48,17.48,0,0,1-5.85-3.69c-2.14-1.94-4.43-3.72-6.7-5.5a51.92,51.92,0,0,1-9.08-9.42c-.73-1-1.41-1.95-2.05-3a12.39,12.39,0,0,0-5-4.93,11.65,11.65,0,0,1-3.9-3.76c-3.2-4.38-4.68-9.42-5.31-14.94-1,2.76-3.65,3.54-5.79,4.9a4.93,4.93,0,0,1-1.54.68,1.34,1.34,0,0,1-1.13-.23,1.13,1.13,0,0,1,.18-1.09,21.79,21.79,0,0,1,3.81-2.94,5.63,5.63,0,0,0,3-3.12,12.74,12.74,0,0,1,3.79-5.27c1.44-1.24,2.78-2.61,4.14-4A22.21,22.21,0,0,1,189.6,326.11Z"/><path class="cls-3" d="M173,219.14a6.57,6.57,0,0,1,.6,1.55c.31,6.1,2.15,11.91,3.42,17.82,1.14,5.3,2.51,10.55,3.72,15.83.6,2.68,1,5.4,1.6,8.09s1.56,5.54,3.77,7.63a5.67,5.67,0,0,1,1.1,1.78c2.1,4.51,5.81,7.94,8.1,12.32a11.06,11.06,0,0,0,1.06,1.24,8.57,8.57,0,0,1,.86,1.5,14.51,14.51,0,0,0,.61,1.68,90.5,90.5,0,0,0,15,17.43c1.39,1.28,2.69,2.66,4.08,4l.74-1.2c1.25,1.52,2.35,3.06,3.65,4.43,3.78,4,7.37,8.22,13.38,9.08l-1.58-1.31a4.74,4.74,0,0,1-1.45-1.76,9.4,9.4,0,0,1,1.8.88,18.3,18.3,0,0,0,10.22,3.58c3.71.31,7.41,1.15,11.11-.09.19-.06.54-.13.6,0,1.32,1.78,2.58.26,3.52-.3,3.64-2.15,7.15-4.53,10.7-6.83a7.58,7.58,0,0,1,1.94-1,2.66,2.66,0,0,1-.42.76c-4.47,4.19-9.37,7.78-15.41,9.23a24.57,24.57,0,0,1-7.57.23c-3.93-.32-7.83-1-11.74-1.48a20.92,20.92,0,0,1-11.2-5.1c-2.93-2.54-5.62-5.35-8.43-8-1.28-1.22-2.56-2.43-3.88-3.59a3.63,3.63,0,0,0-2.53-1.32c-.86,0-1.83-1.23-2.52-2.09-2.34-2.91-4.62-5.88-6.84-8.88q-5-6.81-10-13.69c-1-1.37-1.81-2.86-2.75-4.26-.3-.45-.52-1.5-1.34-.42-.45-.38-1.06-.66-1.31-1.14-.9-1.67-1.55-3.49-2.52-5.12-.67-1.11.68-2.21-.37-3.34a8.1,8.1,0,0,1-1.55-3.2c-.68-2.28-1.18-4.62-1.8-6.92a21.84,21.84,0,0,1-.87-3.73l.76,1.61.4-.12a67.51,67.51,0,0,0-1.58-7.1c-2.51-7.49-3.33-15.35-5.19-23a28.36,28.36,0,0,1-.44-4.62C172.48,219.94,172.7,219.7,173,219.14Z"/><path class="cls-3" d="M309.87,325.89c3.66,4.58,5.43,9.85,7,15.23.89,3.14.49,6.26-.19,9.41A23.55,23.55,0,0,1,310,363a60.7,60.7,0,0,1-10.88,8.69c-.4.24-.84.43-1.72.88a10.22,10.22,0,0,1,.82-1.57c3.1-3.74,6-7.65,9.38-11.16,3.84-4,5.44-8.91,6.07-14.12.31-2.51-.45-5.16-.89-7.72-.24-1.45-.87-2.83-1.23-4.27-.41-1.66-1.5-2.48-3-3.25-3.05-1.58-5.95-3.44-8.9-5.2-.07-.05,0-.25-.11-.54,3.86-.07,5.95,3.91,10.09,4.19-3.34-3.77-6.12-7.57-11.83-7.05a2.92,2.92,0,0,1,3.26-1.2,11.89,11.89,0,0,1,5.79,2.9,4.65,4.65,0,0,0,2.55,1.29,11.91,11.91,0,0,1,2.86,1.28,35.87,35.87,0,0,0,5.18,2.27c5.35,1.46,9.57,4.72,13.7,8.15.31.25.35.83.51,1.25a3.67,3.67,0,0,1-1.49.1,4.35,4.35,0,0,1-1.28-1.09,29.58,29.58,0,0,0-12.34-7.5,28.15,28.15,0,0,1-4.54-2.17C311.26,326.8,310.58,326.32,309.87,325.89Z"/><path class="cls-3" d="M216.22,268.85a10.5,10.5,0,0,1,2.18-.38c3.1.13,6.19.34,9.29.52s6.19.44,9.28.48c3.67,0,7.35,0,11-.21,4.35-.32,8.7-.81,13-1.47,3.82-.59,7.59-1.5,11.38-2.32a4.93,4.93,0,0,0,2.27-1.29c-2.33-.37-4.67-.67-7-1.13a16.48,16.48,0,0,0-7.13.29A66.2,66.2,0,0,1,242,264.72c-3.79-.19-7.56-.84-11.34-1.31a18.14,18.14,0,0,0-14.25,4c-.32.26-.68.47-1,.7,0,0-.13,0-.57-.13a14.34,14.34,0,0,1,1.53-1.91c3.93-3.51,8.63-4.63,13.76-4.12,3.92.38,7.82,1.17,11.75,1.36a58.26,58.26,0,0,0,15-.92c3.38-.71,6.76-1.57,10.26-1.07,3.07.43,6.14.93,9.2,1.42,1,.17,2.08.37,3.1.64a6.83,6.83,0,0,1,2.16.8,5.79,5.79,0,0,1,1.13,1.54,8.18,8.18,0,0,1-1.72-.06c-.75-.17-1.45-.59-2.2-.73a2.36,2.36,0,0,0-1.61.14c-3.4,2.3-7.36,2.87-11.22,3.49-5.5.88-11.06,1.85-16.59,1.86-7.52,0-15.07,1-22.59-.4a85.73,85.73,0,0,0-8.94-.73l-.1.47c2.6,1.35,5.2,2.69,7.78,4.07a44.4,44.4,0,0,1,4.42,2.49,35.08,35.08,0,0,0,13.16,5.53,16.84,16.84,0,0,0,6.29,0c3.79-.73,7.62-1.49,11-3.51a1.08,1.08,0,0,1,1,0l-3,2.49c2.71-.18,4.63-1.61,6.42-3.27a66.47,66.47,0,0,1,5.31-4.7,4.48,4.48,0,0,1-.52.81c-2,2-4,4-6.12,5.84a9.19,9.19,0,0,1-6.82,2.33,13,13,0,0,0-4.38.51c-5.06,1.57-9.92.81-14.67-1.06a62.51,62.51,0,0,1-6.59-3.32c-4.2-2.29-8.38-4.63-12.56-7-.83-.46-1.6-1-2.4-1.54Z"/><path class="cls-3" d="M184.2,393.54c-5.3-2.29-8.88-6.67-12.7-10.67s-5.82-9.37-6.73-15c-1.1-6.8-1-13.63-.82-20.47,0-1.74.28-3.47.47-5.61-3.32,1.6-6.3,3-9.26,4.47-4.54,2.25-9.12,4.45-13.59,6.86-5.9,3.17-11.71,6.5-17.55,9.8-2.76,1.56-5.46,3.22-8.22,4.78a26.92,26.92,0,0,1-4.16,2.08c-5.64,2-11.28,4.05-17,5.85a25.45,25.45,0,0,0-9.93,5.84c-2,1.92-3.93,4-5.89,6.05l-.42-.26a9.21,9.21,0,0,1,.47-1.4,22.83,22.83,0,0,1,7-7.83,19.25,19.25,0,0,1,9.33-4.2,27.7,27.7,0,0,0,5.45-1.64c2.66-.93,5.37-1.76,7.92-2.94,4-1.86,8-3.84,11.87-6,9.35-5.25,18.66-10.55,28.42-15,7.24-3.31,14.33-7,21.48-10.45.11,0,.26,0,.59.25-1.43.88-2.82,1.84-4.3,2.62a2.44,2.44,0,0,0-1.46,2.29c-.48,8.17-.63,16.31.77,24.45,1,5.6,2.95,10.58,6.91,14.65,2.21,2.28,4.62,4.36,6.94,6.53,1.33,1.25,2.68,2.47,4,3.74a4.08,4.08,0,0,1,.6,1.09Z"/><path class="cls-3" d="M315.23,210c2.43-3,5.27-2.26,7.69-.09a8.44,8.44,0,0,1,3,8.3c-.46,2.33-.55,4.8-2.41,6.63-.22.22-.21.66-.3,1-1.22,4.55-2.47,9.09-3.62,13.66-.58,2.31-.95,4.68-1.43,7-.88,4.3-2.52,8.21-5.85,11.23a3.59,3.59,0,0,1-5,.33c-.23-.15-.43-.32-1-.71a68.25,68.25,0,0,1-1.93,7.41,40.46,40.46,0,0,1-3.5,6.42c-.31-2.49,1.42-4.29,1.94-6.55l-2,2.07c-.4-1.25.26-1.71,1-2.17a4.12,4.12,0,0,0,2.23-3.54c.05-1.25.87-2.47,1.35-3.71,2.43-6.34,3.64-13,5-19.6l.62-2.94.42.94.25,0a29.73,29.73,0,0,1-.27-3.87c.06-1.28.55-2.54.65-3.82a94.5,94.5,0,0,0,.68-12.21c-.13-2.46.93-3.94,2.22-5.57A1.89,1.89,0,0,1,315.23,210Zm4.7,17.25c-.4-.19-1-.3-1-.48a10,10,0,0,1,0-2.32c.25-2.16.59-4.31.83-6.48a7,7,0,0,0-.07-2.1c-.25-1.29-.78-1.62-2.09-1.49-.63.07-1.25.18-2.23.32,2.67-2.35,4.87-1.82,5.72,1a4.76,4.76,0,0,1,.32,1.87c-.33,2.49.32,5.09-.74,7.51a2,2,0,0,0,.52,2.51c1-2.51,1.94-4.92,2.84-7.35a13.58,13.58,0,0,0,.64-2.45c.56-3-.64-5.38-2.77-7.35a3.4,3.4,0,0,0-4.28-.62c-1.95,1.41-4,3.08-4.17,5.79-.34,4.57-.56,9.14-.79,13.72a4.6,4.6,0,0,0,.36,2c.85,2,2,3.89,2.67,5.93,1.19,3.51-.36,6.47-2.39,9.2-.22.29-.83.29-1.26.42l-.4-.36c3.46-4.33,4.16-8.82.89-13.81-.59,5.8-1.16,11.38-1.73,17l-.21,0-.25-1a21.71,21.71,0,0,0-1.94,3c-.57,1.27-.82,2.69-1.32,4-.32.86-.06,1.44.69,1.68s1.88.65,2.4.31c1.43-.92,3.17-1.94,3.82-3.37a58.49,58.49,0,0,0,5.31-21l-2.15,3.44C317.5,233.38,320.4,230.82,319.93,227.26ZM311,240.34l-.37-.06-1.05,6.06.37.06Z"/><path class="cls-3" d="M260.42,203.53c3.42-2.31,6.84-.4,10.45,0-.7-2.56.49-4.79,1.18-7.31a26.78,26.78,0,0,0-12.08,6.1,4.2,4.2,0,0,1,1.85-2.58c5.57-4.15,11.73-6,18.67-4.69,4.4.83,8.6,2.14,12.25,4.87a20.94,20.94,0,0,0,2.05,1.07,2.65,2.65,0,0,1,.91,1.05c-2.31-.15-4,1.22-5.86,2-4,1.75-8.07,3-12.5,2.28a43.63,43.63,0,0,1-5.56-1.19C268.08,204,264.43,202.71,260.42,203.53ZM285,197.65a8.71,8.71,0,0,1-1.7,7.16l.33.36,8.85-3.68A14.37,14.37,0,0,0,285,197.65Zm-10.13,4a1.36,1.36,0,0,0,.17-2c-.08-.12-.48,0-.72,0,.08.62.17,1.24.26,1.87C274.56,201.63,274.68,201.64,274.84,201.69Z"/><path class="cls-3" d="M194,201.19l-1,.7-.32-.29a10,10,0,0,1,1.53-1.75c4.75-3.35,9.76-6.21,15.53-7.36,3.65-.73,7.28,0,10.85.82.85.2,1.75.54,1.77,2a16.7,16.7,0,0,0-8.56-1.67,5.87,5.87,0,0,1,1.75,7.36c2.57-.26,5-.62,7.49-.73s4.92-1.19,7.15.41l0,.59h-2a60,60,0,0,0-15.62,2.12c-2.81.77-6,.55-9,.32a56.26,56.26,0,0,1-8-1.62,6.3,6.3,0,0,1-1.59-.89l9.37,1.45c-1.13-2.37-1.44-4.41,0-6.82A39.26,39.26,0,0,0,194,201.19Zm11.42-1c1.35-.94,1.27-1.47-.44-2.28Z"/><path class="cls-3" d="M266,410.85a22.57,22.57,0,0,1,3.16-2.41c8.46-4.36,17-8.64,25.44-13a15.64,15.64,0,0,0,1.63-1c4.44-3,8.89-6,13.29-9.05,1.33-.92,2.51-2.05,3.77-3.07,3.12-2.53,6.28-5,9.35-7.59a16.19,16.19,0,0,0,2.39-2.87c.33-.45.43-1.06.74-1.52,4.26-6.37,5-13.66,5.41-21,.16-2.74.33-5.49.53-8.23a20.9,20.9,0,0,1,.43-2.24c.32.39.55.54.55.68-.11,8.26-.46,16.5-2.29,24.6a10.75,10.75,0,0,1-.83,2.39c-1.22,2.46-2.41,5-3.8,7.32a32.56,32.56,0,0,1-2.92,3.75l-.42-.23.15-1.83c-3.23,3-6,5.78-9,8.28-2.76,2.28-5.8,4.23-8.71,6.33-1.32.94-2.72,1.79-4,2.83a58.57,58.57,0,0,1-11.67,7.2c-6.57,3.26-13.1,6.6-19.63,9.94-2.07,1.06-3.1,3-4,5-.65,1.49-1.23,3-1.89,4.48a5.93,5.93,0,0,1-1.16,1.72c.42-3.8,1.12-7.47,3.5-10.6Z"/><path class="cls-3" d="M163.86,212.43c-1.91-1-3.38-1.79-5.17-1.08-.79.31-1.41.62-1.61,1.47a34.83,34.83,0,0,0-.91,3.89,30.07,30.07,0,0,0,2.12,16.75c.35.77.86,1.45,1.24,2.2s1.45,1.42.08,2.24a1.51,1.51,0,0,0,.27.85c1.38,1.69,2.76,3.38,4.2,5a32.51,32.51,0,0,1,6.69,11.87,6.57,6.57,0,0,0,3.46,4.31,21.58,21.58,0,0,0,4,1l-.53,1.36,1.69.4c-.24.13-.41.32-.57.31-3.38-.3-6.31-1.48-8.07-4.58a42.4,42.4,0,0,1-2.12-4.59c-1.61-4-4.27-7.26-6.72-10.7-2-2.86-4-5.76-5.91-8.73-1.51-2.41-1.53-5.26-1.79-8-.39-4.06-.74-8.15.29-12.19.2-.81.47-1.61.73-2.41a3.07,3.07,0,0,1,2.81-2.22c.42,0,.84-.06,1.26-.12C162,209.06,162.37,209.27,163.86,212.43Z"/><path class="cls-3" d="M333.39,338.42a43.35,43.35,0,0,0,3.78,2.57,37.08,37.08,0,0,0,5.56,2.53c5.34,1.81,10.76,3.4,16.1,5.2,2.86,1,5.65,2.2,8.46,3.32q6.69,2.65,13.38,5.31a7.47,7.47,0,0,1,3.78,2.76,23.76,23.76,0,0,1-2.75-.22,14.42,14.42,0,0,1-2.63-.78c-5.87-2.4-11.73-4.84-17.61-7.24-1.63-.66-3.29-1.27-4.95-1.84-4.93-1.7-9.93-3.21-14.78-5.11a41,41,0,0,1-6.91-4,10.42,10.42,0,0,1-1.87-2.08Z"/><path class="cls-3" d="M184.56,337.23c1.53-1.18,3-2.42,4.61-3.54,1.32-.93,2.72-1.76,4.13-2.56a2,2,0,0,0,1.13-2.05c-.25-4.57-.36-9.14-.76-13.7-.47-5.31-1.24-10.6-1.76-15.91-.21-2.16.24-4.43-.29-6.48-.46-1.81-.06-3.58-.46-5.33a11.2,11.2,0,0,1,0-2.39l.44-.07a4.48,4.48,0,0,1,.45,1.18c.4,3.71.72,7.42,1.15,11.13q.68,5.87,1.53,11.71a134.22,134.22,0,0,1,1,21.3c0,.75.29,2.45-1.64,1.56-.25-.11-.77.28-1.11.51-2,1.32-4,2.67-6,4-.67.45-1.35.87-2,1.31Z"/><path class="cls-3" d="M269.69,318.7c2.51-2.9,5.08-5.75,7.51-8.71a95.06,95.06,0,0,0,6.76-9.31l-1.15.48-.33-.25c6.71-8.32,13.12-16.83,16.83-27l.62.29c-.42,1.29-.83,2.59-1.26,3.88s-1.29,2.29-.88,3.77c.12.46-.37,1.16-.71,1.66-2.45,3.51-4.93,7-7.4,10.49-4.38,6.2-8,12.92-13.3,18.47-1.65,1.74-3.29,3.48-5,5.19a15.89,15.89,0,0,1-1.58,1.23Z"/><path class="cls-3" d="M295.16,288.64a9.61,9.61,0,0,1,.06,1.93c-.88,5.91-.5,11.83-.06,17.74.4,5.27,1,10.52,1.51,15.79a10.66,10.66,0,0,1-.18,2.93c-.06.37-.62.65-1,1a3.48,3.48,0,0,1-.59-1.19q-.33-4.53-.53-9.06c-.33-7.61-.68-15.22-.91-22.83a34.65,34.65,0,0,1,.49-5.26,3.76,3.76,0,0,1,.55-1.07Z"/><path class="cls-3" d="M214.68,404.51c0-3.5,2.31-5.79,5.93-6a11.46,11.46,0,0,1,3.06-.19c3.51.84,5.14,3.7,4.18,7.25a8,8,0,0,1-3.94,5A6.18,6.18,0,0,1,214.68,404.51Zm1,0c-.15,4.51,4.15,6.75,7.24,4.9a6.54,6.54,0,0,0,3.09-4.12c.63-2.53-.05-3.79-2.43-4.88a11,11,0,0,0-1.71-.8,4.93,4.93,0,0,0-2.21-.18A5.26,5.26,0,0,0,215.73,404.51Z"/><path class="cls-3" d="M184.36,393.39c2.55,3.39,6.23,5.14,9.95,6.85a15.8,15.8,0,0,1,3.46,2A59.15,59.15,0,0,0,212,410.39c1.74.75,3.48,1.5,5.2,2.31.87.4,1.68.91,2.87,1.58-2.2.73-3.73-.17-5.09-.84-6.19-3-12.55-5.68-17.91-10.24-2.1-1.78-4.85-2.8-7.29-4.18a12.74,12.74,0,0,1-5.29-4.71,5.16,5.16,0,0,1-.31-.77Z"/><path class="cls-3" d="M255.79,334.8a18.13,18.13,0,0,1-2.28,2.8,13.27,13.27,0,0,0-4.36,6.57,27.19,27.19,0,0,1-1.61,4.13,11,11,0,0,1-2.29,3.21c-2.06,1.8-4,1.17-4.81-1.43a1.77,1.77,0,0,1,0-1.22c.23.42.44.85.69,1.27.88,1.51,1.77,1.74,3,.47a9.56,9.56,0,0,0,1.82-3c.72-1.83,1.28-3.72,1.86-5.61a11.68,11.68,0,0,1,4.21-5.91A5.22,5.22,0,0,1,255.79,334.8Z"/><path class="cls-3" d="M170.51,229c.23.38.62.73.57,1a3.49,3.49,0,0,1-.71,1.46,5.85,5.85,0,0,0-1.29,5.13,14.71,14.71,0,0,0,3.52,7.27c.27.28.28.79.41,1.19-.44.12-1,.44-1.32.3a3.28,3.28,0,0,1-1.45-1.13,15.07,15.07,0,0,1-3-10.7,5.61,5.61,0,0,1,2.25-3.9A8.76,8.76,0,0,1,170.51,229Z"/><path class="cls-3" d="M252.38,203.64c.47,4.82.89,9.64,1.43,14.45a33.53,33.53,0,0,0,1.08,6A36.46,36.46,0,0,0,257.2,229a3.31,3.31,0,0,1-2.45-2.43,53.82,53.82,0,0,1-1.88-8.18c-.54-4.17-.74-8.39-1.05-12.6a20,20,0,0,1,.09-2.18Z"/><path class="cls-3" d="M218.89,415.88c4.78,6,6.47,13,6.76,20.4l-.46.18a10.36,10.36,0,0,1-1-2.81C223.87,427.28,221.6,421.52,218.89,415.88Z"/><path class="cls-3" d="M267.29,399.15c.32-.34.65-.68,1.27-1.35-3.28.91-6.32,1.12-9,2.47l.09.41,5.55-1.27.14.45a10.94,10.94,0,0,1-5.72,1.79c-.41,0-1-.68-1.14-1.16-.09-.28.46-1,.85-1.13,2.95-.89,5.92-1.69,8.9-2.46.33-.08,1,.1,1.09.33a1.52,1.52,0,0,1-.09,1.34,6.34,6.34,0,0,1-1.6,1Z"/><path class="cls-3" d="M311.76,193.13c.68,2.47,1.44,4.93,2,7.42s1,4.79,1.44,7.2a13.13,13.13,0,0,1,0,2.26,1.89,1.89,0,0,0-.2.2c-.29-.43-.76-.83-.85-1.3q-1.1-5.79-2.05-11.62c-.23-1.38-.23-2.79-.34-4.19Z"/><path class="cls-3" d="M159.65,213.88c-1.63,4.25-1.25,8.62-1.12,13s2.72,8,4.1,12C157,231.53,156.17,218.58,159.65,213.88Z"/><path class="cls-3" d="M284,361.14c-3,2.7-4.48,6.46-6.75,9.66-1.73,2.45-3.85,4.64-5.82,6.91a2.06,2.06,0,0,1-1.3.63,41.81,41.81,0,0,0,3.86-4.26c2-2.89,3.77-5.92,5.6-8.92C281,362.73,281.7,362,284,361.14Z"/><path class="cls-3" d="M264.17,232.3l2.15,1.69a7.27,7.27,0,0,1,2.77,4.58,13.83,13.83,0,0,1,0,6.27,3.46,3.46,0,0,1-3.52,2.82c3.75-2.65,3.18-6.33,2.34-9.9-.3-1.26-1.44-2.34-2.29-3.43a15.61,15.61,0,0,0-1.76-1.68Z"/><path class="cls-3" d="M222.38,413.64c2.64-.84,5.26,0,7.89.08s5.14-1.48,7.82-.48A26.71,26.71,0,0,1,222.38,413.64Z"/><path class="cls-3" d="M266,410.82a12,12,0,0,1-6.21.55c-1.72-.29-3.5-.23-5.23-.51s-3.37-.79-5-1.2l.11-.49c.5.09,1,.2,1.52.27,1.32.18,2.63.36,3.95.5s2.52.27,3.78.32c1.75.06,3.5.08,5.25,0,.73,0,1.41-.19,1.85.57Z"/><path class="cls-3" d="M258.56,435.8A41.34,41.34,0,0,1,264.21,421q-2.47,7.5-5,15Z"/><path class="cls-3" d="M252.84,244.68a18.09,18.09,0,0,1,2.13-2.47,3.48,3.48,0,0,1,2.06-.76c1.71,0,3.41,1.88,3.76,4l-2.08-2.74c-.7,1.29-1.68,1.37-2.89,1.22C255,243.83,254.13,244.33,252.84,244.68Z"/><path class="cls-3" d="M225.31,232.51c-1.11,2.62-1.8,5.19-.89,8.08.83,2.65,1.42,5.3,4.37,6.49l-.21.37a6.48,6.48,0,0,1-2.06-1C224,243.87,221.72,236.71,225.31,232.51Z"/><path class="cls-3" d="M230.65,245.5c2.51-3,5.19-3.52,6.8-1.23Z"/><path class="cls-3" d="M247.34,284.88a3,3,0,0,1-2.32,2.76c-.79,0-1.12-.44-1.12-1.19a2.22,2.22,0,0,1,2.2-2.31C246.6,284.21,247,284.69,247.34,284.88Z"/><path class="cls-3" d="M198.38,209.18l12.48-1.12c-4.13.91-8.25,1.86-12.48,1.54Z"/><path class="cls-3" d="M237.15,203.59a18.45,18.45,0,0,0-.24-10C238.78,196.13,239,201.12,237.15,203.59Z"/><path class="cls-3" d="M163.57,222.68c1.69,3.31.64,6.7.44,10.07,0-1.69.05-3.39,0-5.07S163.72,224.35,163.57,222.68Z"/><path class="cls-3" d="M251.11,245.38c-1.86,3.64-4.36,4.36-7,2.46,1.13,0,2.54.4,3.68,0S250,246.23,251.11,245.38Z"/><path class="cls-3" d="M226.56,383.74l-6.46-6.21C222.86,378.94,225.38,380.61,226.56,383.74Z"/><path class="cls-3" d="M218.62,194.88c2.33,1.06,5.15,1.11,6.78,3.59l-7-3.21Z"/><path class="cls-3" d="M205.29,296.92c-1.58-1.08-2.42-2.76-3.42-4.31l.33-.29,3.53,4.23Z"/><path class="cls-3" d="M211.65,303.93c-.94-1.14-1.87-2.28-2.81-3.41C210.6,301.4,211.55,302.51,211.65,303.93Z"/><path class="cls-3" d="M178.79,175.89A2.64,2.64,0,0,1,181,173C180.24,173.93,179.52,174.91,178.79,175.89Z"/><path class="cls-3" d="M163.47,240.37l1.68,3.08-.35.22c-.56-1-1.13-2-1.7-3Z"/><path class="cls-3" d="M168.15,247.49l-2-2.17.32-.3,2,2.13Z"/><path class="cls-3" d="M321.62,120.71c1.45.06,1.25,1,1,1.93Z"/><g class="cls-4"><path d="M178.79,175.89c-1.51,3-1.79,6.34-2.41,9.57-.45,2.35-.67,4.74-1,7.12a6.86,6.86,0,0,1-1.17,3.29,8.59,8.59,0,0,0-.91,3.61c-.67,4.38-1.26,8.78-1.9,13.16a2.47,2.47,0,0,1-.76,1.57c.14-1.88.28-3.76.42-5.73-.88.53-.56,2.4-1.87,1.89-1.12-.44-.05-1.62-.15-2.46a12.12,12.12,0,0,0-.61-2.73c-.07-.21-1-.4-1.22-.22-1.31,1-1.44-.14-1.65-.91a25.74,25.74,0,0,1-.41-2.67c-.91,1.58-1.05,3.43-.82,6.9a6,6,0,0,1-.38-1.41,36.36,36.36,0,0,1,0-4.43,19.93,19.93,0,0,0-.6-6.64c-1.2-5.12-2-10.33-2.81-15.53-.58-3.68-1-7.39-1.41-11.09a1.63,1.63,0,0,1,.25-1.16c1,3.12.68,6.4,1.57,9.58,0-1.32,0-2.63,0-3.95,0-2.59-.58-5.18.32-7.75.18-.51.32-1.32-.78-1.28-.15,0-.39-.5-.46-.79-.23-1-.4-2.07-.65-3.38l-.37,1.51c.12-2.3-1.23-4.52-.28-6.83a.79.79,0,0,0-.05-.62c-1.16-1.89-.53-4-.74-6a28.56,28.56,0,0,1-.33-3.56c0-2.17.24-4.34.33-6.51a9,9,0,0,1-.08-2.06,15.6,15.6,0,0,1,1.28-2.17c1.17-2.23,2.31-4.48,3.46-6.73.32.73-1,1.63.35,2.51a9.24,9.24,0,0,1,.57-2.38c.89-1.6.95-1.56.72-2.37,2.41-1.29,4.64-1.77,7.35-.23s5.9,1,9.15,1.42c-.32-.4-.42-.63-.57-.68-3-1-6-2-9-2.77-1-.26-1.76-.42-1.81-1.6a2,2,0,0,0-1.51-1.83l-1,.8c.27-1.1,1-2.17.07-3.32-.13-.18,0-.72.19-1,1.24-2,2.69-3.61,5.15-4a3.26,3.26,0,0,0,1.79-.85c1.38-1.49,2.62-3.11,3.95-4.66a5,5,0,0,0,1.27-2.34c.13-.64,1-1.28,1.7-1.64,1.42-.75,3.1-1,4.19-2.34.23-.3.89-.32,1.35-.34.77,0,.74,0,1.66-1.09.21-.25.77-.19,1.43-.33-1.23-.71-2.54-1.11-2.84-2.59,0-.21-.88-.34-1.35-.35-1.47,0-2.95.09-4.43.1-.65,0-1.29-.09-2.33-.17,1.34-1.48,2.67-.89,3.82-1s2.49,0,4,0c-1.32-1.44-3-1.06-4.28-1.56-.67-.25-1.87-.66-1.84-.89.14-1.12,1.21-.84,2-1,1.45-.25,2.88-.59,4.33-.8a15.83,15.83,0,0,1,3.15-.19c2,.1,3.93.36,5.9.48.33,0,.68-.3,1-.46-.19-.35-.29-.87-.58-1-1-.44-2-.68-3-1.12a6.28,6.28,0,0,1-1.28-1.1c.56-.16,1.12-.33,1.69-.47a1,1,0,0,1,.42,0c3.87.47,7.74,1,11.62,1.39a24.92,24.92,0,0,0,4.64.26,16.06,16.06,0,0,0,3.45-1.06l-4-1.78a4.24,4.24,0,0,1-1.12-.58,4.09,4.09,0,0,1-.63-1c.36-.17.75-.51,1.08-.47,1.68.19,3.35.46,5,.76s3.59.72,5.76,1.16c-1.84-1.06-3.37-1.9-4.87-2.81a6.87,6.87,0,0,1-1.1-1.06c.44-.26.88-.75,1.32-.76,2.68,0,5.36,0,8,.19,2.17.12,4.33.42,6.84.67-3-1.1-6-.86-8.68-2.26.52-1.07,1.28-1,2-.84,3.82.66,7.65,1.26,11.45,2,3.31.65,6.6,1.46,9.9,2.19a1.68,1.68,0,0,0,1.36-.23,14.57,14.57,0,0,0-2-.72c-4.05-.9-8.11-1.75-12.17-2.64a8.85,8.85,0,0,1-1.44-.58l0-.49a5.43,5.43,0,0,1,1.45-.3c2.87.28,5.74.56,8.6,1a8.19,8.19,0,0,0,4.31,0c1.05-.39,2.37,0,3.57,0a15,15,0,0,0,3.63-.29c-1.44-.24-2.89-.43-4.31-.75a4.74,4.74,0,0,1-1.32-.84c.47-.34.94-1,1.4-1a71.16,71.16,0,0,1,7.58.55,3.43,3.43,0,0,0,3.38-1.06c1.2-1.28,2.58-2.4,3.91-3.57a3.06,3.06,0,0,1,1.23-.78,4.88,4.88,0,0,1,1.5.15,3.72,3.72,0,0,1-.37,1.44c-1,1.24-2.07,2.39-3,3.66a7.89,7.89,0,0,0,4.3-4.14c.63-1.26,1.33-2.48,2.06-3.69a1.27,1.27,0,0,1,2-.35c.93.58.38,1.19,0,1.79-.61,1-1.23,2-1.84,3l-.61,1.67.44.27,2-2.25-.26-.21-1.54.54a12.23,12.23,0,0,0,4.89-8.25c0-.22.32-.41.53-.67,1.46,1.17.19,2.58.48,3.84,1.67-1.32,1.24-3.51,2.31-5.32,1.62,1.67-.06,4.32,2.09,5.48a14.53,14.53,0,0,1,1.33-1.91c.75-.82,1.69-.54,1.76.56a7,7,0,0,0,1.05,3.75c.27.37,0,1.24-.2,1.81-.48,1.4-1.1,2.75-1.6,4.15A19.28,19.28,0,0,0,280.9,78l.38.21c.3-.32.7-.58.86-1,1.25-2.76,2.44-5.54,3.65-8.31.06-.13,0-.32.07-.41.47-.56,1-1.59,1.43-1.54,1,.13.44,1.1.44,1.74a2.84,2.84,0,0,0,0,1.24c.22.45.68.78,1.13.13a3.66,3.66,0,0,0,.28-.56c.32-.72.67-1.69,1.56-1.38.67.24,1.18,1.08,1.64,1.73a6.63,6.63,0,0,1,.5,1.66,6.25,6.25,0,0,1,.7-1.77c.41-.47,1.11-1.1,1.58-1s1.06.84,1.27,1.43a6.59,6.59,0,0,1,.07,2.09v3.76c.72.27,1.6.35,2,.83a4.15,4.15,0,0,1,.67,2.16c.27,2.66.42,5.34.7,8a3.19,3.19,0,0,0,.77,1.87,3,3,0,0,1,.81,2.87c-.3,2.37-.45,4.75-.67,7.35,2.45-2,1.47-4.89,2.53-7.22.8,1.14.8,1.14,1,3.47,2-1.3,3.53.36,5.27.78a1.31,1.31,0,0,1,.37,1.14c-1.8,2.38-.21,4.38.67,6.43a8,8,0,0,0,1.71,2.65,3.41,3.41,0,0,1,1,3.13L307,108.17c1.33-1.22,2.84-.47,4.52-.4l-2.55-4.47c-1.34,1.25-2.65,2.22-3,4.12a17.47,17.47,0,0,1-1.37,3.24c1.2.44,2.42.93,3.66,1.34s2.42.89,3.8,0c1-.66,2.92-.3,3.09.31.39,1.37-.86,1.76-1.61,2.41-.58.51-1.31.86-1.85,1.41-.29.28-.32.83-.47,1.26l.49.22a4.7,4.7,0,0,1,.8-1c.42-.31,1.07-.75,1.4-.61a1.89,1.89,0,0,1,1,1.35c0,1.61-.15,3.23-.26,4.85a4.07,4.07,0,0,0,.15,1.9c.52-1.29,1.1-2.55,1.55-3.86a2,2,0,0,1,2.3-1.35,1.46,1.46,0,0,1,1.3,1.86c-.52,2.47.66,4.65,1.15,6.9a63.57,63.57,0,0,1,1.51,10.64c.23,5,.88,10,1.24,14.95.17,2.38.07,4.78.11,7.17,0,1.26.22,2.54.14,3.79-.27,4.37-.63,8.72-1,13.08a62.52,62.52,0,0,1-.55,6.73c-.47,2.61-1.43,5.13-2,7.73-.89,4.2-1.59,8.44-2.42,12.65a11.08,11.08,0,0,1-.76,2l-.66-.11c-.38-3.31-.75-6.62-1.13-10-.35,0-1,.19-1.47,0a2.12,2.12,0,0,1-.83-1.37c-.2-1.18-.21-2.38-.32-3.57q-.51-5.57-1.05-11.13c-.12-1.2-.78-1.55-2-1.08.4,1.61.9,3.21,1.17,4.85a20.94,20.94,0,0,1-.14,2.84c0,1.4.13,2.79.28,4.18a20,20,0,0,0,.53,2.26l0,0-.68,1.07a11.09,11.09,0,0,1-1.06-5.08c-.14-5-1.69-9.55-3.56-14.06-.13-.33-.21-.78-.46-.94-3.31-2.09-4.87-5.55-6.88-8.66a2.7,2.7,0,0,0-.43-.38,11.77,11.77,0,0,1-1.07,2,1.85,1.85,0,0,1-1.37.69,1.64,1.64,0,0,1-1.06-1.1c-.24-1.24-.18-2.53-.39-3.77a12.65,12.65,0,0,0-.82-3c-1-2.4-2.2-4.73-3.16-7.16a20.85,20.85,0,0,0-2.29-3.4c-.65-1-.33-2.63-.85-3.81a82.49,82.49,0,0,1-4.55-13.62,21.31,21.31,0,0,0-1.77-5.28c-.44-.79-1.82-1.14-2.84-1.49a4.61,4.61,0,0,0-1.88,0,2.19,2.19,0,0,1-2.37-1,2.35,2.35,0,0,0-2.29-1.21,2.27,2.27,0,0,1-1.24-.17c-3-2.12-6.47-1.38-9.57-.92-8,1.16-16,2.83-23.91,4.42a91.65,91.65,0,0,0-9.81,2.53c-7.49,2.37-15.25,3.7-22.74,6a4,4,0,0,1-2.09,0l5.22-1.58-.05-.28c-1.12.18-2.26.29-3.36.56-2.45.62-4.87,1.39-7.34,2a1.51,1.51,0,0,0-1.38,1.71c-.25,5.85-.57,11.69-.85,17.53-.06,1.26.08,2.54-1.42,3.21-.32.14-.41.79-.81,1.63l3.56-2.11.32.32a4.69,4.69,0,0,1-.71.92c-1.5,1.17-3,2.29-4.55,3.45-.33.25-.88.66-.83.88.42,1.89-1.28,2.06-2.19,2.87-1.94,1.74-3.86,3.48-5.76,5.26A21.38,21.38,0,0,0,181,173,2.64,2.64,0,0,0,178.79,175.89Zm15.77-43.11.16.4c-1.87.94-.79,2.41-1,3.66.16-1,.32-2,.58-3.51,1.17,1.9,2.33,1.51,3.56,1.09s2.57-.7,3.85-1.09a7.77,7.77,0,0,0,1.17-.55l-.07-.49a19.2,19.2,0,0,0-2.4,0,10.14,10.14,0,0,1-6.52-1.35,15.2,15.2,0,0,0-5.69-1.93c-2.49-.43-5-.95-7.47-1.37-.28,0-.63.31-.95.49.27.19.5.49.79.57.5.15,1.18,0,1.53.27,2.42,1.9,5.4,2.21,8.22,2.95C191.73,132.3,193.15,132.5,194.56,132.78Zm108.53,35.76.66-.24c-.12-1.25-.21-2.5-.36-3.74-.06-.55-.08-1.41-.41-1.58-2.2-1.15-1.68-3.21-1.79-5-.24-4-.4-8-.58-12a10.51,10.51,0,0,0-.33,2.93,71.32,71.32,0,0,1-.55,9.27c-.51,2.81-.4,5.21,1.48,7.46A27.45,27.45,0,0,1,303.09,168.54Zm-12.25-58,.2.35a3.62,3.62,0,0,0,1.08-.37c.79-.6,1.48-1.31,2.26-1.92a16.51,16.51,0,0,0,5.16-6.84,3,3,0,0,0,.39-1.35c-.15-1-.47-2-.8-3.34l-2.72,3.53,2.27.19a6,6,0,0,1-.35,2.13,15.07,15.07,0,0,1-2.28,2.77C294.36,107.38,292.58,109,290.84,110.57ZM249,121.48l.07.15c3-.55,5.93-1.16,8.92-1.62,1.54-.23,3.14-.79,4.6.57.7.64,1.24.15,1.52-1a1.65,1.65,0,0,1,.73-.88c.8-.52,1.65-1,2.48-1.42l-.1-.19Zm-64.25,3.26,4.83,2.43a20.79,20.79,0,0,0,2.09,1c.2.06.54-.26.81-.41-.16-.19-.28-.48-.48-.54-.86-.28-1.77-.42-2.62-.74a2.32,2.32,0,0,1-1.82-2.68c0-.73,0-1.46,0-2.19l-.43-.1ZM294,156.18l.25-.07c-.06-.25-.1-.51-.16-.76-.23-.91-1.2-1.85.14-2.69.1-.07.05-.41,0-.61-.16-1.58-.34-3.15-.55-5.05-1,1-2.23,1.57-1.91,2.79C292.39,152,293.28,154.06,294,156.18Zm-83.2-52-.25-.44a84.53,84.53,0,0,0-11.42,4.92c3.8-1.16,7.56-2.47,11.29-3.81C210.64,104.77,210.71,104.4,210.83,104.17ZM231,82.61l-11-.87C223.62,83.34,227.34,82.91,231,82.61Zm90.13,61.27-.55,0v6.3c0,.8,0,1.58,1.39,1.41C321.73,149,321.45,146.43,321.17,143.88ZM261.69,92.57c2.77-.85,5.36-2.65,6.08-4.1C265.27,89.46,262.61,91.19,261.69,92.57ZM182,119.78a4.07,4.07,0,0,0-2.87,3c2.46,1.14,2.53,1.12,3.26-1l-1.66.52-.22-.29Zm8.15-2a3.21,3.21,0,0,0,3.15-.39,1.13,1.13,0,0,0,.25-1.06,1,1,0,0,0-.9-.48C191.55,116.08,190.42,116.32,190.12,117.79Zm131.9,48h.4V153.17H322ZM159.24,136.9a14.54,14.54,0,0,0-.5,8.57C158.44,142.75,159.73,140.11,159.24,136.9Zm24.53-26.59.51.38,4.25-5.64A19.67,19.67,0,0,0,183.77,110.31Zm102,18.88c-.52.54-1.36,1.09-1.28,1.38a28.89,28.89,0,0,0,1.47,3.62l.31-.13Zm-94.05,9.33c1.29-1,.8-2.11.83-3.06,0-.24-.52-.48-.8-.73-.23.29-.68.61-.65.87A26,26,0,0,0,191.74,138.52ZM274,119.42l.21.44,5.42-2.67C276.83,116.62,275.54,118.32,274,119.42Zm23.7,32.66-.66,0a13.59,13.59,0,0,0,.66,5.7ZM293,138.34a17.35,17.35,0,0,0-2.55.27,1.16,1.16,0,0,0-.65.9,1.1,1.1,0,0,0,.85.67A2.2,2.2,0,0,0,293,138.34Zm-76-28.6c1.3,1.08,2.65.6,4.41-1.37Zm.49,19c2.16.49,3.78-.25,5.44-.66C221.3,128.27,219.49,127.36,217.55,128.75Zm95.28,20.9c.34-2,.69-3.93,1-5.9C312.09,145.47,312.56,147.58,312.83,149.65Zm-146.32,39,.51.13,1.2-5.64-.57-.12Zm1.69,3.55-.59-.18-.79,4.95.46.08ZM212.3,84.67c2.7,1.82,2.7,1.82,3.89.68Zm-21.8,58.38.53.21c.64-1.06,1.47-2.06.74-3.58Zm92.44-51.9c-1.82.29-2.13,1.49-2.5,2.64Zm19.45,46.6c.94-1.33,1.51-2.28,1.22-3.63C302.29,135.56,302.29,135.56,302.39,137.75Zm10.27,23.82c.06-1.6.89-3.17.13-4.67a25.42,25.42,0,0,0-.38,4.15C312.4,161.22,312.57,161.4,312.66,161.57ZM176.59,142.92l-.35-.13-1.78,4.44a1,1,0,0,0,.83-.68C175.74,145.35,176.16,144.13,176.59,142.92Zm103.78-18.65,2.07.82c.07-.31.3-.73.18-.91C282.16,123.5,281.56,123,280.37,124.27Zm10.85,19-2.3-.11,1,2ZM186.4,157.76c-1.2,1.33-1.2,1.33-.64,2.79ZM320.3,132.7c-.73,2.4-.73,2.4.39,2.89C320.55,134.56,320.42,133.63,320.3,132.7ZM284.52,77.14l-.42,0a9.37,9.37,0,0,0-.79,1.46c-.08.22.16.56.25.84.29-.14.8-.22.84-.41A11.16,11.16,0,0,0,284.52,77.14ZM167.81,180.74l.6.09.62-3.15-.44-.1ZM225.17,94l0-.56-3.27.24,0,.32Zm64.2-17.6L288.73,79C290.36,78.4,289.59,77.33,289.37,76.37Zm-129.89,80,.29.12.24-2.77-.53-.05ZM305.25,165l-.31.08.48,3.6.32-.05ZM268.48,76.78l-.36-.31-1.76,1.85.5.43Zm-74.32,72.3.13.09v-3.61h-.13Zm-25.52,24.38.45.18.81-2.75-.42-.12Zm-8-13.92h.26l.18-2.59-.44,0Zm84.65-73.76-.11-.63-2,.5.09.47ZM262.4,78l-.39-.35-1.95,1.66.32.37Zm16.71-6.6-.32-.11c-.31.81-.62,1.61-.94,2.42l.47.16C278.58,73.06,278.84,72.23,279.11,71.41ZM174.63,121.12c.69.25,1.11,1.17,1.54,0,.1-.26,0-.61-.08-1.13Zm-6.5,80.3-.53-.19-.29,2.28.27.05Zm2.3-65.27.33.26,1.11-2-.38-.21Zm6.66-7.22-.21.58,1.55.27,0-.32Z"/><path d="M187.72,187l-1.92-.22,1.71-2.35-1.26.28c0-.12-.1-.33-.05-.36.75-.51,1.52-1,2.27-1.51a23.12,23.12,0,0,0,2.68-2,33.06,33.06,0,0,1,3.72-2.63c3.23-2.37,7-2.39,10.6-2.79a143.66,143.66,0,0,1,20.21-1.25,8.51,8.51,0,0,0,2.46-.48c1.76-.47,2.58-.2,3.59,1.34.43.64.78,1.34,1.17,2s.82,1.09-.22,1.47c-.11,0-.06.68,0,1a20.28,20.28,0,0,1,.76,2.82c.1,1-.65,1.46-1.27.82-1.55-1.61-3.46-1.39-5.34-1.33-3.51.12-7,.25-10.53.52a18.22,18.22,0,0,0-4,.95,21.83,21.83,0,0,0-4.22,1.42c-1,.53-2.32.22-3.44.51-2,.53-4,1.33-6,1.82a12.43,12.43,0,0,1-4.15.41,10.7,10.7,0,0,0-5.51,1c-.59.25-1.21.73-1.65,0C187.15,188.2,187.55,187.57,187.72,187Z"/><path d="M258.58,173.4c.72,0,.85,1.3,1.65.4a1.4,1.4,0,0,1,1-.23q6.1,0,12.22.14c2.06,0,4.18.6,6.11.51s3.41,1.14,5.2.72a.5.5,0,0,1,.4.08c1.6,1.59,3.72,1.31,5.67,1.75,1.35.31,2.48,1.5,3.75,2.22a11.12,11.12,0,0,0,3.21,1.49,10.43,10.43,0,0,1,6.37,4.06,2.15,2.15,0,0,1,0,1.87,1.88,1.88,0,0,1-1.44.86,11.93,11.93,0,0,1-2.68-.5c-4.57-1.12-9.28-1.7-13.67-3.55a3,3,0,0,0-1.23-.15,7.25,7.25,0,0,1-4-.92,9,9,0,0,0-5-1.37c-3.27.45-6.51-.29-9.77.28a74.57,74.57,0,0,1-8.6.67c-1.33.07-1.7-.83-1.61-2.23C256.25,177.16,257.8,175.49,258.58,173.4Z"/><path d="M246.49,422.44a5.1,5.1,0,0,1-1.65-3.44A35.37,35.37,0,0,0,241,408.74a38.4,38.4,0,0,1-1.88-3.45,28.6,28.6,0,0,1,7,11.84,14.11,14.11,0,0,0,.15-2c-.16-2-.36-4.08-.62-6.1-.77-6,1.71-10.87,5.36-15.28a25.68,25.68,0,0,1,4.46-4.19,31.49,31.49,0,0,1,4.76-2.65c2.19-1.1,4.43-2.11,6.64-3.2a28.28,28.28,0,0,0,2.58-1.44c2.09-1.29,4.17-2.62,6.23-4s4.09-2.76,6.2-4a94.16,94.16,0,0,0,13.15-9.57,50.18,50.18,0,0,0,7.78-8.31c.32-.44.7-.83,1.34-1.58-.3,3.58-.95,6.5-3.43,8.74a98.44,98.44,0,0,1-18.65,13.81,12.68,12.68,0,0,0-2.33,1.46,65.15,65.15,0,0,1-11.92,7.58,53,53,0,0,1-6.33,2.88,16.65,16.65,0,0,0-5.39,3.23c-3,2.7-5.67,5.62-7.16,9.53a17.69,17.69,0,0,0-1.28,6.79,30.55,30.55,0,0,1-1,10.24A15.35,15.35,0,0,0,246.49,422.44Z"/><path d="M189.6,326.11l-.36,1.16,3.44-.63.16.3a6.38,6.38,0,0,1-1.06.57A15.21,15.21,0,0,0,185,332c-1.81,2-3.74,3.85-5.46,5.89a8.48,8.48,0,0,0-1.65,8.53,37.3,37.3,0,0,0,1.15,4.06c.36.8.11,2.44,1.88,2.07.09,0,.25.32.37.49,3.16,4.33,6.22,8.74,9.49,13,2.28,2.95,4.79,5.74,7.33,8.47a33.13,33.13,0,0,0,4,3.17c2,1.6,4.18,3.12,6.15,4.83a16.75,16.75,0,0,0,5.36,3.29c2.46.88,4.89,1.84,7.31,2.8,4.66,1.84,8.6,4.85,12.52,7.84a6.76,6.76,0,0,1,2.56,6.49c-.49-.65-.71-.91-.88-1.19a21.12,21.12,0,0,0-5.52-5.75c-5-3.88-10.67-6.29-16.52-8.42a17.48,17.48,0,0,1-5.85-3.69c-2.14-1.94-4.43-3.72-6.7-5.5a51.92,51.92,0,0,1-9.08-9.42c-.73-1-1.41-1.95-2.05-3a12.39,12.39,0,0,0-5-4.93,11.65,11.65,0,0,1-3.9-3.76c-3.2-4.38-4.68-9.42-5.31-14.94-1,2.76-3.65,3.54-5.79,4.9a4.93,4.93,0,0,1-1.54.68,1.34,1.34,0,0,1-1.13-.23,1.13,1.13,0,0,1,.18-1.09,21.79,21.79,0,0,1,3.81-2.94,5.63,5.63,0,0,0,3-3.12,12.74,12.74,0,0,1,3.79-5.27c1.44-1.24,2.78-2.61,4.14-4A22.21,22.21,0,0,1,189.6,326.11Z"/><path d="M173,219.14a6.57,6.57,0,0,1,.6,1.55c.31,6.1,2.15,11.91,3.42,17.82,1.14,5.3,2.51,10.55,3.72,15.83.6,2.68,1,5.4,1.6,8.09s1.56,5.54,3.77,7.63a5.67,5.67,0,0,1,1.1,1.78c2.1,4.51,5.81,7.94,8.1,12.32a11.06,11.06,0,0,0,1.06,1.24,8.57,8.57,0,0,1,.86,1.5,14.51,14.51,0,0,0,.61,1.68,90.5,90.5,0,0,0,15,17.43c1.39,1.28,2.69,2.66,4.08,4l.74-1.2c1.25,1.52,2.35,3.06,3.65,4.43,3.78,4,7.37,8.22,13.38,9.08l-1.58-1.31a4.74,4.74,0,0,1-1.45-1.76,9.4,9.4,0,0,1,1.8.88,18.3,18.3,0,0,0,10.22,3.58c3.71.31,7.41,1.15,11.11-.09.19-.06.54-.13.6,0,1.32,1.78,2.58.26,3.52-.3,3.64-2.15,7.15-4.53,10.7-6.83a7.58,7.58,0,0,1,1.94-1,2.66,2.66,0,0,1-.42.76c-4.47,4.19-9.37,7.78-15.41,9.23a24.57,24.57,0,0,1-7.57.23c-3.93-.32-7.83-1-11.74-1.48a20.92,20.92,0,0,1-11.2-5.1c-2.93-2.54-5.62-5.35-8.43-8-1.28-1.22-2.56-2.43-3.88-3.59a3.63,3.63,0,0,0-2.53-1.32c-.86,0-1.83-1.23-2.52-2.09-2.34-2.91-4.62-5.88-6.84-8.88q-5-6.81-10-13.69c-1-1.37-1.81-2.86-2.75-4.26-.3-.45-.52-1.5-1.34-.42-.45-.38-1.06-.66-1.31-1.14-.9-1.67-1.55-3.49-2.52-5.12-.67-1.11.68-2.21-.37-3.34a8.1,8.1,0,0,1-1.55-3.2c-.68-2.28-1.18-4.62-1.8-6.92a21.84,21.84,0,0,1-.87-3.73l.76,1.61.4-.12a67.51,67.51,0,0,0-1.58-7.1c-2.51-7.49-3.33-15.35-5.19-23a28.36,28.36,0,0,1-.44-4.62C172.48,219.94,172.7,219.7,173,219.14Z"/><path d="M309.87,325.89c3.66,4.58,5.43,9.85,7,15.23.89,3.14.49,6.26-.19,9.41A23.55,23.55,0,0,1,310,363a60.7,60.7,0,0,1-10.88,8.69c-.4.24-.84.43-1.72.88a10.22,10.22,0,0,1,.82-1.57c3.1-3.74,6-7.65,9.38-11.16,3.84-4,5.44-8.91,6.07-14.12.31-2.51-.45-5.16-.89-7.72-.24-1.45-.87-2.83-1.23-4.27-.41-1.66-1.5-2.48-3-3.25-3.05-1.58-5.95-3.44-8.9-5.2-.07-.05,0-.25-.11-.54,3.86-.07,5.95,3.91,10.09,4.19-3.34-3.77-6.12-7.57-11.83-7.05a2.92,2.92,0,0,1,3.26-1.2,11.89,11.89,0,0,1,5.79,2.9,4.65,4.65,0,0,0,2.55,1.29,11.91,11.91,0,0,1,2.86,1.28,35.87,35.87,0,0,0,5.18,2.27c5.35,1.46,9.57,4.72,13.7,8.15.31.25.35.83.51,1.25a3.67,3.67,0,0,1-1.49.1,4.35,4.35,0,0,1-1.28-1.09,29.58,29.58,0,0,0-12.34-7.5,28.15,28.15,0,0,1-4.54-2.17C311.26,326.8,310.58,326.32,309.87,325.89Z"/><path d="M216.22,268.85a10.5,10.5,0,0,1,2.18-.38c3.1.13,6.19.34,9.29.52s6.19.44,9.28.48c3.67,0,7.35,0,11-.21,4.35-.32,8.7-.81,13-1.47,3.82-.59,7.59-1.5,11.38-2.32a4.93,4.93,0,0,0,2.27-1.29c-2.33-.37-4.67-.67-7-1.13a16.48,16.48,0,0,0-7.13.29A66.2,66.2,0,0,1,242,264.72c-3.79-.19-7.56-.84-11.34-1.31a18.14,18.14,0,0,0-14.25,4c-.32.26-.68.47-1,.7,0,0-.13,0-.57-.13a14.34,14.34,0,0,1,1.53-1.91c3.93-3.51,8.63-4.63,13.76-4.12,3.92.38,7.82,1.17,11.75,1.36a58.26,58.26,0,0,0,15-.92c3.38-.71,6.76-1.57,10.26-1.07,3.07.43,6.14.93,9.2,1.42,1,.17,2.08.37,3.1.64a6.83,6.83,0,0,1,2.16.8,5.79,5.79,0,0,1,1.13,1.54,8.18,8.18,0,0,1-1.72-.06c-.75-.17-1.45-.59-2.2-.73a2.36,2.36,0,0,0-1.61.14c-3.4,2.3-7.36,2.87-11.22,3.49-5.5.88-11.06,1.85-16.59,1.86-7.52,0-15.07,1-22.59-.4a85.73,85.73,0,0,0-8.94-.73l-.1.47c2.6,1.35,5.2,2.69,7.78,4.07a44.4,44.4,0,0,1,4.42,2.49,35.08,35.08,0,0,0,13.16,5.53,16.84,16.84,0,0,0,6.29,0c3.79-.73,7.62-1.49,11-3.51a1.08,1.08,0,0,1,1,0l-3,2.49c2.71-.18,4.63-1.61,6.42-3.27a66.47,66.47,0,0,1,5.31-4.7,4.48,4.48,0,0,1-.52.81c-2,2-4,4-6.12,5.84a9.19,9.19,0,0,1-6.82,2.33,13,13,0,0,0-4.38.51c-5.06,1.57-9.92.81-14.67-1.06a62.51,62.51,0,0,1-6.59-3.32c-4.2-2.29-8.38-4.63-12.56-7-.83-.46-1.6-1-2.4-1.54Z"/><path d="M184.2,393.54c-5.3-2.29-8.88-6.67-12.7-10.67s-5.82-9.37-6.73-15c-1.1-6.8-1-13.63-.82-20.47,0-1.74.28-3.47.47-5.61-3.32,1.6-6.3,3-9.26,4.47-4.54,2.25-9.12,4.45-13.59,6.86-5.9,3.17-11.71,6.5-17.55,9.8-2.76,1.56-5.46,3.22-8.22,4.78a26.92,26.92,0,0,1-4.16,2.08c-5.64,2-11.28,4.05-17,5.85a25.45,25.45,0,0,0-9.93,5.84c-2,1.92-3.93,4-5.89,6.05l-.42-.26a9.21,9.21,0,0,1,.47-1.4,22.83,22.83,0,0,1,7-7.83,19.25,19.25,0,0,1,9.33-4.2,27.7,27.7,0,0,0,5.45-1.64c2.66-.93,5.37-1.76,7.92-2.94,4-1.86,8-3.84,11.87-6,9.35-5.25,18.66-10.55,28.42-15,7.24-3.31,14.33-7,21.48-10.45.11,0,.26,0,.59.25-1.43.88-2.82,1.84-4.3,2.62a2.44,2.44,0,0,0-1.46,2.29c-.48,8.17-.63,16.31.77,24.45,1,5.6,2.95,10.58,6.91,14.65,2.21,2.28,4.62,4.36,6.94,6.53,1.33,1.25,2.68,2.47,4,3.74a4.08,4.08,0,0,1,.6,1.09Z"/><path d="M315.23,210c2.43-3,5.27-2.26,7.69-.09a8.44,8.44,0,0,1,3,8.3c-.46,2.33-.55,4.8-2.41,6.63-.22.22-.21.66-.3,1-1.22,4.55-2.47,9.09-3.62,13.66-.58,2.31-.95,4.68-1.43,7-.88,4.3-2.52,8.21-5.85,11.23a3.59,3.59,0,0,1-5,.33c-.23-.15-.43-.32-1-.71a68.25,68.25,0,0,1-1.93,7.41,40.46,40.46,0,0,1-3.5,6.42c-.31-2.49,1.42-4.29,1.94-6.55l-2,2.07c-.4-1.25.26-1.71,1-2.17a4.12,4.12,0,0,0,2.23-3.54c.05-1.25.87-2.47,1.35-3.71,2.43-6.34,3.64-13,5-19.6l.62-2.94.42.94.25,0a29.73,29.73,0,0,1-.27-3.87c.06-1.28.55-2.54.65-3.82a94.5,94.5,0,0,0,.68-12.21c-.13-2.46.93-3.94,2.22-5.57A1.89,1.89,0,0,1,315.23,210Zm4.7,17.25c-.4-.19-1-.3-1-.48a10,10,0,0,1,0-2.32c.25-2.16.59-4.31.83-6.48a7,7,0,0,0-.07-2.1c-.25-1.29-.78-1.62-2.09-1.49-.63.07-1.25.18-2.23.32,2.67-2.35,4.87-1.82,5.72,1a4.76,4.76,0,0,1,.32,1.87c-.33,2.49.32,5.09-.74,7.51a2,2,0,0,0,.52,2.51c1-2.51,1.94-4.92,2.84-7.35a13.58,13.58,0,0,0,.64-2.45c.56-3-.64-5.38-2.77-7.35a3.4,3.4,0,0,0-4.28-.62c-1.95,1.41-4,3.08-4.17,5.79-.34,4.57-.56,9.14-.79,13.72a4.6,4.6,0,0,0,.36,2c.85,2,2,3.89,2.67,5.93,1.19,3.51-.36,6.47-2.39,9.2-.22.29-.83.29-1.26.42l-.4-.36c3.46-4.33,4.16-8.82.89-13.81-.59,5.8-1.16,11.38-1.73,17l-.21,0-.25-1a21.71,21.71,0,0,0-1.94,3c-.57,1.27-.82,2.69-1.32,4-.32.86-.06,1.44.69,1.68s1.88.65,2.4.31c1.43-.92,3.17-1.94,3.82-3.37a58.49,58.49,0,0,0,5.31-21l-2.15,3.44C317.5,233.38,320.4,230.82,319.93,227.26ZM311,240.34l-.37-.06-1.05,6.06.37.06Z"/><path d="M260.42,203.53c3.42-2.31,6.84-.4,10.45,0-.7-2.56.49-4.79,1.18-7.31a26.78,26.78,0,0,0-12.08,6.1,4.2,4.2,0,0,1,1.85-2.58c5.57-4.15,11.73-6,18.67-4.69,4.4.83,8.6,2.14,12.25,4.87a20.94,20.94,0,0,0,2.05,1.07,2.65,2.65,0,0,1,.91,1.05c-2.31-.15-4,1.22-5.86,2-4,1.75-8.07,3-12.5,2.28a43.63,43.63,0,0,1-5.56-1.19C268.08,204,264.43,202.71,260.42,203.53ZM285,197.65a8.71,8.71,0,0,1-1.7,7.16l.33.36,8.85-3.68A14.37,14.37,0,0,0,285,197.65Zm-10.13,4a1.36,1.36,0,0,0,.17-2c-.08-.12-.48,0-.72,0,.08.62.17,1.24.26,1.87C274.56,201.63,274.68,201.64,274.84,201.69Z"/><path d="M194,201.19l-1,.7-.32-.29a10,10,0,0,1,1.53-1.75c4.75-3.35,9.76-6.21,15.53-7.36,3.65-.73,7.28,0,10.85.82.85.2,1.75.54,1.77,2a16.7,16.7,0,0,0-8.56-1.67,5.87,5.87,0,0,1,1.75,7.36c2.57-.26,5-.62,7.49-.73s4.92-1.19,7.15.41l0,.59h-2a60,60,0,0,0-15.62,2.12c-2.81.77-6,.55-9,.32a56.26,56.26,0,0,1-8-1.62,6.3,6.3,0,0,1-1.59-.89l9.37,1.45c-1.13-2.37-1.44-4.41,0-6.82A39.26,39.26,0,0,0,194,201.19Zm11.42-1c1.35-.94,1.27-1.47-.44-2.28Z"/><path d="M266,410.85a22.57,22.57,0,0,1,3.16-2.41c8.46-4.36,17-8.64,25.44-13a15.64,15.64,0,0,0,1.63-1c4.44-3,8.89-6,13.29-9.05,1.33-.92,2.51-2.05,3.77-3.07,3.12-2.53,6.28-5,9.35-7.59a16.19,16.19,0,0,0,2.39-2.87c.33-.45.43-1.06.74-1.52,4.26-6.37,5-13.66,5.41-21,.16-2.74.33-5.49.53-8.23a20.9,20.9,0,0,1,.43-2.24c.32.39.55.54.55.68-.11,8.26-.46,16.5-2.29,24.6a10.75,10.75,0,0,1-.83,2.39c-1.22,2.46-2.41,5-3.8,7.32a32.56,32.56,0,0,1-2.92,3.75l-.42-.23.15-1.83c-3.23,3-6,5.78-9,8.28-2.76,2.28-5.8,4.23-8.71,6.33-1.32.94-2.72,1.79-4,2.83a58.57,58.57,0,0,1-11.67,7.2c-6.57,3.26-13.1,6.6-19.63,9.94-2.07,1.06-3.1,3-4,5-.65,1.49-1.23,3-1.89,4.48a5.93,5.93,0,0,1-1.16,1.72c.42-3.8,1.12-7.47,3.5-10.6Z"/><path d="M163.86,212.43c-1.91-1-3.38-1.79-5.17-1.08-.79.31-1.41.62-1.61,1.47a34.83,34.83,0,0,0-.91,3.89,30.07,30.07,0,0,0,2.12,16.75c.35.77.86,1.45,1.24,2.2s1.45,1.42.08,2.24a1.51,1.51,0,0,0,.27.85c1.38,1.69,2.76,3.38,4.2,5a32.51,32.51,0,0,1,6.69,11.87,6.57,6.57,0,0,0,3.46,4.31,21.58,21.58,0,0,0,4,1l-.53,1.36,1.69.4c-.24.13-.41.32-.57.31-3.38-.3-6.31-1.48-8.07-4.58a42.4,42.4,0,0,1-2.12-4.59c-1.61-4-4.27-7.26-6.72-10.7-2-2.86-4-5.76-5.91-8.73-1.51-2.41-1.53-5.26-1.79-8-.39-4.06-.74-8.15.29-12.19.2-.81.47-1.61.73-2.41a3.07,3.07,0,0,1,2.81-2.22c.42,0,.84-.06,1.26-.12C162,209.06,162.37,209.27,163.86,212.43Z"/><path d="M333.39,338.42a43.35,43.35,0,0,0,3.78,2.57,37.08,37.08,0,0,0,5.56,2.53c5.34,1.81,10.76,3.4,16.1,5.2,2.86,1,5.65,2.2,8.46,3.32q6.69,2.65,13.38,5.31a7.47,7.47,0,0,1,3.78,2.76,23.76,23.76,0,0,1-2.75-.22,14.42,14.42,0,0,1-2.63-.78c-5.87-2.4-11.73-4.84-17.61-7.24-1.63-.66-3.29-1.27-4.95-1.84-4.93-1.7-9.93-3.21-14.78-5.11a41,41,0,0,1-6.91-4,10.42,10.42,0,0,1-1.87-2.08Z"/><path d="M184.56,337.23c1.53-1.18,3-2.42,4.61-3.54,1.32-.93,2.72-1.76,4.13-2.56a2,2,0,0,0,1.13-2.05c-.25-4.57-.36-9.14-.76-13.7-.47-5.31-1.24-10.6-1.76-15.91-.21-2.16.24-4.43-.29-6.48-.46-1.81-.06-3.58-.46-5.33a11.2,11.2,0,0,1,0-2.39l.44-.07a4.48,4.48,0,0,1,.45,1.18c.4,3.71.72,7.42,1.15,11.13q.68,5.87,1.53,11.71a134.22,134.22,0,0,1,1,21.3c0,.75.29,2.45-1.64,1.56-.25-.11-.77.28-1.11.51-2,1.32-4,2.67-6,4-.67.45-1.35.87-2,1.31Z"/><path d="M269.69,318.7c2.51-2.9,5.08-5.75,7.51-8.71a95.06,95.06,0,0,0,6.76-9.31l-1.15.48-.33-.25c6.71-8.32,13.12-16.83,16.83-27l.62.29c-.42,1.29-.83,2.59-1.26,3.88s-1.29,2.29-.88,3.77c.12.46-.37,1.16-.71,1.66-2.45,3.51-4.93,7-7.4,10.49-4.38,6.2-8,12.92-13.3,18.47-1.65,1.74-3.29,3.48-5,5.19a15.89,15.89,0,0,1-1.58,1.23Z"/><path d="M295.16,288.64a9.61,9.61,0,0,1,.06,1.93c-.88,5.91-.5,11.83-.06,17.74.4,5.27,1,10.52,1.51,15.79a10.66,10.66,0,0,1-.18,2.93c-.06.37-.62.65-1,1a3.48,3.48,0,0,1-.59-1.19q-.33-4.53-.53-9.06c-.33-7.61-.68-15.22-.91-22.83a34.65,34.65,0,0,1,.49-5.26,3.76,3.76,0,0,1,.55-1.07Z"/><path d="M214.68,404.51c0-3.5,2.31-5.79,5.93-6a11.46,11.46,0,0,1,3.06-.19c3.51.84,5.14,3.7,4.18,7.25a8,8,0,0,1-3.94,5A6.18,6.18,0,0,1,214.68,404.51Zm1,0c-.15,4.51,4.15,6.75,7.24,4.9a6.54,6.54,0,0,0,3.09-4.12c.63-2.53-.05-3.79-2.43-4.88a11,11,0,0,0-1.71-.8,4.93,4.93,0,0,0-2.21-.18A5.26,5.26,0,0,0,215.73,404.51Z"/><path d="M184.36,393.39c2.55,3.39,6.23,5.14,9.95,6.85a15.8,15.8,0,0,1,3.46,2A59.15,59.15,0,0,0,212,410.39c1.74.75,3.48,1.5,5.2,2.31.87.4,1.68.91,2.87,1.58-2.2.73-3.73-.17-5.09-.84-6.19-3-12.55-5.68-17.91-10.24-2.1-1.78-4.85-2.8-7.29-4.18a12.74,12.74,0,0,1-5.29-4.71,5.16,5.16,0,0,1-.31-.77Z"/><path d="M255.79,334.8a18.13,18.13,0,0,1-2.28,2.8,13.27,13.27,0,0,0-4.36,6.57,27.19,27.19,0,0,1-1.61,4.13,11,11,0,0,1-2.29,3.21c-2.06,1.8-4,1.17-4.81-1.43a1.77,1.77,0,0,1,0-1.22c.23.42.44.85.69,1.27.88,1.51,1.77,1.74,3,.47a9.56,9.56,0,0,0,1.82-3c.72-1.83,1.28-3.72,1.86-5.61a11.68,11.68,0,0,1,4.21-5.91A5.22,5.22,0,0,1,255.79,334.8Z"/><path d="M170.51,229c.23.38.62.73.57,1a3.49,3.49,0,0,1-.71,1.46,5.85,5.85,0,0,0-1.29,5.13,14.71,14.71,0,0,0,3.52,7.27c.27.28.28.79.41,1.19-.44.12-1,.44-1.32.3a3.28,3.28,0,0,1-1.45-1.13,15.07,15.07,0,0,1-3-10.7,5.61,5.61,0,0,1,2.25-3.9A8.76,8.76,0,0,1,170.51,229Z"/><path d="M252.38,203.64c.47,4.82.89,9.64,1.43,14.45a33.53,33.53,0,0,0,1.08,6A36.46,36.46,0,0,0,257.2,229a3.31,3.31,0,0,1-2.45-2.43,53.82,53.82,0,0,1-1.88-8.18c-.54-4.17-.74-8.39-1.05-12.6a20,20,0,0,1,.09-2.18Z"/><path d="M218.89,415.88c4.78,6,6.47,13,6.76,20.4l-.46.18a10.36,10.36,0,0,1-1-2.81C223.87,427.28,221.6,421.52,218.89,415.88Z"/><path d="M267.29,399.15c.32-.34.65-.68,1.27-1.35-3.28.91-6.32,1.12-9,2.47l.09.41,5.55-1.27.14.45a10.94,10.94,0,0,1-5.72,1.79c-.41,0-1-.68-1.14-1.16-.09-.28.46-1,.85-1.13,2.95-.89,5.92-1.69,8.9-2.46.33-.08,1,.1,1.09.33a1.52,1.52,0,0,1-.09,1.34,6.34,6.34,0,0,1-1.6,1Z"/><path d="M311.76,193.13c.68,2.47,1.44,4.93,2,7.42s1,4.79,1.44,7.2a13.13,13.13,0,0,1,0,2.26,1.89,1.89,0,0,0-.2.2c-.29-.43-.76-.83-.85-1.3q-1.1-5.79-2.05-11.62c-.23-1.38-.23-2.79-.34-4.19Z"/><path d="M159.65,213.88c-1.63,4.25-1.25,8.62-1.12,13s2.72,8,4.1,12C157,231.53,156.17,218.58,159.65,213.88Z"/><path d="M284,361.14c-3,2.7-4.48,6.46-6.75,9.66-1.73,2.45-3.85,4.64-5.82,6.91a2.06,2.06,0,0,1-1.3.63,41.81,41.81,0,0,0,3.86-4.26c2-2.89,3.77-5.92,5.6-8.92C281,362.73,281.7,362,284,361.14Z"/><path d="M264.17,232.3l2.15,1.69a7.27,7.27,0,0,1,2.77,4.58,13.83,13.83,0,0,1,0,6.27,3.46,3.46,0,0,1-3.52,2.82c3.75-2.65,3.18-6.33,2.34-9.9-.3-1.26-1.44-2.34-2.29-3.43a15.61,15.61,0,0,0-1.76-1.68Z"/><path d="M222.38,413.64c2.64-.84,5.26,0,7.89.08s5.14-1.48,7.82-.48A26.71,26.71,0,0,1,222.38,413.64Z"/><path d="M266,410.82a12,12,0,0,1-6.21.55c-1.72-.29-3.5-.23-5.23-.51s-3.37-.79-5-1.2l.11-.49c.5.09,1,.2,1.52.27,1.32.18,2.63.36,3.95.5s2.52.27,3.78.32c1.75.06,3.5.08,5.25,0,.73,0,1.41-.19,1.85.57Z"/><path d="M258.56,435.8A41.34,41.34,0,0,1,264.21,421q-2.47,7.5-5,15Z"/><path d="M252.84,244.68a18.09,18.09,0,0,1,2.13-2.47,3.48,3.48,0,0,1,2.06-.76c1.71,0,3.41,1.88,3.76,4l-2.08-2.74c-.7,1.29-1.68,1.37-2.89,1.22C255,243.83,254.13,244.33,252.84,244.68Z"/><path d="M225.31,232.51c-1.11,2.62-1.8,5.19-.89,8.08.83,2.65,1.42,5.3,4.37,6.49l-.21.37a6.48,6.48,0,0,1-2.06-1C224,243.87,221.72,236.71,225.31,232.51Z"/><path d="M230.65,245.5c2.51-3,5.19-3.52,6.8-1.23Z"/><path d="M247.34,284.88a3,3,0,0,1-2.32,2.76c-.79,0-1.12-.44-1.12-1.19a2.22,2.22,0,0,1,2.2-2.31C246.6,284.21,247,284.69,247.34,284.88Z"/><path d="M198.38,209.18l12.48-1.12c-4.13.91-8.25,1.86-12.48,1.54Z"/><path d="M237.15,203.59a18.45,18.45,0,0,0-.24-10C238.78,196.13,239,201.12,237.15,203.59Z"/><path d="M163.57,222.68c1.69,3.31.64,6.7.44,10.07,0-1.69.05-3.39,0-5.07S163.72,224.35,163.57,222.68Z"/><path d="M251.11,245.38c-1.86,3.64-4.36,4.36-7,2.46,1.13,0,2.54.4,3.68,0S250,246.23,251.11,245.38Z"/><path d="M226.56,383.74l-6.46-6.21C222.86,378.94,225.38,380.61,226.56,383.74Z"/><path d="M218.62,194.88c2.33,1.06,5.15,1.11,6.78,3.59l-7-3.21Z"/><path d="M205.29,296.92c-1.58-1.08-2.42-2.76-3.42-4.31l.33-.29,3.53,4.23Z"/><path d="M211.65,303.93c-.94-1.14-1.87-2.28-2.81-3.41C210.6,301.4,211.55,302.51,211.65,303.93Z"/><path d="M178.79,175.89A2.64,2.64,0,0,1,181,173C180.24,173.93,179.52,174.91,178.79,175.89Z"/><path d="M163.47,240.37l1.68,3.08-.35.22c-.56-1-1.13-2-1.7-3Z"/><path d="M168.15,247.49l-2-2.17.32-.3,2,2.13Z"/><path d="M321.62,120.71c1.45.06,1.25,1,1,1.93Z"/></g></svg>