<?xml version="1.0" encoding="utf-8"?>
<!-- Generator: Adobe Illustrator 25.2.3, SVG Export Plug-In . SVG Version: 6.00 Build 0)  -->
<svg version="1.1" id="Layer_1" xmlns="http://www.w3.org/2000/svg" xmlns:xlink="http://www.w3.org/1999/xlink" x="0px" y="0px"
	 viewBox="0 0 256.71 256.71" style="enable-background:new 0 0 256.71 256.71;" xml:space="preserve">
<style type="text/css">
	.st0{fill:#CDDD51;}
</style>
<g>
	<path class="st0" d="M68.83,54.69C78.6,67.12,89,78.91,99.6,90.52c10.62,11.57,21.5,22.9,32.59,34
		c11.08,11.11,22.41,21.99,33.98,32.62c11.6,10.6,23.4,21,35.85,30.75c4.38,3.43,5.16,9.76,1.73,14.14
		c-3.43,4.38-9.76,5.16-14.14,1.73c-0.64-0.5-1.24-1.11-1.73-1.73c-9.74-12.45-20.14-24.25-30.75-35.85
		c-10.63-11.57-21.5-22.9-32.62-33.98c-11.11-11.09-22.43-21.97-34-32.59c-11.6-10.6-23.4-21-35.83-30.77
		c-4.37-3.44-5.13-9.77-1.7-14.14s9.77-5.13,14.14-1.7C67.76,53.49,68.35,54.09,68.83,54.69z"/>
</g>
<g>
	<path class="st0" d="M54.69,187.88c12.43-9.77,24.23-20.17,35.83-30.77c11.57-10.62,22.9-21.5,34-32.59
		c11.11-11.08,21.99-22.41,32.62-33.98c10.6-11.6,21-23.4,30.75-35.85c3.43-4.38,9.76-5.16,14.14-1.73
		c4.38,3.43,5.16,9.76,1.73,14.14c-0.5,0.64-1.11,1.24-1.73,1.73c-12.45,9.74-24.25,20.14-35.85,30.75
		c-11.57,10.63-22.9,21.5-33.98,32.62c-11.09,11.11-21.97,22.43-32.59,34c-10.6,11.6-21,23.4-30.77,35.83
		c-3.44,4.37-9.77,5.13-14.14,1.7c-4.37-3.44-5.13-9.77-1.7-14.14C53.49,188.95,54.09,188.36,54.69,187.88z"/>
</g>
</svg>
