<?xml version="1.0" encoding="utf-8"?>
<!-- Generator: Adobe Illustrator 25.2.3, SVG Export Plug-In . SVG Version: 6.00 Build 0)  -->
<svg version="1.1" id="Layer_1" xmlns="http://www.w3.org/2000/svg" xmlns:xlink="http://www.w3.org/1999/xlink" x="0px" y="0px"
	 viewBox="0 0 256.71 256.71" style="enable-background:new 0 0 256.71 256.71;" xml:space="preserve">
<style type="text/css">
	.st0{fill:#CDDD51;}
	.st1{fill:none;stroke:#CDDD51;stroke-width:20;stroke-miterlimit:10;}
</style>
<g>
	<g>
		<path class="st0" d="M34.17,59.28h188.36v20c-15.7-1.73-31.39-2.64-47.09-3.25c-7.85-0.39-15.7-0.47-23.55-0.7
			c-7.85-0.14-15.7-0.15-23.55-0.23c-7.85,0.06-15.7,0.1-23.55,0.22l-11.77,0.3l-5.89,0.16l-5.89,0.25
			c-15.7,0.61-31.39,1.52-47.09,3.27V59.28z"/>
	</g>
	<g>
		<path class="st0" d="M34.17,177.43c15.7,1.74,31.39,2.65,47.09,3.27l5.89,0.25l5.89,0.16l11.77,0.3
			c7.85,0.12,15.7,0.15,23.55,0.22c7.85-0.08,15.7-0.09,23.55-0.23c7.85-0.23,15.7-0.31,23.55-0.7c15.7-0.62,31.39-1.52,47.09-3.25
			v20H34.17V177.43z"/>
	</g>
	<line class="st1" x1="34.17" y1="128.35" x2="222.54" y2="128.35"/>
</g>
</svg>
