<?xml version="1.0" encoding="utf-8"?>
<!-- Generator: Adobe Illustrator 25.2.3, SVG Export Plug-In . SVG Version: 6.00 Build 0)  -->
<svg version="1.1" id="Layer_1" xmlns="http://www.w3.org/2000/svg" xmlns:xlink="http://www.w3.org/1999/xlink" x="0px" y="0px"
	 viewBox="0 0 256.71 256.71" style="enable-background:new 0 0 256.71 256.71;" xml:space="preserve">
<style type="text/css">
	.st0{fill:#CDDD51;}
</style>
<g id="Logo_1_">
	<g>
		<path class="st0" d="M33.23,22.88c0.57-1.05,1.26-1.91,2-2.7c0.74-0.78,1.52-1.51,2.36-2.1c1.68-1.19,3.53-2.08,5.37-2.93
			c3.7-1.71,7.46-3.29,11.28-4.7c7.64-2.83,15.49-5.09,23.47-6.84c7.98-1.74,16.08-2.97,24.25-3.66s16.42-0.87,24.69-0.41l6.2,0.45
			l6.2,0.68c2.06,0.29,4.12,0.64,6.18,0.96c2.06,0.37,4.11,0.81,6.16,1.22c2.05,0.45,4.09,0.99,6.13,1.48
			c2.03,0.55,4.06,1.17,6.09,1.77c2.01,0.66,4.01,1.41,6.01,2.11c1.98,0.78,3.95,1.62,5.93,2.43c7.85,3.43,15.4,7.89,22.26,13.41
			c3.42,2.77,6.72,5.75,9.72,9.03l2.23,2.49c0.76,0.82,1.39,1.75,2.09,2.62l2.04,2.66c0.67,0.94,1.37,1.94,1.99,2.95
			c2.55,4.04,4.61,8.49,6,13.25c1.4,4.76,2,9.9,1.64,15.08c-0.13,1.29-0.26,2.59-0.53,3.86l-0.37,1.92
			c-0.12,0.64-0.33,1.25-0.5,1.87l-0.55,1.85c-0.21,0.61-0.45,1.19-0.68,1.79l-0.71,1.77l-0.83,1.69
			c-2.25,4.49-5.19,8.44-8.51,11.81c-3.33,3.38-7.03,6.22-10.96,8.57c-3.92,2.35-8.05,4.24-12.33,5.65
			c-4.29,1.36-8.61,2.29-12.9,2.87c-4.3,0.57-8.57,0.73-12.79,0.71c-8.44-0.1-16.66-1.14-24.7-2.7c-8.04-1.57-15.93-3.58-23.7-5.99
			c-7.76-2.42-15.43-5.16-22.9-8.48c-3.71-1.61-7.65-3.47-11.4-6.12c-1.87-1.34-3.72-2.89-5.42-4.79c-1.7-1.88-3.21-4.18-4.22-6.8
			c-0.27-0.64-0.45-1.33-0.66-2c-0.19-0.67-0.28-1.32-0.41-1.99c-0.3-1.3-0.33-2.71-0.36-4.09c0.07-2.77,0.63-5.64,1.84-8.12
			l0.42-0.95l0.51-0.88c0.35-0.58,0.68-1.18,1.06-1.72c0.79-1.04,1.58-2.12,2.49-3.01c1.75-1.88,3.76-3.32,5.8-4.61
			c4.11-2.49,8.54-4.05,13.14-4.76c0.57-0.08,1.16-0.19,1.71-0.24l1.62-0.14l1.61-0.1l1.61-0.05c1.07-0.04,2.14-0.07,3.2-0.04
			c1.06,0.02,2.13,0.01,3.18,0.1c8.44,0.44,16.59,2.07,24.54,4.33c3.96,1.19,7.89,2.49,11.73,4.08s7.6,3.4,11.3,5.43
			c0.91,0.53,1.84,1.03,2.75,1.59l2.69,1.73c1.77,1.21,3.54,2.44,5.21,3.84c3.37,2.76,6.56,5.95,9.21,9.75
			c2.65,3.78,4.7,8.22,5.71,12.98c0.2,1.2,0.4,2.4,0.56,3.61l0.17,3.64c-0.01,1.21-0.14,2.4-0.22,3.61
			c-0.03,0.61-0.14,1.19-0.24,1.78l-0.32,1.76c-0.19,1.19-0.53,2.3-0.87,3.42c-0.33,1.12-0.65,2.23-1.15,3.36l-0.7,1.68
			c-0.23,0.56-0.54,1.09-0.82,1.64l-0.86,1.62l-0.99,1.55c-2.67,4.11-6.17,7.61-9.96,10.35c-3.81,2.73-7.87,4.8-11.98,6.39
			c-4.1,1.59-8.23,2.79-12.35,3.7c-8.23,1.85-16.38,2.7-24.39,3.37c-7.99,0.69-15.91,1.05-23.46,1.89l-1.4,0.17
			c-0.46,0.06-0.96,0.11-1.33,0.19c-0.79,0.15-1.63,0.24-2.34,0.46c-1.55,0.32-2.83,0.9-3.97,1.5c-1.14,0.62-1.93,1.37-2.61,2.24
			c-0.66,0.87-1.2,1.91-1.54,3.23c-0.32,1.33-0.46,2.86-0.44,4.5c0.06,0.83,0.07,1.66,0.22,2.52c0.06,0.44,0.09,0.82,0.19,1.33
			l0.26,1.47c0.66,3.93,1.48,7.89,2.09,11.97c0.64,4.07,1.02,8.29,0.74,12.55c-0.25,4.25-1.14,8.46-2.57,12.4
			c-1.43,3.94-3.33,7.64-5.57,11.09c-2.23,3.44-4.7,6.61-7.22,9.72c-5.06,6.2-10.49,12.01-15.94,17.78
			c-5.41,5.8-10.98,11.44-16.21,17.36c-0.14,0.16-0.39,0.18-0.55,0.04c-0.16-0.14-0.18-0.38-0.05-0.54
			c5.02-6.15,10.22-12.14,15.31-18.19c5.06-6.08,10.06-12.22,14.61-18.6c2.26-3.19,4.47-6.44,6.27-9.82
			c1.82-3.34,3.28-6.87,4.28-10.46c1-3.59,1.47-7.26,1.4-10.93c-0.05-3.67-0.66-7.35-1.54-11.05c-0.89-3.7-2.08-7.4-3.43-11.13
			l-0.5-1.4c-0.17-0.45-0.34-1.04-0.5-1.56c-0.36-1.05-0.6-2.19-0.87-3.31c-0.45-2.3-0.69-4.74-0.46-7.34
			c0.26-2.6,1.09-5.36,2.6-7.8c1.51-2.42,3.6-4.53,5.87-5.93c2.26-1.41,4.63-2.47,6.93-3.1c1.17-0.39,2.3-0.59,3.45-0.85
			c0.6-0.14,1.08-0.21,1.6-0.3l1.54-0.26c8.15-1.29,16.05-2.02,23.81-2.94c7.75-0.92,15.35-2.05,22.55-3.79
			c7.18-1.75,14-4.22,19.31-7.95c2.63-1.88,4.82-4.08,6.48-6.61l0.63-0.95l0.53-1.01c0.17-0.34,0.38-0.66,0.52-1.01l0.44-1.06
			c0.33-0.67,0.53-1.48,0.79-2.24c0.25-0.77,0.53-1.54,0.66-2.31c1.58-6.16,0.9-12.33-2.21-18.21c-1.54-2.93-3.64-5.72-6.14-8.27
			c-1.24-1.28-2.61-2.47-4-3.65l-2.2-1.65c-0.75-0.54-1.53-1.03-2.29-1.55c-3.11-2.02-6.46-3.74-9.92-5.21
			c-3.49-1.41-7.07-2.67-10.73-3.63c-3.66-0.96-7.38-1.68-11.12-2.14c-3.74-0.49-7.49-0.69-11.19-0.59
			c-0.93-0.01-1.84,0.07-2.76,0.11c-0.92,0.03-1.83,0.12-2.73,0.22l-1.35,0.14l-1.33,0.21l-1.32,0.21
			c-0.43,0.07-0.81,0.18-1.21,0.27c-3.19,0.71-6.26,2.11-8.86,3.81c-1.27,0.88-2.45,1.85-3.36,2.9c-0.52,0.5-0.86,1.06-1.27,1.58
			c-0.18,0.27-0.31,0.55-0.47,0.82l-0.24,0.4l-0.16,0.42c-0.55,1.09-0.63,2.23-0.74,3.38c0.04,0.59-0.02,1.18,0.15,1.81
			c0.06,0.3,0.08,0.64,0.16,0.92c0.1,0.27,0.14,0.55,0.26,0.82c0.41,1.08,1.06,2.17,1.95,3.28c0.89,1.1,2.04,2.17,3.35,3.19
			c2.63,2.05,5.73,3.9,9.18,5.66c6.8,3.55,13.85,6.74,21.12,9.3c7.27,2.54,14.75,4.53,22.32,5.65c7.56,1.13,15.2,1.47,22.59,0.71
			c7.38-0.76,14.48-2.71,20.65-5.79c6.13-3.12,11.52-7.56,15.46-12.58c1.96-2.51,3.55-5.16,4.65-7.85c1.12-2.69,1.71-5.37,1.9-8.07
			c0.3-5.43-1.31-11.43-4.61-16.79c-0.4-0.68-0.83-1.31-1.3-1.99l-1.55-2.07c-0.53-0.68-0.99-1.41-1.58-2.05l-1.7-1.96
			c-2.25-2.63-4.78-5.06-7.44-7.36c-0.64-0.6-1.35-1.13-2.05-1.67l-2.09-1.63c-1.42-1.06-2.93-2.02-4.39-3.05l-4.59-2.82l-4.79-2.57
			c-1.65-0.77-3.29-1.57-4.96-2.32c-1.7-0.69-3.39-1.41-5.1-2.08c-1.74-0.61-3.46-1.29-5.22-1.88c-1.77-0.55-3.53-1.14-5.32-1.66
			c-1.8-0.48-3.6-0.99-5.42-1.44l-5.49-1.23l-5.55-1.06l-5.61-0.85c-15.02-1.97-30.48-2.02-45.74-0.08
			c-7.63,0.97-15.21,2.44-22.64,4.47c-3.72,1.01-7.39,2.18-11.02,3.48c-1.83,0.62-3.55,1.46-5.5,1.86c-1.92,0.45-3.9,0.79-6.28,0.49
			h-0.03c-0.62-0.08-1.06-0.64-0.98-1.26C33.12,23.13,33.16,22.99,33.23,22.88z"/>
	</g>
</g>
</svg>
