<?xml version="1.0" encoding="utf-8"?>
<svg version="1.1" id="Layer_1" xmlns="http://www.w3.org/2000/svg" xmlns:xlink="http://www.w3.org/1999/xlink" height="1297" width="2512">
	<polygon points="654,1289 0,1297 2486,1297 " style="fill:rgb(192, 0, 160);stroke-width:none"/>
	<polygon points="936,1274 654,1289 2486,1297 " style="fill:rgb(149, 0, 135);stroke-width:none"/>
	<polygon points="1600,1217 1302,1027 936,1274 " style="fill:rgb(157, 0, 140);stroke-width:none"/>
	<polygon points="1302,1027 1600,1217 1560,1086 " style="fill:rgb(137, 80, 127);stroke-width:none"/>
	<polygon points="2512,1297 2511,1242 2486,1297 " style="fill:rgb(147, 102, 114);stroke-width:none"/>
	<polygon points="2512,1004 2511,1242 2512,1297 " style="fill:rgb(147, 102, 114);stroke-width:none"/>
	<polygon points="2512,1004 2512,560 2424,918 " style="fill:rgb(147, 102, 114);stroke-width:none"/>
	<polygon points="285,0 212,194 365,255 " style="fill:rgb(163, 143, 92);stroke-width:none"/>
	<polygon points="2202,614 2237,993 2424,918 " style="fill:rgb(147, 102, 114);stroke-width:none"/>
	<polygon points="2395,1142 2512,1004 2424,918 " style="fill:rgb(147, 102, 114);stroke-width:none"/>
	<polygon points="2395,1142 2511,1242 2512,1004 " style="fill:rgb(147, 102, 114);stroke-width:none"/>
	<polygon points="1479,1000 1302,1027 1560,1086 " style="fill:rgb(140, 44, 129);stroke-width:none"/>
	<polygon points="1825,981 1479,1000 1560,1086 " style="fill:rgb(130, 175, 121);stroke-width:none"/>
	<polygon points="1479,1000 1825,981 1489,783 " style="fill:rgb(131, 161, 122);stroke-width:none"/>
	<polygon points="2512,560 2466,568 2424,918 " style="fill:rgb(147, 59, 120);stroke-width:none"/>
	<polygon points="2466,568 2512,560 2512,341 " style="fill:rgb(146, 0, 133);stroke-width:none"/>
	<polygon points="2466,568 2512,341 2396,559 " style="fill:rgb(146, 0, 133);stroke-width:none"/>
	<polygon points="0,860 83,682 0,659 " style="fill:rgb(255, 0, 255);stroke-width:none"/>
	<polygon points="1302,1027 889,1186 936,1274 " style="fill:rgb(192, 0, 160);stroke-width:none"/>
	<polygon points="1050,876 889,1186 1302,1027 " style="fill:rgb(186, 0, 157);stroke-width:none"/>
	<polygon points="212,194 91,0 0,150 " style="fill:rgb(155, 94, 107);stroke-width:none"/>
	<polygon points="91,0 212,194 178,0 " style="fill:rgb(153, 76, 112);stroke-width:none"/>
	<polygon points="370,336 403,337 365,255 " style="fill:rgb(184, 66, 82);stroke-width:none"/>
	<polygon points="403,337 370,336 369,590 " style="fill:rgb(209, 0, 95);stroke-width:none"/>
	<polygon points="8,261 212,194 0,150 " style="fill:rgb(172, 72, 93);stroke-width:none"/>
	<polygon points="212,194 209,0 178,0 " style="fill:rgb(154, 80, 109);stroke-width:none"/>
	<polygon points="410,0 285,0 365,255 " style="fill:rgb(160, 97, 101);stroke-width:none"/>
	<polygon points="2347,599 2202,614 2424,918 " style="fill:rgb(147, 70, 118);stroke-width:none"/>
	<polygon points="2466,568 2347,599 2424,918 " style="fill:rgb(148, 64, 119);stroke-width:none"/>
	<polygon points="2347,599 2466,568 2396,559 " style="fill:rgb(147, 17, 127);stroke-width:none"/>
	<polygon points="2202,614 2104,628 2237,993 " style="fill:rgb(142, 133, 115);stroke-width:none"/>
	<polygon points="2424,1227 2261,1267 2486,1297 " style="fill:rgb(147, 102, 114);stroke-width:none"/>
	<polygon points="2511,1242 2424,1227 2486,1297 " style="fill:rgb(147, 102, 114);stroke-width:none"/>
	<polygon points="2395,1142 2424,1227 2511,1242 " style="fill:rgb(147, 102, 114);stroke-width:none"/>
	<polygon points="2424,1227 2296,1169 2261,1267 " style="fill:rgb(147, 102, 114);stroke-width:none"/>
	<polygon points="2296,1169 2424,1227 2395,1142 " style="fill:rgb(147, 102, 114);stroke-width:none"/>
	<polygon points="1825,981 1788,724 1489,783 " style="fill:rgb(127, 213, 118);stroke-width:none"/>
	<polygon points="1990,881 2104,628 1990,731 " style="fill:rgb(131, 216, 113);stroke-width:none"/>
	<polygon points="2104,628 1990,881 2237,993 " style="fill:rgb(136, 190, 112);stroke-width:none"/>
	<polygon points="1788,724 1990,881 1990,731 " style="fill:rgb(127, 246, 113);stroke-width:none"/>
	<polygon points="1990,881 1788,724 1825,981 " style="fill:rgb(126, 247, 114);stroke-width:none"/>
	<polygon points="2256,1081 2296,1169 2395,1142 " style="fill:rgb(147, 102, 114);stroke-width:none"/>
	<polygon points="2237,993 2256,1081 2424,918 " style="fill:rgb(147, 102, 114);stroke-width:none"/>
	<polygon points="2256,1081 2395,1142 2424,918 " style="fill:rgb(147, 102, 114);stroke-width:none"/>
	<polygon points="2016,1253 1600,1217 936,1274 " style="fill:rgb(135, 105, 126);stroke-width:none"/>
	<polygon points="2016,1253 936,1274 2486,1297 " style="fill:rgb(126, 243, 115);stroke-width:none"/>
	<polygon points="2261,1267 2016,1253 2486,1297 " style="fill:rgb(147, 102, 114);stroke-width:none"/>
	<polygon points="1352,740 1330,683 1189,642 " style="fill:rgb(148, 43, 122);stroke-width:none"/>
	<polygon points="1288,897 1050,876 1302,1027 " style="fill:rgb(166, 0, 145);stroke-width:none"/>
	<polygon points="1288,897 1352,740 1189,642 " style="fill:rgb(155, 0, 136);stroke-width:none"/>
	<polygon points="2163,0 2266,72 2512,0 " style="fill:rgb(131, 0, 166);stroke-width:none"/>
	<polygon points="1994,13 2061,0 1948,0 " style="fill:rgb(145, 0, 141);stroke-width:none"/>
	<polygon points="1994,13 1948,0 1918,182 " style="fill:rgb(147, 0, 136);stroke-width:none"/>
	<polygon points="1916,310 1769,475 1995,456 " style="fill:rgb(134, 177, 116);stroke-width:none"/>
	<polygon points="2104,628 2266,501 1995,456 " style="fill:rgb(139, 94, 123);stroke-width:none"/>
	<polygon points="2266,501 2104,628 2202,614 " style="fill:rgb(143, 63, 124);stroke-width:none"/>
	<polygon points="2266,501 2347,599 2396,559 " style="fill:rgb(147, 9, 128);stroke-width:none"/>
	<polygon points="2347,599 2266,501 2202,614 " style="fill:rgb(147, 15, 127);stroke-width:none"/>
	<polygon points="2512,341 2266,501 2396,559 " style="fill:rgb(145, 0, 134);stroke-width:none"/>
	<polygon points="2269,211 2266,501 2512,341 " style="fill:rgb(142, 0, 143);stroke-width:none"/>
	<polygon points="2266,72 2461,130 2512,0 " style="fill:rgb(131, 0, 166);stroke-width:none"/>
	<polygon points="2269,211 2461,130 2266,72 " style="fill:rgb(134, 0, 161);stroke-width:none"/>
	<polygon points="1521,0 1821,40 1948,0 " style="fill:rgb(155, 0, 121);stroke-width:none"/>
	<polygon points="1821,40 1521,0 1573,63 " style="fill:rgb(160, 21, 113);stroke-width:none"/>
	<polygon points="1948,0 1821,40 1918,182 " style="fill:rgb(150, 0, 132);stroke-width:none"/>
	<polygon points="839,500 928,575 917,503 " style="fill:rgb(172, 0, 104);stroke-width:none"/>
	<polygon points="654,1289 147,1284 0,1297 " style="fill:rgb(255, 0, 255);stroke-width:none"/>
	<polygon points="420,1248 147,1284 654,1289 " style="fill:rgb(255, 0, 240);stroke-width:none"/>
	<polygon points="889,1186 891,1235 936,1274 " style="fill:rgb(219, 0, 174);stroke-width:none"/>
	<polygon points="832,1024 889,1186 1050,876 " style="fill:rgb(215, 0, 172);stroke-width:none"/>
	<polygon points="91,0 0,77 0,150 " style="fill:rgb(147, 61, 120);stroke-width:none"/>
	<polygon points="212,194 320,310 365,255 " style="fill:rgb(177, 107, 82);stroke-width:none"/>
	<polygon points="320,310 370,336 365,255 " style="fill:rgb(184, 66, 82);stroke-width:none"/>
	<polygon points="237,449 93,614 369,590 " style="fill:rgb(255, 0, 139);stroke-width:none"/>
	<polygon points="79,570 93,614 237,449 " style="fill:rgb(255, 0, 143);stroke-width:none"/>
	<polygon points="0,317 8,261 0,150 " style="fill:rgb(184, 5, 91);stroke-width:none"/>
	<polygon points="8,261 0,317 212,194 " style="fill:rgb(187, 0, 89);stroke-width:none"/>
	<polygon points="0,317 0,377 237,449 " style="fill:rgb(230, 0, 97);stroke-width:none"/>
	<polygon points="275,0 212,194 285,0 " style="fill:rgb(157, 86, 106);stroke-width:none"/>
	<polygon points="275,0 209,0 212,194 " style="fill:rgb(156, 84, 108);stroke-width:none"/>
	<polygon points="597,411 403,337 369,590 " style="fill:rgb(207, 0, 98);stroke-width:none"/>
	<polygon points="481,0 615,197 507,0 " style="fill:rgb(165, 105, 95);stroke-width:none"/>
	<polygon points="615,197 481,0 365,255 " style="fill:rgb(164, 173, 86);stroke-width:none"/>
	<polygon points="403,337 615,197 365,255 " style="fill:rgb(173, 158, 79);stroke-width:none"/>
	<polygon points="597,411 615,197 403,337 " style="fill:rgb(175, 136, 80);stroke-width:none"/>
	<polygon points="615,197 597,411 710,228 " style="fill:rgb(167, 204, 78);stroke-width:none"/>
	<polygon points="1129,107 1158,319 1234,180 " style="fill:rgb(156, 227, 86);stroke-width:none"/>
	<polygon points="1029,0 1129,107 1364,0 " style="fill:rgb(169, 88, 93);stroke-width:none"/>
	<polygon points="1129,107 1350,114 1364,0 " style="fill:rgb(168, 76, 96);stroke-width:none"/>
	<polygon points="1350,114 1129,107 1234,180 " style="fill:rgb(162, 150, 91);stroke-width:none"/>
	<polygon points="1898,547 1788,724 1990,731 " style="fill:rgb(128, 245, 112);stroke-width:none"/>
	<polygon points="2104,628 1898,547 1990,731 " style="fill:rgb(132, 202, 114);stroke-width:none"/>
	<polygon points="1898,547 2104,628 1995,456 " style="fill:rgb(133, 174, 117);stroke-width:none"/>
	<polygon points="2016,1253 1732,1222 1600,1217 " style="fill:rgb(126, 237, 115);stroke-width:none"/>
	<polygon points="2262,1200 2016,1253 2261,1267 " style="fill:rgb(141, 149, 113);stroke-width:none"/>
	<polygon points="2296,1169 2262,1200 2261,1267 " style="fill:rgb(147, 102, 114);stroke-width:none"/>
	<polygon points="2256,1081 2262,1200 2296,1169 " style="fill:rgb(147, 102, 114);stroke-width:none"/>
	<polygon points="2014,994 1990,881 1825,981 " style="fill:rgb(128, 243, 112);stroke-width:none"/>
	<polygon points="1990,881 2014,994 2237,993 " style="fill:rgb(134, 204, 112);stroke-width:none"/>
	<polygon points="2014,994 2256,1081 2237,993 " style="fill:rgb(140, 156, 113);stroke-width:none"/>
	<polygon points="1479,1000 1378,955 1302,1027 " style="fill:rgb(146, 0, 133);stroke-width:none"/>
	<polygon points="2113,212 1916,310 1995,456 " style="fill:rgb(138, 78, 126);stroke-width:none"/>
	<polygon points="2266,501 2113,212 1995,456 " style="fill:rgb(140, 37, 131);stroke-width:none"/>
	<polygon points="2113,212 2266,501 2269,211 " style="fill:rgb(140, 0, 144);stroke-width:none"/>
	<polygon points="1916,310 2113,212 1918,182 " style="fill:rgb(141, 41, 129);stroke-width:none"/>
	<polygon points="1643,304 1559,186 1535,263 " style="fill:rgb(145, 197, 102);stroke-width:none"/>
	<polygon points="1916,310 1643,304 1769,475 " style="fill:rgb(136, 202, 110);stroke-width:none"/>
	<polygon points="1643,304 1916,310 1918,182 " style="fill:rgb(141, 127, 116);stroke-width:none"/>
	<polygon points="1557,467 1643,304 1535,263 " style="fill:rgb(138, 252, 100);stroke-width:none"/>
	<polygon points="1491,283 1557,467 1535,263 " style="fill:rgb(139, 255, 98);stroke-width:none"/>
	<polygon points="1557,467 1491,283 1358,407 " style="fill:rgb(137, 255, 96);stroke-width:none"/>
	<polygon points="1389,674 1557,467 1358,407 " style="fill:rgb(134, 255, 101);stroke-width:none"/>
	<polygon points="1350,114 1452,0 1364,0 " style="fill:rgb(166, 62, 100);stroke-width:none"/>
	<polygon points="552,716 670,605 369,590 " style="fill:rgb(252, 0, 152);stroke-width:none"/>
	<polygon points="928,575 1033,817 1189,642 " style="fill:rgb(174, 0, 131);stroke-width:none"/>
	<polygon points="1033,817 1288,897 1189,642 " style="fill:rgb(172, 0, 149);stroke-width:none"/>
	<polygon points="1288,897 1033,817 1050,876 " style="fill:rgb(179, 0, 153);stroke-width:none"/>
	<polygon points="212,1080 0,860 0,996 " style="fill:rgb(255, 0, 255);stroke-width:none"/>
	<polygon points="147,1284 0,1197 0,1297 " style="fill:rgb(255, 0, 255);stroke-width:none"/>
	<polygon points="680,1246 534,1145 654,1289 " style="fill:rgb(255, 0, 209);stroke-width:none"/>
	<polygon points="805,1272 654,1289 936,1274 " style="fill:rgb(242, 0, 187);stroke-width:none"/>
	<polygon points="891,1235 805,1272 936,1274 " style="fill:rgb(224, 0, 177);stroke-width:none"/>
	<polygon points="832,1024 818,1232 889,1186 " style="fill:rgb(231, 0, 181);stroke-width:none"/>
	<polygon points="818,1232 832,1024 680,1246 " style="fill:rgb(247, 0, 189);stroke-width:none"/>
	<polygon points="818,1232 891,1235 889,1186 " style="fill:rgb(227, 0, 179);stroke-width:none"/>
	<polygon points="818,1232 805,1272 891,1235 " style="fill:rgb(233, 0, 182);stroke-width:none"/>
	<polygon points="14,5 91,0 0,0 " style="fill:rgb(147, 61, 120);stroke-width:none"/>
	<polygon points="0,77 14,5 0,0 " style="fill:rgb(147, 61, 120);stroke-width:none"/>
	<polygon points="14,5 0,77 91,0 " style="fill:rgb(147, 61, 120);stroke-width:none"/>
	<polygon points="320,310 254,431 370,336 " style="fill:rgb(199, 0, 87);stroke-width:none"/>
	<polygon points="254,431 237,449 369,590 " style="fill:rgb(244, 0, 115);stroke-width:none"/>
	<polygon points="370,336 254,431 369,590 " style="fill:rgb(224, 0, 103);stroke-width:none"/>
	<polygon points="254,431 320,310 212,194 " style="fill:rgb(191, 0, 84);stroke-width:none"/>
	<polygon points="254,431 0,317 237,449 " style="fill:rgb(227, 0, 98);stroke-width:none"/>
	<polygon points="0,317 254,431 212,194 " style="fill:rgb(199, 0, 87);stroke-width:none"/>
	<polygon points="6,628 0,461 0,659 " style="fill:rgb(255, 0, 168);stroke-width:none"/>
	<polygon points="0,461 6,628 79,570 " style="fill:rgb(255, 0, 154);stroke-width:none"/>
	<polygon points="6,628 93,614 79,570 " style="fill:rgb(255, 0, 178);stroke-width:none"/>
	<polygon points="83,682 6,628 0,659 " style="fill:rgb(255, 0, 210);stroke-width:none"/>
	<polygon points="93,614 6,628 83,682 " style="fill:rgb(255, 0, 198);stroke-width:none"/>
	<polygon points="0,377 0,447 237,449 " style="fill:rgb(248, 0, 106);stroke-width:none"/>
	<polygon points="414,0 410,0 365,255 " style="fill:rgb(161, 101, 99);stroke-width:none"/>
	<polygon points="481,0 414,0 365,255 " style="fill:rgb(162, 102, 98);stroke-width:none"/>
	<polygon points="875,269 896,388 1158,319 " style="fill:rgb(155, 255, 82);stroke-width:none"/>
	<polygon points="896,388 710,228 735,489 " style="fill:rgb(166, 178, 83);stroke-width:none"/>
	<polygon points="896,388 875,269 710,228 " style="fill:rgb(160, 243, 79);stroke-width:none"/>
	<polygon points="1129,107 997,116 1158,319 " style="fill:rgb(159, 214, 85);stroke-width:none"/>
	<polygon points="997,116 875,269 1158,319 " style="fill:rgb(156, 255, 81);stroke-width:none"/>
	<polygon points="997,116 1129,107 1029,0 " style="fill:rgb(170, 98, 91);stroke-width:none"/>
	<polygon points="1113,514 928,575 1189,642 " style="fill:rgb(159, 50, 109);stroke-width:none"/>
	<polygon points="928,575 1113,514 917,503 " style="fill:rgb(163, 62, 103);stroke-width:none"/>
	<polygon points="1113,514 896,388 917,503 " style="fill:rgb(159, 151, 94);stroke-width:none"/>
	<polygon points="1788,724 1864,546 1769,475 " style="fill:rgb(128, 255, 110);stroke-width:none"/>
	<polygon points="1898,547 1864,546 1788,724 " style="fill:rgb(128, 248, 111);stroke-width:none"/>
	<polygon points="1769,475 1864,546 1995,456 " style="fill:rgb(131, 214, 113);stroke-width:none"/>
	<polygon points="1864,546 1898,547 1995,456 " style="fill:rgb(132, 203, 114);stroke-width:none"/>
	<polygon points="2009,1167 1732,1222 2016,1253 " style="fill:rgb(127, 246, 113);stroke-width:none"/>
	<polygon points="2009,1167 2014,994 1825,981 " style="fill:rgb(128, 242, 112);stroke-width:none"/>
	<polygon points="2014,994 2009,1167 2256,1081 " style="fill:rgb(135, 198, 112);stroke-width:none"/>
	<polygon points="2009,1167 2262,1200 2256,1081 " style="fill:rgb(141, 152, 113);stroke-width:none"/>
	<polygon points="2262,1200 2009,1167 2016,1253 " style="fill:rgb(135, 197, 112);stroke-width:none"/>
	<polygon points="1600,1217 1690,1213 1560,1086 " style="fill:rgb(130, 172, 121);stroke-width:none"/>
	<polygon points="1732,1222 1690,1213 1600,1217 " style="fill:rgb(128, 201, 119);stroke-width:none"/>
	<polygon points="1341,938 1288,897 1302,1027 " style="fill:rgb(154, 0, 138);stroke-width:none"/>
	<polygon points="1378,955 1341,938 1302,1027 " style="fill:rgb(151, 0, 136);stroke-width:none"/>
	<polygon points="1446,824 1479,1000 1489,783 " style="fill:rgb(138, 66, 128);stroke-width:none"/>
	<polygon points="1446,824 1378,955 1479,1000 " style="fill:rgb(141, 31, 130);stroke-width:none"/>
	<polygon points="1446,824 1341,938 1378,955 " style="fill:rgb(146, 0, 133);stroke-width:none"/>
	<polygon points="1341,938 1446,824 1288,897 " style="fill:rgb(149, 0, 135);stroke-width:none"/>
	<polygon points="2093,171 1994,13 1918,182 " style="fill:rgb(144, 0, 138);stroke-width:none"/>
	<polygon points="2113,212 2093,171 1918,182 " style="fill:rgb(141, 0, 137);stroke-width:none"/>
	<polygon points="1994,13 2093,171 2061,0 " style="fill:rgb(142, 0, 145);stroke-width:none"/>
	<polygon points="2093,171 2147,0 2061,0 " style="fill:rgb(140, 0, 150);stroke-width:none"/>
	<polygon points="2147,0 2093,171 2163,0 " style="fill:rgb(138, 0, 154);stroke-width:none"/>
	<polygon points="2163,0 2093,171 2266,72 " style="fill:rgb(135, 0, 158);stroke-width:none"/>
	<polygon points="2093,171 2269,211 2266,72 " style="fill:rgb(136, 0, 156);stroke-width:none"/>
	<polygon points="2093,171 2113,212 2269,211 " style="fill:rgb(138, 0, 147);stroke-width:none"/>
	<polygon points="1643,304 1618,488 1769,475 " style="fill:rgb(133, 255, 105);stroke-width:none"/>
	<polygon points="1618,488 1643,304 1557,467 " style="fill:rgb(134, 255, 102);stroke-width:none"/>
	<polygon points="1618,488 1788,724 1769,475 " style="fill:rgb(128, 255, 108);stroke-width:none"/>
	<polygon points="1788,724 1618,488 1489,783 " style="fill:rgb(128, 249, 112);stroke-width:none"/>
	<polygon points="1618,488 1389,674 1489,783 " style="fill:rgb(132, 219, 112);stroke-width:none"/>
	<polygon points="1389,674 1618,488 1557,467 " style="fill:rgb(131, 255, 104);stroke-width:none"/>
	<polygon points="1643,304 1651,150 1559,186 " style="fill:rgb(147, 158, 105);stroke-width:none"/>
	<polygon points="1821,40 1651,150 1918,182 " style="fill:rgb(151, 26, 121);stroke-width:none"/>
	<polygon points="1651,150 1643,304 1918,182 " style="fill:rgb(145, 120, 113);stroke-width:none"/>
	<polygon points="1350,114 1506,244 1559,186 " style="fill:rgb(153, 164, 98);stroke-width:none"/>
	<polygon points="1559,186 1506,244 1535,263 " style="fill:rgb(147, 193, 100);stroke-width:none"/>
	<polygon points="1506,244 1491,283 1535,263 " style="fill:rgb(145, 222, 98);stroke-width:none"/>
	<polygon points="1491,283 1358,260 1358,407 " style="fill:rgb(143, 255, 93);stroke-width:none"/>
	<polygon points="1358,260 1506,244 1350,114 " style="fill:rgb(152, 199, 94);stroke-width:none"/>
	<polygon points="1506,244 1358,260 1491,283 " style="fill:rgb(146, 234, 95);stroke-width:none"/>
	<polygon points="1358,260 1221,354 1358,407 " style="fill:rgb(143, 255, 90);stroke-width:none"/>
	<polygon points="1384,673 1389,674 1358,407 " style="fill:rgb(137, 220, 106);stroke-width:none"/>
	<polygon points="1384,673 1330,683 1352,740 " style="fill:rgb(143, 83, 121);stroke-width:none"/>
	<polygon points="2461,130 2512,73 2512,0 " style="fill:rgb(131, 0, 166);stroke-width:none"/>
	<polygon points="2512,259 2512,149 2461,130 " style="fill:rgb(136, 0, 157);stroke-width:none"/>
	<polygon points="2512,259 2461,130 2269,211 " style="fill:rgb(137, 0, 155);stroke-width:none"/>
	<polygon points="1521,0 1477,0 1573,63 " style="fill:rgb(163, 42, 106);stroke-width:none"/>
	<polygon points="1477,0 1559,186 1573,63 " style="fill:rgb(163, 40, 107);stroke-width:none"/>
	<polygon points="1477,0 1350,114 1559,186 " style="fill:rgb(162, 74, 102);stroke-width:none"/>
	<polygon points="1477,0 1452,0 1350,114 " style="fill:rgb(165, 57, 102);stroke-width:none"/>
	<polygon points="676,927 748,887 679,762 " style="fill:rgb(255, 0, 199);stroke-width:none"/>
	<polygon points="748,887 676,927 832,1024 " style="fill:rgb(253, 0, 192);stroke-width:none"/>
	<polygon points="748,887 832,1024 1050,876 " style="fill:rgb(225, 0, 178);stroke-width:none"/>
	<polygon points="1033,817 748,887 1050,876 " style="fill:rgb(211, 0, 170);stroke-width:none"/>
	<polygon points="635,677 552,716 679,762 " style="fill:rgb(255, 0, 178);stroke-width:none"/>
	<polygon points="635,677 670,605 552,716 " style="fill:rgb(244, 0, 156);stroke-width:none"/>
	<polygon points="644,447 670,605 735,489 " style="fill:rgb(194, 0, 107);stroke-width:none"/>
	<polygon points="710,228 644,447 735,489 " style="fill:rgb(174, 111, 85);stroke-width:none"/>
	<polygon points="597,411 644,447 710,228 " style="fill:rgb(174, 125, 83);stroke-width:none"/>
	<polygon points="751,528 928,575 839,500 " style="fill:rgb(179, 0, 107);stroke-width:none"/>
	<polygon points="751,528 839,500 735,489 " style="fill:rgb(182, 0, 103);stroke-width:none"/>
	<polygon points="670,605 751,528 735,489 " style="fill:rgb(195, 0, 112);stroke-width:none"/>
	<polygon points="606,423 597,411 369,590 " style="fill:rgb(206, 0, 102);stroke-width:none"/>
	<polygon points="670,605 606,423 369,590 " style="fill:rgb(219, 0, 118);stroke-width:none"/>
	<polygon points="606,423 644,447 597,411 " style="fill:rgb(186, 0, 91);stroke-width:none"/>
	<polygon points="644,447 606,423 670,605 " style="fill:rgb(195, 0, 103);stroke-width:none"/>
	<polygon points="212,1080 173,761 0,860 " style="fill:rgb(255, 0, 255);stroke-width:none"/>
	<polygon points="173,761 212,1080 336,983 " style="fill:rgb(255, 0, 255);stroke-width:none"/>
	<polygon points="370,861 173,761 336,983 " style="fill:rgb(255, 0, 255);stroke-width:none"/>
	<polygon points="0,860 173,761 83,682 " style="fill:rgb(255, 0, 255);stroke-width:none"/>
	<polygon points="93,614 173,761 369,590 " style="fill:rgb(255, 0, 189);stroke-width:none"/>
	<polygon points="173,761 93,614 83,682 " style="fill:rgb(255, 0, 219);stroke-width:none"/>
	<polygon points="133,1102 212,1080 0,996 " style="fill:rgb(255, 0, 255);stroke-width:none"/>
	<polygon points="0,1086 133,1102 0,1064 " style="fill:rgb(255, 0, 255);stroke-width:none"/>
	<polygon points="133,1102 0,1086 0,1148 " style="fill:rgb(255, 0, 255);stroke-width:none"/>
	<polygon points="0,1197 133,1102 0,1148 " style="fill:rgb(255, 0, 255);stroke-width:none"/>
	<polygon points="133,1102 0,1197 147,1284 " style="fill:rgb(255, 0, 255);stroke-width:none"/>
	<polygon points="133,1102 147,1284 247,1217 " style="fill:rgb(255, 0, 255);stroke-width:none"/>
	<polygon points="212,1080 133,1102 247,1217 " style="fill:rgb(255, 0, 255);stroke-width:none"/>
	<polygon points="368,829 173,761 370,861 " style="fill:rgb(255, 0, 255);stroke-width:none"/>
	<polygon points="469,1171 391,1226 420,1248 " style="fill:rgb(255, 0, 237);stroke-width:none"/>
	<polygon points="469,1171 534,1145 525,1128 " style="fill:rgb(255, 0, 225);stroke-width:none"/>
	<polygon points="469,1171 420,1248 654,1289 " style="fill:rgb(255, 0, 224);stroke-width:none"/>
	<polygon points="534,1145 469,1171 654,1289 " style="fill:rgb(255, 0, 219);stroke-width:none"/>
	<polygon points="391,1226 265,1217 420,1248 " style="fill:rgb(255, 0, 248);stroke-width:none"/>
	<polygon points="147,1284 265,1217 247,1217 " style="fill:rgb(255, 0, 255);stroke-width:none"/>
	<polygon points="420,1248 265,1217 147,1284 " style="fill:rgb(255, 0, 255);stroke-width:none"/>
	<polygon points="212,1080 274,1171 336,983 " style="fill:rgb(255, 0, 255);stroke-width:none"/>
	<polygon points="274,1171 265,1217 391,1226 " style="fill:rgb(255, 0, 255);stroke-width:none"/>
	<polygon points="274,1171 212,1080 247,1217 " style="fill:rgb(255, 0, 255);stroke-width:none"/>
	<polygon points="265,1217 274,1171 247,1217 " style="fill:rgb(255, 0, 255);stroke-width:none"/>
	<polygon points="544,1128 534,1145 680,1246 " style="fill:rgb(255, 0, 214);stroke-width:none"/>
	<polygon points="534,1145 544,1128 525,1128 " style="fill:rgb(255, 0, 221);stroke-width:none"/>
	<polygon points="740,1259 818,1232 680,1246 " style="fill:rgb(255, 0, 193);stroke-width:none"/>
	<polygon points="818,1232 740,1259 805,1272 " style="fill:rgb(245, 0, 188);stroke-width:none"/>
	<polygon points="740,1259 680,1246 654,1289 " style="fill:rgb(255, 0, 200);stroke-width:none"/>
	<polygon points="805,1272 740,1259 654,1289 " style="fill:rgb(255, 0, 195);stroke-width:none"/>
	<polygon points="0,447 0,452 237,449 " style="fill:rgb(255, 0, 113);stroke-width:none"/>
	<polygon points="886,434 839,500 917,503 " style="fill:rgb(168, 78, 96);stroke-width:none"/>
	<polygon points="896,388 886,434 917,503 " style="fill:rgb(163, 146, 91);stroke-width:none"/>
	<polygon points="839,500 886,434 735,489 " style="fill:rgb(173, 43, 96);stroke-width:none"/>
	<polygon points="886,434 896,388 735,489 " style="fill:rgb(167, 119, 90);stroke-width:none"/>
	<polygon points="802,0 997,116 1029,0 " style="fill:rgb(170, 104, 90);stroke-width:none"/>
	<polygon points="997,116 802,0 875,269 " style="fill:rgb(165, 168, 85);stroke-width:none"/>
	<polygon points="1162,460 1221,354 1158,319 " style="fill:rgb(146, 255, 88);stroke-width:none"/>
	<polygon points="896,388 1162,460 1158,319 " style="fill:rgb(151, 255, 87);stroke-width:none"/>
	<polygon points="1113,514 1162,460 896,388 " style="fill:rgb(153, 206, 92);stroke-width:none"/>
	<polygon points="1755,1119 2009,1167 1825,981 " style="fill:rgb(126, 247, 114);stroke-width:none"/>
	<polygon points="2009,1167 1755,1119 1732,1222 " style="fill:rgb(126, 245, 114);stroke-width:none"/>
	<polygon points="1755,1119 1690,1213 1732,1222 " style="fill:rgb(126, 222, 117);stroke-width:none"/>
	<polygon points="1755,1119 1825,981 1560,1086 " style="fill:rgb(127, 218, 117);stroke-width:none"/>
	<polygon points="1690,1213 1755,1119 1560,1086 " style="fill:rgb(128, 199, 119);stroke-width:none"/>
	<polygon points="1288,897 1361,745 1352,740 " style="fill:rgb(151, 0, 137);stroke-width:none"/>
	<polygon points="1446,824 1361,745 1288,897 " style="fill:rgb(148, 0, 134);stroke-width:none"/>
	<polygon points="1361,745 1446,824 1489,783 " style="fill:rgb(142, 28, 130);stroke-width:none"/>
	<polygon points="1389,674 1361,745 1489,783 " style="fill:rgb(140, 81, 124);stroke-width:none"/>
	<polygon points="1361,745 1384,673 1352,740 " style="fill:rgb(143, 61, 124);stroke-width:none"/>
	<polygon points="1384,673 1361,745 1389,674 " style="fill:rgb(141, 102, 120);stroke-width:none"/>
	<polygon points="1614,118 1821,40 1573,63 " style="fill:rgb(159, 15, 115);stroke-width:none"/>
	<polygon points="1614,118 1651,150 1821,40 " style="fill:rgb(156, 30, 115);stroke-width:none"/>
	<polygon points="1292,239 1350,114 1234,180 " style="fill:rgb(156, 191, 91);stroke-width:none"/>
	<polygon points="1292,239 1358,260 1350,114 " style="fill:rgb(153, 210, 91);stroke-width:none"/>
	<polygon points="1358,260 1292,239 1221,354 " style="fill:rgb(147, 255, 89);stroke-width:none"/>
	<polygon points="1158,319 1292,239 1234,180 " style="fill:rgb(151, 254, 87);stroke-width:none"/>
	<polygon points="1221,354 1292,239 1158,319 " style="fill:rgb(147, 255, 87);stroke-width:none"/>
	<polygon points="2512,149 2512,82 2461,130 " style="fill:rgb(133, 0, 162);stroke-width:none"/>
	<polygon points="2512,82 2512,73 2461,130 " style="fill:rgb(132, 0, 165);stroke-width:none"/>
	<polygon points="2512,268 2269,211 2512,341 " style="fill:rgb(140, 0, 149);stroke-width:none"/>
	<polygon points="2512,268 2512,259 2269,211 " style="fill:rgb(139, 0, 152);stroke-width:none"/>
	<polygon points="707,711 635,677 679,762 " style="fill:rgb(249, 0, 172);stroke-width:none"/>
	<polygon points="635,677 707,711 670,605 " style="fill:rgb(233, 0, 152);stroke-width:none"/>
	<polygon points="748,887 707,711 679,762 " style="fill:rgb(255, 0, 197);stroke-width:none"/>
	<polygon points="751,528 707,711 928,575 " style="fill:rgb(197, 0, 125);stroke-width:none"/>
	<polygon points="707,711 751,528 670,605 " style="fill:rgb(213, 0, 133);stroke-width:none"/>
	<polygon points="707,711 1033,817 928,575 " style="fill:rgb(202, 0, 148);stroke-width:none"/>
	<polygon points="707,711 748,887 1033,817 " style="fill:rgb(235, 0, 183);stroke-width:none"/>
	<polygon points="133,1102 0,1014 0,1064 " style="fill:rgb(255, 0, 255);stroke-width:none"/>
	<polygon points="404,779 552,716 369,590 " style="fill:rgb(255, 0, 186);stroke-width:none"/>
	<polygon points="173,761 404,779 369,590 " style="fill:rgb(255, 0, 208);stroke-width:none"/>
	<polygon points="368,829 404,779 173,761 " style="fill:rgb(255, 0, 255);stroke-width:none"/>
	<polygon points="466,828 368,829 370,861 " style="fill:rgb(255, 0, 241);stroke-width:none"/>
	<polygon points="466,828 404,779 368,829 " style="fill:rgb(255, 0, 240);stroke-width:none"/>
	<polygon points="497,871 531,990 676,927 " style="fill:rgb(255, 0, 217);stroke-width:none"/>
	<polygon points="0,452 0,457 237,449 " style="fill:rgb(255, 0, 114);stroke-width:none"/>
	<polygon points="0,457 79,570 237,449 " style="fill:rgb(255, 0, 125);stroke-width:none"/>
	<polygon points="0,457 0,461 79,570 " style="fill:rgb(255, 0, 130);stroke-width:none"/>
	<polygon points="743,43 802,0 759,0 " style="fill:rgb(169, 109, 90);stroke-width:none"/>
	<polygon points="743,43 615,197 710,228 " style="fill:rgb(164, 194, 82);stroke-width:none"/>
	<polygon points="875,269 743,43 710,228 " style="fill:rgb(163, 216, 80);stroke-width:none"/>
	<polygon points="802,0 743,43 875,269 " style="fill:rgb(167, 138, 87);stroke-width:none"/>
	<polygon points="743,43 759,0 507,0 " style="fill:rgb(168, 109, 92);stroke-width:none"/>
	<polygon points="615,197 743,43 507,0 " style="fill:rgb(167, 108, 93);stroke-width:none"/>
	<polygon points="1221,354 1260,434 1358,407 " style="fill:rgb(142, 255, 91);stroke-width:none"/>
	<polygon points="1162,460 1260,434 1221,354 " style="fill:rgb(144, 255, 91);stroke-width:none"/>
	<polygon points="1330,683 1260,434 1189,642 " style="fill:rgb(144, 162, 108);stroke-width:none"/>
	<polygon points="1260,434 1384,673 1358,407 " style="fill:rgb(138, 255, 99);stroke-width:none"/>
	<polygon points="1384,673 1260,434 1330,683 " style="fill:rgb(140, 186, 108);stroke-width:none"/>
	<polygon points="1651,150 1580,155 1559,186 " style="fill:rgb(152, 118, 106);stroke-width:none"/>
	<polygon points="1614,118 1580,155 1651,150 " style="fill:rgb(154, 90, 108);stroke-width:none"/>
	<polygon points="1559,186 1580,155 1573,63 " style="fill:rgb(156, 94, 106);stroke-width:none"/>
	<polygon points="1580,155 1614,118 1573,63 " style="fill:rgb(158, 64, 108);stroke-width:none"/>
	<polygon points="0,1000 133,1102 0,996 " style="fill:rgb(255, 0, 255);stroke-width:none"/>
	<polygon points="0,1000 0,1014 133,1102 " style="fill:rgb(255, 0, 255);stroke-width:none"/>
	<polygon points="404,779 534,769 552,716 " style="fill:rgb(255, 0, 210);stroke-width:none"/>
	<polygon points="552,716 534,769 679,762 " style="fill:rgb(255, 0, 196);stroke-width:none"/>
	<polygon points="534,769 676,927 679,762 " style="fill:rgb(255, 0, 208);stroke-width:none"/>
	<polygon points="534,769 497,871 676,927 " style="fill:rgb(255, 0, 216);stroke-width:none"/>
	<polygon points="410,1041 274,1171 391,1226 " style="fill:rgb(255, 0, 248);stroke-width:none"/>
	<polygon points="469,1171 410,1041 391,1226 " style="fill:rgb(255, 0, 238);stroke-width:none"/>
	<polygon points="274,1171 410,1041 336,983 " style="fill:rgb(255, 0, 251);stroke-width:none"/>
	<polygon points="410,1041 420,1015 336,983 " style="fill:rgb(255, 0, 243);stroke-width:none"/>
	<polygon points="410,1041 469,1171 525,1128 " style="fill:rgb(255, 0, 231);stroke-width:none"/>
	<polygon points="531,990 608,1044 676,927 " style="fill:rgb(255, 0, 211);stroke-width:none"/>
	<polygon points="676,927 608,1044 832,1024 " style="fill:rgb(255, 0, 198);stroke-width:none"/>
	<polygon points="832,1024 608,1044 680,1246 " style="fill:rgb(255, 0, 198);stroke-width:none"/>
	<polygon points="608,1044 544,1128 680,1246 " style="fill:rgb(255, 0, 211);stroke-width:none"/>
	<polygon points="479,929 531,990 497,871 " style="fill:rgb(255, 0, 226);stroke-width:none"/>
	<polygon points="531,990 479,929 420,1015 " style="fill:rgb(255, 0, 230);stroke-width:none"/>
	<polygon points="479,929 466,828 370,861 " style="fill:rgb(255, 0, 236);stroke-width:none"/>
	<polygon points="466,828 479,929 497,871 " style="fill:rgb(255, 0, 229);stroke-width:none"/>
	<polygon points="479,929 370,861 336,983 " style="fill:rgb(255, 0, 242);stroke-width:none"/>
	<polygon points="420,1015 479,929 336,983 " style="fill:rgb(255, 0, 240);stroke-width:none"/>
	<polygon points="1260,434 1156,525 1189,642 " style="fill:rgb(146, 189, 102);stroke-width:none"/>
	<polygon points="1156,525 1260,434 1162,460 " style="fill:rgb(145, 240, 95);stroke-width:none"/>
	<polygon points="1156,525 1113,514 1189,642 " style="fill:rgb(151, 129, 106);stroke-width:none"/>
	<polygon points="1156,525 1162,460 1113,514 " style="fill:rgb(149, 197, 98);stroke-width:none"/>
	<polygon points="466,828 493,809 404,779 " style="fill:rgb(255, 0, 233);stroke-width:none"/>
	<polygon points="493,809 534,769 404,779 " style="fill:rgb(255, 0, 230);stroke-width:none"/>
	<polygon points="493,809 466,828 497,871 " style="fill:rgb(255, 0, 229);stroke-width:none"/>
	<polygon points="534,769 493,809 497,871 " style="fill:rgb(255, 0, 225);stroke-width:none"/>
	<polygon points="608,1044 539,1111 544,1128 " style="fill:rgb(255, 0, 217);stroke-width:none"/>
	<polygon points="539,1111 608,1044 531,990 " style="fill:rgb(255, 0, 218);stroke-width:none"/>
	<polygon points="544,1128 539,1111 525,1128 " style="fill:rgb(255, 0, 221);stroke-width:none"/>
	<polygon points="539,1111 410,1041 525,1128 " style="fill:rgb(255, 0, 228);stroke-width:none"/>
	<polygon points="539,1111 531,990 420,1015 " style="fill:rgb(255, 0, 227);stroke-width:none"/>
	<polygon points="410,1041 539,1111 420,1015 " style="fill:rgb(255, 0, 233);stroke-width:none"/>
</svg>