<?xml version="1.0" encoding="utf-8"?>
<svg version="1.1" id="Layer_1" xmlns="http://www.w3.org/2000/svg" xmlns:xlink="http://www.w3.org/1999/xlink" height="1297" width="2512">
	<polygon points="1579,176 1363,37 1344,153 " style="fill:rgb(186, 0, 57);stroke-width:none"/>
	<polygon points="264,0 243,42 373,33 " style="fill:rgb(92, 244, 102);stroke-width:none"/>
	<polygon points="243,42 122,254 346,250 " style="fill:rgb(99, 247, 118);stroke-width:none"/>
	<polygon points="65,488 122,254 0,375 " style="fill:rgb(109, 255, 154);stroke-width:none"/>
	<polygon points="611,6 264,0 373,33 " style="fill:rgb(94, 237, 101);stroke-width:none"/>
	<polygon points="1905,0 1103,0 1363,37 " style="fill:rgb(205, 0, 53);stroke-width:none"/>
	<polygon points="2273,1294 2180,1297 2512,1297 " style="fill:rgb(206, 0, 47);stroke-width:none"/>
	<polygon points="2512,1204 2315,1223 2512,1297 " style="fill:rgb(199, 0, 51);stroke-width:none"/>
	<polygon points="2315,1223 2273,1294 2512,1297 " style="fill:rgb(206, 0, 47);stroke-width:none"/>
	<polygon points="2310,960 2380,866 2290,785 " style="fill:rgb(22, 255, 130);stroke-width:none"/>
	<polygon points="2380,866 2406,663 2290,785 " style="fill:rgb(13, 255, 134);stroke-width:none"/>
	<polygon points="2182,372 2434,530 2290,259 " style="fill:rgb(134, 124, 80);stroke-width:none"/>
	<polygon points="2434,530 2182,372 2128,471 " style="fill:rgb(96, 231, 99);stroke-width:none"/>
	<polygon points="2054,299 2182,372 2290,259 " style="fill:rgb(180, 0, 58);stroke-width:none"/>
	<polygon points="2182,372 2054,299 2128,471 " style="fill:rgb(137, 117, 80);stroke-width:none"/>
	<polygon points="2406,663 2512,554 2434,530 " style="fill:rgb(42, 255, 121);stroke-width:none"/>
	<polygon points="2434,530 2512,329 2290,259 " style="fill:rgb(143, 97, 76);stroke-width:none"/>
	<polygon points="2512,554 2512,329 2434,530 " style="fill:rgb(87, 254, 101);stroke-width:none"/>
	<polygon points="1579,176 1703,64 1363,37 " style="fill:rgb(215, 0, 46);stroke-width:none"/>
	<polygon points="1703,64 1579,176 1780,89 " style="fill:rgb(233, 0, 36);stroke-width:none"/>
	<polygon points="1703,64 1905,0 1363,37 " style="fill:rgb(245, 0, 34);stroke-width:none"/>
	<polygon points="1905,0 1703,64 1780,89 " style="fill:rgb(255, 0, 20);stroke-width:none"/>
	<polygon points="65,488 0,498 0,675 " style="fill:rgb(118, 255, 167);stroke-width:none"/>
	<polygon points="835,933 756,737 536,933 " style="fill:rgb(142, 255, 247);stroke-width:none"/>
	<polygon points="524,1048 835,933 536,933 " style="fill:rgb(147, 255, 255);stroke-width:none"/>
	<polygon points="264,0 217,0 243,42 " style="fill:rgb(91, 244, 101);stroke-width:none"/>
	<polygon points="122,254 0,117 0,375 " style="fill:rgb(102, 255, 137);stroke-width:none"/>
	<polygon points="2269,1070 2085,1000 2217,1145 " style="fill:rgb(98, 255, 154);stroke-width:none"/>
	<polygon points="2085,1000 2269,1070 2310,960 " style="fill:rgb(70, 255, 146);stroke-width:none"/>
	<polygon points="2315,1223 2269,1070 2217,1145 " style="fill:rgb(132, 157, 106);stroke-width:none"/>
	<polygon points="2061,814 2075,571 1987,556 " style="fill:rgb(56, 255, 143);stroke-width:none"/>
	<polygon points="2061,814 2310,960 2290,785 " style="fill:rgb(31, 255, 150);stroke-width:none"/>
	<polygon points="2061,814 2085,1000 2310,960 " style="fill:rgb(53, 255, 168);stroke-width:none"/>
	<polygon points="2085,1000 1934,1222 2217,1145 " style="fill:rgb(127, 255, 205);stroke-width:none"/>
	<polygon points="1239,1297 1101,1114 989,1297 " style="fill:rgb(167, 255, 255);stroke-width:none"/>
	<polygon points="1101,1114 1007,1165 989,1297 " style="fill:rgb(160, 255, 255);stroke-width:none"/>
	<polygon points="1007,1165 1101,1114 973,1083 " style="fill:rgb(153, 255, 255);stroke-width:none"/>
	<polygon points="2244,1230 2180,1297 2273,1294 " style="fill:rgb(203, 0, 106);stroke-width:none"/>
	<polygon points="2244,1230 2315,1223 2217,1145 " style="fill:rgb(167, 71, 99);stroke-width:none"/>
	<polygon points="2315,1223 2244,1230 2273,1294 " style="fill:rgb(204, 0, 72);stroke-width:none"/>
	<polygon points="2075,571 2053,517 1987,556 " style="fill:rgb(76, 255, 121);stroke-width:none"/>
	<polygon points="2053,517 2075,571 2128,471 " style="fill:rgb(81, 255, 114);stroke-width:none"/>
	<polygon points="1972,235 1905,0 1780,89 " style="fill:rgb(255, 0, 18);stroke-width:none"/>
	<polygon points="2188,51 2350,0 2078,0 " style="fill:rgb(255, 0, 0);stroke-width:none"/>
	<polygon points="2188,51 2254,112 2350,0 " style="fill:rgb(255, 0, 0);stroke-width:none"/>
	<polygon points="2512,20 2447,165 2512,199 " style="fill:rgb(255, 0, 0);stroke-width:none"/>
	<polygon points="2350,0 2512,20 2512,0 " style="fill:rgb(255, 0, 0);stroke-width:none"/>
	<polygon points="2447,165 2512,20 2350,0 " style="fill:rgb(255, 0, 0);stroke-width:none"/>
	<polygon points="2254,112 2310,177 2350,0 " style="fill:rgb(255, 0, 0);stroke-width:none"/>
	<polygon points="2310,177 2447,165 2350,0 " style="fill:rgb(255, 0, 0);stroke-width:none"/>
	<polygon points="2310,177 2254,112 2290,259 " style="fill:rgb(255, 0, 8);stroke-width:none"/>
	<polygon points="2512,749 2512,554 2406,663 " style="fill:rgb(24, 255, 129);stroke-width:none"/>
	<polygon points="2512,749 2380,866 2512,830 " style="fill:rgb(15, 255, 133);stroke-width:none"/>
	<polygon points="2512,749 2406,663 2380,866 " style="fill:rgb(13, 255, 134);stroke-width:none"/>
	<polygon points="2447,165 2512,251 2512,199 " style="fill:rgb(255, 0, 16);stroke-width:none"/>
	<polygon points="0,398 65,488 0,375 " style="fill:rgb(111, 255, 159);stroke-width:none"/>
	<polygon points="173,579 65,488 0,675 " style="fill:rgb(120, 255, 167);stroke-width:none"/>
	<polygon points="988,992 835,933 973,1083 " style="fill:rgb(145, 255, 255);stroke-width:none"/>
	<polygon points="1101,1114 988,992 973,1083 " style="fill:rgb(148, 255, 255);stroke-width:none"/>
	<polygon points="756,737 559,624 536,933 " style="fill:rgb(138, 255, 207);stroke-width:none"/>
	<polygon points="99,58 122,254 243,42 " style="fill:rgb(95, 247, 110);stroke-width:none"/>
	<polygon points="99,58 0,117 122,254 " style="fill:rgb(97, 250, 116);stroke-width:none"/>
	<polygon points="217,0 99,58 243,42 " style="fill:rgb(92, 244, 101);stroke-width:none"/>
	<polygon points="1363,37 1292,108 1344,153 " style="fill:rgb(177, 6, 63);stroke-width:none"/>
	<polygon points="1282,103 1292,108 1363,37 " style="fill:rgb(178, 6, 64);stroke-width:none"/>
	<polygon points="2061,814 2151,685 2075,571 " style="fill:rgb(45, 255, 148);stroke-width:none"/>
	<polygon points="2075,571 2151,685 2128,471 " style="fill:rgb(62, 255, 126);stroke-width:none"/>
	<polygon points="1737,1278 1656,1297 1970,1297 " style="fill:rgb(188, 255, 255);stroke-width:none"/>
	<polygon points="1656,1297 1737,1278 1749,1220 " style="fill:rgb(185, 255, 255);stroke-width:none"/>
	<polygon points="1934,1222 1737,1278 1970,1297 " style="fill:rgb(191, 255, 255);stroke-width:none"/>
	<polygon points="1737,1278 1934,1222 1749,1220 " style="fill:rgb(183, 255, 255);stroke-width:none"/>
	<polygon points="2010,910 1934,1222 2085,1000 " style="fill:rgb(100, 255, 222);stroke-width:none"/>
	<polygon points="2061,814 2010,910 2085,1000 " style="fill:rgb(61, 255, 189);stroke-width:none"/>
	<polygon points="1749,1220 1832,890 1709,931 " style="fill:rgb(109, 255, 255);stroke-width:none"/>
	<polygon points="1934,1222 1832,890 1749,1220 " style="fill:rgb(132, 255, 255);stroke-width:none"/>
	<polygon points="2010,910 1832,890 1934,1222 " style="fill:rgb(96, 255, 240);stroke-width:none"/>
	<polygon points="1832,890 1750,843 1709,931 " style="fill:rgb(87, 255, 234);stroke-width:none"/>
	<polygon points="1832,890 2010,910 2061,814 " style="fill:rgb(64, 255, 198);stroke-width:none"/>
	<polygon points="1418,1159 1353,1297 1427,1297 " style="fill:rgb(176, 255, 255);stroke-width:none"/>
	<polygon points="1353,1297 1418,1159 1239,1297 " style="fill:rgb(174, 255, 255);stroke-width:none"/>
	<polygon points="1547,1185 1418,1159 1427,1297 " style="fill:rgb(168, 255, 255);stroke-width:none"/>
	<polygon points="2380,866 2512,914 2512,830 " style="fill:rgb(22, 255, 130);stroke-width:none"/>
	<polygon points="2512,914 2380,866 2310,960 " style="fill:rgb(31, 255, 126);stroke-width:none"/>
	<polygon points="2054,299 2006,330 2128,471 " style="fill:rgb(143, 99, 76);stroke-width:none"/>
	<polygon points="2006,330 2053,517 2128,471 " style="fill:rgb(110, 195, 95);stroke-width:none"/>
	<polygon points="2053,517 2006,330 1987,556 " style="fill:rgb(101, 223, 103);stroke-width:none"/>
	<polygon points="1972,235 2006,330 2054,299 " style="fill:rgb(182, 0, 56);stroke-width:none"/>
	<polygon points="1579,176 1666,408 1780,89 " style="fill:rgb(183, 0, 55);stroke-width:none"/>
	<polygon points="1666,408 1972,235 1780,89 " style="fill:rgb(188, 0, 53);stroke-width:none"/>
	<polygon points="1666,408 2006,330 1972,235 " style="fill:rgb(157, 58, 69);stroke-width:none"/>
	<polygon points="1905,0 2094,104 2078,0 " style="fill:rgb(255, 0, 0);stroke-width:none"/>
	<polygon points="1972,235 2094,104 1905,0 " style="fill:rgb(255, 0, 8);stroke-width:none"/>
	<polygon points="2094,104 1972,235 2054,299 " style="fill:rgb(232, 0, 33);stroke-width:none"/>
	<polygon points="2094,104 2054,299 2290,259 " style="fill:rgb(240, 0, 31);stroke-width:none"/>
	<polygon points="2254,112 2094,104 2290,259 " style="fill:rgb(255, 0, 4);stroke-width:none"/>
	<polygon points="2334,206 2310,177 2290,259 " style="fill:rgb(255, 0, 20);stroke-width:none"/>
	<polygon points="2310,177 2334,206 2447,165 " style="fill:rgb(255, 0, 7);stroke-width:none"/>
	<polygon points="2334,206 2512,251 2447,165 " style="fill:rgb(255, 0, 17);stroke-width:none"/>
	<polygon points="1750,843 1626,932 1709,931 " style="fill:rgb(95, 255, 248);stroke-width:none"/>
	<polygon points="1626,932 1750,843 1683,714 " style="fill:rgb(89, 255, 221);stroke-width:none"/>
	<polygon points="1433,841 1683,714 1615,622 " style="fill:rgb(95, 255, 190);stroke-width:none"/>
	<polygon points="1390,633 1433,841 1615,622 " style="fill:rgb(103, 255, 184);stroke-width:none"/>
	<polygon points="1433,841 1178,709 1248,954 " style="fill:rgb(119, 255, 247);stroke-width:none"/>
	<polygon points="1178,709 1433,841 1390,633 " style="fill:rgb(112, 255, 199);stroke-width:none"/>
	<polygon points="0,486 0,498 65,488 " style="fill:rgb(115, 255, 164);stroke-width:none"/>
	<polygon points="0,398 0,486 65,488 " style="fill:rgb(113, 255, 162);stroke-width:none"/>
	<polygon points="239,455 122,254 65,488 " style="fill:rgb(112, 255, 152);stroke-width:none"/>
	<polygon points="173,579 239,455 65,488 " style="fill:rgb(118, 255, 161);stroke-width:none"/>
	<polygon points="151,766 173,579 0,675 " style="fill:rgb(125, 247, 168);stroke-width:none"/>
	<polygon points="103,797 151,766 0,675 " style="fill:rgb(128, 237, 165);stroke-width:none"/>
	<polygon points="173,579 151,766 288,717 " style="fill:rgb(129, 244, 173);stroke-width:none"/>
	<polygon points="0,1005 0,1230 53,1086 " style="fill:rgb(146, 132, 110);stroke-width:none"/>
	<polygon points="614,1168 835,933 524,1048 " style="fill:rgb(151, 255, 255);stroke-width:none"/>
	<polygon points="1007,1165 899,1278 989,1297 " style="fill:rgb(165, 255, 255);stroke-width:none"/>
	<polygon points="1133,1049 988,992 1101,1114 " style="fill:rgb(146, 255, 255);stroke-width:none"/>
	<polygon points="1170,967 1133,1049 1248,954 " style="fill:rgb(137, 255, 255);stroke-width:none"/>
	<polygon points="1133,1049 1418,1159 1248,954 " style="fill:rgb(141, 255, 255);stroke-width:none"/>
	<polygon points="1133,1049 1101,1114 1239,1297 " style="fill:rgb(156, 255, 255);stroke-width:none"/>
	<polygon points="1418,1159 1133,1049 1239,1297 " style="fill:rgb(158, 255, 255);stroke-width:none"/>
	<polygon points="931,691 827,568 756,737 " style="fill:rgb(131, 250, 181);stroke-width:none"/>
	<polygon points="988,992 924,807 835,933 " style="fill:rgb(140, 255, 255);stroke-width:none"/>
	<polygon points="970,115 904,0 771,11 " style="fill:rgb(124, 156, 89);stroke-width:none"/>
	<polygon points="1287,362 1108,188 1107,353 " style="fill:rgb(133, 134, 87);stroke-width:none"/>
	<polygon points="1108,188 1292,108 1282,103 " style="fill:rgb(157, 60, 71);stroke-width:none"/>
	<polygon points="1292,108 1108,188 1344,153 " style="fill:rgb(157, 60, 70);stroke-width:none"/>
	<polygon points="1108,188 1287,362 1344,153 " style="fill:rgb(144, 95, 76);stroke-width:none"/>
	<polygon points="904,0 687,0 771,11 " style="fill:rgb(116, 180, 93);stroke-width:none"/>
	<polygon points="435,48 611,6 373,33 " style="fill:rgb(96, 232, 100);stroke-width:none"/>
	<polygon points="435,48 570,161 611,6 " style="fill:rgb(99, 225, 99);stroke-width:none"/>
	<polygon points="559,624 404,711 536,933 " style="fill:rgb(138, 255, 198);stroke-width:none"/>
	<polygon points="107,0 99,58 217,0 " style="fill:rgb(92, 243, 101);stroke-width:none"/>
	<polygon points="2195,700 2434,530 2128,471 " style="fill:rgb(52, 255, 121);stroke-width:none"/>
	<polygon points="2151,685 2195,700 2128,471 " style="fill:rgb(49, 255, 132);stroke-width:none"/>
	<polygon points="2195,700 2406,663 2434,530 " style="fill:rgb(29, 255, 127);stroke-width:none"/>
	<polygon points="2406,663 2195,700 2290,785 " style="fill:rgb(17, 255, 134);stroke-width:none"/>
	<polygon points="2195,700 2061,814 2290,785 " style="fill:rgb(31, 255, 151);stroke-width:none"/>
	<polygon points="2195,700 2151,685 2061,814 " style="fill:rgb(37, 255, 152);stroke-width:none"/>
	<polygon points="1832,890 1860,642 1750,843 " style="fill:rgb(74, 255, 196);stroke-width:none"/>
	<polygon points="1750,843 1860,642 1683,714 " style="fill:rgb(78, 255, 182);stroke-width:none"/>
	<polygon points="1860,642 2061,814 1987,556 " style="fill:rgb(61, 255, 152);stroke-width:none"/>
	<polygon points="1860,642 1832,890 2061,814 " style="fill:rgb(63, 255, 183);stroke-width:none"/>
	<polygon points="2018,1297 1934,1222 1970,1297 " style="fill:rgb(194, 221, 255);stroke-width:none"/>
	<polygon points="2192,1239 2127,1297 2180,1297 " style="fill:rgb(201, 60, 154);stroke-width:none"/>
	<polygon points="2192,1239 2244,1230 2217,1145 " style="fill:rgb(171, 93, 125);stroke-width:none"/>
	<polygon points="2244,1230 2192,1239 2180,1297 " style="fill:rgb(202, 24, 126);stroke-width:none"/>
	<polygon points="2192,1239 2018,1297 2127,1297 " style="fill:rgb(199, 108, 191);stroke-width:none"/>
	<polygon points="1934,1222 2192,1239 2217,1145 " style="fill:rgb(169, 176, 190);stroke-width:none"/>
	<polygon points="2018,1297 2192,1239 1934,1222 " style="fill:rgb(196, 163, 232);stroke-width:none"/>
	<polygon points="1652,1297 1547,1185 1427,1297 " style="fill:rgb(180, 255, 255);stroke-width:none"/>
	<polygon points="1652,1297 1656,1297 1749,1220 " style="fill:rgb(184, 255, 255);stroke-width:none"/>
	<polygon points="1547,1185 1652,1297 1749,1220 " style="fill:rgb(177, 255, 255);stroke-width:none"/>
	<polygon points="1547,1185 1440,1142 1418,1159 " style="fill:rgb(155, 255, 255);stroke-width:none"/>
	<polygon points="1440,1142 1512,996 1248,954 " style="fill:rgb(133, 255, 255);stroke-width:none"/>
	<polygon points="1418,1159 1440,1142 1248,954 " style="fill:rgb(142, 255, 255);stroke-width:none"/>
	<polygon points="2512,914 2370,1072 2512,1075 " style="fill:rgb(66, 255, 111);stroke-width:none"/>
	<polygon points="2370,1072 2512,914 2310,960 " style="fill:rgb(51, 255, 117);stroke-width:none"/>
	<polygon points="2269,1070 2370,1072 2310,960 " style="fill:rgb(72, 255, 108);stroke-width:none"/>
	<polygon points="2370,1072 2269,1070 2315,1223 " style="fill:rgb(116, 172, 88);stroke-width:none"/>
	<polygon points="2403,1128 2370,1072 2315,1223 " style="fill:rgb(129, 138, 82);stroke-width:none"/>
	<polygon points="2512,1075 2454,1137 2512,1192 " style="fill:rgb(125, 149, 84);stroke-width:none"/>
	<polygon points="2454,1137 2512,1204 2512,1192 " style="fill:rgb(152, 71, 71);stroke-width:none"/>
	<polygon points="2454,1137 2315,1223 2512,1204 " style="fill:rgb(159, 52, 68);stroke-width:none"/>
	<polygon points="2454,1137 2403,1128 2315,1223 " style="fill:rgb(143, 99, 76);stroke-width:none"/>
	<polygon points="1487,451 1287,362 1390,633 " style="fill:rgb(119, 201, 117);stroke-width:none"/>
	<polygon points="2006,330 1827,569 1987,556 " style="fill:rgb(99, 234, 108);stroke-width:none"/>
	<polygon points="1666,408 1827,569 2006,330 " style="fill:rgb(117, 181, 97);stroke-width:none"/>
	<polygon points="1827,569 1860,642 1987,556 " style="fill:rgb(79, 255, 135);stroke-width:none"/>
	<polygon points="2184,61 2188,51 2078,0 " style="fill:rgb(255, 0, 0);stroke-width:none"/>
	<polygon points="2094,104 2184,61 2078,0 " style="fill:rgb(255, 0, 0);stroke-width:none"/>
	<polygon points="2188,51 2184,61 2254,112 " style="fill:rgb(255, 0, 0);stroke-width:none"/>
	<polygon points="2184,61 2094,104 2254,112 " style="fill:rgb(255, 0, 0);stroke-width:none"/>
	<polygon points="2334,206 2512,317 2512,251 " style="fill:rgb(230, 0, 37);stroke-width:none"/>
	<polygon points="2512,329 2512,317 2290,259 " style="fill:rgb(194, 0, 53);stroke-width:none"/>
	<polygon points="2512,317 2334,206 2290,259 " style="fill:rgb(227, 0, 38);stroke-width:none"/>
	<polygon points="1606,1099 1626,932 1512,996 " style="fill:rgb(120, 255, 255);stroke-width:none"/>
	<polygon points="1440,1142 1606,1099 1512,996 " style="fill:rgb(136, 255, 255);stroke-width:none"/>
	<polygon points="1606,1099 1440,1142 1547,1185 " style="fill:rgb(150, 255, 255);stroke-width:none"/>
	<polygon points="1606,1099 1547,1185 1749,1220 " style="fill:rgb(155, 255, 255);stroke-width:none"/>
	<polygon points="1606,1099 1749,1220 1709,931 " style="fill:rgb(130, 255, 255);stroke-width:none"/>
	<polygon points="1626,932 1606,1099 1709,931 " style="fill:rgb(112, 255, 255);stroke-width:none"/>
	<polygon points="1442,861 1626,932 1683,714 " style="fill:rgb(98, 255, 232);stroke-width:none"/>
	<polygon points="1433,841 1442,861 1683,714 " style="fill:rgb(102, 255, 224);stroke-width:none"/>
	<polygon points="1626,932 1442,861 1512,996 " style="fill:rgb(112, 255, 255);stroke-width:none"/>
	<polygon points="1512,996 1442,861 1248,954 " style="fill:rgb(121, 255, 255);stroke-width:none"/>
	<polygon points="1442,861 1433,841 1248,954 " style="fill:rgb(117, 255, 255);stroke-width:none"/>
	<polygon points="1148,755 1170,967 1248,954 " style="fill:rgb(128, 255, 255);stroke-width:none"/>
	<polygon points="1178,709 1148,755 1248,954 " style="fill:rgb(123, 255, 236);stroke-width:none"/>
	<polygon points="0,800 103,797 0,675 " style="fill:rgb(128, 234, 162);stroke-width:none"/>
	<polygon points="0,1005 128,1039 0,999 " style="fill:rgb(141, 166, 129);stroke-width:none"/>
	<polygon points="128,1039 0,1005 53,1086 " style="fill:rgb(142, 156, 124);stroke-width:none"/>
	<polygon points="614,1168 393,1080 416,1297 " style="fill:rgb(155, 255, 255);stroke-width:none"/>
	<polygon points="393,1080 614,1168 524,1048 " style="fill:rgb(152, 255, 255);stroke-width:none"/>
	<polygon points="201,965 303,911 151,766 " style="fill:rgb(139, 233, 182);stroke-width:none"/>
	<polygon points="404,711 303,911 536,933 " style="fill:rgb(141, 255, 210);stroke-width:none"/>
	<polygon points="63,1297 162,1297 94,1264 " style="fill:rgb(153, 106, 101);stroke-width:none"/>
	<polygon points="0,1230 101,1254 53,1086 " style="fill:rgb(150, 98, 89);stroke-width:none"/>
	<polygon points="94,1264 101,1254 0,1230 " style="fill:rgb(152, 72, 72);stroke-width:none"/>
	<polygon points="53,1086 101,1254 201,1201 " style="fill:rgb(150, 139, 123);stroke-width:none"/>
	<polygon points="162,1297 101,1254 94,1264 " style="fill:rgb(153, 117, 110);stroke-width:none"/>
	<polygon points="686,1297 614,1168 416,1297 " style="fill:rgb(158, 255, 255);stroke-width:none"/>
	<polygon points="969,1146 1007,1165 973,1083 " style="fill:rgb(154, 255, 255);stroke-width:none"/>
	<polygon points="969,1146 899,1278 1007,1165 " style="fill:rgb(160, 255, 255);stroke-width:none"/>
	<polygon points="899,1278 664,1198 698,1297 " style="fill:rgb(161, 255, 255);stroke-width:none"/>
	<polygon points="664,1198 686,1297 698,1297 " style="fill:rgb(160, 255, 255);stroke-width:none"/>
	<polygon points="686,1297 664,1198 614,1168 " style="fill:rgb(158, 255, 255);stroke-width:none"/>
	<polygon points="969,1146 664,1198 899,1278 " style="fill:rgb(160, 255, 255);stroke-width:none"/>
	<polygon points="614,1168 664,1198 835,933 " style="fill:rgb(153, 255, 255);stroke-width:none"/>
	<polygon points="835,933 664,1198 973,1083 " style="fill:rgb(151, 255, 255);stroke-width:none"/>
	<polygon points="664,1198 969,1146 973,1083 " style="fill:rgb(155, 255, 255);stroke-width:none"/>
	<polygon points="899,1278 908,1297 989,1297 " style="fill:rgb(165, 255, 255);stroke-width:none"/>
	<polygon points="908,1297 899,1278 698,1297 " style="fill:rgb(163, 255, 255);stroke-width:none"/>
	<polygon points="1108,188 852,289 1107,353 " style="fill:rgb(129, 148, 91);stroke-width:none"/>
	<polygon points="852,289 1108,188 970,115 " style="fill:rgb(129, 143, 87);stroke-width:none"/>
	<polygon points="835,933 824,788 756,737 " style="fill:rgb(138, 255, 235);stroke-width:none"/>
	<polygon points="924,807 824,788 835,933 " style="fill:rgb(138, 255, 247);stroke-width:none"/>
	<polygon points="824,788 931,691 756,737 " style="fill:rgb(134, 255, 205);stroke-width:none"/>
	<polygon points="824,788 924,807 931,691 " style="fill:rgb(133, 255, 215);stroke-width:none"/>
	<polygon points="904,0 997,61 1103,0 " style="fill:rgb(137, 121, 84);stroke-width:none"/>
	<polygon points="997,61 904,0 970,115 " style="fill:rgb(132, 135, 86);stroke-width:none"/>
	<polygon points="1108,188 997,61 970,115 " style="fill:rgb(137, 120, 82);stroke-width:none"/>
	<polygon points="1103,0 1164,76 1363,37 " style="fill:rgb(164, 44, 71);stroke-width:none"/>
	<polygon points="1164,76 1282,103 1363,37 " style="fill:rgb(173, 19, 67);stroke-width:none"/>
	<polygon points="570,161 683,0 611,6 " style="fill:rgb(104, 213, 98);stroke-width:none"/>
	<polygon points="611,6 683,0 264,0 " style="fill:rgb(98, 227, 100);stroke-width:none"/>
	<polygon points="435,48 412,133 570,161 " style="fill:rgb(99, 229, 103);stroke-width:none"/>
	<polygon points="503,330 412,133 346,250 " style="fill:rgb(106, 229, 117);stroke-width:none"/>
	<polygon points="570,161 412,133 503,330 " style="fill:rgb(106, 221, 110);stroke-width:none"/>
	<polygon points="412,133 435,48 373,33 " style="fill:rgb(94, 238, 101);stroke-width:none"/>
	<polygon points="412,133 243,42 346,250 " style="fill:rgb(98, 240, 110);stroke-width:none"/>
	<polygon points="243,42 412,133 373,33 " style="fill:rgb(93, 242, 102);stroke-width:none"/>
	<polygon points="0,90 41,0 0,0 " style="fill:rgb(93, 239, 100);stroke-width:none"/>
	<polygon points="41,0 0,90 99,58 " style="fill:rgb(93, 239, 100);stroke-width:none"/>
	<polygon points="107,0 41,0 99,58 " style="fill:rgb(93, 240, 100);stroke-width:none"/>
	<polygon points="99,58 0,97 0,117 " style="fill:rgb(94, 242, 104);stroke-width:none"/>
	<polygon points="2370,1072 2455,1119 2512,1075 " style="fill:rgb(99, 222, 96);stroke-width:none"/>
	<polygon points="2455,1119 2454,1137 2512,1075 " style="fill:rgb(111, 188, 90);stroke-width:none"/>
	<polygon points="2455,1119 2370,1072 2403,1128 " style="fill:rgb(108, 194, 91);stroke-width:none"/>
	<polygon points="2454,1137 2455,1119 2403,1128 " style="fill:rgb(121, 159, 86);stroke-width:none"/>
	<polygon points="1501,573 1390,633 1615,622 " style="fill:rgb(104, 255, 152);stroke-width:none"/>
	<polygon points="1501,573 1487,451 1390,633 " style="fill:rgb(110, 242, 135);stroke-width:none"/>
	<polygon points="1627,402 1666,408 1579,176 " style="fill:rgb(146, 92, 76);stroke-width:none"/>
	<polygon points="1287,362 1474,262 1344,153 " style="fill:rgb(149, 83, 74);stroke-width:none"/>
	<polygon points="1487,451 1474,262 1287,362 " style="fill:rgb(134, 133, 88);stroke-width:none"/>
	<polygon points="1474,262 1579,176 1344,153 " style="fill:rgb(170, 20, 62);stroke-width:none"/>
	<polygon points="1474,262 1627,402 1579,176 " style="fill:rgb(156, 61, 69);stroke-width:none"/>
	<polygon points="1627,402 1474,262 1487,451 " style="fill:rgb(133, 133, 88);stroke-width:none"/>
	<polygon points="1701,525 1827,569 1666,408 " style="fill:rgb(105, 231, 115);stroke-width:none"/>
	<polygon points="1061,943 1133,1049 1170,967 " style="fill:rgb(139, 255, 255);stroke-width:none"/>
	<polygon points="1133,1049 1061,943 988,992 " style="fill:rgb(141, 255, 255);stroke-width:none"/>
	<polygon points="1061,943 924,807 988,992 " style="fill:rgb(138, 255, 255);stroke-width:none"/>
	<polygon points="924,807 1080,854 931,691 " style="fill:rgb(131, 255, 226);stroke-width:none"/>
	<polygon points="1080,854 1148,755 931,691 " style="fill:rgb(128, 255, 219);stroke-width:none"/>
	<polygon points="1061,943 1080,854 924,807 " style="fill:rgb(134, 255, 255);stroke-width:none"/>
	<polygon points="1148,755 1080,854 1170,967 " style="fill:rgb(129, 255, 255);stroke-width:none"/>
	<polygon points="1080,854 1061,943 1170,967 " style="fill:rgb(134, 255, 255);stroke-width:none"/>
	<polygon points="1168,439 1287,362 1107,353 " style="fill:rgb(128, 162, 100);stroke-width:none"/>
	<polygon points="1287,362 1168,439 1390,633 " style="fill:rgb(121, 198, 118);stroke-width:none"/>
	<polygon points="1168,439 1178,709 1390,633 " style="fill:rgb(117, 247, 152);stroke-width:none"/>
	<polygon points="347,323 503,330 346,250 " style="fill:rgb(110, 231, 125);stroke-width:none"/>
	<polygon points="122,254 347,323 346,250 " style="fill:rgb(106, 245, 129);stroke-width:none"/>
	<polygon points="239,455 347,323 122,254 " style="fill:rgb(110, 249, 140);stroke-width:none"/>
	<polygon points="326,414 347,323 239,455 " style="fill:rgb(115, 241, 143);stroke-width:none"/>
	<polygon points="92,872 128,1039 201,965 " style="fill:rgb(140, 205, 161);stroke-width:none"/>
	<polygon points="92,872 0,800 0,873 " style="fill:rgb(133, 214, 154);stroke-width:none"/>
	<polygon points="0,800 92,872 103,797 " style="fill:rgb(131, 221, 157);stroke-width:none"/>
	<polygon points="92,872 151,766 103,797 " style="fill:rgb(133, 227, 165);stroke-width:none"/>
	<polygon points="92,872 201,965 151,766 " style="fill:rgb(136, 223, 168);stroke-width:none"/>
	<polygon points="135,1051 53,1086 201,1201 " style="fill:rgb(147, 166, 141);stroke-width:none"/>
	<polygon points="135,1051 128,1039 53,1086 " style="fill:rgb(144, 168, 137);stroke-width:none"/>
	<polygon points="128,1039 135,1051 201,965 " style="fill:rgb(144, 199, 162);stroke-width:none"/>
	<polygon points="460,1038 393,1080 524,1048 " style="fill:rgb(150, 255, 255);stroke-width:none"/>
	<polygon points="151,766 314,738 288,717 " style="fill:rgb(133, 242, 179);stroke-width:none"/>
	<polygon points="303,911 314,738 151,766 " style="fill:rgb(136, 241, 184);stroke-width:none"/>
	<polygon points="314,738 303,911 404,711 " style="fill:rgb(137, 248, 191);stroke-width:none"/>
	<polygon points="299,1297 179,1282 187,1297 " style="fill:rgb(154, 200, 182);stroke-width:none"/>
	<polygon points="179,1282 299,1297 201,1201 " style="fill:rgb(154, 204, 186);stroke-width:none"/>
	<polygon points="101,1254 179,1282 201,1201 " style="fill:rgb(153, 152, 141);stroke-width:none"/>
	<polygon points="179,1282 101,1254 162,1297 " style="fill:rgb(153, 140, 131);stroke-width:none"/>
	<polygon points="0,1269 94,1264 0,1230 " style="fill:rgb(153, 72, 72);stroke-width:none"/>
	<polygon points="0,1269 63,1297 94,1264 " style="fill:rgb(153, 72, 72);stroke-width:none"/>
	<polygon points="750,210 970,115 771,11 " style="fill:rgb(119, 169, 91);stroke-width:none"/>
	<polygon points="750,210 852,289 970,115 " style="fill:rgb(122, 167, 93);stroke-width:none"/>
	<polygon points="687,0 750,210 771,11 " style="fill:rgb(112, 191, 95);stroke-width:none"/>
	<polygon points="750,210 570,161 503,330 " style="fill:rgb(112, 206, 107);stroke-width:none"/>
	<polygon points="683,0 750,210 687,0 " style="fill:rgb(109, 197, 96);stroke-width:none"/>
	<polygon points="750,210 683,0 570,161 " style="fill:rgb(109, 201, 98);stroke-width:none"/>
	<polygon points="852,289 669,510 827,568 " style="fill:rgb(124, 203, 129);stroke-width:none"/>
	<polygon points="669,510 750,210 503,330 " style="fill:rgb(118, 204, 118);stroke-width:none"/>
	<polygon points="750,210 669,510 852,289 " style="fill:rgb(120, 191, 111);stroke-width:none"/>
	<polygon points="437,474 669,510 503,330 " style="fill:rgb(121, 219, 136);stroke-width:none"/>
	<polygon points="669,510 437,474 559,624 " style="fill:rgb(127, 225, 152);stroke-width:none"/>
	<polygon points="669,510 559,624 756,737 " style="fill:rgb(131, 236, 169);stroke-width:none"/>
	<polygon points="827,568 669,510 756,737 " style="fill:rgb(130, 232, 164);stroke-width:none"/>
	<polygon points="947,484 852,289 827,568 " style="fill:rgb(124, 197, 123);stroke-width:none"/>
	<polygon points="947,484 827,568 931,691 " style="fill:rgb(127, 228, 155);stroke-width:none"/>
	<polygon points="1078,559 947,484 931,691 " style="fill:rgb(125, 229, 152);stroke-width:none"/>
	<polygon points="852,289 947,484 1107,353 " style="fill:rgb(125, 176, 107);stroke-width:none"/>
	<polygon points="1143,121 1108,188 1282,103 " style="fill:rgb(151, 78, 74);stroke-width:none"/>
	<polygon points="1164,76 1143,121 1282,103 " style="fill:rgb(158, 59, 72);stroke-width:none"/>
	<polygon points="1143,121 997,61 1108,188 " style="fill:rgb(142, 103, 79);stroke-width:none"/>
	<polygon points="997,61 1143,121 1103,0 " style="fill:rgb(147, 94, 79);stroke-width:none"/>
	<polygon points="1143,121 1164,76 1103,0 " style="fill:rgb(154, 73, 76);stroke-width:none"/>
	<polygon points="0,90 0,92 99,58 " style="fill:rgb(93, 240, 102);stroke-width:none"/>
	<polygon points="0,92 0,97 99,58 " style="fill:rgb(94, 240, 102);stroke-width:none"/>
	<polygon points="1627,402 1627,500 1666,408 " style="fill:rgb(120, 178, 100);stroke-width:none"/>
	<polygon points="1627,500 1701,525 1666,408 " style="fill:rgb(112, 209, 110);stroke-width:none"/>
	<polygon points="1501,573 1627,500 1487,451 " style="fill:rgb(111, 222, 120);stroke-width:none"/>
	<polygon points="1627,500 1627,402 1487,451 " style="fill:rgb(119, 187, 105);stroke-width:none"/>
	<polygon points="1627,500 1501,573 1615,622 " style="fill:rgb(103, 255, 136);stroke-width:none"/>
	<polygon points="1683,714 1697,569 1615,622 " style="fill:rgb(91, 255, 155);stroke-width:none"/>
	<polygon points="1697,569 1627,500 1615,622 " style="fill:rgb(99, 255, 134);stroke-width:none"/>
	<polygon points="1627,500 1697,569 1701,525 " style="fill:rgb(102, 247, 124);stroke-width:none"/>
	<polygon points="1701,525 1697,569 1827,569 " style="fill:rgb(95, 255, 129);stroke-width:none"/>
	<polygon points="1860,642 1697,569 1683,714 " style="fill:rgb(84, 255, 154);stroke-width:none"/>
	<polygon points="1827,569 1697,569 1860,642 " style="fill:rgb(86, 255, 139);stroke-width:none"/>
	<polygon points="1168,439 1085,601 1178,709 " style="fill:rgb(121, 236, 151);stroke-width:none"/>
	<polygon points="1085,601 1168,439 1078,559 " style="fill:rgb(122, 217, 137);stroke-width:none"/>
	<polygon points="1085,601 1148,755 1178,709 " style="fill:rgb(122, 255, 187);stroke-width:none"/>
	<polygon points="1148,755 1085,601 931,691 " style="fill:rgb(125, 255, 186);stroke-width:none"/>
	<polygon points="1085,601 1078,559 931,691 " style="fill:rgb(125, 243, 164);stroke-width:none"/>
	<polygon points="347,323 377,383 503,330 " style="fill:rgb(113, 229, 130);stroke-width:none"/>
	<polygon points="377,383 437,474 503,330 " style="fill:rgb(117, 226, 135);stroke-width:none"/>
	<polygon points="377,383 347,323 326,414 " style="fill:rgb(114, 236, 137);stroke-width:none"/>
	<polygon points="437,474 377,383 326,414 " style="fill:rgb(118, 233, 142);stroke-width:none"/>
	<polygon points="360,660 404,711 559,624 " style="fill:rgb(133, 242, 177);stroke-width:none"/>
	<polygon points="437,474 360,660 559,624 " style="fill:rgb(128, 234, 163);stroke-width:none"/>
	<polygon points="314,738 360,660 288,717 " style="fill:rgb(133, 244, 179);stroke-width:none"/>
	<polygon points="360,660 314,738 404,711 " style="fill:rgb(133, 244, 181);stroke-width:none"/>
	<polygon points="0,929 92,872 0,873 " style="fill:rgb(135, 203, 149);stroke-width:none"/>
	<polygon points="128,1039 0,929 0,999 " style="fill:rgb(140, 174, 134);stroke-width:none"/>
	<polygon points="92,872 0,929 128,1039 " style="fill:rgb(138, 189, 143);stroke-width:none"/>
	<polygon points="257,1156 135,1051 201,1201 " style="fill:rgb(149, 199, 173);stroke-width:none"/>
	<polygon points="299,1297 257,1156 201,1201 " style="fill:rgb(153, 225, 202);stroke-width:none"/>
	<polygon points="257,1156 299,1297 416,1297 " style="fill:rgb(155, 255, 247);stroke-width:none"/>
	<polygon points="393,1080 257,1156 416,1297 " style="fill:rgb(153, 255, 254);stroke-width:none"/>
	<polygon points="460,1038 449,988 393,1080 " style="fill:rgb(149, 255, 254);stroke-width:none"/>
	<polygon points="303,911 449,988 536,933 " style="fill:rgb(145, 255, 232);stroke-width:none"/>
	<polygon points="449,988 524,1048 536,933 " style="fill:rgb(148, 255, 255);stroke-width:none"/>
	<polygon points="449,988 460,1038 524,1048 " style="fill:rgb(149, 255, 255);stroke-width:none"/>
	<polygon points="179,1282 181,1297 187,1297 " style="fill:rgb(154, 169, 156);stroke-width:none"/>
	<polygon points="181,1297 179,1282 162,1297 " style="fill:rgb(153, 163, 150);stroke-width:none"/>
	<polygon points="63,1297 0,1279 0,1297 " style="fill:rgb(153, 72, 72);stroke-width:none"/>
	<polygon points="947,484 1107,414 1107,353 " style="fill:rgb(125, 180, 111);stroke-width:none"/>
	<polygon points="1107,414 947,484 1078,559 " style="fill:rgb(124, 201, 126);stroke-width:none"/>
	<polygon points="1107,414 1168,439 1107,353 " style="fill:rgb(126, 172, 106);stroke-width:none"/>
	<polygon points="1168,439 1107,414 1078,559 " style="fill:rgb(124, 195, 121);stroke-width:none"/>
	<polygon points="286,543 360,660 437,474 " style="fill:rgb(126, 238, 161);stroke-width:none"/>
	<polygon points="286,543 326,414 239,455 " style="fill:rgb(119, 243, 152);stroke-width:none"/>
	<polygon points="286,543 437,474 326,414 " style="fill:rgb(121, 237, 150);stroke-width:none"/>
	<polygon points="286,543 239,455 173,579 " style="fill:rgb(121, 248, 160);stroke-width:none"/>
	<polygon points="135,1051 320,1023 201,965 " style="fill:rgb(145, 223, 184);stroke-width:none"/>
	<polygon points="257,1156 320,1023 135,1051 " style="fill:rgb(148, 225, 192);stroke-width:none"/>
	<polygon points="320,1023 257,1156 393,1080 " style="fill:rgb(150, 255, 227);stroke-width:none"/>
	<polygon points="320,1023 303,911 201,965 " style="fill:rgb(144, 242, 199);stroke-width:none"/>
	<polygon points="449,988 320,1023 393,1080 " style="fill:rgb(148, 255, 239);stroke-width:none"/>
	<polygon points="320,1023 449,988 303,911 " style="fill:rgb(146, 255, 221);stroke-width:none"/>
	<polygon points="0,1269 0,1278 63,1297 " style="fill:rgb(153, 72, 72);stroke-width:none"/>
	<polygon points="0,1278 0,1279 63,1297 " style="fill:rgb(153, 72, 72);stroke-width:none"/>
	<polygon points="273,573 173,579 288,717 " style="fill:rgb(127, 245, 169);stroke-width:none"/>
	<polygon points="273,573 286,543 173,579 " style="fill:rgb(124, 246, 164);stroke-width:none"/>
	<polygon points="360,660 273,573 288,717 " style="fill:rgb(130, 243, 172);stroke-width:none"/>
	<polygon points="286,543 273,573 360,660 " style="fill:rgb(127, 242, 166);stroke-width:none"/>
</svg>