<?xml version="1.0" encoding="utf-8"?>
<svg version="1.1" id="Layer_1" xmlns="http://www.w3.org/2000/svg" xmlns:xlink="http://www.w3.org/1999/xlink" height="1297" width="2512">
	<polygon points="2512,1130 2512,482 2494,720 " style="fill:rgb(190, 207, 238);stroke-width:none"/>
	<polygon points="1600,877 1461,560 1421,809 " style="fill:rgb(184, 141, 64);stroke-width:none"/>
	<polygon points="1779,437 1821,583 2027,492 " style="fill:rgb(171, 217, 244);stroke-width:none"/>
	<polygon points="1821,583 1779,437 1657,492 " style="fill:rgb(177, 203, 215);stroke-width:none"/>
	<polygon points="1821,583 1600,877 1802,918 " style="fill:rgb(179, 145, 69);stroke-width:none"/>
	<polygon points="1788,1184 1658,1250 1781,1297 " style="fill:rgb(181, 110, 0);stroke-width:none"/>
	<polygon points="1712,1084 1658,1250 1788,1184 " style="fill:rgb(181, 109, 0);stroke-width:none"/>
	<polygon points="1658,1250 1712,1084 1583,1186 " style="fill:rgb(179, 108, 0);stroke-width:none"/>
	<polygon points="1988,1263 1896,1297 2208,1297 " style="fill:rgb(194, 120, 20);stroke-width:none"/>
	<polygon points="2365,1243 2221,1297 2512,1297 " style="fill:rgb(223, 139, 96);stroke-width:none"/>
	<polygon points="2512,482 2497,546 2494,720 " style="fill:rgb(158, 255, 255);stroke-width:none"/>
	<polygon points="2395,171 2245,0 2179,121 " style="fill:rgb(111, 255, 255);stroke-width:none"/>
	<polygon points="2105,515 2167,372 2027,492 " style="fill:rgb(158, 255, 255);stroke-width:none"/>
	<polygon points="2167,372 2105,515 2180,569 " style="fill:rgb(157, 255, 255);stroke-width:none"/>
	<polygon points="2341,725 2180,569 2132,769 " style="fill:rgb(174, 203, 212);stroke-width:none"/>
	<polygon points="2158,871 2341,725 2132,769 " style="fill:rgb(182, 177, 154);stroke-width:none"/>
	<polygon points="73,1209 0,891 0,1297 " style="fill:rgb(255, 145, 157);stroke-width:none"/>
	<polygon points="97,1203 73,1209 0,1297 " style="fill:rgb(255, 145, 158);stroke-width:none"/>
	<polygon points="0,891 73,1209 97,1203 " style="fill:rgb(255, 145, 157);stroke-width:none"/>
	<polygon points="680,1297 337,1250 0,1297 " style="fill:rgb(255, 145, 155);stroke-width:none"/>
	<polygon points="253,1231 97,1203 0,1297 " style="fill:rgb(255, 145, 158);stroke-width:none"/>
	<polygon points="337,1250 253,1231 0,1297 " style="fill:rgb(255, 145, 158);stroke-width:none"/>
	<polygon points="121,642 0,333 0,706 " style="fill:rgb(239, 167, 184);stroke-width:none"/>
	<polygon points="0,333 121,642 216,371 " style="fill:rgb(224, 178, 197);stroke-width:none"/>
	<polygon points="193,825 121,642 0,706 " style="fill:rgb(255, 155, 169);stroke-width:none"/>
	<polygon points="121,642 193,825 265,804 " style="fill:rgb(255, 153, 167);stroke-width:none"/>
	<polygon points="713,903 452,772 443,960 " style="fill:rgb(243, 137, 110);stroke-width:none"/>
	<polygon points="452,772 713,903 690,740 " style="fill:rgb(233, 137, 102);stroke-width:none"/>
	<polygon points="991,300 1076,240 986,154 " style="fill:rgb(208, 199, 233);stroke-width:none"/>
	<polygon points="1130,851 1207,611 1082,748 " style="fill:rgb(198, 135, 61);stroke-width:none"/>
	<polygon points="1130,851 1292,960 1421,809 " style="fill:rgb(188, 123, 22);stroke-width:none"/>
	<polygon points="1187,1131 1292,960 1169,979 " style="fill:rgb(188, 112, 0);stroke-width:none"/>
	<polygon points="2090,110 1818,54 1865,291 " style="fill:rgb(158, 255, 255);stroke-width:none"/>
	<polygon points="1844,314 1779,437 2027,492 " style="fill:rgb(169, 244, 255);stroke-width:none"/>
	<polygon points="1600,877 1588,527 1461,560 " style="fill:rgb(183, 158, 105);stroke-width:none"/>
	<polygon points="1544,305 1588,527 1657,492 " style="fill:rgb(184, 203, 220);stroke-width:none"/>
	<polygon points="1588,527 1821,583 1657,492 " style="fill:rgb(179, 190, 184);stroke-width:none"/>
	<polygon points="1821,583 1588,527 1600,877 " style="fill:rgb(180, 163, 116);stroke-width:none"/>
	<polygon points="1821,583 2052,649 2027,492 " style="fill:rgb(170, 208, 219);stroke-width:none"/>
	<polygon points="2052,649 2105,515 2027,492 " style="fill:rgb(166, 225, 255);stroke-width:none"/>
	<polygon points="2105,515 2052,649 2180,569 " style="fill:rgb(166, 224, 255);stroke-width:none"/>
	<polygon points="1310,1297 931,1238 857,1297 " style="fill:rgb(194, 110, 0);stroke-width:none"/>
	<polygon points="1988,1263 1812,1075 1788,1184 " style="fill:rgb(186, 113, 0);stroke-width:none"/>
	<polygon points="1987,1042 1812,1075 1988,1263 " style="fill:rgb(188, 117, 6);stroke-width:none"/>
	<polygon points="1712,1084 1628,1048 1583,1186 " style="fill:rgb(179, 110, 0);stroke-width:none"/>
	<polygon points="1896,1297 1862,1288 1781,1297 " style="fill:rgb(185, 113, 0);stroke-width:none"/>
	<polygon points="1862,1288 1788,1184 1781,1297 " style="fill:rgb(184, 112, 0);stroke-width:none"/>
	<polygon points="1862,1288 1988,1263 1788,1184 " style="fill:rgb(186, 114, 0);stroke-width:none"/>
	<polygon points="1862,1288 1896,1297 1988,1263 " style="fill:rgb(188, 115, 1);stroke-width:none"/>
	<polygon points="2107,1242 1988,1263 2208,1297 " style="fill:rgb(199, 123, 33);stroke-width:none"/>
	<polygon points="2169,1215 2107,1242 2208,1297 " style="fill:rgb(204, 126, 45);stroke-width:none"/>
	<polygon points="2107,1242 1987,1042 1988,1263 " style="fill:rgb(194, 120, 19);stroke-width:none"/>
	<polygon points="1987,1042 2107,1242 2071,1022 " style="fill:rgb(194, 124, 29);stroke-width:none"/>
	<polygon points="2221,1297 2212,1247 2208,1297 " style="fill:rgb(208, 129, 57);stroke-width:none"/>
	<polygon points="2212,1247 2169,1215 2208,1297 " style="fill:rgb(207, 128, 53);stroke-width:none"/>
	<polygon points="2365,1243 2212,1247 2221,1297 " style="fill:rgb(213, 132, 70);stroke-width:none"/>
	<polygon points="2512,1130 2439,1166 2512,1297 " style="fill:rgb(237, 148, 132);stroke-width:none"/>
	<polygon points="2439,1166 2365,1243 2512,1297 " style="fill:rgb(231, 144, 117);stroke-width:none"/>
	<polygon points="2350,544 2512,482 2374,408 " style="fill:rgb(142, 255, 255);stroke-width:none"/>
	<polygon points="2350,544 2497,546 2512,482 " style="fill:rgb(148, 255, 255);stroke-width:none"/>
	<polygon points="2341,725 2350,544 2180,569 " style="fill:rgb(165, 235, 255);stroke-width:none"/>
	<polygon points="2512,482 2472,217 2374,408 " style="fill:rgb(119, 255, 255);stroke-width:none"/>
	<polygon points="2472,217 2512,482 2512,0 " style="fill:rgb(84, 255, 255);stroke-width:none"/>
	<polygon points="2395,171 2391,0 2245,0 " style="fill:rgb(100, 255, 255);stroke-width:none"/>
	<polygon points="1978,305 1844,314 2027,492 " style="fill:rgb(163, 255, 255);stroke-width:none"/>
	<polygon points="1844,314 1978,305 1865,291 " style="fill:rgb(164, 255, 255);stroke-width:none"/>
	<polygon points="1978,305 2090,110 1865,291 " style="fill:rgb(154, 255, 255);stroke-width:none"/>
	<polygon points="2472,217 2412,225 2374,408 " style="fill:rgb(105, 255, 255);stroke-width:none"/>
	<polygon points="2412,225 2472,217 2395,171 " style="fill:rgb(88, 255, 255);stroke-width:none"/>
	<polygon points="2122,62 2090,110 2179,121 " style="fill:rgb(132, 255, 255);stroke-width:none"/>
	<polygon points="2122,62 2245,0 2117,0 " style="fill:rgb(128, 255, 255);stroke-width:none"/>
	<polygon points="2245,0 2122,62 2179,121 " style="fill:rgb(125, 255, 255);stroke-width:none"/>
	<polygon points="2090,110 2100,152 2179,121 " style="fill:rgb(133, 255, 255);stroke-width:none"/>
	<polygon points="1978,305 2100,152 2090,110 " style="fill:rgb(142, 255, 255);stroke-width:none"/>
	<polygon points="203,156 38,94 58,207 " style="fill:rgb(177, 212, 238);stroke-width:none"/>
	<polygon points="0,194 0,332 58,207 " style="fill:rgb(187, 205, 229);stroke-width:none"/>
	<polygon points="170,253 203,156 58,207 " style="fill:rgb(179, 211, 236);stroke-width:none"/>
	<polygon points="0,332 170,253 58,207 " style="fill:rgb(191, 202, 226);stroke-width:none"/>
	<polygon points="170,253 0,332 0,333 " style="fill:rgb(199, 196, 219);stroke-width:none"/>
	<polygon points="0,831 193,825 0,706 " style="fill:rgb(255, 151, 165);stroke-width:none"/>
	<polygon points="193,825 0,831 0,891 " style="fill:rgb(255, 148, 162);stroke-width:none"/>
	<polygon points="274,1004 193,825 0,891 " style="fill:rgb(255, 147, 160);stroke-width:none"/>
	<polygon points="808,717 940,709 832,391 " style="fill:rgb(214, 147, 108);stroke-width:none"/>
	<polygon points="713,903 808,717 690,740 " style="fill:rgb(223, 134, 85);stroke-width:none"/>
	<polygon points="1207,611 1171,534 1082,748 " style="fill:rgb(199, 146, 92);stroke-width:none"/>
	<polygon points="1171,534 940,709 1082,748 " style="fill:rgb(203, 141, 83);stroke-width:none"/>
	<polygon points="940,709 1032,846 1082,748 " style="fill:rgb(204, 131, 59);stroke-width:none"/>
	<polygon points="1032,846 1130,851 1082,748 " style="fill:rgb(199, 127, 44);stroke-width:none"/>
	<polygon points="309,0 204,0 240,46 " style="fill:rgb(177, 212, 238);stroke-width:none"/>
	<polygon points="121,642 484,597 216,371 " style="fill:rgb(236, 169, 187);stroke-width:none"/>
	<polygon points="484,597 452,772 690,740 " style="fill:rgb(237, 146, 128);stroke-width:none"/>
	<polygon points="484,597 121,642 265,804 " style="fill:rgb(253, 157, 173);stroke-width:none"/>
	<polygon points="452,772 484,597 265,804 " style="fill:rgb(250, 151, 153);stroke-width:none"/>
	<polygon points="836,306 651,199 832,391 " style="fill:rgb(209, 183, 193);stroke-width:none"/>
	<polygon points="810,96 836,306 986,154 " style="fill:rgb(206, 199, 233);stroke-width:none"/>
	<polygon points="836,306 810,96 651,199 " style="fill:rgb(203, 197, 224);stroke-width:none"/>
	<polygon points="997,0 1142,105 1248,0 " style="fill:rgb(207, 212, 255);stroke-width:none"/>
	<polygon points="1142,105 1262,47 1248,0 " style="fill:rgb(205, 219, 255);stroke-width:none"/>
	<polygon points="1076,240 1142,105 986,154 " style="fill:rgb(208, 207, 255);stroke-width:none"/>
	<polygon points="1262,47 1142,105 1286,236 " style="fill:rgb(205, 220, 255);stroke-width:none"/>
	<polygon points="1142,105 1076,240 1286,236 " style="fill:rgb(206, 214, 255);stroke-width:none"/>
	<polygon points="1461,392 1588,527 1544,305 " style="fill:rgb(188, 204, 227);stroke-width:none"/>
	<polygon points="1588,527 1461,392 1461,560 " style="fill:rgb(188, 184, 176);stroke-width:none"/>
	<polygon points="1461,392 1544,305 1286,236 " style="fill:rgb(195, 215, 255);stroke-width:none"/>
	<polygon points="1355,400 1461,392 1286,236 " style="fill:rgb(197, 203, 233);stroke-width:none"/>
	<polygon points="1461,560 1461,392 1360,483 " style="fill:rgb(191, 181, 172);stroke-width:none"/>
	<polygon points="1461,392 1355,400 1360,483 " style="fill:rgb(194, 188, 194);stroke-width:none"/>
	<polygon points="1818,54 2081,0 1248,0 " style="fill:rgb(178, 255, 255);stroke-width:none"/>
	<polygon points="2081,0 1818,54 2090,110 " style="fill:rgb(150, 255, 255);stroke-width:none"/>
	<polygon points="2081,0 2122,62 2117,0 " style="fill:rgb(136, 255, 255);stroke-width:none"/>
	<polygon points="2122,62 2081,0 2090,110 " style="fill:rgb(137, 255, 255);stroke-width:none"/>
	<polygon points="1262,47 1397,56 1248,0 " style="fill:rgb(203, 227, 255);stroke-width:none"/>
	<polygon points="1397,56 1818,54 1248,0 " style="fill:rgb(195, 250, 255);stroke-width:none"/>
	<polygon points="1397,56 1262,47 1286,236 " style="fill:rgb(203, 228, 255);stroke-width:none"/>
	<polygon points="1544,305 1397,56 1286,236 " style="fill:rgb(199, 239, 255);stroke-width:none"/>
	<polygon points="1356,630 1461,560 1360,483 " style="fill:rgb(191, 165, 131);stroke-width:none"/>
	<polygon points="1297,585 1356,630 1360,483 " style="fill:rgb(193, 161, 123);stroke-width:none"/>
	<polygon points="1356,630 1297,585 1207,611 " style="fill:rgb(194, 153, 103);stroke-width:none"/>
	<polygon points="1356,630 1130,851 1421,809 " style="fill:rgb(190, 134, 52);stroke-width:none"/>
	<polygon points="1130,851 1356,630 1207,611 " style="fill:rgb(194, 140, 72);stroke-width:none"/>
	<polygon points="1844,314 1717,254 1779,437 " style="fill:rgb(174, 254, 255);stroke-width:none"/>
	<polygon points="1818,54 1717,254 1865,291 " style="fill:rgb(171, 255, 255);stroke-width:none"/>
	<polygon points="1717,254 1844,314 1865,291 " style="fill:rgb(171, 255, 255);stroke-width:none"/>
	<polygon points="1717,254 1544,305 1657,492 " style="fill:rgb(183, 230, 255);stroke-width:none"/>
	<polygon points="1779,437 1717,254 1657,492 " style="fill:rgb(178, 228, 255);stroke-width:none"/>
	<polygon points="2024,866 1821,583 1802,918 " style="fill:rgb(178, 153, 89);stroke-width:none"/>
	<polygon points="2024,866 2052,649 1821,583 " style="fill:rgb(175, 177, 146);stroke-width:none"/>
	<polygon points="2024,866 2158,871 2132,769 " style="fill:rgb(183, 160, 110);stroke-width:none"/>
	<polygon points="2158,871 2024,866 2071,1022 " style="fill:rgb(187, 144, 75);stroke-width:none"/>
	<polygon points="2024,866 1987,1042 2071,1022 " style="fill:rgb(187, 134, 49);stroke-width:none"/>
	<polygon points="2180,569 2080,740 2132,769 " style="fill:rgb(174, 193, 187);stroke-width:none"/>
	<polygon points="2052,649 2080,740 2180,569 " style="fill:rgb(172, 201, 204);stroke-width:none"/>
	<polygon points="2080,740 2024,866 2132,769 " style="fill:rgb(180, 166, 124);stroke-width:none"/>
	<polygon points="2024,866 2080,740 2052,649 " style="fill:rgb(178, 173, 137);stroke-width:none"/>
	<polygon points="1596,1244 1310,1297 1781,1297 " style="fill:rgb(179, 106, 0);stroke-width:none"/>
	<polygon points="1658,1250 1596,1244 1781,1297 " style="fill:rgb(180, 108, 0);stroke-width:none"/>
	<polygon points="1596,1244 1658,1250 1583,1186 " style="fill:rgb(179, 107, 0);stroke-width:none"/>
	<polygon points="1310,1297 1086,1184 931,1238 " style="fill:rgb(189, 108, 0);stroke-width:none"/>
	<polygon points="931,1238 1086,1184 843,1066 " style="fill:rgb(199, 112, 6);stroke-width:none"/>
	<polygon points="1628,1048 1443,1136 1583,1186 " style="fill:rgb(179, 108, 0);stroke-width:none"/>
	<polygon points="1443,1136 1596,1244 1583,1186 " style="fill:rgb(179, 106, 0);stroke-width:none"/>
	<polygon points="1754,1093 1712,1084 1788,1184 " style="fill:rgb(181, 112, 0);stroke-width:none"/>
	<polygon points="1812,1075 1754,1093 1788,1184 " style="fill:rgb(182, 113, 0);stroke-width:none"/>
	<polygon points="1870,946 1812,1075 1987,1042 " style="fill:rgb(184, 123, 18);stroke-width:none"/>
	<polygon points="1870,946 2024,866 1802,918 " style="fill:rgb(181, 136, 48);stroke-width:none"/>
	<polygon points="2024,866 1870,946 1987,1042 " style="fill:rgb(184, 133, 45);stroke-width:none"/>
	<polygon points="2224,366 2167,372 2180,569 " style="fill:rgb(150, 255, 255);stroke-width:none"/>
	<polygon points="2350,544 2224,366 2180,569 " style="fill:rgb(153, 255, 255);stroke-width:none"/>
	<polygon points="2224,366 2350,544 2374,408 " style="fill:rgb(142, 255, 255);stroke-width:none"/>
	<polygon points="2412,225 2224,366 2374,408 " style="fill:rgb(124, 255, 255);stroke-width:none"/>
	<polygon points="2224,366 2395,171 2179,121 " style="fill:rgb(116, 255, 255);stroke-width:none"/>
	<polygon points="2224,366 2412,225 2395,171 " style="fill:rgb(110, 255, 255);stroke-width:none"/>
	<polygon points="2446,703 2350,544 2341,725 " style="fill:rgb(171, 231, 255);stroke-width:none"/>
	<polygon points="2497,546 2446,703 2494,720 " style="fill:rgb(171, 244, 255);stroke-width:none"/>
	<polygon points="2350,544 2446,703 2497,546 " style="fill:rgb(161, 255, 255);stroke-width:none"/>
	<polygon points="2504,0 2391,0 2395,171 " style="fill:rgb(86, 255, 255);stroke-width:none"/>
	<polygon points="2504,0 2472,217 2512,0 " style="fill:rgb(75, 255, 255);stroke-width:none"/>
	<polygon points="2472,217 2504,0 2395,171 " style="fill:rgb(81, 255, 255);stroke-width:none"/>
	<polygon points="2167,372 2085,325 2027,492 " style="fill:rgb(154, 255, 255);stroke-width:none"/>
	<polygon points="2085,325 1978,305 2027,492 " style="fill:rgb(157, 255, 255);stroke-width:none"/>
	<polygon points="0,194 18,142 0,0 " style="fill:rgb(177, 212, 238);stroke-width:none"/>
	<polygon points="18,142 0,194 58,207 " style="fill:rgb(177, 212, 238);stroke-width:none"/>
	<polygon points="38,94 18,142 58,207 " style="fill:rgb(177, 212, 238);stroke-width:none"/>
	<polygon points="151,0 38,94 203,156 " style="fill:rgb(177, 212, 238);stroke-width:none"/>
	<polygon points="151,0 203,156 240,46 " style="fill:rgb(177, 212, 238);stroke-width:none"/>
	<polygon points="204,0 151,0 240,46 " style="fill:rgb(177, 212, 238);stroke-width:none"/>
	<polygon points="211,314 0,333 216,371 " style="fill:rgb(205, 192, 213);stroke-width:none"/>
	<polygon points="211,314 170,253 0,333 " style="fill:rgb(198, 197, 220);stroke-width:none"/>
	<polygon points="203,156 301,110 240,46 " style="fill:rgb(177, 212, 238);stroke-width:none"/>
	<polygon points="301,110 309,0 240,46 " style="fill:rgb(177, 212, 238);stroke-width:none"/>
	<polygon points="309,0 301,110 373,0 " style="fill:rgb(177, 212, 238);stroke-width:none"/>
	<polygon points="301,110 393,162 373,0 " style="fill:rgb(179, 210, 235);stroke-width:none"/>
	<polygon points="807,1255 680,1297 857,1297 " style="fill:rgb(213, 119, 36);stroke-width:none"/>
	<polygon points="931,1238 807,1255 857,1297 " style="fill:rgb(206, 115, 20);stroke-width:none"/>
	<polygon points="713,903 771,1088 843,1066 " style="fill:rgb(218, 122, 48);stroke-width:none"/>
	<polygon points="238,1132 0,891 97,1203 " style="fill:rgb(255, 145, 157);stroke-width:none"/>
	<polygon points="238,1132 274,1004 0,891 " style="fill:rgb(255, 145, 157);stroke-width:none"/>
	<polygon points="253,1231 238,1132 97,1203 " style="fill:rgb(255, 145, 158);stroke-width:none"/>
	<polygon points="238,1132 253,1231 337,1250 " style="fill:rgb(255, 145, 158);stroke-width:none"/>
	<polygon points="368,956 337,1250 443,960 " style="fill:rgb(255, 141, 141);stroke-width:none"/>
	<polygon points="368,956 238,1132 337,1250 " style="fill:rgb(255, 145, 157);stroke-width:none"/>
	<polygon points="238,1132 368,956 274,1004 " style="fill:rgb(255, 145, 157);stroke-width:none"/>
	<polygon points="452,772 368,956 443,960 " style="fill:rgb(255, 142, 136);stroke-width:none"/>
	<polygon points="193,825 282,903 265,804 " style="fill:rgb(255, 149, 162);stroke-width:none"/>
	<polygon points="274,1004 282,903 193,825 " style="fill:rgb(255, 146, 159);stroke-width:none"/>
	<polygon points="368,956 282,903 274,1004 " style="fill:rgb(255, 145, 158);stroke-width:none"/>
	<polygon points="282,903 452,772 265,804 " style="fill:rgb(255, 149, 162);stroke-width:none"/>
	<polygon points="282,903 368,956 452,772 " style="fill:rgb(255, 145, 151);stroke-width:none"/>
	<polygon points="1089,302 1355,400 1286,236 " style="fill:rgb(202, 198, 228);stroke-width:none"/>
	<polygon points="1089,302 1171,534 1355,400 " style="fill:rgb(202, 179, 177);stroke-width:none"/>
	<polygon points="1076,240 1089,302 1286,236 " style="fill:rgb(206, 202, 239);stroke-width:none"/>
	<polygon points="1089,302 1076,240 991,300 " style="fill:rgb(207, 192, 216);stroke-width:none"/>
	<polygon points="1171,534 1089,302 991,300 " style="fill:rgb(206, 178, 180);stroke-width:none"/>
	<polygon points="1297,585 1250,554 1207,611 " style="fill:rgb(196, 155, 111);stroke-width:none"/>
	<polygon points="1250,554 1171,534 1207,611 " style="fill:rgb(198, 156, 115);stroke-width:none"/>
	<polygon points="1250,554 1297,585 1360,483 " style="fill:rgb(195, 163, 131);stroke-width:none"/>
	<polygon points="1355,400 1250,554 1360,483 " style="fill:rgb(196, 174, 159);stroke-width:none"/>
	<polygon points="1171,534 1250,554 1355,400 " style="fill:rgb(198, 168, 146);stroke-width:none"/>
	<polygon points="808,717 885,862 940,709 " style="fill:rgb(213, 133, 72);stroke-width:none"/>
	<polygon points="885,862 1032,846 940,709 " style="fill:rgb(207, 129, 56);stroke-width:none"/>
	<polygon points="885,862 808,717 713,903 " style="fill:rgb(218, 130, 69);stroke-width:none"/>
	<polygon points="885,862 713,903 843,1066 " style="fill:rgb(216, 124, 51);stroke-width:none"/>
	<polygon points="1032,846 885,862 843,1066 " style="fill:rgb(207, 122, 38);stroke-width:none"/>
	<polygon points="1292,960 1148,951 1169,979 " style="fill:rgb(190, 116, 6);stroke-width:none"/>
	<polygon points="1148,951 1032,846 843,1066 " style="fill:rgb(201, 119, 23);stroke-width:none"/>
	<polygon points="484,597 457,301 216,371 " style="fill:rgb(219, 178, 192);stroke-width:none"/>
	<polygon points="905,362 836,306 832,391 " style="fill:rgb(210, 176, 178);stroke-width:none"/>
	<polygon points="905,362 1171,534 991,300 " style="fill:rgb(207, 173, 168);stroke-width:none"/>
	<polygon points="940,709 905,362 832,391 " style="fill:rgb(212, 159, 138);stroke-width:none"/>
	<polygon points="1171,534 905,362 940,709 " style="fill:rgb(207, 155, 122);stroke-width:none"/>
	<polygon points="969,295 991,300 986,154 " style="fill:rgb(208, 194, 222);stroke-width:none"/>
	<polygon points="836,306 969,295 986,154 " style="fill:rgb(208, 192, 216);stroke-width:none"/>
	<polygon points="969,295 905,362 991,300 " style="fill:rgb(209, 183, 193);stroke-width:none"/>
	<polygon points="905,362 969,295 836,306 " style="fill:rgb(209, 181, 190);stroke-width:none"/>
	<polygon points="1461,560 1374,635 1421,809 " style="fill:rgb(188, 150, 89);stroke-width:none"/>
	<polygon points="1374,635 1356,630 1421,809 " style="fill:rgb(188, 145, 78);stroke-width:none"/>
	<polygon points="1356,630 1374,635 1461,560 " style="fill:rgb(190, 157, 111);stroke-width:none"/>
	<polygon points="1397,56 1661,121 1818,54 " style="fill:rgb(186, 255, 255);stroke-width:none"/>
	<polygon points="1661,121 1717,254 1818,54 " style="fill:rgb(177, 255, 255);stroke-width:none"/>
	<polygon points="1661,121 1397,56 1544,305 " style="fill:rgb(192, 255, 255);stroke-width:none"/>
	<polygon points="1717,254 1661,121 1544,305 " style="fill:rgb(184, 255, 255);stroke-width:none"/>
	<polygon points="1110,1163 1310,1297 1187,1131 " style="fill:rgb(185, 107, 0);stroke-width:none"/>
	<polygon points="1110,1163 1086,1184 1310,1297 " style="fill:rgb(187, 107, 0);stroke-width:none"/>
	<polygon points="1110,1163 1187,1131 1169,979 " style="fill:rgb(189, 110, 0);stroke-width:none"/>
	<polygon points="1148,951 1110,1163 1169,979 " style="fill:rgb(191, 113, 0);stroke-width:none"/>
	<polygon points="1086,1184 1110,1163 843,1066 " style="fill:rgb(196, 111, 0);stroke-width:none"/>
	<polygon points="1110,1163 1148,951 843,1066 " style="fill:rgb(196, 113, 5);stroke-width:none"/>
	<polygon points="1596,1244 1333,1227 1310,1297 " style="fill:rgb(179, 105, 0);stroke-width:none"/>
	<polygon points="1443,1136 1333,1227 1596,1244 " style="fill:rgb(179, 106, 0);stroke-width:none"/>
	<polygon points="1519,936 1628,1048 1600,877 " style="fill:rgb(180, 120, 6);stroke-width:none"/>
	<polygon points="1519,936 1600,877 1421,809 " style="fill:rgb(181, 126, 24);stroke-width:none"/>
	<polygon points="1741,1019 1754,1093 1812,1075 " style="fill:rgb(181, 116, 0);stroke-width:none"/>
	<polygon points="1741,1019 1870,946 1802,918 " style="fill:rgb(181, 126, 22);stroke-width:none"/>
	<polygon points="1870,946 1741,1019 1812,1075 " style="fill:rgb(181, 121, 10);stroke-width:none"/>
	<polygon points="1754,1093 1741,1019 1712,1084 " style="fill:rgb(181, 115, 0);stroke-width:none"/>
	<polygon points="1741,1019 1628,1048 1712,1084 " style="fill:rgb(180, 115, 0);stroke-width:none"/>
	<polygon points="1600,877 1741,1019 1802,918 " style="fill:rgb(180, 125, 19);stroke-width:none"/>
	<polygon points="1628,1048 1741,1019 1600,877 " style="fill:rgb(179, 119, 4);stroke-width:none"/>
	<polygon points="2412,1056 2439,1166 2512,1130 " style="fill:rgb(229, 147, 123);stroke-width:none"/>
	<polygon points="2439,1166 2412,1056 2365,1243 " style="fill:rgb(227, 142, 107);stroke-width:none"/>
	<polygon points="2444,907 2512,1130 2494,720 " style="fill:rgb(210, 173, 171);stroke-width:none"/>
	<polygon points="2444,907 2412,1056 2512,1130 " style="fill:rgb(221, 154, 133);stroke-width:none"/>
	<polygon points="2412,1056 2444,907 2386,1009 " style="fill:rgb(213, 156, 130);stroke-width:none"/>
	<polygon points="2070,286 2100,152 1978,305 " style="fill:rgb(146, 255, 255);stroke-width:none"/>
	<polygon points="2085,325 2070,286 1978,305 " style="fill:rgb(151, 255, 255);stroke-width:none"/>
	<polygon points="2100,152 2070,286 2179,121 " style="fill:rgb(134, 255, 255);stroke-width:none"/>
	<polygon points="2070,286 2224,366 2179,121 " style="fill:rgb(135, 255, 255);stroke-width:none"/>
	<polygon points="2224,366 2070,286 2167,372 " style="fill:rgb(144, 255, 255);stroke-width:none"/>
	<polygon points="2070,286 2085,325 2167,372 " style="fill:rgb(147, 255, 255);stroke-width:none"/>
	<polygon points="37,75 151,0 0,0 " style="fill:rgb(177, 212, 238);stroke-width:none"/>
	<polygon points="151,0 37,75 38,94 " style="fill:rgb(177, 212, 238);stroke-width:none"/>
	<polygon points="18,142 37,75 0,0 " style="fill:rgb(177, 212, 238);stroke-width:none"/>
	<polygon points="37,75 18,142 38,94 " style="fill:rgb(177, 212, 238);stroke-width:none"/>
	<polygon points="363,247 301,110 203,156 " style="fill:rgb(177, 212, 238);stroke-width:none"/>
	<polygon points="301,110 363,247 393,162 " style="fill:rgb(179, 211, 235);stroke-width:none"/>
	<polygon points="170,253 363,247 203,156 " style="fill:rgb(182, 209, 234);stroke-width:none"/>
	<polygon points="211,314 363,247 170,253 " style="fill:rgb(192, 201, 224);stroke-width:none"/>
	<polygon points="363,247 457,301 393,162 " style="fill:rgb(190, 201, 223);stroke-width:none"/>
	<polygon points="363,247 211,314 216,371 " style="fill:rgb(200, 196, 218);stroke-width:none"/>
	<polygon points="457,301 363,247 216,371 " style="fill:rgb(200, 195, 216);stroke-width:none"/>
	<polygon points="407,0 523,50 692,0 " style="fill:rgb(193, 201, 223);stroke-width:none"/>
	<polygon points="393,162 407,0 373,0 " style="fill:rgb(182, 208, 232);stroke-width:none"/>
	<polygon points="523,50 407,0 393,162 " style="fill:rgb(186, 205, 228);stroke-width:none"/>
	<polygon points="810,96 623,148 651,199 " style="fill:rgb(201, 197, 223);stroke-width:none"/>
	<polygon points="797,1227 807,1255 931,1238 " style="fill:rgb(208, 116, 24);stroke-width:none"/>
	<polygon points="797,1227 931,1238 843,1066 " style="fill:rgb(207, 116, 22);stroke-width:none"/>
	<polygon points="770,1178 797,1227 843,1066 " style="fill:rgb(211, 118, 32);stroke-width:none"/>
	<polygon points="797,1227 770,1178 680,1297 " style="fill:rgb(217, 120, 43);stroke-width:none"/>
	<polygon points="807,1255 797,1227 680,1297 " style="fill:rgb(215, 120, 40);stroke-width:none"/>
	<polygon points="764,1145 770,1178 843,1066 " style="fill:rgb(213, 119, 36);stroke-width:none"/>
	<polygon points="771,1088 764,1145 843,1066 " style="fill:rgb(214, 119, 38);stroke-width:none"/>
	<polygon points="1032,846 1144,889 1130,851 " style="fill:rgb(197, 124, 32);stroke-width:none"/>
	<polygon points="1148,951 1144,889 1032,846 " style="fill:rgb(196, 121, 25);stroke-width:none"/>
	<polygon points="1144,889 1292,960 1130,851 " style="fill:rgb(192, 121, 19);stroke-width:none"/>
	<polygon points="1144,889 1148,951 1292,960 " style="fill:rgb(191, 118, 12);stroke-width:none"/>
	<polygon points="595,531 457,301 484,597 " style="fill:rgb(223, 166, 167);stroke-width:none"/>
	<polygon points="595,531 484,597 690,740 " style="fill:rgb(230, 150, 132);stroke-width:none"/>
	<polygon points="651,199 595,531 832,391 " style="fill:rgb(213, 173, 174);stroke-width:none"/>
	<polygon points="457,301 595,531 651,199 " style="fill:rgb(210, 180, 188);stroke-width:none"/>
	<polygon points="595,531 808,717 832,391 " style="fill:rgb(219, 154, 129);stroke-width:none"/>
	<polygon points="808,717 595,531 690,740 " style="fill:rgb(224, 144, 111);stroke-width:none"/>
	<polygon points="814,23 891,0 692,0 " style="fill:rgb(204, 197, 227);stroke-width:none"/>
	<polygon points="891,0 814,23 810,96 " style="fill:rgb(205, 198, 230);stroke-width:none"/>
	<polygon points="1142,105 988,20 986,154 " style="fill:rgb(208, 206, 251);stroke-width:none"/>
	<polygon points="988,20 1142,105 997,0 " style="fill:rgb(208, 206, 252);stroke-width:none"/>
	<polygon points="1311,1198 1333,1227 1443,1136 " style="fill:rgb(180, 105, 0);stroke-width:none"/>
	<polygon points="1187,1131 1311,1198 1292,960 " style="fill:rgb(184, 108, 0);stroke-width:none"/>
	<polygon points="1310,1297 1311,1198 1187,1131 " style="fill:rgb(183, 106, 0);stroke-width:none"/>
	<polygon points="1333,1227 1311,1198 1310,1297 " style="fill:rgb(181, 106, 0);stroke-width:none"/>
	<polygon points="1415,1002 1443,1136 1628,1048 " style="fill:rgb(180, 111, 0);stroke-width:none"/>
	<polygon points="1519,936 1415,1002 1628,1048 " style="fill:rgb(180, 115, 0);stroke-width:none"/>
	<polygon points="1311,1198 1415,1002 1292,960 " style="fill:rgb(183, 110, 0);stroke-width:none"/>
	<polygon points="1415,1002 1311,1198 1443,1136 " style="fill:rgb(180, 107, 0);stroke-width:none"/>
	<polygon points="1292,960 1415,1002 1421,809 " style="fill:rgb(184, 119, 9);stroke-width:none"/>
	<polygon points="1415,1002 1519,936 1421,809 " style="fill:rgb(182, 121, 11);stroke-width:none"/>
	<polygon points="2191,1129 2212,1247 2365,1243 " style="fill:rgb(212, 132, 67);stroke-width:none"/>
	<polygon points="2412,1056 2191,1129 2365,1243 " style="fill:rgb(217, 136, 85);stroke-width:none"/>
	<polygon points="2212,1247 2191,1129 2169,1215 " style="fill:rgb(206, 128, 52);stroke-width:none"/>
	<polygon points="2191,1129 2412,1056 2386,1009 " style="fill:rgb(212, 142, 94);stroke-width:none"/>
	<polygon points="2107,1242 2191,1129 2071,1022 " style="fill:rgb(200, 125, 39);stroke-width:none"/>
	<polygon points="2191,1129 2107,1242 2169,1215 " style="fill:rgb(203, 126, 44);stroke-width:none"/>
	<polygon points="2191,1129 2158,871 2071,1022 " style="fill:rgb(194, 136, 62);stroke-width:none"/>
	<polygon points="2191,1129 2386,1009 2158,871 " style="fill:rgb(201, 143, 85);stroke-width:none"/>
	<polygon points="2446,703 2366,825 2494,720 " style="fill:rgb(184, 209, 236);stroke-width:none"/>
	<polygon points="2366,825 2444,907 2494,720 " style="fill:rgb(194, 191, 199);stroke-width:none"/>
	<polygon points="2366,825 2446,703 2341,725 " style="fill:rgb(183, 203, 220);stroke-width:none"/>
	<polygon points="2366,825 2341,725 2158,871 " style="fill:rgb(186, 180, 164);stroke-width:none"/>
	<polygon points="2386,1009 2366,825 2158,871 " style="fill:rgb(196, 162, 128);stroke-width:none"/>
	<polygon points="2444,907 2366,825 2386,1009 " style="fill:rgb(203, 167, 148);stroke-width:none"/>
	<polygon points="523,50 689,10 692,0 " style="fill:rgb(198, 198, 222);stroke-width:none"/>
	<polygon points="623,148 689,10 523,50 " style="fill:rgb(197, 198, 222);stroke-width:none"/>
	<polygon points="689,10 623,148 810,96 " style="fill:rgb(201, 197, 223);stroke-width:none"/>
	<polygon points="689,10 814,23 692,0 " style="fill:rgb(202, 197, 224);stroke-width:none"/>
	<polygon points="814,23 689,10 810,96 " style="fill:rgb(203, 197, 225);stroke-width:none"/>
	<polygon points="569,158 523,50 393,162 " style="fill:rgb(190, 202, 225);stroke-width:none"/>
	<polygon points="569,158 623,148 523,50 " style="fill:rgb(194, 200, 223);stroke-width:none"/>
	<polygon points="457,301 569,158 393,162 " style="fill:rgb(190, 202, 224);stroke-width:none"/>
	<polygon points="569,158 457,301 651,199 " style="fill:rgb(196, 197, 217);stroke-width:none"/>
	<polygon points="623,148 569,158 651,199 " style="fill:rgb(197, 198, 222);stroke-width:none"/>
	<polygon points="770,1178 680,1118 680,1297 " style="fill:rgb(221, 122, 51);stroke-width:none"/>
	<polygon points="764,1145 680,1118 770,1178 " style="fill:rgb(218, 121, 46);stroke-width:none"/>
	<polygon points="337,1250 680,1118 443,960 " style="fill:rgb(248, 134, 110);stroke-width:none"/>
	<polygon points="680,1297 680,1118 337,1250 " style="fill:rgb(237, 130, 87);stroke-width:none"/>
	<polygon points="680,1118 713,903 443,960 " style="fill:rgb(235, 129, 84);stroke-width:none"/>
	<polygon points="680,1118 771,1088 713,903 " style="fill:rgb(223, 124, 57);stroke-width:none"/>
	<polygon points="903,0 988,20 997,0 " style="fill:rgb(207, 202, 241);stroke-width:none"/>
	<polygon points="988,20 903,0 986,154 " style="fill:rgb(207, 202, 241);stroke-width:none"/>
	<polygon points="903,0 810,96 986,154 " style="fill:rgb(207, 200, 235);stroke-width:none"/>
	<polygon points="903,0 891,0 810,96 " style="fill:rgb(206, 199, 232);stroke-width:none"/>
	<polygon points="760,1138 764,1145 771,1088 " style="fill:rgb(216, 120, 42);stroke-width:none"/>
	<polygon points="680,1118 760,1138 771,1088 " style="fill:rgb(219, 121, 48);stroke-width:none"/>
	<polygon points="760,1138 680,1118 764,1145 " style="fill:rgb(219, 121, 47);stroke-width:none"/>
</svg>