<?xml version="1.0" encoding="utf-8"?>
<svg version="1.1" id="Layer_1" xmlns="http://www.w3.org/2000/svg" xmlns:xlink="http://www.w3.org/1999/xlink" height="1297" width="2512">
	<polygon points="1406,89 1602,0 1011,0 " style="fill:rgb(140, 219, 235);stroke-width:none"/>
	<polygon points="1406,89 1011,0 1294,158 " style="fill:rgb(141, 213, 225);stroke-width:none"/>
	<polygon points="2512,919 2512,570 2465,669 " style="fill:rgb(172, 255, 255);stroke-width:none"/>
	<polygon points="1011,0 1099,168 1294,158 " style="fill:rgb(142, 203, 209);stroke-width:none"/>
	<polygon points="1204,788 1252,527 1083,731 " style="fill:rgb(160, 122, 66);stroke-width:none"/>
	<polygon points="235,603 132,588 71,809 " style="fill:rgb(159, 202, 185);stroke-width:none"/>
	<polygon points="234,875 235,603 71,809 " style="fill:rgb(159, 210, 195);stroke-width:none"/>
	<polygon points="235,603 234,875 487,702 " style="fill:rgb(159, 177, 148);stroke-width:none"/>
	<polygon points="858,1271 732,1297 878,1297 " style="fill:rgb(157, 133, 87);stroke-width:none"/>
	<polygon points="732,1297 858,1271 751,1222 " style="fill:rgb(156, 134, 89);stroke-width:none"/>
	<polygon points="1732,1206 1719,1297 1877,1294 " style="fill:rgb(209, 255, 255);stroke-width:none"/>
	<polygon points="1252,527 1161,475 1083,731 " style="fill:rgb(158, 128, 77);stroke-width:none"/>
	<polygon points="1922,756 1732,734 1755,882 " style="fill:rgb(171, 217, 189);stroke-width:none"/>
	<polygon points="402,463 235,603 487,702 " style="fill:rgb(158, 156, 119);stroke-width:none"/>
	<polygon points="994,308 1099,168 1035,183 " style="fill:rgb(148, 172, 156);stroke-width:none"/>
	<polygon points="739,332 805,275 600,110 " style="fill:rgb(151, 146, 113);stroke-width:none"/>
	<polygon points="880,275 805,275 739,332 " style="fill:rgb(152, 147, 114);stroke-width:none"/>
	<polygon points="706,0 805,275 793,0 " style="fill:rgb(146, 164, 147);stroke-width:none"/>
	<polygon points="805,275 706,0 600,110 " style="fill:rgb(148, 153, 128);stroke-width:none"/>
	<polygon points="53,786 132,588 0,632 " style="fill:rgb(159, 202, 185);stroke-width:none"/>
	<polygon points="132,588 53,786 71,809 " style="fill:rgb(159, 212, 199);stroke-width:none"/>
	<polygon points="53,786 65,811 71,809 " style="fill:rgb(159, 223, 214);stroke-width:none"/>
	<polygon points="132,588 0,533 0,632 " style="fill:rgb(158, 186, 162);stroke-width:none"/>
	<polygon points="0,935 0,1076 204,1017 " style="fill:rgb(160, 244, 244);stroke-width:none"/>
	<polygon points="65,811 0,935 71,809 " style="fill:rgb(160, 229, 223);stroke-width:none"/>
	<polygon points="53,786 0,935 65,811 " style="fill:rgb(160, 228, 222);stroke-width:none"/>
	<polygon points="0,935 234,875 71,809 " style="fill:rgb(160, 232, 227);stroke-width:none"/>
	<polygon points="234,875 0,935 204,1017 " style="fill:rgb(160, 239, 237);stroke-width:none"/>
	<polygon points="0,935 53,786 0,632 " style="fill:rgb(159, 221, 211);stroke-width:none"/>
	<polygon points="0,1076 182,1139 204,1017 " style="fill:rgb(160, 248, 249);stroke-width:none"/>
	<polygon points="732,1297 722,1233 575,1297 " style="fill:rgb(155, 140, 99);stroke-width:none"/>
	<polygon points="499,382 515,444 739,332 " style="fill:rgb(155, 136, 92);stroke-width:none"/>
	<polygon points="515,444 721,561 739,332 " style="fill:rgb(156, 135, 89);stroke-width:none"/>
	<polygon points="1020,479 880,275 739,332 " style="fill:rgb(153, 143, 105);stroke-width:none"/>
	<polygon points="994,308 1020,479 1049,460 " style="fill:rgb(154, 140, 101);stroke-width:none"/>
	<polygon points="1020,479 994,308 880,275 " style="fill:rgb(153, 147, 112);stroke-width:none"/>
	<polygon points="1161,475 1020,479 1083,731 " style="fill:rgb(157, 127, 76);stroke-width:none"/>
	<polygon points="1020,479 1161,475 1049,460 " style="fill:rgb(155, 135, 92);stroke-width:none"/>
	<polygon points="841,629 664,790 688,829 " style="fill:rgb(159, 125, 71);stroke-width:none"/>
	<polygon points="664,790 841,629 721,561 " style="fill:rgb(159, 126, 73);stroke-width:none"/>
	<polygon points="415,1184 182,1139 282,1297 " style="fill:rgb(157, 207, 194);stroke-width:none"/>
	<polygon points="182,1139 415,1184 204,1017 " style="fill:rgb(158, 213, 201);stroke-width:none"/>
	<polygon points="248,950 234,875 204,1017 " style="fill:rgb(159, 216, 204);stroke-width:none"/>
	<polygon points="415,1184 248,950 204,1017 " style="fill:rgb(159, 205, 189);stroke-width:none"/>
	<polygon points="248,950 415,1184 514,1014 " style="fill:rgb(158, 179, 153);stroke-width:none"/>
	<polygon points="1316,215 1406,89 1294,158 " style="fill:rgb(142, 206, 213);stroke-width:none"/>
	<polygon points="611,77 706,0 529,0 " style="fill:rgb(148, 141, 111);stroke-width:none"/>
	<polygon points="611,77 529,0 600,110 " style="fill:rgb(148, 136, 102);stroke-width:none"/>
	<polygon points="706,0 611,77 600,110 " style="fill:rgb(148, 145, 117);stroke-width:none"/>
	<polygon points="982,90 929,98 1035,183 " style="fill:rgb(145, 186, 181);stroke-width:none"/>
	<polygon points="982,90 1099,168 1011,0 " style="fill:rgb(143, 195, 196);stroke-width:none"/>
	<polygon points="1099,168 982,90 1035,183 " style="fill:rgb(145, 186, 181);stroke-width:none"/>
	<polygon points="982,90 995,0 929,98 " style="fill:rgb(144, 189, 186);stroke-width:none"/>
	<polygon points="929,98 901,217 1035,183 " style="fill:rgb(146, 175, 163);stroke-width:none"/>
	<polygon points="901,217 994,308 1035,183 " style="fill:rgb(149, 165, 144);stroke-width:none"/>
	<polygon points="994,308 901,217 880,275 " style="fill:rgb(150, 157, 130);stroke-width:none"/>
	<polygon points="901,217 805,275 880,275 " style="fill:rgb(150, 154, 127);stroke-width:none"/>
	<polygon points="805,275 901,217 793,0 " style="fill:rgb(148, 164, 145);stroke-width:none"/>
	<polygon points="366,159 496,273 600,110 " style="fill:rgb(152, 125, 81);stroke-width:none"/>
	<polygon points="496,273 739,332 600,110 " style="fill:rgb(152, 138, 100);stroke-width:none"/>
	<polygon points="496,273 499,382 739,332 " style="fill:rgb(154, 135, 93);stroke-width:none"/>
	<polygon points="165,0 242,94 252,0 " style="fill:rgb(153, 67, 0);stroke-width:none"/>
	<polygon points="242,94 165,0 137,150 " style="fill:rgb(154, 59, 0);stroke-width:none"/>
	<polygon points="242,94 339,0 252,0 " style="fill:rgb(152, 80, 14);stroke-width:none"/>
	<polygon points="339,0 242,94 366,159 " style="fill:rgb(152, 87, 27);stroke-width:none"/>
	<polygon points="242,94 137,150 211,300 " style="fill:rgb(154, 85, 20);stroke-width:none"/>
	<polygon points="366,159 242,94 211,300 " style="fill:rgb(154, 97, 38);stroke-width:none"/>
	<polygon points="1732,1206 1644,1245 1719,1297 " style="fill:rgb(202, 255, 255);stroke-width:none"/>
	<polygon points="2512,919 2494,1190 2512,1297 " style="fill:rgb(241, 255, 255);stroke-width:none"/>
	<polygon points="2340,737 2512,919 2465,669 " style="fill:rgb(179, 255, 255);stroke-width:none"/>
	<polygon points="2340,737 2237,899 2512,919 " style="fill:rgb(190, 255, 255);stroke-width:none"/>
	<polygon points="1291,854 1235,1025 1357,937 " style="fill:rgb(168, 138, 78);stroke-width:none"/>
	<polygon points="1235,1025 1291,854 1204,788 " style="fill:rgb(165, 128, 67);stroke-width:none"/>
	<polygon points="1218,1297 1253,1167 1131,1297 " style="fill:rgb(169, 166, 118);stroke-width:none"/>
	<polygon points="1253,1167 1218,1297 1469,1297 " style="fill:rgb(175, 190, 144);stroke-width:none"/>
	<polygon points="1414,1141 1253,1167 1469,1297 " style="fill:rgb(178, 196, 149);stroke-width:none"/>
	<polygon points="1327,1079 1235,1025 1213,1087 " style="fill:rgb(169, 146, 89);stroke-width:none"/>
	<polygon points="1253,1167 1327,1079 1213,1087 " style="fill:rgb(170, 154, 99);stroke-width:none"/>
	<polygon points="1414,1141 1327,1079 1253,1167 " style="fill:rgb(173, 170, 117);stroke-width:none"/>
	<polygon points="1669,761 1550,796 1755,882 " style="fill:rgb(170, 187, 147);stroke-width:none"/>
	<polygon points="1732,734 1669,761 1755,882 " style="fill:rgb(170, 197, 162);stroke-width:none"/>
	<polygon points="1602,0 1703,27 1848,0 " style="fill:rgb(137, 230, 255);stroke-width:none"/>
	<polygon points="1962,67 2133,418 2207,322 " style="fill:rgb(139, 212, 227);stroke-width:none"/>
	<polygon points="1962,67 1895,455 2133,418 " style="fill:rgb(141, 207, 215);stroke-width:none"/>
	<polygon points="1406,89 1564,198 1602,0 " style="fill:rgb(139, 227, 249);stroke-width:none"/>
	<polygon points="1564,198 1703,27 1602,0 " style="fill:rgb(138, 229, 253);stroke-width:none"/>
	<polygon points="1703,27 1564,198 1780,166 " style="fill:rgb(138, 223, 243);stroke-width:none"/>
	<polygon points="1564,198 1559,331 1772,312 " style="fill:rgb(144, 191, 188);stroke-width:none"/>
	<polygon points="1780,166 1564,198 1772,312 " style="fill:rgb(141, 203, 211);stroke-width:none"/>
	<polygon points="1316,215 1564,198 1406,89 " style="fill:rgb(142, 206, 214);stroke-width:none"/>
	<polygon points="0,291 0,361 211,300 " style="fill:rgb(156, 121, 69);stroke-width:none"/>
	<polygon points="0,361 0,533 132,588 " style="fill:rgb(158, 167, 134);stroke-width:none"/>
	<polygon points="66,1178 182,1139 0,1076 " style="fill:rgb(161, 250, 252);stroke-width:none"/>
	<polygon points="746,1224 732,1297 751,1222 " style="fill:rgb(155, 136, 92);stroke-width:none"/>
	<polygon points="746,1224 722,1233 732,1297 " style="fill:rgb(155, 136, 93);stroke-width:none"/>
	<polygon points="746,1224 683,1115 722,1233 " style="fill:rgb(156, 134, 89);stroke-width:none"/>
	<polygon points="683,1115 746,1224 751,1222 " style="fill:rgb(156, 133, 88);stroke-width:none"/>
	<polygon points="858,1271 938,1216 751,1222 " style="fill:rgb(157, 133, 85);stroke-width:none"/>
	<polygon points="938,1216 683,1115 751,1222 " style="fill:rgb(157, 130, 82);stroke-width:none"/>
	<polygon points="1235,1025 1015,1084 1213,1087 " style="fill:rgb(166, 134, 74);stroke-width:none"/>
	<polygon points="1015,1084 938,1216 1041,1185 " style="fill:rgb(162, 131, 76);stroke-width:none"/>
	<polygon points="683,1115 1015,1084 675,915 " style="fill:rgb(159, 123, 69);stroke-width:none"/>
	<polygon points="938,1216 1015,1084 683,1115 " style="fill:rgb(159, 126, 72);stroke-width:none"/>
	<polygon points="402,463 467,462 499,382 " style="fill:rgb(157, 139, 95);stroke-width:none"/>
	<polygon points="467,462 515,444 499,382 " style="fill:rgb(156, 137, 93);stroke-width:none"/>
	<polygon points="841,629 927,599 721,561 " style="fill:rgb(158, 124, 71);stroke-width:none"/>
	<polygon points="721,561 927,599 739,332 " style="fill:rgb(157, 130, 83);stroke-width:none"/>
	<polygon points="927,599 1020,479 739,332 " style="fill:rgb(156, 132, 87);stroke-width:none"/>
	<polygon points="534,1247 282,1297 575,1297 " style="fill:rgb(155, 168, 141);stroke-width:none"/>
	<polygon points="534,1247 415,1184 282,1297 " style="fill:rgb(155, 178, 155);stroke-width:none"/>
	<polygon points="722,1233 534,1247 575,1297 " style="fill:rgb(154, 146, 109);stroke-width:none"/>
	<polygon points="683,1115 534,1247 722,1233 " style="fill:rgb(155, 141, 100);stroke-width:none"/>
	<polygon points="415,1184 534,1247 514,1014 " style="fill:rgb(156, 162, 130);stroke-width:none"/>
	<polygon points="664,790 551,894 688,829 " style="fill:rgb(159, 134, 84);stroke-width:none"/>
	<polygon points="551,894 675,915 688,829 " style="fill:rgb(159, 134, 85);stroke-width:none"/>
	<polygon points="551,894 248,950 514,1014 " style="fill:rgb(158, 167, 134);stroke-width:none"/>
	<polygon points="994,308 1177,339 1099,168 " style="fill:rgb(149, 165, 144);stroke-width:none"/>
	<polygon points="1161,475 1177,339 1049,460 " style="fill:rgb(154, 143, 105);stroke-width:none"/>
	<polygon points="1177,339 994,308 1049,460 " style="fill:rgb(152, 148, 115);stroke-width:none"/>
	<polygon points="1527,445 1673,531 1559,331 " style="fill:rgb(151, 168, 145);stroke-width:none"/>
	<polygon points="995,0 794,0 929,98 " style="fill:rgb(145, 182, 174);stroke-width:none"/>
	<polygon points="901,217 794,0 793,0 " style="fill:rgb(145, 172, 159);stroke-width:none"/>
	<polygon points="794,0 901,217 929,98 " style="fill:rgb(145, 178, 168);stroke-width:none"/>
	<polygon points="1003,0 982,90 1011,0 " style="fill:rgb(144, 192, 191);stroke-width:none"/>
	<polygon points="982,90 1003,0 995,0 " style="fill:rgb(144, 191, 190);stroke-width:none"/>
	<polygon points="87,199 0,76 0,291 " style="fill:rgb(155, 81, 12);stroke-width:none"/>
	<polygon points="87,199 0,291 211,300 " style="fill:rgb(156, 105, 46);stroke-width:none"/>
	<polygon points="82,0 0,76 137,150 " style="fill:rgb(154, 51, 0);stroke-width:none"/>
	<polygon points="165,0 82,0 137,150 " style="fill:rgb(154, 51, 0);stroke-width:none"/>
	<polygon points="448,0 339,0 366,159 " style="fill:rgb(151, 101, 48);stroke-width:none"/>
	<polygon points="529,0 448,0 600,110 " style="fill:rgb(149, 127, 88);stroke-width:none"/>
	<polygon points="448,0 366,159 600,110 " style="fill:rgb(150, 117, 73);stroke-width:none"/>
	<polygon points="274,381 402,463 499,382 " style="fill:rgb(156, 138, 95);stroke-width:none"/>
	<polygon points="496,273 274,381 499,382 " style="fill:rgb(155, 132, 87);stroke-width:none"/>
	<polygon points="402,463 274,381 235,603 " style="fill:rgb(157, 151, 112);stroke-width:none"/>
	<polygon points="274,381 366,159 211,300 " style="fill:rgb(155, 118, 67);stroke-width:none"/>
	<polygon points="274,381 496,273 366,159 " style="fill:rgb(154, 123, 74);stroke-width:none"/>
	<polygon points="274,381 132,588 235,603 " style="fill:rgb(158, 166, 133);stroke-width:none"/>
	<polygon points="0,361 274,381 211,300 " style="fill:rgb(156, 129, 82);stroke-width:none"/>
	<polygon points="274,381 0,361 132,588 " style="fill:rgb(157, 155, 117);stroke-width:none"/>
	<polygon points="1644,1245 1499,1297 1719,1297 " style="fill:rgb(196, 255, 255);stroke-width:none"/>
	<polygon points="1499,1297 1414,1141 1469,1297 " style="fill:rgb(184, 230, 190);stroke-width:none"/>
	<polygon points="1596,1064 1820,1105 1755,882 " style="fill:rgb(186, 248, 215);stroke-width:none"/>
	<polygon points="1550,796 1596,1064 1755,882 " style="fill:rgb(175, 198, 156);stroke-width:none"/>
	<polygon points="1469,872 1596,1064 1550,796 " style="fill:rgb(173, 176, 127);stroke-width:none"/>
	<polygon points="1596,1064 1499,1297 1644,1245 " style="fill:rgb(190, 255, 221);stroke-width:none"/>
	<polygon points="1499,1297 1596,1064 1414,1141 " style="fill:rgb(183, 221, 178);stroke-width:none"/>
	<polygon points="2328,0 2119,8 2171,40 " style="fill:rgb(134, 213, 235);stroke-width:none"/>
	<polygon points="2221,168 2328,0 2171,40 " style="fill:rgb(134, 211, 232);stroke-width:none"/>
	<polygon points="2381,270 2512,356 2512,295 " style="fill:rgb(138, 224, 245);stroke-width:none"/>
	<polygon points="2381,270 2221,168 2207,322 " style="fill:rgb(136, 216, 237);stroke-width:none"/>
	<polygon points="2108,629 2340,737 2133,418 " style="fill:rgb(158, 255, 255);stroke-width:none"/>
	<polygon points="1889,692 1732,734 1922,756 " style="fill:rgb(167, 216, 194);stroke-width:none"/>
	<polygon points="1235,1025 1379,969 1357,937 " style="fill:rgb(169, 146, 87);stroke-width:none"/>
	<polygon points="1327,1079 1379,969 1235,1025 " style="fill:rgb(170, 150, 92);stroke-width:none"/>
	<polygon points="1379,969 1469,872 1357,937 " style="fill:rgb(170, 152, 96);stroke-width:none"/>
	<polygon points="1436,836 1469,872 1550,796 " style="fill:rgb(168, 156, 105);stroke-width:none"/>
	<polygon points="1488,719 1436,836 1550,796 " style="fill:rgb(166, 153, 103);stroke-width:none"/>
	<polygon points="1469,872 1436,836 1357,937 " style="fill:rgb(169, 150, 95);stroke-width:none"/>
	<polygon points="1436,836 1291,854 1357,937 " style="fill:rgb(167, 141, 84);stroke-width:none"/>
	<polygon points="1637,664 1488,719 1550,796 " style="fill:rgb(164, 160, 116);stroke-width:none"/>
	<polygon points="1637,664 1669,761 1732,734 " style="fill:rgb(165, 180, 144);stroke-width:none"/>
	<polygon points="1797,381 1895,455 1772,312 " style="fill:rgb(147, 191, 186);stroke-width:none"/>
	<polygon points="1559,331 1797,381 1772,312 " style="fill:rgb(146, 187, 180);stroke-width:none"/>
	<polygon points="1673,531 1797,381 1559,331 " style="fill:rgb(149, 177, 161);stroke-width:none"/>
	<polygon points="1703,27 1835,131 1848,0 " style="fill:rgb(136, 229, 255);stroke-width:none"/>
	<polygon points="1835,131 1703,27 1780,166 " style="fill:rgb(137, 229, 254);stroke-width:none"/>
	<polygon points="1835,131 1780,166 1772,312 " style="fill:rgb(140, 210, 222);stroke-width:none"/>
	<polygon points="1895,455 1835,131 1772,312 " style="fill:rgb(143, 198, 201);stroke-width:none"/>
	<polygon points="1962,67 1835,131 1895,455 " style="fill:rgb(139, 210, 223);stroke-width:none"/>
	<polygon points="601,989 683,1115 675,915 " style="fill:rgb(158, 134, 86);stroke-width:none"/>
	<polygon points="601,989 551,894 514,1014 " style="fill:rgb(158, 147, 104);stroke-width:none"/>
	<polygon points="551,894 601,989 675,915 " style="fill:rgb(159, 138, 91);stroke-width:none"/>
	<polygon points="938,1216 884,1297 1131,1297 " style="fill:rgb(161, 139, 90);stroke-width:none"/>
	<polygon points="884,1297 858,1271 878,1297 " style="fill:rgb(158, 134, 86);stroke-width:none"/>
	<polygon points="884,1297 938,1216 858,1271 " style="fill:rgb(158, 134, 86);stroke-width:none"/>
	<polygon points="1056,1192 938,1216 1131,1297 " style="fill:rgb(163, 143, 92);stroke-width:none"/>
	<polygon points="938,1216 1056,1192 1041,1185 " style="fill:rgb(162, 135, 83);stroke-width:none"/>
	<polygon points="1253,1167 1056,1192 1131,1297 " style="fill:rgb(167, 153, 102);stroke-width:none"/>
	<polygon points="1056,1192 1253,1167 1213,1087 " style="fill:rgb(167, 146, 91);stroke-width:none"/>
	<polygon points="1015,1084 1056,1192 1213,1087 " style="fill:rgb(165, 134, 77);stroke-width:none"/>
	<polygon points="1056,1192 1015,1084 1041,1185 " style="fill:rgb(163, 133, 77);stroke-width:none"/>
	<polygon points="1040,857 1235,1025 1204,788 " style="fill:rgb(164, 121, 59);stroke-width:none"/>
	<polygon points="1040,857 1015,1084 1235,1025 " style="fill:rgb(164, 122, 61);stroke-width:none"/>
	<polygon points="1040,857 1204,788 1083,731 " style="fill:rgb(162, 117, 56);stroke-width:none"/>
	<polygon points="675,915 1040,857 688,829 " style="fill:rgb(160, 120, 62);stroke-width:none"/>
	<polygon points="1015,1084 1040,857 675,915 " style="fill:rgb(161, 117, 57);stroke-width:none"/>
	<polygon points="467,462 475,478 515,444 " style="fill:rgb(157, 139, 95);stroke-width:none"/>
	<polygon points="721,561 475,478 487,702 " style="fill:rgb(158, 138, 92);stroke-width:none"/>
	<polygon points="515,444 475,478 721,561 " style="fill:rgb(157, 137, 91);stroke-width:none"/>
	<polygon points="475,478 402,463 487,702 " style="fill:rgb(158, 146, 103);stroke-width:none"/>
	<polygon points="475,478 467,462 402,463 " style="fill:rgb(157, 141, 98);stroke-width:none"/>
	<polygon points="534,1247 582,1028 514,1014 " style="fill:rgb(157, 151, 113);stroke-width:none"/>
	<polygon points="582,1028 534,1247 683,1115 " style="fill:rgb(156, 144, 103);stroke-width:none"/>
	<polygon points="582,1028 601,989 514,1014 " style="fill:rgb(158, 146, 104);stroke-width:none"/>
	<polygon points="601,989 582,1028 683,1115 " style="fill:rgb(158, 139, 94);stroke-width:none"/>
	<polygon points="540,761 551,894 664,790 " style="fill:rgb(159, 139, 93);stroke-width:none"/>
	<polygon points="540,761 721,561 487,702 " style="fill:rgb(159, 138, 91);stroke-width:none"/>
	<polygon points="540,761 664,790 721,561 " style="fill:rgb(159, 132, 82);stroke-width:none"/>
	<polygon points="248,950 515,789 234,875 " style="fill:rgb(159, 185, 160);stroke-width:none"/>
	<polygon points="551,894 515,789 248,950 " style="fill:rgb(159, 164, 129);stroke-width:none"/>
	<polygon points="540,761 515,789 551,894 " style="fill:rgb(159, 146, 103);stroke-width:none"/>
	<polygon points="234,875 515,789 487,702 " style="fill:rgb(159, 165, 130);stroke-width:none"/>
	<polygon points="515,789 540,761 487,702 " style="fill:rgb(159, 147, 104);stroke-width:none"/>
	<polygon points="1099,168 1295,207 1294,158 " style="fill:rgb(144, 193, 192);stroke-width:none"/>
	<polygon points="1295,207 1235,327 1316,215 " style="fill:rgb(146, 180, 169);stroke-width:none"/>
	<polygon points="1177,339 1235,327 1099,168 " style="fill:rgb(149, 168, 149);stroke-width:none"/>
	<polygon points="1235,327 1295,207 1099,168 " style="fill:rgb(147, 179, 168);stroke-width:none"/>
	<polygon points="1564,198 1365,358 1559,331 " style="fill:rgb(146, 181, 172);stroke-width:none"/>
	<polygon points="1365,358 1564,198 1316,215 " style="fill:rgb(145, 185, 178);stroke-width:none"/>
	<polygon points="137,150 106,189 211,300 " style="fill:rgb(155, 89, 25);stroke-width:none"/>
	<polygon points="106,189 87,199 211,300 " style="fill:rgb(155, 94, 31);stroke-width:none"/>
	<polygon points="0,76 106,189 137,150 " style="fill:rgb(154, 64, 0);stroke-width:none"/>
	<polygon points="87,199 106,189 0,76 " style="fill:rgb(155, 69, 0);stroke-width:none"/>
	<polygon points="0,42 82,0 0,0 " style="fill:rgb(154, 51, 0);stroke-width:none"/>
	<polygon points="82,0 0,42 0,76 " style="fill:rgb(154, 51, 0);stroke-width:none"/>
	<polygon points="1690,1154 1596,1064 1644,1245 " style="fill:rgb(191, 255, 229);stroke-width:none"/>
	<polygon points="1690,1154 1732,1206 1820,1105 " style="fill:rgb(198, 255, 255);stroke-width:none"/>
	<polygon points="1596,1064 1690,1154 1820,1105 " style="fill:rgb(192, 255, 237);stroke-width:none"/>
	<polygon points="1929,889 1922,756 1755,882 " style="fill:rgb(177, 247, 225);stroke-width:none"/>
	<polygon points="1929,889 1984,864 1922,756 " style="fill:rgb(178, 255, 255);stroke-width:none"/>
	<polygon points="1820,1105 1929,889 1755,882 " style="fill:rgb(186, 255, 244);stroke-width:none"/>
	<polygon points="1984,864 1929,889 2072,931 " style="fill:rgb(186, 255, 255);stroke-width:none"/>
	<polygon points="1906,1244 1931,1130 1820,1105 " style="fill:rgb(209, 255, 255);stroke-width:none"/>
	<polygon points="1906,1244 1732,1206 1877,1294 " style="fill:rgb(215, 255, 255);stroke-width:none"/>
	<polygon points="1732,1206 1906,1244 1820,1105 " style="fill:rgb(207, 255, 255);stroke-width:none"/>
	<polygon points="2072,931 2136,967 2237,899 " style="fill:rgb(196, 255, 255);stroke-width:none"/>
	<polygon points="1979,0 2119,8 2328,0 " style="fill:rgb(134, 217, 241);stroke-width:none"/>
	<polygon points="2128,73 2221,168 2171,40 " style="fill:rgb(134, 215, 238);stroke-width:none"/>
	<polygon points="2119,8 2128,73 2171,40 " style="fill:rgb(134, 217, 241);stroke-width:none"/>
	<polygon points="2128,73 1962,67 2207,322 " style="fill:rgb(135, 215, 237);stroke-width:none"/>
	<polygon points="2221,168 2128,73 2207,322 " style="fill:rgb(135, 213, 233);stroke-width:none"/>
	<polygon points="2381,270 2512,568 2512,356 " style="fill:rgb(142, 240, 255);stroke-width:none"/>
	<polygon points="2512,568 2381,270 2207,322 " style="fill:rgb(142, 237, 255);stroke-width:none"/>
	<polygon points="2133,418 2512,568 2207,322 " style="fill:rgb(145, 248, 255);stroke-width:none"/>
	<polygon points="2340,737 2512,568 2133,418 " style="fill:rgb(156, 255, 255);stroke-width:none"/>
	<polygon points="2512,570 2512,568 2465,669 " style="fill:rgb(159, 255, 255);stroke-width:none"/>
	<polygon points="2512,568 2340,737 2465,669 " style="fill:rgb(165, 255, 255);stroke-width:none"/>
	<polygon points="2512,236 2381,270 2512,295 " style="fill:rgb(136, 218, 239);stroke-width:none"/>
	<polygon points="1895,455 2007,598 2133,418 " style="fill:rgb(151, 216, 216);stroke-width:none"/>
	<polygon points="2007,598 2108,629 2133,418 " style="fill:rgb(154, 236, 241);stroke-width:none"/>
	<polygon points="1984,864 2058,737 1922,756 " style="fill:rgb(174, 255, 255);stroke-width:none"/>
	<polygon points="2058,737 1984,864 2072,931 " style="fill:rgb(181, 255, 255);stroke-width:none"/>
	<polygon points="2058,737 2072,931 2237,899 " style="fill:rgb(185, 255, 255);stroke-width:none"/>
	<polygon points="2340,737 2058,737 2237,899 " style="fill:rgb(180, 255, 255);stroke-width:none"/>
	<polygon points="2108,629 2058,737 2340,737 " style="fill:rgb(168, 255, 255);stroke-width:none"/>
	<polygon points="1732,628 1637,664 1732,734 " style="fill:rgb(163, 180, 147);stroke-width:none"/>
	<polygon points="1596,1064 1481,1021 1414,1141 " style="fill:rgb(179, 197, 149);stroke-width:none"/>
	<polygon points="1481,1021 1327,1079 1414,1141 " style="fill:rgb(175, 176, 124);stroke-width:none"/>
	<polygon points="1481,1021 1379,969 1327,1079 " style="fill:rgb(173, 164, 110);stroke-width:none"/>
	<polygon points="1481,1021 1596,1064 1469,872 " style="fill:rgb(175, 183, 134);stroke-width:none"/>
	<polygon points="1379,969 1481,1021 1469,872 " style="fill:rgb(172, 163, 109);stroke-width:none"/>
	<polygon points="1436,836 1269,785 1291,854 " style="fill:rgb(165, 134, 77);stroke-width:none"/>
	<polygon points="1269,785 1436,836 1488,719 " style="fill:rgb(165, 140, 86);stroke-width:none"/>
	<polygon points="1291,854 1269,785 1204,788 " style="fill:rgb(164, 126, 67);stroke-width:none"/>
	<polygon points="1327,566 1269,785 1418,581 " style="fill:rgb(160, 134, 84);stroke-width:none"/>
	<polygon points="1269,785 1488,719 1418,581 " style="fill:rgb(162, 138, 87);stroke-width:none"/>
	<polygon points="1269,785 1252,527 1204,788 " style="fill:rgb(161, 125, 69);stroke-width:none"/>
	<polygon points="1269,785 1327,566 1252,527 " style="fill:rgb(159, 131, 80);stroke-width:none"/>
	<polygon points="1669,761 1649,756 1550,796 " style="fill:rgb(167, 175, 133);stroke-width:none"/>
	<polygon points="1649,756 1637,664 1550,796 " style="fill:rgb(165, 170, 128);stroke-width:none"/>
	<polygon points="1637,664 1649,756 1669,761 " style="fill:rgb(165, 176, 137);stroke-width:none"/>
	<polygon points="1488,719 1578,563 1418,581 " style="fill:rgb(159, 149, 107);stroke-width:none"/>
	<polygon points="1578,563 1508,488 1418,581 " style="fill:rgb(156, 153, 116);stroke-width:none"/>
	<polygon points="1527,445 1578,563 1673,531 " style="fill:rgb(154, 163, 134);stroke-width:none"/>
	<polygon points="1508,488 1578,563 1527,445 " style="fill:rgb(154, 159, 128);stroke-width:none"/>
	<polygon points="1797,381 1738,528 1895,455 " style="fill:rgb(150, 188, 176);stroke-width:none"/>
	<polygon points="1738,528 1797,381 1673,531 " style="fill:rgb(152, 180, 161);stroke-width:none"/>
	<polygon points="1732,628 1738,528 1673,531 " style="fill:rgb(156, 177, 151);stroke-width:none"/>
	<polygon points="61,1198 0,1209 0,1297 " style="fill:rgb(161, 251, 254);stroke-width:none"/>
	<polygon points="0,1209 61,1198 66,1178 " style="fill:rgb(161, 251, 254);stroke-width:none"/>
	<polygon points="282,1297 61,1198 0,1297 " style="fill:rgb(161, 251, 254);stroke-width:none"/>
	<polygon points="182,1139 61,1198 282,1297 " style="fill:rgb(160, 242, 242);stroke-width:none"/>
	<polygon points="66,1178 61,1198 182,1139 " style="fill:rgb(161, 251, 253);stroke-width:none"/>
	<polygon points="0,1112 66,1178 0,1076 " style="fill:rgb(161, 250, 252);stroke-width:none"/>
	<polygon points="0,1112 0,1209 66,1178 " style="fill:rgb(161, 251, 253);stroke-width:none"/>
	<polygon points="1002,700 927,599 841,629 " style="fill:rgb(159, 120, 64);stroke-width:none"/>
	<polygon points="1002,700 841,629 688,829 " style="fill:rgb(160, 119, 62);stroke-width:none"/>
	<polygon points="1040,857 1002,700 688,829 " style="fill:rgb(160, 115, 56);stroke-width:none"/>
	<polygon points="1002,700 1040,857 1083,731 " style="fill:rgb(161, 116, 55);stroke-width:none"/>
	<polygon points="1020,479 1002,700 1083,731 " style="fill:rgb(159, 120, 65);stroke-width:none"/>
	<polygon points="927,599 1002,700 1020,479 " style="fill:rgb(158, 123, 69);stroke-width:none"/>
	<polygon points="1308,207 1316,215 1294,158 " style="fill:rgb(144, 194, 193);stroke-width:none"/>
	<polygon points="1426,424 1527,445 1559,331 " style="fill:rgb(150, 166, 144);stroke-width:none"/>
	<polygon points="1365,358 1426,424 1559,331 " style="fill:rgb(149, 166, 145);stroke-width:none"/>
	<polygon points="1426,424 1508,488 1527,445 " style="fill:rgb(152, 159, 130);stroke-width:none"/>
	<polygon points="1235,327 1248,344 1316,215 " style="fill:rgb(148, 170, 152);stroke-width:none"/>
	<polygon points="1248,344 1365,358 1316,215 " style="fill:rgb(148, 170, 153);stroke-width:none"/>
	<polygon points="1248,344 1161,475 1252,527 " style="fill:rgb(154, 143, 105);stroke-width:none"/>
	<polygon points="1248,344 1177,339 1161,475 " style="fill:rgb(152, 151, 119);stroke-width:none"/>
	<polygon points="1248,344 1235,327 1177,339 " style="fill:rgb(150, 160, 135);stroke-width:none"/>
	<polygon points="1698,1193 1644,1245 1732,1206 " style="fill:rgb(199, 255, 255);stroke-width:none"/>
	<polygon points="1690,1154 1698,1193 1732,1206 " style="fill:rgb(198, 255, 255);stroke-width:none"/>
	<polygon points="1698,1193 1690,1154 1644,1245 " style="fill:rgb(197, 255, 255);stroke-width:none"/>
	<polygon points="1931,1130 1966,1062 1820,1105 " style="fill:rgb(204, 255, 255);stroke-width:none"/>
	<polygon points="1966,1062 1929,889 1820,1105 " style="fill:rgb(195, 255, 255);stroke-width:none"/>
	<polygon points="1929,889 1966,1062 2072,931 " style="fill:rgb(193, 255, 255);stroke-width:none"/>
	<polygon points="1966,1062 2136,967 2072,931 " style="fill:rgb(199, 255, 255);stroke-width:none"/>
	<polygon points="2335,1297 1906,1244 1877,1294 " style="fill:rgb(236, 255, 255);stroke-width:none"/>
	<polygon points="1719,1297 2335,1297 1877,1294 " style="fill:rgb(229, 255, 255);stroke-width:none"/>
	<polygon points="1979,0 1852,0 1962,67 " style="fill:rgb(136, 227, 253);stroke-width:none"/>
	<polygon points="1835,131 1852,0 1848,0 " style="fill:rgb(136, 229, 255);stroke-width:none"/>
	<polygon points="1852,0 1835,131 1962,67 " style="fill:rgb(136, 228, 254);stroke-width:none"/>
	<polygon points="2375,0 2512,49 2512,0 " style="fill:rgb(133, 207, 227);stroke-width:none"/>
	<polygon points="2512,49 2375,0 2512,207 " style="fill:rgb(133, 207, 227);stroke-width:none"/>
	<polygon points="2375,0 2381,270 2512,207 " style="fill:rgb(134, 209, 229);stroke-width:none"/>
	<polygon points="1979,0 2039,42 2119,8 " style="fill:rgb(135, 222, 247);stroke-width:none"/>
	<polygon points="2039,42 2128,73 2119,8 " style="fill:rgb(135, 220, 244);stroke-width:none"/>
	<polygon points="2039,42 1979,0 1962,67 " style="fill:rgb(135, 225, 250);stroke-width:none"/>
	<polygon points="2128,73 2039,42 1962,67 " style="fill:rgb(135, 222, 248);stroke-width:none"/>
	<polygon points="2381,270 2512,209 2512,207 " style="fill:rgb(135, 214, 235);stroke-width:none"/>
	<polygon points="2512,236 2512,209 2381,270 " style="fill:rgb(135, 215, 236);stroke-width:none"/>
	<polygon points="2007,598 2004,650 2108,629 " style="fill:rgb(160, 242, 241);stroke-width:none"/>
	<polygon points="2004,650 2058,737 2108,629 " style="fill:rgb(164, 255, 255);stroke-width:none"/>
	<polygon points="2058,737 2004,650 1922,756 " style="fill:rgb(168, 251, 243);stroke-width:none"/>
	<polygon points="2004,650 1889,692 1922,756 " style="fill:rgb(166, 233, 220);stroke-width:none"/>
	<polygon points="2004,650 2007,598 1889,692 " style="fill:rgb(162, 230, 221);stroke-width:none"/>
	<polygon points="1637,664 1613,605 1488,719 " style="fill:rgb(161, 160, 120);stroke-width:none"/>
	<polygon points="1613,605 1578,563 1488,719 " style="fill:rgb(160, 157, 118);stroke-width:none"/>
	<polygon points="1578,563 1613,605 1673,531 " style="fill:rgb(157, 165, 133);stroke-width:none"/>
	<polygon points="1613,605 1732,628 1673,531 " style="fill:rgb(158, 171, 141);stroke-width:none"/>
	<polygon points="1732,628 1613,605 1637,664 " style="fill:rgb(160, 171, 137);stroke-width:none"/>
	<polygon points="1808,611 1738,528 1732,628 " style="fill:rgb(158, 184, 160);stroke-width:none"/>
	<polygon points="1889,692 1808,611 1732,734 " style="fill:rgb(163, 201, 176);stroke-width:none"/>
	<polygon points="1808,611 1732,628 1732,734 " style="fill:rgb(162, 189, 161);stroke-width:none"/>
	<polygon points="1738,528 1808,611 1895,455 " style="fill:rgb(154, 190, 173);stroke-width:none"/>
	<polygon points="1808,611 2007,598 1895,455 " style="fill:rgb(155, 205, 193);stroke-width:none"/>
	<polygon points="2007,598 1808,611 1889,692 " style="fill:rgb(161, 214, 199);stroke-width:none"/>
	<polygon points="1299,207 1295,207 1316,215 " style="fill:rgb(145, 190, 186);stroke-width:none"/>
	<polygon points="1308,207 1299,207 1316,215 " style="fill:rgb(145, 190, 187);stroke-width:none"/>
	<polygon points="1295,207 1299,207 1294,158 " style="fill:rgb(144, 194, 193);stroke-width:none"/>
	<polygon points="1299,207 1308,207 1294,158 " style="fill:rgb(144, 194, 194);stroke-width:none"/>
	<polygon points="1508,488 1373,475 1418,581 " style="fill:rgb(155, 149, 112);stroke-width:none"/>
	<polygon points="1426,424 1373,475 1508,488 " style="fill:rgb(153, 154, 122);stroke-width:none"/>
	<polygon points="1373,475 1327,566 1418,581 " style="fill:rgb(156, 142, 101);stroke-width:none"/>
	<polygon points="1327,566 1373,475 1252,527 " style="fill:rgb(156, 140, 98);stroke-width:none"/>
	<polygon points="1373,475 1426,424 1365,358 " style="fill:rgb(152, 156, 127);stroke-width:none"/>
	<polygon points="1373,475 1248,344 1252,527 " style="fill:rgb(153, 147, 111);stroke-width:none"/>
	<polygon points="1248,344 1373,475 1365,358 " style="fill:rgb(151, 156, 128);stroke-width:none"/>
	<polygon points="1906,1244 2328,1153 1931,1130 " style="fill:rgb(226, 255, 255);stroke-width:none"/>
	<polygon points="2335,1297 2328,1153 1906,1244 " style="fill:rgb(250, 255, 255);stroke-width:none"/>
	<polygon points="2328,1153 1966,1062 1931,1130 " style="fill:rgb(219, 255, 255);stroke-width:none"/>
	<polygon points="1966,1062 2328,1153 2136,967 " style="fill:rgb(216, 255, 255);stroke-width:none"/>
	<polygon points="2136,967 2328,1153 2237,899 " style="fill:rgb(213, 255, 255);stroke-width:none"/>
	<polygon points="2237,899 2328,1153 2512,919 " style="fill:rgb(213, 255, 255);stroke-width:none"/>
	<polygon points="2328,1153 2494,1190 2512,919 " style="fill:rgb(231, 255, 255);stroke-width:none"/>
	<polygon points="2494,1190 2435,1297 2512,1297 " style="fill:rgb(255, 255, 255);stroke-width:none"/>
	<polygon points="2328,1153 2435,1297 2494,1190 " style="fill:rgb(255, 255, 255);stroke-width:none"/>
	<polygon points="2435,1297 2328,1153 2335,1297 " style="fill:rgb(255, 255, 255);stroke-width:none"/>
	<polygon points="2221,168 2357,0 2328,0 " style="fill:rgb(133, 207, 227);stroke-width:none"/>
	<polygon points="2381,270 2357,0 2221,168 " style="fill:rgb(134, 209, 229);stroke-width:none"/>
	<polygon points="2375,0 2357,0 2381,270 " style="fill:rgb(133, 207, 227);stroke-width:none"/>
</svg>