<?xml version="1.0" encoding="utf-8"?>
<svg version="1.1" id="Layer_1" xmlns="http://www.w3.org/2000/svg" xmlns:xlink="http://www.w3.org/1999/xlink" height="1297" width="2512">
	<polygon points="2512,1297 1582,1284 0,1297 " style="fill:rgb(132, 152, 238);stroke-width:none"/>
	<polygon points="1582,1284 290,1275 0,1297 " style="fill:rgb(141, 151, 165);stroke-width:none"/>
	<polygon points="119,799 112,529 0,656 " style="fill:rgb(255, 253, 0);stroke-width:none"/>
	<polygon points="2185,17 1853,9 1960,71 " style="fill:rgb(255, 255, 255);stroke-width:none"/>
	<polygon points="2087,156 2185,17 1960,71 " style="fill:rgb(255, 255, 255);stroke-width:none"/>
	<polygon points="933,1179 290,1275 1582,1284 " style="fill:rgb(137, 152, 203);stroke-width:none"/>
	<polygon points="119,799 304,596 112,529 " style="fill:rgb(255, 241, 0);stroke-width:none"/>
	<polygon points="304,596 146,379 112,529 " style="fill:rgb(255, 173, 0);stroke-width:none"/>
	<polygon points="386,280 304,596 401,576 " style="fill:rgb(255, 165, 0);stroke-width:none"/>
	<polygon points="0,753 119,799 0,656 " style="fill:rgb(255, 255, 0);stroke-width:none"/>
	<polygon points="1208,96 1204,24 1142,36 " style="fill:rgb(0, 222, 255);stroke-width:none"/>
	<polygon points="2472,0 1582,0 1853,9 " style="fill:rgb(255, 255, 255);stroke-width:none"/>
	<polygon points="2185,17 2472,0 1853,9 " style="fill:rgb(252, 238, 255);stroke-width:none"/>
	<polygon points="1204,24 1343,33 1348,0 " style="fill:rgb(32, 246, 255);stroke-width:none"/>
	<polygon points="1343,33 1204,24 1208,96 " style="fill:rgb(0, 237, 255);stroke-width:none"/>
	<polygon points="2316,187 2185,17 2087,156 " style="fill:rgb(246, 231, 255);stroke-width:none"/>
	<polygon points="2316,187 2472,0 2185,17 " style="fill:rgb(215, 200, 177);stroke-width:none"/>
	<polygon points="2018,148 2087,156 1960,71 " style="fill:rgb(255, 255, 255);stroke-width:none"/>
	<polygon points="2042,384 2018,148 1835,365 " style="fill:rgb(231, 226, 255);stroke-width:none"/>
	<polygon points="1853,9 1876,53 1960,71 " style="fill:rgb(255, 255, 255);stroke-width:none"/>
	<polygon points="366,1244 933,1179 807,1113 " style="fill:rgb(140, 151, 175);stroke-width:none"/>
	<polygon points="933,1179 366,1244 290,1275 " style="fill:rgb(143, 150, 151);stroke-width:none"/>
	<polygon points="290,1275 0,1242 0,1297 " style="fill:rgb(148, 146, 80);stroke-width:none"/>
	<polygon points="2100,1259 2178,1163 1969,1186 " style="fill:rgb(125, 149, 249);stroke-width:none"/>
	<polygon points="1800,1224 2100,1259 1969,1186 " style="fill:rgb(127, 150, 251);stroke-width:none"/>
	<polygon points="2100,1259 1582,1284 2512,1297 " style="fill:rgb(126, 149, 249);stroke-width:none"/>
	<polygon points="2100,1259 1800,1224 1582,1284 " style="fill:rgb(128, 150, 251);stroke-width:none"/>
	<polygon points="1556,765 1294,896 1564,831 " style="fill:rgb(220, 150, 0);stroke-width:none"/>
	<polygon points="1294,896 1556,765 1169,543 " style="fill:rgb(255, 158, 0);stroke-width:none"/>
	<polygon points="1800,1224 1632,1155 1582,1284 " style="fill:rgb(129, 151, 250);stroke-width:none"/>
	<polygon points="1796,837 1696,861 1824,1000 " style="fill:rgb(161, 147, 11);stroke-width:none"/>
	<polygon points="1696,861 1556,765 1564,831 " style="fill:rgb(195, 149, 0);stroke-width:none"/>
	<polygon points="1798,1157 1800,1224 1969,1186 " style="fill:rgb(128, 150, 252);stroke-width:none"/>
	<polygon points="1798,1157 1632,1155 1800,1224 " style="fill:rgb(129, 151, 251);stroke-width:none"/>
	<polygon points="146,379 177,341 133,361 " style="fill:rgb(37, 56, 0);stroke-width:none"/>
	<polygon points="177,341 304,596 386,280 " style="fill:rgb(216, 114, 0);stroke-width:none"/>
	<polygon points="304,596 177,341 146,379 " style="fill:rgb(255, 130, 0);stroke-width:none"/>
	<polygon points="177,341 0,302 133,361 " style="fill:rgb(0, 24, 255);stroke-width:none"/>
	<polygon points="0,558 0,596 112,529 " style="fill:rgb(255, 210, 0);stroke-width:none"/>
	<polygon points="22,414 0,558 112,529 " style="fill:rgb(255, 172, 0);stroke-width:none"/>
	<polygon points="22,414 146,379 133,361 " style="fill:rgb(136, 76, 0);stroke-width:none"/>
	<polygon points="146,379 22,414 112,529 " style="fill:rgb(255, 127, 0);stroke-width:none"/>
	<polygon points="650,223 587,304 700,442 " style="fill:rgb(44, 124, 255);stroke-width:none"/>
	<polygon points="386,280 587,304 474,31 " style="fill:rgb(0, 18, 255);stroke-width:none"/>
	<polygon points="587,304 650,223 474,31 " style="fill:rgb(0, 39, 255);stroke-width:none"/>
	<polygon points="650,223 690,19 474,31 " style="fill:rgb(0, 7, 255);stroke-width:none"/>
	<polygon points="690,19 650,223 793,40 " style="fill:rgb(0, 57, 255);stroke-width:none"/>
	<polygon points="690,19 453,0 474,31 " style="fill:rgb(0, 0, 255);stroke-width:none"/>
	<polygon points="453,0 690,19 1348,0 " style="fill:rgb(0, 109, 255);stroke-width:none"/>
	<polygon points="690,19 1204,24 1348,0 " style="fill:rgb(0, 194, 255);stroke-width:none"/>
	<polygon points="690,19 793,40 1142,36 " style="fill:rgb(0, 126, 255);stroke-width:none"/>
	<polygon points="1204,24 690,19 1142,36 " style="fill:rgb(0, 174, 255);stroke-width:none"/>
	<polygon points="650,223 882,207 793,40 " style="fill:rgb(0, 102, 255);stroke-width:none"/>
	<polygon points="925,504 882,207 700,442 " style="fill:rgb(194, 164, 0);stroke-width:none"/>
	<polygon points="882,207 650,223 700,442 " style="fill:rgb(4, 132, 255);stroke-width:none"/>
	<polygon points="332,239 386,280 474,31 " style="fill:rgb(0, 0, 255);stroke-width:none"/>
	<polygon points="232,998 119,799 55,944 " style="fill:rgb(255, 255, 0);stroke-width:none"/>
	<polygon points="232,998 278,945 119,799 " style="fill:rgb(255, 247, 0);stroke-width:none"/>
	<polygon points="232,998 0,1145 290,1275 " style="fill:rgb(148, 147, 89);stroke-width:none"/>
	<polygon points="578,607 506,867 773,772 " style="fill:rgb(255, 206, 0);stroke-width:none"/>
	<polygon points="381,722 304,596 119,799 " style="fill:rgb(255, 245, 0);stroke-width:none"/>
	<polygon points="304,596 381,722 401,576 " style="fill:rgb(255, 219, 0);stroke-width:none"/>
	<polygon points="682,525 578,607 773,772 " style="fill:rgb(255, 194, 0);stroke-width:none"/>
	<polygon points="682,525 925,504 700,442 " style="fill:rgb(255, 174, 0);stroke-width:none"/>
	<polygon points="833,890 939,1149 1183,1001 " style="fill:rgb(255, 161, 0);stroke-width:none"/>
	<polygon points="933,1179 939,1149 807,1113 " style="fill:rgb(138, 152, 198);stroke-width:none"/>
	<polygon points="939,1149 833,890 807,1113 " style="fill:rgb(245, 162, 0);stroke-width:none"/>
	<polygon points="833,890 899,778 773,772 " style="fill:rgb(255, 184, 0);stroke-width:none"/>
	<polygon points="899,778 833,890 1183,1001 " style="fill:rgb(255, 169, 0);stroke-width:none"/>
	<polygon points="1294,896 899,778 1183,1001 " style="fill:rgb(255, 160, 0);stroke-width:none"/>
	<polygon points="1556,765 1286,312 1169,543 " style="fill:rgb(255, 176, 0);stroke-width:none"/>
	<polygon points="2316,187 2417,360 2512,245 " style="fill:rgb(197, 189, 184);stroke-width:none"/>
	<polygon points="2417,360 2432,535 2512,493 " style="fill:rgb(203, 198, 236);stroke-width:none"/>
	<polygon points="2259,245 2316,187 2087,156 " style="fill:rgb(232, 219, 255);stroke-width:none"/>
	<polygon points="2259,245 2417,360 2316,187 " style="fill:rgb(211, 201, 212);stroke-width:none"/>
	<polygon points="2030,574 1924,579 1972,729 " style="fill:rgb(181, 174, 142);stroke-width:none"/>
	<polygon points="2074,701 2030,574 1972,729 " style="fill:rgb(174, 172, 162);stroke-width:none"/>
	<polygon points="2004,827 2074,701 1972,729 " style="fill:rgb(163, 164, 151);stroke-width:none"/>
	<polygon points="2074,701 2186,578 2030,574 " style="fill:rgb(180, 180, 202);stroke-width:none"/>
	<polygon points="1723,72 1876,53 1853,9 " style="fill:rgb(250, 255, 255);stroke-width:none"/>
	<polygon points="0,1145 0,1181 290,1275 " style="fill:rgb(148, 146, 80);stroke-width:none"/>
	<polygon points="0,1181 0,1242 290,1275 " style="fill:rgb(148, 146, 80);stroke-width:none"/>
	<polygon points="2512,752 2487,847 2512,1297 " style="fill:rgb(164, 176, 255);stroke-width:none"/>
	<polygon points="2487,847 2459,1081 2512,1297 " style="fill:rgb(137, 155, 242);stroke-width:none"/>
	<polygon points="2459,1081 2487,847 2435,988 " style="fill:rgb(159, 172, 255);stroke-width:none"/>
	<polygon points="2178,1163 2285,1053 2199,981 " style="fill:rgb(131, 152, 243);stroke-width:none"/>
	<polygon points="2296,1074 2285,1053 2178,1163 " style="fill:rgb(128, 150, 244);stroke-width:none"/>
	<polygon points="2404,1187 2100,1259 2512,1297 " style="fill:rgb(123, 146, 238);stroke-width:none"/>
	<polygon points="2100,1259 2404,1187 2178,1163 " style="fill:rgb(124, 147, 244);stroke-width:none"/>
	<polygon points="2459,1081 2404,1187 2512,1297 " style="fill:rgb(123, 145, 231);stroke-width:none"/>
	<polygon points="1329,1040 1381,1148 1393,1082 " style="fill:rgb(153, 151, 95);stroke-width:none"/>
	<polygon points="939,1149 1130,1141 1183,1001 " style="fill:rgb(166, 153, 37);stroke-width:none"/>
	<polygon points="1130,1141 939,1149 933,1179 " style="fill:rgb(137, 152, 210);stroke-width:none"/>
	<polygon points="1696,861 1730,1066 1824,1000 " style="fill:rgb(152, 146, 55);stroke-width:none"/>
	<polygon points="1730,1066 1798,1157 1824,1000 " style="fill:rgb(136, 148, 179);stroke-width:none"/>
	<polygon points="1798,1157 1730,1066 1632,1155 " style="fill:rgb(129, 151, 249);stroke-width:none"/>
	<polygon points="1730,1066 1486,1029 1632,1155 " style="fill:rgb(141, 149, 154);stroke-width:none"/>
	<polygon points="1857,886 1796,837 1824,1000 " style="fill:rgb(155, 148, 55);stroke-width:none"/>
	<polygon points="1894,913 1890,953 2016,876 " style="fill:rgb(148, 151, 125);stroke-width:none"/>
	<polygon points="1890,953 1857,886 1824,1000 " style="fill:rgb(148, 148, 96);stroke-width:none"/>
	<polygon points="1857,886 1890,953 1894,913 " style="fill:rgb(150, 149, 95);stroke-width:none"/>
	<polygon points="2004,827 1995,835 2016,876 " style="fill:rgb(153, 156, 150);stroke-width:none"/>
	<polygon points="1995,835 1894,913 2016,876 " style="fill:rgb(151, 153, 134);stroke-width:none"/>
	<polygon points="1995,835 1857,886 1894,913 " style="fill:rgb(153, 151, 103);stroke-width:none"/>
	<polygon points="1995,835 2004,827 1972,729 " style="fill:rgb(159, 159, 136);stroke-width:none"/>
	<polygon points="112,529 0,623 0,656 " style="fill:rgb(255, 230, 0);stroke-width:none"/>
	<polygon points="0,596 0,623 112,529 " style="fill:rgb(255, 221, 0);stroke-width:none"/>
	<polygon points="22,414 0,374 0,558 " style="fill:rgb(255, 133, 0);stroke-width:none"/>
	<polygon points="793,40 866,49 1142,36 " style="fill:rgb(0, 147, 255);stroke-width:none"/>
	<polygon points="882,207 866,49 793,40 " style="fill:rgb(0, 115, 255);stroke-width:none"/>
	<polygon points="413,0 332,239 474,31 " style="fill:rgb(0, 0, 255);stroke-width:none"/>
	<polygon points="332,239 413,0 313,0 " style="fill:rgb(0, 0, 255);stroke-width:none"/>
	<polygon points="453,0 413,0 474,31 " style="fill:rgb(0, 0, 255);stroke-width:none"/>
	<polygon points="0,1061 232,998 55,944 " style="fill:rgb(255, 226, 0);stroke-width:none"/>
	<polygon points="0,933 0,1061 55,944 " style="fill:rgb(255, 235, 0);stroke-width:none"/>
	<polygon points="232,998 345,1213 278,945 " style="fill:rgb(255, 188, 0);stroke-width:none"/>
	<polygon points="366,1244 345,1213 290,1275 " style="fill:rgb(145, 148, 119);stroke-width:none"/>
	<polygon points="345,1213 232,998 290,1275 " style="fill:rgb(146, 148, 111);stroke-width:none"/>
	<polygon points="767,876 833,890 773,772 " style="fill:rgb(255, 186, 0);stroke-width:none"/>
	<polygon points="506,867 767,876 773,772 " style="fill:rgb(255, 197, 0);stroke-width:none"/>
	<polygon points="833,890 767,876 807,1113 " style="fill:rgb(255, 176, 0);stroke-width:none"/>
	<polygon points="498,654 506,867 578,607 " style="fill:rgb(255, 214, 0);stroke-width:none"/>
	<polygon points="381,722 498,654 401,576 " style="fill:rgb(255, 217, 0);stroke-width:none"/>
	<polygon points="0,850 49,841 0,753 " style="fill:rgb(255, 255, 0);stroke-width:none"/>
	<polygon points="119,799 85,815 55,944 " style="fill:rgb(255, 255, 0);stroke-width:none"/>
	<polygon points="85,815 49,841 55,944 " style="fill:rgb(255, 255, 0);stroke-width:none"/>
	<polygon points="0,753 85,815 119,799 " style="fill:rgb(255, 255, 0);stroke-width:none"/>
	<polygon points="49,841 85,815 0,753 " style="fill:rgb(255, 255, 0);stroke-width:none"/>
	<polygon points="682,525 550,539 578,607 " style="fill:rgb(255, 187, 0);stroke-width:none"/>
	<polygon points="587,304 550,539 700,442 " style="fill:rgb(255, 155, 0);stroke-width:none"/>
	<polygon points="550,539 682,525 700,442 " style="fill:rgb(255, 175, 0);stroke-width:none"/>
	<polygon points="899,778 959,614 773,772 " style="fill:rgb(255, 183, 0);stroke-width:none"/>
	<polygon points="682,525 959,614 925,504 " style="fill:rgb(255, 180, 0);stroke-width:none"/>
	<polygon points="959,614 682,525 773,772 " style="fill:rgb(255, 186, 0);stroke-width:none"/>
	<polygon points="1099,478 959,614 1169,543 " style="fill:rgb(255, 177, 0);stroke-width:none"/>
	<polygon points="959,614 1099,478 925,504 " style="fill:rgb(255, 178, 0);stroke-width:none"/>
	<polygon points="959,614 1294,896 1169,543 " style="fill:rgb(255, 168, 0);stroke-width:none"/>
	<polygon points="959,614 899,778 1294,896 " style="fill:rgb(255, 170, 0);stroke-width:none"/>
	<polygon points="2472,0 2512,88 2512,0 " style="fill:rgb(149, 147, 81);stroke-width:none"/>
	<polygon points="2316,187 2512,88 2472,0 " style="fill:rgb(176, 168, 110);stroke-width:none"/>
	<polygon points="2512,115 2512,88 2316,187 " style="fill:rgb(174, 167, 115);stroke-width:none"/>
	<polygon points="2512,187 2316,187 2512,245 " style="fill:rgb(185, 178, 150);stroke-width:none"/>
	<polygon points="2508,361 2512,493 2512,245 " style="fill:rgb(196, 190, 199);stroke-width:none"/>
	<polygon points="2417,360 2508,361 2512,245 " style="fill:rgb(192, 186, 187);stroke-width:none"/>
	<polygon points="2508,361 2417,360 2512,493 " style="fill:rgb(200, 194, 216);stroke-width:none"/>
	<polygon points="2432,535 2512,613 2512,493 " style="fill:rgb(206, 202, 250);stroke-width:none"/>
	<polygon points="2338,641 2512,613 2432,535 " style="fill:rgb(199, 199, 255);stroke-width:none"/>
	<polygon points="2130,297 2259,245 2087,156 " style="fill:rgb(234, 224, 255);stroke-width:none"/>
	<polygon points="2018,148 2130,297 2087,156 " style="fill:rgb(245, 237, 255);stroke-width:none"/>
	<polygon points="2042,384 2130,297 2018,148 " style="fill:rgb(233, 226, 255);stroke-width:none"/>
	<polygon points="2259,245 2334,424 2417,360 " style="fill:rgb(207, 200, 226);stroke-width:none"/>
	<polygon points="2334,424 2432,535 2417,360 " style="fill:rgb(202, 198, 238);stroke-width:none"/>
	<polygon points="2334,424 2338,641 2432,535 " style="fill:rgb(198, 197, 255);stroke-width:none"/>
	<polygon points="2186,578 2334,424 2234,407 " style="fill:rgb(200, 198, 247);stroke-width:none"/>
	<polygon points="2338,641 2334,424 2186,578 " style="fill:rgb(193, 194, 253);stroke-width:none"/>
	<polygon points="1993,435 1924,579 2030,574 " style="fill:rgb(194, 187, 178);stroke-width:none"/>
	<polygon points="1993,435 2042,384 1835,365 " style="fill:rgb(215, 208, 250);stroke-width:none"/>
	<polygon points="1924,579 1993,435 1835,365 " style="fill:rgb(206, 196, 195);stroke-width:none"/>
	<polygon points="2186,578 2100,459 2030,574 " style="fill:rgb(191, 189, 218);stroke-width:none"/>
	<polygon points="2100,459 2186,578 2234,407 " style="fill:rgb(199, 196, 240);stroke-width:none"/>
	<polygon points="2382,1104 2459,1081 2435,988 " style="fill:rgb(138, 157, 248);stroke-width:none"/>
	<polygon points="2382,1104 2285,1053 2296,1074 " style="fill:rgb(131, 152, 246);stroke-width:none"/>
	<polygon points="2382,1104 2404,1187 2459,1081 " style="fill:rgb(124, 146, 234);stroke-width:none"/>
	<polygon points="2487,847 2408,933 2435,988 " style="fill:rgb(166, 177, 255);stroke-width:none"/>
	<polygon points="2363,733 2338,641 2287,690 " style="fill:rgb(183, 188, 255);stroke-width:none"/>
	<polygon points="2304,1111 2296,1074 2178,1163 " style="fill:rgb(125, 148, 243);stroke-width:none"/>
	<polygon points="2404,1187 2304,1111 2178,1163 " style="fill:rgb(124, 147, 240);stroke-width:none"/>
	<polygon points="2304,1111 2382,1104 2296,1074 " style="fill:rgb(128, 150, 243);stroke-width:none"/>
	<polygon points="2382,1104 2304,1111 2404,1187 " style="fill:rgb(123, 146, 237);stroke-width:none"/>
	<polygon points="1585,907 1696,861 1564,831 " style="fill:rgb(186, 147, 0);stroke-width:none"/>
	<polygon points="1585,907 1730,1066 1696,861 " style="fill:rgb(165, 146, 0);stroke-width:none"/>
	<polygon points="1730,1066 1585,907 1486,1029 " style="fill:rgb(162, 146, 0);stroke-width:none"/>
	<polygon points="1514,1153 1381,1148 1582,1284 " style="fill:rgb(131, 152, 244);stroke-width:none"/>
	<polygon points="1381,1148 1514,1153 1393,1082 " style="fill:rgb(132, 152, 241);stroke-width:none"/>
	<polygon points="1514,1153 1486,1029 1393,1082 " style="fill:rgb(147, 150, 121);stroke-width:none"/>
	<polygon points="1331,939 1294,896 1183,1001 " style="fill:rgb(235, 152, 0);stroke-width:none"/>
	<polygon points="1329,1040 1331,939 1183,1001 " style="fill:rgb(211, 151, 0);stroke-width:none"/>
	<polygon points="1294,896 1331,939 1564,831 " style="fill:rgb(224, 150, 0);stroke-width:none"/>
	<polygon points="1329,1040 1241,1178 1381,1148 " style="fill:rgb(137, 152, 209);stroke-width:none"/>
	<polygon points="1381,1148 1241,1178 1582,1284 " style="fill:rgb(132, 152, 240);stroke-width:none"/>
	<polygon points="1241,1178 1329,1040 1183,1001 " style="fill:rgb(172, 152, 0);stroke-width:none"/>
	<polygon points="1130,1141 1241,1178 1183,1001 " style="fill:rgb(152, 152, 115);stroke-width:none"/>
	<polygon points="1241,1178 933,1179 1582,1284 " style="fill:rgb(134, 152, 231);stroke-width:none"/>
	<polygon points="1241,1178 1130,1141 933,1179 " style="fill:rgb(135, 152, 219);stroke-width:none"/>
	<polygon points="1890,953 1979,1068 2016,876 " style="fill:rgb(141, 150, 159);stroke-width:none"/>
	<polygon points="2016,876 1979,1068 2199,981 " style="fill:rgb(139, 153, 202);stroke-width:none"/>
	<polygon points="2178,1163 1979,1068 1969,1186 " style="fill:rgb(126, 149, 250);stroke-width:none"/>
	<polygon points="1979,1068 2178,1163 2199,981 " style="fill:rgb(130, 150, 235);stroke-width:none"/>
	<polygon points="0,374 19,371 0,302 " style="fill:rgb(0, 39, 113);stroke-width:none"/>
	<polygon points="0,302 19,371 133,361 " style="fill:rgb(0, 35, 185);stroke-width:none"/>
	<polygon points="19,371 22,414 133,361 " style="fill:rgb(124, 73, 0);stroke-width:none"/>
	<polygon points="19,371 0,374 22,414 " style="fill:rgb(140, 77, 0);stroke-width:none"/>
	<polygon points="866,49 934,226 1142,36 " style="fill:rgb(0, 163, 255);stroke-width:none"/>
	<polygon points="934,226 866,49 882,207 " style="fill:rgb(0, 142, 255);stroke-width:none"/>
	<polygon points="934,226 882,207 925,504 " style="fill:rgb(98, 165, 255);stroke-width:none"/>
	<polygon points="133,88 201,0 0,0 " style="fill:rgb(0, 0, 255);stroke-width:none"/>
	<polygon points="270,256 133,88 177,341 " style="fill:rgb(0, 0, 255);stroke-width:none"/>
	<polygon points="270,256 177,341 386,280 " style="fill:rgb(0, 21, 255);stroke-width:none"/>
	<polygon points="332,239 270,256 386,280 " style="fill:rgb(0, 6, 255);stroke-width:none"/>
	<polygon points="177,341 48,110 0,302 " style="fill:rgb(0, 0, 255);stroke-width:none"/>
	<polygon points="133,88 48,110 177,341 " style="fill:rgb(0, 0, 255);stroke-width:none"/>
	<polygon points="232,998 0,1114 0,1145 " style="fill:rgb(255, 177, 0);stroke-width:none"/>
	<polygon points="0,1061 0,1114 232,998 " style="fill:rgb(255, 195, 0);stroke-width:none"/>
	<polygon points="498,654 415,732 506,867 " style="fill:rgb(255, 223, 0);stroke-width:none"/>
	<polygon points="415,732 498,654 381,722 " style="fill:rgb(255, 224, 0);stroke-width:none"/>
	<polygon points="0,850 0,928 49,841 " style="fill:rgb(255, 255, 0);stroke-width:none"/>
	<polygon points="0,928 0,933 55,944 " style="fill:rgb(255, 252, 0);stroke-width:none"/>
	<polygon points="49,841 0,928 55,944 " style="fill:rgb(255, 255, 0);stroke-width:none"/>
	<polygon points="487,559 498,654 578,607 " style="fill:rgb(255, 201, 0);stroke-width:none"/>
	<polygon points="550,539 487,559 578,607 " style="fill:rgb(255, 192, 0);stroke-width:none"/>
	<polygon points="498,654 487,559 401,576 " style="fill:rgb(255, 203, 0);stroke-width:none"/>
	<polygon points="487,559 386,280 401,576 " style="fill:rgb(255, 161, 0);stroke-width:none"/>
	<polygon points="487,559 587,304 386,280 " style="fill:rgb(159, 124, 0);stroke-width:none"/>
	<polygon points="487,559 550,539 587,304 " style="fill:rgb(255, 164, 0);stroke-width:none"/>
	<polygon points="2512,170 2512,115 2316,187 " style="fill:rgb(178, 171, 128);stroke-width:none"/>
	<polygon points="2512,187 2512,170 2316,187 " style="fill:rgb(182, 174, 139);stroke-width:none"/>
	<polygon points="1313,173 1542,65 1343,33 " style="fill:rgb(95, 255, 255);stroke-width:none"/>
	<polygon points="1542,65 1313,173 1286,312 " style="fill:rgb(129, 241, 255);stroke-width:none"/>
	<polygon points="1313,173 1343,33 1208,96 " style="fill:rgb(25, 244, 255);stroke-width:none"/>
	<polygon points="1343,33 1487,0 1348,0 " style="fill:rgb(90, 255, 255);stroke-width:none"/>
	<polygon points="1542,65 1487,0 1343,33 " style="fill:rgb(126, 255, 255);stroke-width:none"/>
	<polygon points="1487,0 1542,65 1582,0 " style="fill:rgb(164, 255, 255);stroke-width:none"/>
	<polygon points="1542,65 1654,26 1582,0 " style="fill:rgb(187, 255, 255);stroke-width:none"/>
	<polygon points="1654,26 1542,65 1723,72 " style="fill:rgb(204, 255, 255);stroke-width:none"/>
	<polygon points="1582,0 1654,26 1853,9 " style="fill:rgb(222, 255, 255);stroke-width:none"/>
	<polygon points="1654,26 1723,72 1853,9 " style="fill:rgb(235, 255, 255);stroke-width:none"/>
	<polygon points="1734,343 1542,65 1286,312 " style="fill:rgb(193, 239, 255);stroke-width:none"/>
	<polygon points="1734,343 1286,312 1556,765 " style="fill:rgb(226, 188, 0);stroke-width:none"/>
	<polygon points="1542,65 1734,343 1723,72 " style="fill:rgb(216, 255, 255);stroke-width:none"/>
	<polygon points="1850,703 1734,343 1556,765 " style="fill:rgb(203, 170, 0);stroke-width:none"/>
	<polygon points="1734,343 1924,579 1835,365 " style="fill:rgb(213, 201, 199);stroke-width:none"/>
	<polygon points="1734,343 1850,703 1924,579 " style="fill:rgb(199, 182, 99);stroke-width:none"/>
	<polygon points="2338,641 2286,670 2287,690 " style="fill:rgb(182, 187, 255);stroke-width:none"/>
	<polygon points="2286,670 2338,641 2186,578 " style="fill:rgb(184, 188, 253);stroke-width:none"/>
	<polygon points="2286,670 2074,701 2287,690 " style="fill:rgb(175, 180, 240);stroke-width:none"/>
	<polygon points="2286,670 2186,578 2074,701 " style="fill:rgb(178, 181, 231);stroke-width:none"/>
	<polygon points="2130,297 2227,360 2259,245 " style="fill:rgb(221, 212, 255);stroke-width:none"/>
	<polygon points="2334,424 2227,360 2234,407 " style="fill:rgb(207, 202, 244);stroke-width:none"/>
	<polygon points="2227,360 2334,424 2259,245 " style="fill:rgb(212, 204, 239);stroke-width:none"/>
	<polygon points="1739,804 1696,861 1796,837 " style="fill:rgb(173, 150, 0);stroke-width:none"/>
	<polygon points="1850,703 1739,804 1796,837 " style="fill:rgb(174, 154, 0);stroke-width:none"/>
	<polygon points="1696,861 1739,804 1556,765 " style="fill:rgb(187, 150, 0);stroke-width:none"/>
	<polygon points="1739,804 1850,703 1556,765 " style="fill:rgb(186, 154, 0);stroke-width:none"/>
	<polygon points="1857,886 1900,737 1796,837 " style="fill:rgb(164, 153, 42);stroke-width:none"/>
	<polygon points="1900,737 1850,703 1796,837 " style="fill:rgb(171, 157, 33);stroke-width:none"/>
	<polygon points="1900,737 1995,835 1972,729 " style="fill:rgb(164, 160, 113);stroke-width:none"/>
	<polygon points="1995,835 1900,737 1857,886 " style="fill:rgb(159, 155, 91);stroke-width:none"/>
	<polygon points="1924,579 1900,737 1972,729 " style="fill:rgb(175, 166, 103);stroke-width:none"/>
	<polygon points="1850,703 1900,737 1924,579 " style="fill:rgb(179, 166, 77);stroke-width:none"/>
	<polygon points="2052,446 1993,435 2030,574 " style="fill:rgb(200, 194, 211);stroke-width:none"/>
	<polygon points="2100,459 2052,446 2030,574 " style="fill:rgb(198, 193, 217);stroke-width:none"/>
	<polygon points="1993,435 2052,446 2042,384 " style="fill:rgb(209, 203, 239);stroke-width:none"/>
	<polygon points="2052,446 2100,459 2042,384 " style="fill:rgb(207, 202, 239);stroke-width:none"/>
	<polygon points="2113,340 2130,297 2042,384 " style="fill:rgb(221, 214, 255);stroke-width:none"/>
	<polygon points="2100,459 2113,340 2042,384 " style="fill:rgb(212, 206, 253);stroke-width:none"/>
	<polygon points="2113,340 2227,360 2130,297 " style="fill:rgb(219, 212, 255);stroke-width:none"/>
	<polygon points="2113,340 2100,459 2234,407 " style="fill:rgb(210, 204, 250);stroke-width:none"/>
	<polygon points="2227,360 2113,340 2234,407 " style="fill:rgb(213, 207, 252);stroke-width:none"/>
	<polygon points="2408,933 2396,954 2435,988 " style="fill:rgb(157, 171, 255);stroke-width:none"/>
	<polygon points="2396,954 2382,1104 2435,988 " style="fill:rgb(146, 163, 255);stroke-width:none"/>
	<polygon points="2382,1104 2396,954 2285,1053 " style="fill:rgb(139, 158, 251);stroke-width:none"/>
	<polygon points="2266,808 2363,733 2287,690 " style="fill:rgb(174, 182, 255);stroke-width:none"/>
	<polygon points="2363,733 2266,808 2286,884 " style="fill:rgb(167, 177, 255);stroke-width:none"/>
	<polygon points="2074,701 2266,808 2287,690 " style="fill:rgb(169, 176, 238);stroke-width:none"/>
	<polygon points="2266,808 2004,827 2016,876 " style="fill:rgb(153, 161, 195);stroke-width:none"/>
	<polygon points="2266,808 2074,701 2004,827 " style="fill:rgb(160, 167, 201);stroke-width:none"/>
	<polygon points="2266,808 2016,876 2199,981 " style="fill:rgb(149, 162, 223);stroke-width:none"/>
	<polygon points="2286,884 2266,808 2199,981 " style="fill:rgb(153, 167, 248);stroke-width:none"/>
	<polygon points="2355,927 2363,733 2286,884 " style="fill:rgb(165, 177, 255);stroke-width:none"/>
	<polygon points="2355,927 2396,954 2408,933 " style="fill:rgb(157, 171, 255);stroke-width:none"/>
	<polygon points="2355,927 2408,933 2487,847 " style="fill:rgb(166, 178, 255);stroke-width:none"/>
	<polygon points="2363,733 2355,927 2487,847 " style="fill:rgb(174, 183, 255);stroke-width:none"/>
	<polygon points="2396,954 2355,927 2285,1053 " style="fill:rgb(148, 164, 255);stroke-width:none"/>
	<polygon points="2355,927 2286,884 2199,981 " style="fill:rgb(150, 165, 253);stroke-width:none"/>
	<polygon points="2285,1053 2355,927 2199,981 " style="fill:rgb(143, 160, 251);stroke-width:none"/>
	<polygon points="2363,733 2450,726 2338,641 " style="fill:rgb(187, 191, 255);stroke-width:none"/>
	<polygon points="2512,752 2450,726 2487,847 " style="fill:rgb(193, 196, 255);stroke-width:none"/>
	<polygon points="2450,726 2363,733 2487,847 " style="fill:rgb(186, 192, 255);stroke-width:none"/>
	<polygon points="2512,613 2450,726 2512,672 " style="fill:rgb(203, 202, 255);stroke-width:none"/>
	<polygon points="2338,641 2450,726 2512,613 " style="fill:rgb(196, 197, 255);stroke-width:none"/>
	<polygon points="1486,1029 1537,1137 1632,1155 " style="fill:rgb(137, 151, 196);stroke-width:none"/>
	<polygon points="1514,1153 1537,1137 1486,1029 " style="fill:rgb(138, 151, 187);stroke-width:none"/>
	<polygon points="1632,1155 1537,1137 1582,1284 " style="fill:rgb(130, 152, 247);stroke-width:none"/>
	<polygon points="1537,1137 1514,1153 1582,1284 " style="fill:rgb(131, 152, 246);stroke-width:none"/>
	<polygon points="1375,983 1331,939 1329,1040 " style="fill:rgb(202, 150, 0);stroke-width:none"/>
	<polygon points="1486,1029 1375,983 1393,1082 " style="fill:rgb(174, 149, 0);stroke-width:none"/>
	<polygon points="1375,983 1329,1040 1393,1082 " style="fill:rgb(179, 150, 0);stroke-width:none"/>
	<polygon points="1585,907 1375,983 1486,1029 " style="fill:rgb(185, 147, 0);stroke-width:none"/>
	<polygon points="1375,983 1585,907 1564,831 " style="fill:rgb(197, 147, 0);stroke-width:none"/>
	<polygon points="1331,939 1375,983 1564,831 " style="fill:rgb(211, 148, 0);stroke-width:none"/>
	<polygon points="1941,1080 1890,953 1824,1000 " style="fill:rgb(139, 148, 152);stroke-width:none"/>
	<polygon points="1941,1080 1979,1068 1890,953 " style="fill:rgb(135, 149, 184);stroke-width:none"/>
	<polygon points="1798,1157 1941,1080 1824,1000 " style="fill:rgb(133, 149, 200);stroke-width:none"/>
	<polygon points="1941,1080 1798,1157 1969,1186 " style="fill:rgb(127, 150, 251);stroke-width:none"/>
	<polygon points="1979,1068 1941,1080 1969,1186 " style="fill:rgb(128, 149, 240);stroke-width:none"/>
	<polygon points="1175,122 1208,96 1142,36 " style="fill:rgb(0, 219, 255);stroke-width:none"/>
	<polygon points="934,226 1175,122 1142,36 " style="fill:rgb(0, 194, 255);stroke-width:none"/>
	<polygon points="1175,122 934,226 1142,315 " style="fill:rgb(31, 190, 255);stroke-width:none"/>
	<polygon points="1175,122 1313,173 1208,96 " style="fill:rgb(10, 228, 255);stroke-width:none"/>
	<polygon points="1175,122 1142,315 1286,312 " style="fill:rgb(109, 206, 255);stroke-width:none"/>
	<polygon points="1313,173 1175,122 1286,312 " style="fill:rgb(90, 221, 255);stroke-width:none"/>
	<polygon points="934,226 1145,370 1142,315 " style="fill:rgb(126, 186, 255);stroke-width:none"/>
	<polygon points="1142,315 1145,370 1286,312 " style="fill:rgb(174, 196, 255);stroke-width:none"/>
	<polygon points="1099,478 1145,370 925,504 " style="fill:rgb(255, 180, 0);stroke-width:none"/>
	<polygon points="1145,370 934,226 925,504 " style="fill:rgb(183, 177, 156);stroke-width:none"/>
	<polygon points="1145,370 1099,478 1169,543 " style="fill:rgb(255, 182, 0);stroke-width:none"/>
	<polygon points="1286,312 1145,370 1169,543 " style="fill:rgb(225, 188, 0);stroke-width:none"/>
	<polygon points="293,0 201,0 133,88 " style="fill:rgb(0, 0, 255);stroke-width:none"/>
	<polygon points="270,256 293,0 133,88 " style="fill:rgb(0, 0, 255);stroke-width:none"/>
	<polygon points="293,0 270,256 332,239 " style="fill:rgb(0, 0, 255);stroke-width:none"/>
	<polygon points="48,110 0,59 0,302 " style="fill:rgb(0, 0, 255);stroke-width:none"/>
	<polygon points="524,1076 345,1213 366,1244 " style="fill:rgb(144, 149, 132);stroke-width:none"/>
	<polygon points="524,1076 366,1244 807,1113 " style="fill:rgb(142, 150, 156);stroke-width:none"/>
	<polygon points="526,1075 524,1076 807,1113 " style="fill:rgb(224, 162, 0);stroke-width:none"/>
	<polygon points="345,1213 524,1076 278,945 " style="fill:rgb(255, 172, 0);stroke-width:none"/>
	<polygon points="524,1076 506,867 278,945 " style="fill:rgb(255, 207, 0);stroke-width:none"/>
	<polygon points="524,1076 526,1075 506,867 " style="fill:rgb(255, 189, 0);stroke-width:none"/>
	<polygon points="590,975 767,876 506,867 " style="fill:rgb(255, 198, 0);stroke-width:none"/>
	<polygon points="526,1075 590,975 506,867 " style="fill:rgb(255, 195, 0);stroke-width:none"/>
	<polygon points="767,876 590,975 807,1113 " style="fill:rgb(255, 178, 0);stroke-width:none"/>
	<polygon points="590,975 526,1075 807,1113 " style="fill:rgb(255, 170, 0);stroke-width:none"/>
	<polygon points="393,775 415,732 381,722 " style="fill:rgb(255, 232, 0);stroke-width:none"/>
	<polygon points="278,945 393,775 119,799 " style="fill:rgb(255, 251, 0);stroke-width:none"/>
	<polygon points="393,775 381,722 119,799 " style="fill:rgb(255, 247, 0);stroke-width:none"/>
	<polygon points="506,867 393,775 278,945 " style="fill:rgb(255, 230, 0);stroke-width:none"/>
	<polygon points="415,732 393,775 506,867 " style="fill:rgb(255, 228, 0);stroke-width:none"/>
	<polygon points="1723,72 1802,244 1876,53 " style="fill:rgb(245, 255, 255);stroke-width:none"/>
	<polygon points="1734,343 1802,244 1723,72 " style="fill:rgb(231, 251, 255);stroke-width:none"/>
	<polygon points="1802,244 1734,343 1835,365 " style="fill:rgb(226, 225, 255);stroke-width:none"/>
	<polygon points="2018,148 1802,244 1835,365 " style="fill:rgb(237, 240, 255);stroke-width:none"/>
	<polygon points="1802,244 2018,148 1960,71 " style="fill:rgb(255, 255, 255);stroke-width:none"/>
	<polygon points="1876,53 1802,244 1960,71 " style="fill:rgb(255, 255, 255);stroke-width:none"/>
	<polygon points="2512,733 2450,726 2512,752 " style="fill:rgb(198, 199, 255);stroke-width:none"/>
	<polygon points="304,0 332,239 313,0 " style="fill:rgb(0, 0, 255);stroke-width:none"/>
	<polygon points="304,0 293,0 332,239 " style="fill:rgb(0, 0, 255);stroke-width:none"/>
	<polygon points="0,56 133,88 0,0 " style="fill:rgb(0, 0, 255);stroke-width:none"/>
	<polygon points="0,56 48,110 133,88 " style="fill:rgb(0, 0, 255);stroke-width:none"/>
	<polygon points="0,56 0,59 48,110 " style="fill:rgb(0, 0, 255);stroke-width:none"/>
	<polygon points="2450,726 2512,676 2512,672 " style="fill:rgb(202, 201, 255);stroke-width:none"/>
	<polygon points="2512,733 2512,676 2450,726 " style="fill:rgb(200, 200, 255);stroke-width:none"/>
</svg>