<?xml version="1.0" encoding="utf-8"?>
<svg version="1.1" id="Layer_1" xmlns="http://www.w3.org/2000/svg" xmlns:xlink="http://www.w3.org/1999/xlink" height="1297" width="2512">
	<polygon points="1376,35 1654,0 945,0 " style="fill:rgb(236, 179, 136);stroke-width:none"/>
	<polygon points="2122,1280 1368,1297 2512,1297 " style="fill:rgb(214, 221, 217);stroke-width:none"/>
	<polygon points="249,909 311,742 106,809 " style="fill:rgb(118, 0, 93);stroke-width:none"/>
	<polygon points="249,909 0,980 114,1109 " style="fill:rgb(0, 0, 0);stroke-width:none"/>
	<polygon points="311,742 176,588 106,809 " style="fill:rgb(193, 181, 224);stroke-width:none"/>
	<polygon points="176,588 0,621 106,809 " style="fill:rgb(238, 255, 255);stroke-width:none"/>
	<polygon points="354,0 568,33 945,0 " style="fill:rgb(224, 161, 143);stroke-width:none"/>
	<polygon points="568,33 354,0 407,52 " style="fill:rgb(219, 195, 183);stroke-width:none"/>
	<polygon points="354,0 118,215 407,52 " style="fill:rgb(215, 235, 229);stroke-width:none"/>
	<polygon points="621,155 568,33 407,52 " style="fill:rgb(222, 176, 161);stroke-width:none"/>
	<polygon points="1746,1256 2122,1280 1907,1215 " style="fill:rgb(196, 167, 204);stroke-width:none"/>
	<polygon points="2069,913 2277,716 1986,738 " style="fill:rgb(145, 0, 130);stroke-width:none"/>
	<polygon points="244,1277 213,1297 322,1297 " style="fill:rgb(0, 0, 0);stroke-width:none"/>
	<polygon points="0,621 0,910 106,809 " style="fill:rgb(178, 75, 159);stroke-width:none"/>
	<polygon points="0,910 249,909 106,809 " style="fill:rgb(80, 0, 0);stroke-width:none"/>
	<polygon points="249,909 0,910 0,980 " style="fill:rgb(22, 0, 0);stroke-width:none"/>
	<polygon points="376,544 176,588 311,742 " style="fill:rgb(215, 255, 255);stroke-width:none"/>
	<polygon points="376,544 505,702 519,479 " style="fill:rgb(194, 214, 249);stroke-width:none"/>
	<polygon points="505,702 376,544 311,742 " style="fill:rgb(178, 149, 225);stroke-width:none"/>
	<polygon points="1130,67 1376,35 945,0 " style="fill:rgb(234, 152, 115);stroke-width:none"/>
	<polygon points="2040,16 2406,0 1654,0 " style="fill:rgb(234, 255, 255);stroke-width:none"/>
	<polygon points="2417,288 2512,349 2512,0 " style="fill:rgb(225, 255, 255);stroke-width:none"/>
	<polygon points="1376,35 1389,218 1654,0 " style="fill:rgb(237, 213, 165);stroke-width:none"/>
	<polygon points="1389,218 1555,296 1654,0 " style="fill:rgb(234, 222, 178);stroke-width:none"/>
	<polygon points="55,30 354,0 0,0 " style="fill:rgb(209, 255, 255);stroke-width:none"/>
	<polygon points="55,30 118,215 354,0 " style="fill:rgb(210, 255, 255);stroke-width:none"/>
	<polygon points="55,30 0,176 118,215 " style="fill:rgb(206, 255, 255);stroke-width:none"/>
	<polygon points="568,33 930,13 945,0 " style="fill:rgb(229, 142, 117);stroke-width:none"/>
	<polygon points="621,155 930,13 568,33 " style="fill:rgb(226, 151, 130);stroke-width:none"/>
	<polygon points="595,241 619,183 407,52 " style="fill:rgb(222, 175, 160);stroke-width:none"/>
	<polygon points="619,183 621,155 407,52 " style="fill:rgb(222, 173, 158);stroke-width:none"/>
	<polygon points="1335,890 1412,673 1158,666 " style="fill:rgb(79, 0, 109);stroke-width:none"/>
	<polygon points="2122,1280 1570,1272 1368,1297 " style="fill:rgb(176, 109, 193);stroke-width:none"/>
	<polygon points="1746,1256 1570,1272 2122,1280 " style="fill:rgb(190, 155, 206);stroke-width:none"/>
	<polygon points="1767,1228 1746,1256 1907,1215 " style="fill:rgb(178, 112, 192);stroke-width:none"/>
	<polygon points="1767,1228 1570,1272 1746,1256 " style="fill:rgb(167, 81, 185);stroke-width:none"/>
	<polygon points="2306,1280 2122,1280 2512,1297 " style="fill:rgb(217, 172, 166);stroke-width:none"/>
	<polygon points="2069,913 2294,850 2277,716 " style="fill:rgb(163, 10, 131);stroke-width:none"/>
	<polygon points="2122,1280 2056,1099 1907,1215 " style="fill:rgb(191, 129, 182);stroke-width:none"/>
	<polygon points="1920,527 1928,712 1986,738 " style="fill:rgb(125, 0, 135);stroke-width:none"/>
	<polygon points="1858,605 1928,712 1920,527 " style="fill:rgb(124, 0, 138);stroke-width:none"/>
	<polygon points="1928,712 1858,605 1834,737 " style="fill:rgb(116, 0, 126);stroke-width:none"/>
	<polygon points="244,1277 132,1193 213,1297 " style="fill:rgb(0, 0, 0);stroke-width:none"/>
	<polygon points="213,1297 132,1193 0,1297 " style="fill:rgb(0, 0, 0);stroke-width:none"/>
	<polygon points="132,1193 0,1274 0,1297 " style="fill:rgb(0, 0, 0);stroke-width:none"/>
	<polygon points="0,980 0,1145 114,1109 " style="fill:rgb(0, 0, 0);stroke-width:none"/>
	<polygon points="482,808 505,702 311,742 " style="fill:rgb(132, 0, 156);stroke-width:none"/>
	<polygon points="505,702 482,808 686,744 " style="fill:rgb(116, 0, 144);stroke-width:none"/>
	<polygon points="1107,898 1335,890 1158,666 " style="fill:rgb(68, 0, 102);stroke-width:none"/>
	<polygon points="1107,898 940,917 1070,1084 " style="fill:rgb(40, 0, 56);stroke-width:none"/>
	<polygon points="665,410 528,393 519,479 " style="fill:rgb(208, 233, 238);stroke-width:none"/>
	<polygon points="528,393 665,410 595,241 " style="fill:rgb(216, 229, 221);stroke-width:none"/>
	<polygon points="665,410 762,519 991,310 " style="fill:rgb(181, 105, 179);stroke-width:none"/>
	<polygon points="619,183 665,410 991,310 " style="fill:rgb(208, 155, 171);stroke-width:none"/>
	<polygon points="665,410 619,183 595,241 " style="fill:rgb(220, 207, 193);stroke-width:none"/>
	<polygon points="762,519 1014,458 991,310 " style="fill:rgb(166, 47, 158);stroke-width:none"/>
	<polygon points="427,1168 244,1277 322,1297 " style="fill:rgb(0, 0, 0);stroke-width:none"/>
	<polygon points="132,1193 427,1168 114,1109 " style="fill:rgb(0, 0, 0);stroke-width:none"/>
	<polygon points="427,1168 132,1193 244,1277 " style="fill:rgb(0, 0, 0);stroke-width:none"/>
	<polygon points="176,588 0,476 0,621 " style="fill:rgb(255, 255, 255);stroke-width:none"/>
	<polygon points="1124,223 1073,149 991,310 " style="fill:rgb(213, 112, 122);stroke-width:none"/>
	<polygon points="1073,149 1124,223 1195,123 " style="fill:rgb(234, 150, 114);stroke-width:none"/>
	<polygon points="1291,181 1124,223 1226,360 " style="fill:rgb(201, 90, 126);stroke-width:none"/>
	<polygon points="1124,223 1291,181 1195,123 " style="fill:rgb(230, 150, 121);stroke-width:none"/>
	<polygon points="1092,96 1073,149 1195,123 " style="fill:rgb(234, 149, 113);stroke-width:none"/>
	<polygon points="1130,67 1092,96 1195,123 " style="fill:rgb(234, 151, 115);stroke-width:none"/>
	<polygon points="1092,96 1130,67 945,0 " style="fill:rgb(233, 144, 111);stroke-width:none"/>
	<polygon points="1291,181 1311,93 1195,123 " style="fill:rgb(235, 168, 127);stroke-width:none"/>
	<polygon points="1130,67 1311,93 1376,35 " style="fill:rgb(235, 169, 128);stroke-width:none"/>
	<polygon points="1311,93 1130,67 1195,123 " style="fill:rgb(235, 160, 121);stroke-width:none"/>
	<polygon points="1311,93 1389,218 1376,35 " style="fill:rgb(236, 186, 142);stroke-width:none"/>
	<polygon points="1389,218 1311,93 1291,181 " style="fill:rgb(236, 180, 137);stroke-width:none"/>
	<polygon points="2148,160 2040,16 2128,178 " style="fill:rgb(234, 255, 255);stroke-width:none"/>
	<polygon points="2148,160 2406,0 2040,16 " style="fill:rgb(232, 255, 255);stroke-width:none"/>
	<polygon points="2406,0 2402,82 2512,0 " style="fill:rgb(228, 255, 255);stroke-width:none"/>
	<polygon points="2402,82 2417,288 2512,0 " style="fill:rgb(228, 255, 255);stroke-width:none"/>
	<polygon points="2148,160 2402,82 2406,0 " style="fill:rgb(230, 255, 255);stroke-width:none"/>
	<polygon points="1366,287 1291,181 1226,360 " style="fill:rgb(192, 74, 130);stroke-width:none"/>
	<polygon points="1207,441 1366,287 1226,360 " style="fill:rgb(164, 8, 128);stroke-width:none"/>
	<polygon points="1555,296 1756,306 1654,0 " style="fill:rgb(221, 221, 203);stroke-width:none"/>
	<polygon points="1864,35 2040,16 1654,0 " style="fill:rgb(236, 255, 255);stroke-width:none"/>
	<polygon points="0,10 55,30 0,0 " style="fill:rgb(205, 255, 255);stroke-width:none"/>
	<polygon points="55,30 0,10 0,176 " style="fill:rgb(205, 255, 255);stroke-width:none"/>
	<polygon points="118,215 157,271 407,52 " style="fill:rgb(219, 255, 255);stroke-width:none"/>
	<polygon points="157,271 292,360 407,52 " style="fill:rgb(235, 255, 255);stroke-width:none"/>
	<polygon points="120,246 157,271 118,215 " style="fill:rgb(249, 255, 255);stroke-width:none"/>
	<polygon points="405,383 595,241 407,52 " style="fill:rgb(228, 247, 213);stroke-width:none"/>
	<polygon points="292,360 405,383 407,52 " style="fill:rgb(238, 255, 255);stroke-width:none"/>
	<polygon points="405,383 528,393 595,241 " style="fill:rgb(226, 255, 245);stroke-width:none"/>
	<polygon points="528,393 405,383 519,479 " style="fill:rgb(223, 255, 255);stroke-width:none"/>
	<polygon points="405,383 376,544 519,479 " style="fill:rgb(225, 255, 255);stroke-width:none"/>
	<polygon points="197,472 0,476 176,588 " style="fill:rgb(255, 255, 255);stroke-width:none"/>
	<polygon points="0,476 197,472 88,405 " style="fill:rgb(255, 255, 255);stroke-width:none"/>
	<polygon points="1073,149 972,119 991,310 " style="fill:rgb(224, 130, 116);stroke-width:none"/>
	<polygon points="972,119 619,183 991,310 " style="fill:rgb(222, 137, 128);stroke-width:none"/>
	<polygon points="1092,96 972,119 1073,149 " style="fill:rgb(233, 143, 110);stroke-width:none"/>
	<polygon points="972,119 930,13 621,155 " style="fill:rgb(229, 141, 115);stroke-width:none"/>
	<polygon points="619,183 972,119 621,155 " style="fill:rgb(227, 148, 126);stroke-width:none"/>
	<polygon points="930,13 972,119 945,0 " style="fill:rgb(231, 140, 110);stroke-width:none"/>
	<polygon points="972,119 1092,96 945,0 " style="fill:rgb(232, 141, 110);stroke-width:none"/>
	<polygon points="1275,1297 1123,1198 1029,1297 " style="fill:rgb(35, 0, 0);stroke-width:none"/>
	<polygon points="992,1297 902,1164 811,1297 " style="fill:rgb(0, 0, 0);stroke-width:none"/>
	<polygon points="1123,1198 981,1142 1029,1297 " style="fill:rgb(6, 0, 0);stroke-width:none"/>
	<polygon points="981,1142 992,1297 1029,1297 " style="fill:rgb(0, 0, 0);stroke-width:none"/>
	<polygon points="992,1297 981,1142 902,1164 " style="fill:rgb(0, 0, 0);stroke-width:none"/>
	<polygon points="981,1142 1123,1198 1070,1084 " style="fill:rgb(18, 0, 0);stroke-width:none"/>
	<polygon points="940,917 981,1142 1070,1084 " style="fill:rgb(21, 0, 13);stroke-width:none"/>
	<polygon points="902,1164 806,1050 811,1297 " style="fill:rgb(0, 0, 0);stroke-width:none"/>
	<polygon points="806,1050 981,1142 940,917 " style="fill:rgb(11, 0, 0);stroke-width:none"/>
	<polygon points="981,1142 806,1050 902,1164 " style="fill:rgb(0, 0, 0);stroke-width:none"/>
	<polygon points="1715,527 1858,605 1920,527 " style="fill:rgb(126, 0, 142);stroke-width:none"/>
	<polygon points="1607,857 1412,673 1335,890 " style="fill:rgb(78, 0, 108);stroke-width:none"/>
	<polygon points="2004,406 2149,428 2128,178 " style="fill:rgb(188, 239, 255);stroke-width:none"/>
	<polygon points="2126,550 1920,527 1986,738 " style="fill:rgb(137, 0, 154);stroke-width:none"/>
	<polygon points="2126,550 2004,406 1920,527 " style="fill:rgb(152, 50, 189);stroke-width:none"/>
	<polygon points="2004,406 2126,550 2149,428 " style="fill:rgb(165, 115, 220);stroke-width:none"/>
	<polygon points="1563,983 1767,1228 1619,943 " style="fill:rgb(112, 0, 134);stroke-width:none"/>
	<polygon points="1767,1228 1563,983 1570,1272 " style="fill:rgb(132, 0, 152);stroke-width:none"/>
	<polygon points="1607,857 1563,983 1619,943 " style="fill:rgb(91, 0, 116);stroke-width:none"/>
	<polygon points="1563,983 1607,857 1335,890 " style="fill:rgb(81, 0, 110);stroke-width:none"/>
	<polygon points="1570,1272 1563,983 1368,1297 " style="fill:rgb(115, 0, 131);stroke-width:none"/>
	<polygon points="2512,1076 2441,1193 2512,1297 " style="fill:rgb(207, 70, 96);stroke-width:none"/>
	<polygon points="2369,1255 2306,1280 2512,1297 " style="fill:rgb(212, 129, 138);stroke-width:none"/>
	<polygon points="2306,1280 2369,1255 2350,1218 " style="fill:rgb(212, 139, 148);stroke-width:none"/>
	<polygon points="2441,1193 2369,1255 2512,1297 " style="fill:rgb(209, 95, 116);stroke-width:none"/>
	<polygon points="2369,1255 2441,1193 2350,1218 " style="fill:rgb(209, 109, 127);stroke-width:none"/>
	<polygon points="2426,823 2407,667 2277,716 " style="fill:rgb(191, 110, 164);stroke-width:none"/>
	<polygon points="2294,850 2426,823 2277,716 " style="fill:rgb(183, 68, 142);stroke-width:none"/>
	<polygon points="2426,823 2294,850 2430,927 " style="fill:rgb(194, 74, 127);stroke-width:none"/>
	<polygon points="2407,667 2426,823 2512,520 " style="fill:rgb(208, 194, 204);stroke-width:none"/>
	<polygon points="2426,823 2512,1076 2512,520 " style="fill:rgb(211, 137, 147);stroke-width:none"/>
	<polygon points="2512,1076 2426,823 2430,927 " style="fill:rgb(207, 84, 110);stroke-width:none"/>
	<polygon points="2235,1177 2056,1099 2122,1280 " style="fill:rgb(196, 124, 167);stroke-width:none"/>
	<polygon points="2306,1280 2235,1177 2122,1280 " style="fill:rgb(212, 167, 174);stroke-width:none"/>
	<polygon points="2235,1177 2306,1280 2350,1218 " style="fill:rgb(209, 137, 151);stroke-width:none"/>
	<polygon points="1814,1187 1767,1228 1907,1215 " style="fill:rgb(173, 96, 186);stroke-width:none"/>
	<polygon points="1767,1228 1814,1187 1619,943 " style="fill:rgb(136, 0, 154);stroke-width:none"/>
	<polygon points="1814,1187 1831,965 1619,943 " style="fill:rgb(122, 0, 137);stroke-width:none"/>
	<polygon points="2056,1099 2015,1085 1907,1215 " style="fill:rgb(171, 65, 163);stroke-width:none"/>
	<polygon points="2015,1085 1814,1187 1907,1215 " style="fill:rgb(169, 73, 173);stroke-width:none"/>
	<polygon points="1814,1187 2015,1085 1831,965 " style="fill:rgb(147, 0, 150);stroke-width:none"/>
	<polygon points="2015,1085 2056,1099 2069,913 " style="fill:rgb(158, 7, 138);stroke-width:none"/>
	<polygon points="14,1172 132,1193 114,1109 " style="fill:rgb(0, 0, 0);stroke-width:none"/>
	<polygon points="0,1145 14,1172 114,1109 " style="fill:rgb(0, 0, 0);stroke-width:none"/>
	<polygon points="1107,898 1253,1020 1335,890 " style="fill:rgb(59, 0, 88);stroke-width:none"/>
	<polygon points="1563,983 1253,1020 1368,1297 " style="fill:rgb(82, 0, 102);stroke-width:none"/>
	<polygon points="1253,1020 1563,983 1335,890 " style="fill:rgb(72, 0, 102);stroke-width:none"/>
	<polygon points="649,500 665,410 519,479 " style="fill:rgb(196, 193, 227);stroke-width:none"/>
	<polygon points="665,410 649,500 762,519 " style="fill:rgb(181, 136, 206);stroke-width:none"/>
	<polygon points="505,702 649,500 519,479 " style="fill:rgb(182, 164, 229);stroke-width:none"/>
	<polygon points="784,733 751,660 686,744 " style="fill:rgb(110, 0, 146);stroke-width:none"/>
	<polygon points="1207,441 1092,363 1192,475 " style="fill:rgb(149, 0, 131);stroke-width:none"/>
	<polygon points="1092,363 1014,458 1192,475 " style="fill:rgb(151, 0, 136);stroke-width:none"/>
	<polygon points="1092,363 1207,441 1226,360 " style="fill:rgb(159, 1, 130);stroke-width:none"/>
	<polygon points="1014,458 1092,363 991,310 " style="fill:rgb(171, 38, 141);stroke-width:none"/>
	<polygon points="1124,223 1092,363 1226,360 " style="fill:rgb(183, 52, 129);stroke-width:none"/>
	<polygon points="1092,363 1124,223 991,310 " style="fill:rgb(191, 73, 131);stroke-width:none"/>
	<polygon points="1197,502 1014,458 1158,666 " style="fill:rgb(121, 0, 132);stroke-width:none"/>
	<polygon points="1014,458 1197,502 1192,475 " style="fill:rgb(137, 0, 133);stroke-width:none"/>
	<polygon points="1412,673 1197,502 1158,666 " style="fill:rgb(100, 0, 119);stroke-width:none"/>
	<polygon points="1197,502 1207,441 1192,475 " style="fill:rgb(135, 0, 128);stroke-width:none"/>
	<polygon points="559,1216 544,1297 811,1297 " style="fill:rgb(0, 0, 0);stroke-width:none"/>
	<polygon points="806,1050 559,1216 811,1297 " style="fill:rgb(0, 0, 0);stroke-width:none"/>
	<polygon points="427,1168 438,1291 507,1165 " style="fill:rgb(0, 0, 0);stroke-width:none"/>
	<polygon points="438,1291 559,1216 507,1165 " style="fill:rgb(0, 0, 0);stroke-width:none"/>
	<polygon points="559,1216 438,1291 544,1297 " style="fill:rgb(0, 0, 0);stroke-width:none"/>
	<polygon points="360,963 249,909 114,1109 " style="fill:rgb(0, 0, 0);stroke-width:none"/>
	<polygon points="427,1168 360,963 114,1109 " style="fill:rgb(0, 0, 0);stroke-width:none"/>
	<polygon points="249,909 360,963 311,742 " style="fill:rgb(71, 0, 26);stroke-width:none"/>
	<polygon points="360,963 482,808 311,742 " style="fill:rgb(89, 0, 74);stroke-width:none"/>
	<polygon points="0,400 0,476 88,405 " style="fill:rgb(255, 255, 255);stroke-width:none"/>
	<polygon points="92,393 120,246 0,298 " style="fill:rgb(255, 255, 255);stroke-width:none"/>
	<polygon points="0,400 92,393 0,298 " style="fill:rgb(255, 255, 255);stroke-width:none"/>
	<polygon points="92,393 0,400 88,405 " style="fill:rgb(255, 255, 255);stroke-width:none"/>
	<polygon points="92,393 157,271 120,246 " style="fill:rgb(255, 255, 255);stroke-width:none"/>
	<polygon points="197,472 92,393 88,405 " style="fill:rgb(255, 255, 255);stroke-width:none"/>
	<polygon points="120,246 0,258 0,298 " style="fill:rgb(255, 255, 255);stroke-width:none"/>
	<polygon points="0,258 120,246 118,215 " style="fill:rgb(251, 255, 255);stroke-width:none"/>
	<polygon points="1379,273 1389,218 1291,181 " style="fill:rgb(211, 125, 137);stroke-width:none"/>
	<polygon points="1366,287 1379,273 1291,181 " style="fill:rgb(202, 103, 135);stroke-width:none"/>
	<polygon points="1389,218 1379,273 1555,296 " style="fill:rgb(196, 100, 145);stroke-width:none"/>
	<polygon points="1379,273 1366,287 1555,296 " style="fill:rgb(187, 76, 141);stroke-width:none"/>
	<polygon points="1518,563 1366,287 1207,441 " style="fill:rgb(141, 0, 125);stroke-width:none"/>
	<polygon points="1197,502 1518,563 1207,441 " style="fill:rgb(123, 0, 122);stroke-width:none"/>
	<polygon points="1518,563 1197,502 1412,673 " style="fill:rgb(105, 0, 117);stroke-width:none"/>
	<polygon points="1366,287 1518,563 1555,296 " style="fill:rgb(154, 0, 135);stroke-width:none"/>
	<polygon points="1555,296 1518,563 1673,480 " style="fill:rgb(136, 0, 134);stroke-width:none"/>
	<polygon points="1518,563 1715,527 1673,480 " style="fill:rgb(120, 0, 128);stroke-width:none"/>
	<polygon points="1607,857 1518,563 1412,673 " style="fill:rgb(89, 0, 111);stroke-width:none"/>
	<polygon points="1740,409 1555,296 1673,480 " style="fill:rgb(152, 9, 152);stroke-width:none"/>
	<polygon points="1740,409 1756,306 1555,296 " style="fill:rgb(170, 70, 170);stroke-width:none"/>
	<polygon points="1715,527 1740,409 1673,480 " style="fill:rgb(133, 0, 143);stroke-width:none"/>
	<polygon points="1864,35 1805,64 1874,197 " style="fill:rgb(236, 255, 255);stroke-width:none"/>
	<polygon points="1756,306 1805,64 1654,0 " style="fill:rgb(237, 255, 243);stroke-width:none"/>
	<polygon points="1805,64 1756,306 1874,197 " style="fill:rgb(226, 255, 255);stroke-width:none"/>
	<polygon points="405,383 295,441 376,544 " style="fill:rgb(241, 255, 255);stroke-width:none"/>
	<polygon points="376,544 246,514 176,588 " style="fill:rgb(243, 255, 255);stroke-width:none"/>
	<polygon points="246,514 197,472 176,588 " style="fill:rgb(255, 255, 255);stroke-width:none"/>
	<polygon points="295,441 246,514 376,544 " style="fill:rgb(245, 255, 255);stroke-width:none"/>
	<polygon points="713,973 559,1216 806,1050 " style="fill:rgb(0, 0, 0);stroke-width:none"/>
	<polygon points="482,808 713,973 686,744 " style="fill:rgb(71, 0, 79);stroke-width:none"/>
	<polygon points="1680,875 1831,965 1834,737 " style="fill:rgb(105, 0, 118);stroke-width:none"/>
	<polygon points="1831,965 1680,875 1619,943 " style="fill:rgb(103, 0, 121);stroke-width:none"/>
	<polygon points="1680,875 1607,857 1619,943 " style="fill:rgb(92, 0, 115);stroke-width:none"/>
	<polygon points="1858,605 1746,593 1834,737 " style="fill:rgb(113, 0, 126);stroke-width:none"/>
	<polygon points="1715,527 1746,593 1858,605 " style="fill:rgb(118, 0, 132);stroke-width:none"/>
	<polygon points="1746,593 1680,875 1834,737 " style="fill:rgb(102, 0, 116);stroke-width:none"/>
	<polygon points="1680,875 1746,593 1607,857 " style="fill:rgb(94, 0, 113);stroke-width:none"/>
	<polygon points="1518,563 1746,593 1715,527 " style="fill:rgb(114, 0, 125);stroke-width:none"/>
	<polygon points="1746,593 1518,563 1607,857 " style="fill:rgb(97, 0, 114);stroke-width:none"/>
	<polygon points="2005,184 2004,406 2128,178 " style="fill:rgb(206, 255, 255);stroke-width:none"/>
	<polygon points="2040,16 2005,184 2128,178 " style="fill:rgb(234, 255, 255);stroke-width:none"/>
	<polygon points="2005,184 1908,375 2004,406 " style="fill:rgb(185, 194, 251);stroke-width:none"/>
	<polygon points="1864,35 2005,184 2040,16 " style="fill:rgb(235, 255, 255);stroke-width:none"/>
	<polygon points="2005,184 1864,35 1874,197 " style="fill:rgb(236, 255, 255);stroke-width:none"/>
	<polygon points="2324,300 2402,82 2148,160 " style="fill:rgb(228, 255, 255);stroke-width:none"/>
	<polygon points="2324,300 2148,160 2128,178 " style="fill:rgb(221, 255, 255);stroke-width:none"/>
	<polygon points="2149,428 2324,300 2128,178 " style="fill:rgb(202, 255, 255);stroke-width:none"/>
	<polygon points="2331,310 2324,300 2149,428 " style="fill:rgb(200, 255, 255);stroke-width:none"/>
	<polygon points="2512,349 2421,391 2512,520 " style="fill:rgb(219, 255, 255);stroke-width:none"/>
	<polygon points="2421,391 2407,667 2512,520 " style="fill:rgb(212, 255, 255);stroke-width:none"/>
	<polygon points="2421,391 2512,349 2417,288 " style="fill:rgb(219, 255, 255);stroke-width:none"/>
	<polygon points="2421,391 2331,310 2149,428 " style="fill:rgb(200, 255, 255);stroke-width:none"/>
	<polygon points="2056,1099 2335,987 2069,913 " style="fill:rgb(167, 16, 129);stroke-width:none"/>
	<polygon points="2235,1177 2335,987 2056,1099 " style="fill:rgb(184, 64, 136);stroke-width:none"/>
	<polygon points="2335,987 2294,850 2069,913 " style="fill:rgb(170, 17, 123);stroke-width:none"/>
	<polygon points="2294,850 2335,987 2430,927 " style="fill:rgb(190, 56, 118);stroke-width:none"/>
	<polygon points="2335,987 2235,1177 2350,1218 " style="fill:rgb(198, 85, 128);stroke-width:none"/>
	<polygon points="2441,1193 2335,987 2350,1218 " style="fill:rgb(202, 81, 115);stroke-width:none"/>
	<polygon points="2335,987 2512,1076 2430,927 " style="fill:rgb(202, 69, 105);stroke-width:none"/>
	<polygon points="2335,987 2441,1193 2512,1076 " style="fill:rgb(204, 69, 101);stroke-width:none"/>
	<polygon points="1831,965 1858,747 1834,737 " style="fill:rgb(110, 0, 118);stroke-width:none"/>
	<polygon points="1925,902 1858,747 1831,965 " style="fill:rgb(116, 0, 121);stroke-width:none"/>
	<polygon points="1858,747 1928,712 1834,737 " style="fill:rgb(114, 0, 122);stroke-width:none"/>
	<polygon points="2015,1085 1943,959 1831,965 " style="fill:rgb(138, 0, 136);stroke-width:none"/>
	<polygon points="1943,959 1925,902 1831,965 " style="fill:rgb(126, 0, 127);stroke-width:none"/>
	<polygon points="1943,959 2015,1085 2069,913 " style="fill:rgb(146, 0, 132);stroke-width:none"/>
	<polygon points="1925,902 1943,959 2069,913 " style="fill:rgb(135, 0, 126);stroke-width:none"/>
	<polygon points="0,1230 14,1172 0,1145 " style="fill:rgb(0, 0, 0);stroke-width:none"/>
	<polygon points="132,1193 0,1230 0,1274 " style="fill:rgb(0, 0, 0);stroke-width:none"/>
	<polygon points="14,1172 0,1230 132,1193 " style="fill:rgb(0, 0, 0);stroke-width:none"/>
	<polygon points="1123,1198 1110,1102 1070,1084 " style="fill:rgb(29, 0, 13);stroke-width:none"/>
	<polygon points="1110,1102 1107,898 1070,1084 " style="fill:rgb(37, 0, 46);stroke-width:none"/>
	<polygon points="1110,1102 1253,1020 1107,898 " style="fill:rgb(47, 0, 65);stroke-width:none"/>
	<polygon points="1226,1088 1275,1297 1368,1297 " style="fill:rgb(75, 0, 63);stroke-width:none"/>
	<polygon points="1253,1020 1226,1088 1368,1297 " style="fill:rgb(65, 0, 72);stroke-width:none"/>
	<polygon points="1275,1297 1226,1088 1123,1198 " style="fill:rgb(52, 0, 35);stroke-width:none"/>
	<polygon points="1226,1088 1110,1102 1123,1198 " style="fill:rgb(39, 0, 32);stroke-width:none"/>
	<polygon points="1110,1102 1226,1088 1253,1020 " style="fill:rgb(49, 0, 59);stroke-width:none"/>
	<polygon points="649,500 705,547 762,519 " style="fill:rgb(169, 101, 200);stroke-width:none"/>
	<polygon points="751,660 705,547 686,744 " style="fill:rgb(132, 0, 171);stroke-width:none"/>
	<polygon points="705,547 505,702 686,744 " style="fill:rgb(139, 12, 180);stroke-width:none"/>
	<polygon points="705,547 649,500 505,702 " style="fill:rgb(166, 104, 209);stroke-width:none"/>
	<polygon points="1014,458 1003,683 1158,666 " style="fill:rgb(112, 0, 135);stroke-width:none"/>
	<polygon points="438,1291 415,1297 544,1297 " style="fill:rgb(0, 0, 0);stroke-width:none"/>
	<polygon points="415,1297 438,1291 427,1168 " style="fill:rgb(0, 0, 0);stroke-width:none"/>
	<polygon points="540,994 427,1168 507,1165 " style="fill:rgb(0, 0, 0);stroke-width:none"/>
	<polygon points="540,994 360,963 427,1168 " style="fill:rgb(0, 0, 0);stroke-width:none"/>
	<polygon points="559,1216 540,994 507,1165 " style="fill:rgb(0, 0, 0);stroke-width:none"/>
	<polygon points="713,973 540,994 559,1216 " style="fill:rgb(0, 0, 0);stroke-width:none"/>
	<polygon points="360,963 540,994 482,808 " style="fill:rgb(30, 0, 0);stroke-width:none"/>
	<polygon points="540,994 713,973 482,808 " style="fill:rgb(30, 0, 2);stroke-width:none"/>
	<polygon points="0,204 0,258 118,215 " style="fill:rgb(245, 255, 255);stroke-width:none"/>
	<polygon points="1792,45 1864,35 1654,0 " style="fill:rgb(237, 255, 255);stroke-width:none"/>
	<polygon points="1805,64 1792,45 1654,0 " style="fill:rgb(237, 255, 248);stroke-width:none"/>
	<polygon points="1792,45 1805,64 1864,35 " style="fill:rgb(236, 255, 255);stroke-width:none"/>
	<polygon points="304,379 405,383 292,360 " style="fill:rgb(250, 255, 255);stroke-width:none"/>
	<polygon points="304,379 295,441 405,383 " style="fill:rgb(249, 255, 255);stroke-width:none"/>
	<polygon points="246,514 227,451 197,472 " style="fill:rgb(255, 255, 255);stroke-width:none"/>
	<polygon points="227,451 246,514 295,441 " style="fill:rgb(255, 255, 255);stroke-width:none"/>
	<polygon points="227,451 92,393 197,472 " style="fill:rgb(255, 255, 255);stroke-width:none"/>
	<polygon points="227,451 304,379 292,360 " style="fill:rgb(255, 255, 255);stroke-width:none"/>
	<polygon points="304,379 227,451 295,441 " style="fill:rgb(255, 255, 255);stroke-width:none"/>
	<polygon points="157,271 227,451 292,360 " style="fill:rgb(255, 255, 255);stroke-width:none"/>
	<polygon points="92,393 227,451 157,271 " style="fill:rgb(255, 255, 255);stroke-width:none"/>
	<polygon points="843,914 806,1050 940,917 " style="fill:rgb(28, 0, 27);stroke-width:none"/>
	<polygon points="843,914 713,973 806,1050 " style="fill:rgb(16, 0, 0);stroke-width:none"/>
	<polygon points="843,914 784,733 686,744 " style="fill:rgb(80, 0, 107);stroke-width:none"/>
	<polygon points="713,973 843,914 686,744 " style="fill:rgb(53, 0, 62);stroke-width:none"/>
	<polygon points="1740,409 1877,328 1756,306 " style="fill:rgb(170, 91, 189);stroke-width:none"/>
	<polygon points="1908,375 1877,328 1740,409 " style="fill:rgb(165, 85, 193);stroke-width:none"/>
	<polygon points="1756,306 1877,328 1874,197 " style="fill:rgb(194, 188, 228);stroke-width:none"/>
	<polygon points="1877,328 2005,184 1874,197 " style="fill:rgb(209, 255, 255);stroke-width:none"/>
	<polygon points="2005,184 1877,328 1908,375 " style="fill:rgb(190, 205, 249);stroke-width:none"/>
	<polygon points="1920,463 1908,375 1740,409 " style="fill:rgb(154, 48, 181);stroke-width:none"/>
	<polygon points="1920,463 1715,527 1920,527 " style="fill:rgb(135, 0, 155);stroke-width:none"/>
	<polygon points="1920,463 1740,409 1715,527 " style="fill:rgb(139, 0, 156);stroke-width:none"/>
	<polygon points="2004,406 1920,463 1920,527 " style="fill:rgb(150, 42, 184);stroke-width:none"/>
	<polygon points="1908,375 1920,463 2004,406 " style="fill:rgb(160, 84, 202);stroke-width:none"/>
	<polygon points="2402,82 2372,287 2417,288 " style="fill:rgb(223, 255, 255);stroke-width:none"/>
	<polygon points="2324,300 2372,287 2402,82 " style="fill:rgb(222, 255, 255);stroke-width:none"/>
	<polygon points="2372,287 2324,300 2331,310 " style="fill:rgb(212, 255, 255);stroke-width:none"/>
	<polygon points="2372,287 2421,391 2417,288 " style="fill:rgb(215, 255, 255);stroke-width:none"/>
	<polygon points="2421,391 2372,287 2331,310 " style="fill:rgb(212, 255, 255);stroke-width:none"/>
	<polygon points="2421,391 2169,601 2407,667 " style="fill:rgb(190, 192, 239);stroke-width:none"/>
	<polygon points="2407,667 2169,601 2277,716 " style="fill:rgb(176, 94, 179);stroke-width:none"/>
	<polygon points="2126,550 2169,601 2149,428 " style="fill:rgb(163, 94, 206);stroke-width:none"/>
	<polygon points="2169,601 2421,391 2149,428 " style="fill:rgb(182, 197, 255);stroke-width:none"/>
	<polygon points="2277,716 2169,601 1986,738 " style="fill:rgb(151, 8, 152);stroke-width:none"/>
	<polygon points="2169,601 2126,550 1986,738 " style="fill:rgb(146, 5, 159);stroke-width:none"/>
	<polygon points="1978,834 1858,747 1925,902 " style="fill:rgb(120, 0, 121);stroke-width:none"/>
	<polygon points="1978,834 2069,913 1986,738 " style="fill:rgb(132, 0, 124);stroke-width:none"/>
	<polygon points="1978,834 1925,902 2069,913 " style="fill:rgb(133, 0, 124);stroke-width:none"/>
	<polygon points="1928,712 1978,834 1986,738 " style="fill:rgb(124, 0, 125);stroke-width:none"/>
	<polygon points="1858,747 1978,834 1928,712 " style="fill:rgb(119, 0, 122);stroke-width:none"/>
	<polygon points="1107,898 987,824 940,917 " style="fill:rgb(55, 0, 82);stroke-width:none"/>
	<polygon points="987,824 1107,898 1158,666 " style="fill:rgb(71, 0, 105);stroke-width:none"/>
	<polygon points="1003,683 987,824 1158,666 " style="fill:rgb(85, 0, 119);stroke-width:none"/>
	<polygon points="375,1297 415,1297 427,1168 " style="fill:rgb(0, 0, 0);stroke-width:none"/>
	<polygon points="0,176 0,201 118,215 " style="fill:rgb(228, 255, 255);stroke-width:none"/>
	<polygon points="0,201 0,204 118,215 " style="fill:rgb(234, 255, 255);stroke-width:none"/>
	<polygon points="843,914 917,820 784,733 " style="fill:rgb(69, 0, 96);stroke-width:none"/>
	<polygon points="917,820 987,824 1003,683 " style="fill:rgb(77, 0, 111);stroke-width:none"/>
	<polygon points="784,733 804,717 751,660 " style="fill:rgb(109, 0, 145);stroke-width:none"/>
	<polygon points="917,820 804,717 784,733 " style="fill:rgb(89, 0, 122);stroke-width:none"/>
	<polygon points="804,717 917,820 888,637 " style="fill:rgb(95, 0, 131);stroke-width:none"/>
	<polygon points="822,567 1014,458 762,519 " style="fill:rgb(150, 23, 168);stroke-width:none"/>
	<polygon points="705,547 822,567 762,519 " style="fill:rgb(155, 54, 185);stroke-width:none"/>
	<polygon points="822,567 705,547 751,660 " style="fill:rgb(143, 20, 178);stroke-width:none"/>
	<polygon points="325,1297 427,1168 322,1297 " style="fill:rgb(0, 0, 0);stroke-width:none"/>
	<polygon points="325,1297 375,1297 427,1168 " style="fill:rgb(0, 0, 0);stroke-width:none"/>
	<polygon points="920,831 843,914 940,917 " style="fill:rgb(50, 0, 70);stroke-width:none"/>
	<polygon points="920,831 917,820 843,914 " style="fill:rgb(59, 0, 83);stroke-width:none"/>
	<polygon points="987,824 920,831 940,917 " style="fill:rgb(58, 0, 85);stroke-width:none"/>
	<polygon points="917,820 920,831 987,824 " style="fill:rgb(66, 0, 96);stroke-width:none"/>
	<polygon points="901,636 917,820 1003,683 " style="fill:rgb(94, 0, 129);stroke-width:none"/>
	<polygon points="917,820 901,636 888,637 " style="fill:rgb(100, 0, 135);stroke-width:none"/>
	<polygon points="901,636 1003,683 1014,458 " style="fill:rgb(121, 0, 145);stroke-width:none"/>
	<polygon points="822,567 901,636 1014,458 " style="fill:rgb(136, 0, 157);stroke-width:none"/>
	<polygon points="804,717 869,630 751,660 " style="fill:rgb(116, 0, 153);stroke-width:none"/>
	<polygon points="869,630 804,717 888,637 " style="fill:rgb(114, 0, 149);stroke-width:none"/>
	<polygon points="869,630 822,567 751,660 " style="fill:rgb(129, 0, 164);stroke-width:none"/>
	<polygon points="901,636 869,630 888,637 " style="fill:rgb(118, 0, 150);stroke-width:none"/>
	<polygon points="869,630 901,636 822,567 " style="fill:rgb(126, 0, 158);stroke-width:none"/>
</svg>