<?xml version="1.0" encoding="utf-8"?>
<svg version="1.1" id="Layer_1" xmlns="http://www.w3.org/2000/svg" xmlns:xlink="http://www.w3.org/1999/xlink" height="1297" width="2512">
	<polygon points="802,0 918,66 1192,0 " style="fill:rgb(255, 0, 0);stroke-width:none"/>
	<polygon points="1396,0 1192,0 1310,89 " style="fill:rgb(181, 0, 79);stroke-width:none"/>
	<polygon points="802,0 618,142 918,66 " style="fill:rgb(255, 0, 0);stroke-width:none"/>
	<polygon points="918,66 1139,120 1192,0 " style="fill:rgb(222, 0, 19);stroke-width:none"/>
	<polygon points="1071,333 1139,120 918,66 " style="fill:rgb(197, 0, 78);stroke-width:none"/>
	<polygon points="1192,0 1139,120 1310,89 " style="fill:rgb(193, 0, 68);stroke-width:none"/>
	<polygon points="695,1207 626,1297 931,1297 " style="fill:rgb(255, 0, 0);stroke-width:none"/>
	<polygon points="533,1096 608,986 493,1008 " style="fill:rgb(255, 0, 0);stroke-width:none"/>
	<polygon points="450,1243 533,1096 347,1204 " style="fill:rgb(255, 0, 0);stroke-width:none"/>
	<polygon points="533,1096 344,1051 347,1204 " style="fill:rgb(255, 0, 0);stroke-width:none"/>
	<polygon points="1445,286 1495,154 1310,89 " style="fill:rgb(152, 180, 153);stroke-width:none"/>
	<polygon points="1495,154 1396,0 1310,89 " style="fill:rgb(160, 93, 121);stroke-width:none"/>
	<polygon points="607,80 802,0 615,0 " style="fill:rgb(255, 0, 0);stroke-width:none"/>
	<polygon points="607,80 618,142 802,0 " style="fill:rgb(255, 0, 0);stroke-width:none"/>
	<polygon points="618,142 725,349 918,66 " style="fill:rgb(240, 0, 0);stroke-width:none"/>
	<polygon points="1495,1263 1315,1297 1736,1297 " style="fill:rgb(182, 0, 8);stroke-width:none"/>
	<polygon points="1214,1297 1114,1117 931,1297 " style="fill:rgb(248, 0, 0);stroke-width:none"/>
	<polygon points="1114,1117 1214,1297 1315,1126 " style="fill:rgb(224, 0, 0);stroke-width:none"/>
	<polygon points="533,1096 627,1042 608,986 " style="fill:rgb(255, 0, 0);stroke-width:none"/>
	<polygon points="627,1042 533,1096 695,1207 " style="fill:rgb(255, 0, 0);stroke-width:none"/>
	<polygon points="1465,928 1604,913 1433,715 " style="fill:rgb(162, 125, 135);stroke-width:none"/>
	<polygon points="1323,1017 1465,928 1433,715 " style="fill:rgb(165, 77, 117);stroke-width:none"/>
	<polygon points="1160,287 1139,120 1071,333 " style="fill:rgb(171, 108, 131);stroke-width:none"/>
	<polygon points="1139,120 1160,287 1310,89 " style="fill:rgb(177, 55, 112);stroke-width:none"/>
	<polygon points="2512,759 2512,536 2396,714 " style="fill:rgb(173, 230, 181);stroke-width:none"/>
	<polygon points="2082,1227 1920,1285 2512,1297 " style="fill:rgb(150, 112, 125);stroke-width:none"/>
	<polygon points="1746,1078 1920,1285 2005,1078 " style="fill:rgb(154, 25, 92);stroke-width:none"/>
	<polygon points="1781,992 1746,1078 2005,1078 " style="fill:rgb(160, 69, 112);stroke-width:none"/>
	<polygon points="1604,913 1781,992 1692,867 " style="fill:rgb(163, 108, 128);stroke-width:none"/>
	<polygon points="1781,992 1604,913 1746,1078 " style="fill:rgb(164, 63, 111);stroke-width:none"/>
	<polygon points="626,1297 551,1271 470,1297 " style="fill:rgb(255, 0, 0);stroke-width:none"/>
	<polygon points="551,1271 450,1243 470,1297 " style="fill:rgb(255, 0, 0);stroke-width:none"/>
	<polygon points="551,1271 533,1096 450,1243 " style="fill:rgb(255, 0, 0);stroke-width:none"/>
	<polygon points="551,1271 626,1297 695,1207 " style="fill:rgb(255, 0, 0);stroke-width:none"/>
	<polygon points="533,1096 551,1271 695,1207 " style="fill:rgb(255, 0, 0);stroke-width:none"/>
	<polygon points="20,948 0,978 31,950 " style="fill:rgb(255, 0, 0);stroke-width:none"/>
	<polygon points="207,370 81,421 148,535 " style="fill:rgb(167, 0, 85);stroke-width:none"/>
	<polygon points="58,247 0,160 0,269 " style="fill:rgb(255, 0, 0);stroke-width:none"/>
	<polygon points="58,247 207,370 249,295 " style="fill:rgb(255, 0, 0);stroke-width:none"/>
	<polygon points="58,247 249,295 271,136 " style="fill:rgb(255, 0, 0);stroke-width:none"/>
	<polygon points="81,421 58,247 0,269 " style="fill:rgb(250, 0, 0);stroke-width:none"/>
	<polygon points="207,370 58,247 81,421 " style="fill:rgb(224, 0, 0);stroke-width:none"/>
	<polygon points="450,1243 379,1297 470,1297 " style="fill:rgb(255, 0, 0);stroke-width:none"/>
	<polygon points="379,1297 450,1243 347,1204 " style="fill:rgb(255, 0, 0);stroke-width:none"/>
	<polygon points="59,1186 0,978 0,1297 " style="fill:rgb(255, 0, 0);stroke-width:none"/>
	<polygon points="411,1012 533,1096 493,1008 " style="fill:rgb(255, 0, 0);stroke-width:none"/>
	<polygon points="411,1012 344,1051 533,1096 " style="fill:rgb(255, 0, 0);stroke-width:none"/>
	<polygon points="484,523 458,603 473,627 " style="fill:rgb(131, 240, 169);stroke-width:none"/>
	<polygon points="458,603 484,523 288,553 " style="fill:rgb(132, 226, 163);stroke-width:none"/>
	<polygon points="146,634 288,553 148,535 " style="fill:rgb(128, 211, 156);stroke-width:none"/>
	<polygon points="458,603 249,767 473,627 " style="fill:rgb(131, 221, 161);stroke-width:none"/>
	<polygon points="249,767 458,603 288,553 " style="fill:rgb(128, 231, 163);stroke-width:none"/>
	<polygon points="146,634 249,767 288,553 " style="fill:rgb(126, 223, 160);stroke-width:none"/>
	<polygon points="249,767 146,634 145,740 " style="fill:rgb(135, 170, 142);stroke-width:none"/>
	<polygon points="1396,0 1635,17 1678,0 " style="fill:rgb(138, 153, 137);stroke-width:none"/>
	<polygon points="1495,154 1635,17 1396,0 " style="fill:rgb(146, 135, 132);stroke-width:none"/>
	<polygon points="1344,1213 1495,1263 1315,1126 " style="fill:rgb(198, 0, 0);stroke-width:none"/>
	<polygon points="1495,1263 1344,1213 1315,1297 " style="fill:rgb(198, 0, 0);stroke-width:none"/>
	<polygon points="1344,1213 1214,1297 1315,1297 " style="fill:rgb(212, 0, 0);stroke-width:none"/>
	<polygon points="1214,1297 1344,1213 1315,1126 " style="fill:rgb(212, 0, 0);stroke-width:none"/>
	<polygon points="818,1175 695,1207 931,1297 " style="fill:rgb(255, 0, 0);stroke-width:none"/>
	<polygon points="818,1175 627,1042 695,1207 " style="fill:rgb(255, 0, 0);stroke-width:none"/>
	<polygon points="1186,596 1128,707 1433,715 " style="fill:rgb(148, 234, 173);stroke-width:none"/>
	<polygon points="1128,707 1323,1017 1433,715 " style="fill:rgb(159, 131, 136);stroke-width:none"/>
	<polygon points="1305,550 1186,596 1433,715 " style="fill:rgb(147, 255, 182);stroke-width:none"/>
	<polygon points="1561,947 1604,913 1465,928 " style="fill:rgb(165, 69, 114);stroke-width:none"/>
	<polygon points="1604,913 1561,947 1746,1078 " style="fill:rgb(165, 53, 107);stroke-width:none"/>
	<polygon points="1135,986 1128,707 1052,837 " style="fill:rgb(164, 71, 114);stroke-width:none"/>
	<polygon points="1128,707 1135,986 1323,1017 " style="fill:rgb(171, 9, 92);stroke-width:none"/>
	<polygon points="1135,986 1114,1117 1315,1126 " style="fill:rgb(206, 0, 0);stroke-width:none"/>
	<polygon points="1323,1017 1135,986 1315,1126 " style="fill:rgb(192, 0, 22);stroke-width:none"/>
	<polygon points="1715,754 1604,913 1692,867 " style="fill:rgb(162, 154, 146);stroke-width:none"/>
	<polygon points="1604,913 1715,754 1433,715 " style="fill:rgb(160, 175, 154);stroke-width:none"/>
	<polygon points="1912,582 1907,636 2092,679 " style="fill:rgb(162, 242, 182);stroke-width:none"/>
	<polygon points="1781,154 1927,183 1926,0 " style="fill:rgb(122, 230, 161);stroke-width:none"/>
	<polygon points="1927,183 1781,154 1796,233 " style="fill:rgb(131, 252, 173);stroke-width:none"/>
	<polygon points="2512,1079 2512,887 2439,955 " style="fill:rgb(170, 219, 175);stroke-width:none"/>
	<polygon points="2488,448 2512,536 2512,342 " style="fill:rgb(165, 164, 152);stroke-width:none"/>
	<polygon points="2512,787 2378,815 2512,852 " style="fill:rgb(173, 238, 184);stroke-width:none"/>
	<polygon points="2378,815 2512,887 2512,852 " style="fill:rgb(173, 237, 184);stroke-width:none"/>
	<polygon points="2512,887 2378,815 2439,955 " style="fill:rgb(172, 233, 182);stroke-width:none"/>
	<polygon points="2246,604 2341,736 2396,714 " style="fill:rgb(171, 233, 181);stroke-width:none"/>
	<polygon points="2341,736 2378,815 2396,714 " style="fill:rgb(172, 236, 183);stroke-width:none"/>
	<polygon points="2068,850 2229,831 2092,679 " style="fill:rgb(167, 220, 175);stroke-width:none"/>
	<polygon points="2376,1043 2512,1079 2439,955 " style="fill:rgb(168, 205, 169);stroke-width:none"/>
	<polygon points="1920,1285 1820,1297 2512,1297 " style="fill:rgb(149, 87, 115);stroke-width:none"/>
	<polygon points="2032,1237 2082,1227 2005,1078 " style="fill:rgb(150, 73, 109);stroke-width:none"/>
	<polygon points="1920,1285 2032,1237 2005,1078 " style="fill:rgb(150, 53, 101);stroke-width:none"/>
	<polygon points="2032,1237 1920,1285 2082,1227 " style="fill:rgb(150, 63, 105);stroke-width:none"/>
	<polygon points="260,93 183,0 0,160 " style="fill:rgb(255, 0, 0);stroke-width:none"/>
	<polygon points="260,93 58,247 271,136 " style="fill:rgb(255, 0, 0);stroke-width:none"/>
	<polygon points="58,247 260,93 0,160 " style="fill:rgb(255, 0, 0);stroke-width:none"/>
	<polygon points="0,160 32,0 0,0 " style="fill:rgb(255, 0, 0);stroke-width:none"/>
	<polygon points="183,0 32,0 0,160 " style="fill:rgb(255, 0, 0);stroke-width:none"/>
	<polygon points="288,553 263,431 148,535 " style="fill:rgb(142, 143, 134);stroke-width:none"/>
	<polygon points="263,431 207,370 148,535 " style="fill:rgb(165, 16, 92);stroke-width:none"/>
	<polygon points="207,370 263,431 249,295 " style="fill:rgb(206, 0, 23);stroke-width:none"/>
	<polygon points="249,295 344,176 271,136 " style="fill:rgb(255, 0, 0);stroke-width:none"/>
	<polygon points="386,264 344,176 249,295 " style="fill:rgb(255, 0, 0);stroke-width:none"/>
	<polygon points="344,176 260,93 271,136 " style="fill:rgb(255, 0, 0);stroke-width:none"/>
	<polygon points="344,176 498,0 287,0 " style="fill:rgb(255, 0, 0);stroke-width:none"/>
	<polygon points="260,93 344,176 287,0 " style="fill:rgb(255, 0, 0);stroke-width:none"/>
	<polygon points="508,302 725,349 618,142 " style="fill:rgb(223, 0, 22);stroke-width:none"/>
	<polygon points="379,1297 150,1249 93,1297 " style="fill:rgb(255, 0, 0);stroke-width:none"/>
	<polygon points="150,1249 379,1297 347,1204 " style="fill:rgb(255, 0, 0);stroke-width:none"/>
	<polygon points="150,1249 59,1186 93,1297 " style="fill:rgb(255, 0, 0);stroke-width:none"/>
	<polygon points="93,1297 52,1284 0,1297 " style="fill:rgb(255, 0, 0);stroke-width:none"/>
	<polygon points="52,1284 59,1186 0,1297 " style="fill:rgb(255, 0, 0);stroke-width:none"/>
	<polygon points="59,1186 52,1284 93,1297 " style="fill:rgb(255, 0, 0);stroke-width:none"/>
	<polygon points="81,421 36,721 148,535 " style="fill:rgb(130, 198, 151);stroke-width:none"/>
	<polygon points="36,721 146,634 148,535 " style="fill:rgb(125, 226, 160);stroke-width:none"/>
	<polygon points="36,721 81,421 0,269 " style="fill:rgb(155, 62, 107);stroke-width:none"/>
	<polygon points="146,634 36,721 145,740 " style="fill:rgb(132, 187, 147);stroke-width:none"/>
	<polygon points="0,978 36,721 0,269 " style="fill:rgb(126, 219, 158);stroke-width:none"/>
	<polygon points="20,948 36,721 0,978 " style="fill:rgb(211, 0, 5);stroke-width:none"/>
	<polygon points="36,721 20,948 31,950 " style="fill:rgb(205, 0, 16);stroke-width:none"/>
	<polygon points="503,807 364,916 493,1008 " style="fill:rgb(210, 0, 5);stroke-width:none"/>
	<polygon points="364,916 411,1012 493,1008 " style="fill:rgb(255, 0, 0);stroke-width:none"/>
	<polygon points="411,1012 364,916 344,1051 " style="fill:rgb(255, 0, 0);stroke-width:none"/>
	<polygon points="186,801 249,767 145,740 " style="fill:rgb(152, 78, 112);stroke-width:none"/>
	<polygon points="186,801 36,721 31,950 " style="fill:rgb(176, 0, 67);stroke-width:none"/>
	<polygon points="36,721 186,801 145,740 " style="fill:rgb(146, 106, 121);stroke-width:none"/>
	<polygon points="563,767 505,665 503,807 " style="fill:rgb(146, 143, 135);stroke-width:none"/>
	<polygon points="627,1042 713,869 608,986 " style="fill:rgb(222, 0, 0);stroke-width:none"/>
	<polygon points="818,1175 713,869 627,1042 " style="fill:rgb(247, 0, 0);stroke-width:none"/>
	<polygon points="556,54 607,80 615,0 " style="fill:rgb(255, 0, 0);stroke-width:none"/>
	<polygon points="607,80 556,54 618,142 " style="fill:rgb(255, 0, 0);stroke-width:none"/>
	<polygon points="344,176 556,54 498,0 " style="fill:rgb(255, 0, 0);stroke-width:none"/>
	<polygon points="556,54 344,176 386,264 " style="fill:rgb(255, 0, 0);stroke-width:none"/>
	<polygon points="556,54 508,302 618,142 " style="fill:rgb(255, 0, 0);stroke-width:none"/>
	<polygon points="508,302 556,54 386,264 " style="fill:rgb(255, 0, 0);stroke-width:none"/>
	<polygon points="1128,707 950,719 1052,837 " style="fill:rgb(151, 167, 147);stroke-width:none"/>
	<polygon points="1370,420 1506,442 1445,286 " style="fill:rgb(147, 255, 189);stroke-width:none"/>
	<polygon points="1370,420 1484,497 1506,442 " style="fill:rgb(147, 255, 192);stroke-width:none"/>
	<polygon points="1305,550 1255,549 1186,596 " style="fill:rgb(145, 255, 187);stroke-width:none"/>
	<polygon points="1255,549 1160,287 1071,333 " style="fill:rgb(151, 240, 176);stroke-width:none"/>
	<polygon points="1496,991 1561,947 1465,928 " style="fill:rgb(168, 35, 101);stroke-width:none"/>
	<polygon points="1495,1263 1496,991 1315,1126 " style="fill:rgb(187, 0, 10);stroke-width:none"/>
	<polygon points="1496,991 1323,1017 1315,1126 " style="fill:rgb(182, 0, 43);stroke-width:none"/>
	<polygon points="1323,1017 1496,991 1465,928 " style="fill:rgb(172, 0, 82);stroke-width:none"/>
	<polygon points="1135,986 1012,1035 1114,1117 " style="fill:rgb(209, 0, 0);stroke-width:none"/>
	<polygon points="1012,1035 1135,986 1052,837 " style="fill:rgb(187, 0, 49);stroke-width:none"/>
	<polygon points="1736,0 1781,154 1926,0 " style="fill:rgb(118, 215, 153);stroke-width:none"/>
	<polygon points="1635,17 1654,90 1678,0 " style="fill:rgb(129, 185, 146);stroke-width:none"/>
	<polygon points="1654,90 1736,0 1678,0 " style="fill:rgb(126, 194, 148);stroke-width:none"/>
	<polygon points="1736,0 1654,90 1781,154 " style="fill:rgb(126, 218, 158);stroke-width:none"/>
	<polygon points="1654,90 1635,17 1495,154 " style="fill:rgb(137, 191, 151);stroke-width:none"/>
	<polygon points="1912,582 1827,697 1907,636 " style="fill:rgb(160, 244, 181);stroke-width:none"/>
	<polygon points="1715,754 1642,566 1433,715 " style="fill:rgb(156, 234, 176);stroke-width:none"/>
	<polygon points="1642,566 1484,497 1433,715 " style="fill:rgb(151, 255, 186);stroke-width:none"/>
	<polygon points="1642,566 1669,552 1506,442 " style="fill:rgb(150, 255, 191);stroke-width:none"/>
	<polygon points="1484,497 1642,566 1506,442 " style="fill:rgb(149, 255, 192);stroke-width:none"/>
	<polygon points="1999,265 1927,183 1796,233 " style="fill:rgb(134, 250, 174);stroke-width:none"/>
	<polygon points="2512,777 2512,759 2396,714 " style="fill:rgb(174, 238, 184);stroke-width:none"/>
	<polygon points="2378,815 2512,777 2396,714 " style="fill:rgb(174, 238, 185);stroke-width:none"/>
	<polygon points="2512,777 2378,815 2512,787 " style="fill:rgb(174, 239, 185);stroke-width:none"/>
	<polygon points="1999,265 2038,93 1927,183 " style="fill:rgb(129, 226, 162);stroke-width:none"/>
	<polygon points="2038,93 1999,265 2187,114 " style="fill:rgb(127, 195, 149);stroke-width:none"/>
	<polygon points="2153,0 2038,93 2187,114 " style="fill:rgb(115, 145, 124);stroke-width:none"/>
	<polygon points="2038,93 2153,0 2022,37 " style="fill:rgb(111, 161, 129);stroke-width:none"/>
	<polygon points="2290,37 2219,0 2187,114 " style="fill:rgb(116, 75, 97);stroke-width:none"/>
	<polygon points="2399,323 2488,448 2512,342 " style="fill:rgb(161, 131, 137);stroke-width:none"/>
	<polygon points="2246,604 2253,498 2092,679 " style="fill:rgb(166, 234, 180);stroke-width:none"/>
	<polygon points="2341,736 2252,788 2378,815 " style="fill:rgb(171, 233, 181);stroke-width:none"/>
	<polygon points="2252,788 2341,736 2246,604 " style="fill:rgb(170, 233, 181);stroke-width:none"/>
	<polygon points="2252,788 2246,604 2092,679 " style="fill:rgb(168, 233, 180);stroke-width:none"/>
	<polygon points="2229,831 2252,788 2092,679 " style="fill:rgb(169, 227, 178);stroke-width:none"/>
	<polygon points="2082,1227 2089,1054 2005,1078 " style="fill:rgb(153, 101, 121);stroke-width:none"/>
	<polygon points="2376,1043 2089,1054 2082,1227 " style="fill:rgb(155, 139, 137);stroke-width:none"/>
	<polygon points="2038,945 1781,992 2005,1078 " style="fill:rgb(160, 122, 133);stroke-width:none"/>
	<polygon points="2089,1054 2038,945 2005,1078 " style="fill:rgb(159, 138, 139);stroke-width:none"/>
	<polygon points="1907,636 1974,770 2092,679 " style="fill:rgb(164, 231, 178);stroke-width:none"/>
	<polygon points="1974,770 2068,850 2092,679 " style="fill:rgb(166, 219, 174);stroke-width:none"/>
	<polygon points="1827,697 1974,770 1907,636 " style="fill:rgb(162, 229, 176);stroke-width:none"/>
	<polygon points="1974,770 2038,945 2068,850 " style="fill:rgb(165, 195, 164);stroke-width:none"/>
	<polygon points="2376,1043 2512,1086 2512,1079 " style="fill:rgb(166, 192, 163);stroke-width:none"/>
	<polygon points="2512,1086 2376,1043 2512,1137 " style="fill:rgb(164, 184, 159);stroke-width:none"/>
	<polygon points="2376,1043 2512,1267 2512,1137 " style="fill:rgb(161, 160, 148);stroke-width:none"/>
	<polygon points="2512,1267 2376,1043 2082,1227 " style="fill:rgb(154, 142, 138);stroke-width:none"/>
	<polygon points="1820,1297 1722,1145 1736,1297 " style="fill:rgb(160, 0, 63);stroke-width:none"/>
	<polygon points="1722,1145 1495,1263 1736,1297 " style="fill:rgb(168, 0, 40);stroke-width:none"/>
	<polygon points="1722,1145 1920,1285 1746,1078 " style="fill:rgb(158, 0, 70);stroke-width:none"/>
	<polygon points="1722,1145 1820,1297 1920,1285 " style="fill:rgb(157, 0, 74);stroke-width:none"/>
	<polygon points="1722,1145 1496,991 1495,1263 " style="fill:rgb(174, 0, 37);stroke-width:none"/>
	<polygon points="1561,947 1722,1145 1746,1078 " style="fill:rgb(165, 2, 87);stroke-width:none"/>
	<polygon points="1496,991 1722,1145 1561,947 " style="fill:rgb(168, 0, 85);stroke-width:none"/>
	<polygon points="284,0 260,93 287,0 " style="fill:rgb(255, 0, 0);stroke-width:none"/>
	<polygon points="260,93 284,0 183,0 " style="fill:rgb(255, 0, 0);stroke-width:none"/>
	<polygon points="334,447 386,264 249,295 " style="fill:rgb(216, 0, 12);stroke-width:none"/>
	<polygon points="263,431 334,447 249,295 " style="fill:rgb(188, 0, 58);stroke-width:none"/>
	<polygon points="484,523 334,447 288,553 " style="fill:rgb(141, 175, 146);stroke-width:none"/>
	<polygon points="334,447 263,431 288,553 " style="fill:rgb(150, 112, 125);stroke-width:none"/>
	<polygon points="150,1249 146,1063 59,1186 " style="fill:rgb(255, 0, 0);stroke-width:none"/>
	<polygon points="146,1063 150,1249 347,1204 " style="fill:rgb(255, 0, 0);stroke-width:none"/>
	<polygon points="146,1063 186,801 31,950 " style="fill:rgb(252, 0, 0);stroke-width:none"/>
	<polygon points="0,978 146,1063 31,950 " style="fill:rgb(255, 0, 0);stroke-width:none"/>
	<polygon points="59,1186 146,1063 0,978 " style="fill:rgb(255, 0, 0);stroke-width:none"/>
	<polygon points="339,831 364,916 503,807 " style="fill:rgb(183, 0, 58);stroke-width:none"/>
	<polygon points="505,665 339,831 503,807 " style="fill:rgb(151, 104, 122);stroke-width:none"/>
	<polygon points="186,801 339,831 249,767 " style="fill:rgb(163, 18, 92);stroke-width:none"/>
	<polygon points="339,831 186,801 364,916 " style="fill:rgb(186, 0, 51);stroke-width:none"/>
	<polygon points="339,831 505,665 473,627 " style="fill:rgb(137, 186, 149);stroke-width:none"/>
	<polygon points="249,767 339,831 473,627 " style="fill:rgb(144, 138, 133);stroke-width:none"/>
	<polygon points="577,845 563,767 503,807 " style="fill:rgb(162, 45, 103);stroke-width:none"/>
	<polygon points="563,767 577,845 682,833 " style="fill:rgb(163, 38, 100);stroke-width:none"/>
	<polygon points="608,986 577,845 493,1008 " style="fill:rgb(221, 0, 0);stroke-width:none"/>
	<polygon points="577,845 503,807 493,1008 " style="fill:rgb(194, 0, 37);stroke-width:none"/>
	<polygon points="713,869 577,845 608,986 " style="fill:rgb(193, 0, 38);stroke-width:none"/>
	<polygon points="577,845 713,869 682,833 " style="fill:rgb(173, 0, 80);stroke-width:none"/>
	<polygon points="513,0 556,54 615,0 " style="fill:rgb(255, 0, 0);stroke-width:none"/>
	<polygon points="556,54 513,0 498,0 " style="fill:rgb(255, 0, 0);stroke-width:none"/>
	<polygon points="950,719 844,822 1052,837 " style="fill:rgb(156, 115, 128);stroke-width:none"/>
	<polygon points="844,822 1012,1035 1052,837 " style="fill:rgb(178, 0, 72);stroke-width:none"/>
	<polygon points="713,869 844,822 682,833 " style="fill:rgb(169, 10, 91);stroke-width:none"/>
	<polygon points="844,822 713,869 818,1175 " style="fill:rgb(206, 0, 9);stroke-width:none"/>
	<polygon points="1012,1035 844,822 818,1175 " style="fill:rgb(218, 0, 0);stroke-width:none"/>
	<polygon points="789,436 725,349 592,477 " style="fill:rgb(157, 150, 143);stroke-width:none"/>
	<polygon points="658,623 789,436 592,477 " style="fill:rgb(141, 231, 168);stroke-width:none"/>
	<polygon points="1014,403 1255,549 1071,333 " style="fill:rgb(148, 251, 179);stroke-width:none"/>
	<polygon points="1255,549 1014,403 1186,596 " style="fill:rgb(144, 255, 187);stroke-width:none"/>
	<polygon points="1088,598 1128,707 1186,596 " style="fill:rgb(144, 252, 179);stroke-width:none"/>
	<polygon points="1088,598 950,719 1128,707 " style="fill:rgb(144, 231, 170);stroke-width:none"/>
	<polygon points="1014,403 1088,598 1186,596 " style="fill:rgb(143, 255, 186);stroke-width:none"/>
	<polygon points="1290,311 1370,420 1445,286 " style="fill:rgb(149, 255, 181);stroke-width:none"/>
	<polygon points="1290,311 1445,286 1310,89 " style="fill:rgb(155, 190, 158);stroke-width:none"/>
	<polygon points="1160,287 1290,311 1310,89 " style="fill:rgb(162, 151, 145);stroke-width:none"/>
	<polygon points="1255,549 1290,311 1160,287 " style="fill:rgb(150, 250, 180);stroke-width:none"/>
	<polygon points="1290,311 1255,549 1370,420 " style="fill:rgb(147, 255, 188);stroke-width:none"/>
	<polygon points="1370,420 1364,506 1484,497 " style="fill:rgb(147, 255, 192);stroke-width:none"/>
	<polygon points="1364,506 1305,550 1433,715 " style="fill:rgb(148, 255, 186);stroke-width:none"/>
	<polygon points="1484,497 1364,506 1433,715 " style="fill:rgb(148, 255, 188);stroke-width:none"/>
	<polygon points="1364,506 1255,549 1305,550 " style="fill:rgb(146, 255, 190);stroke-width:none"/>
	<polygon points="1255,549 1364,506 1370,420 " style="fill:rgb(146, 255, 191);stroke-width:none"/>
	<polygon points="1114,1117 996,1108 931,1297 " style="fill:rgb(255, 0, 0);stroke-width:none"/>
	<polygon points="1012,1035 996,1108 1114,1117 " style="fill:rgb(228, 0, 0);stroke-width:none"/>
	<polygon points="996,1108 818,1175 931,1297 " style="fill:rgb(255, 0, 0);stroke-width:none"/>
	<polygon points="996,1108 1012,1035 818,1175 " style="fill:rgb(250, 0, 0);stroke-width:none"/>
	<polygon points="1781,154 1733,275 1796,233 " style="fill:rgb(135, 255, 178);stroke-width:none"/>
	<polygon points="1654,90 1733,275 1781,154 " style="fill:rgb(133, 249, 173);stroke-width:none"/>
	<polygon points="1733,275 1654,90 1495,154 " style="fill:rgb(137, 238, 170);stroke-width:none"/>
	<polygon points="1733,275 1495,154 1445,286 " style="fill:rgb(143, 250, 177);stroke-width:none"/>
	<polygon points="1506,442 1733,275 1445,286 " style="fill:rgb(145, 255, 188);stroke-width:none"/>
	<polygon points="1669,552 1733,275 1506,442 " style="fill:rgb(147, 255, 192);stroke-width:none"/>
	<polygon points="1827,697 1688,595 1715,754 " style="fill:rgb(159, 233, 177);stroke-width:none"/>
	<polygon points="1688,595 1642,566 1715,754 " style="fill:rgb(156, 248, 181);stroke-width:none"/>
	<polygon points="1642,566 1688,595 1669,552 " style="fill:rgb(153, 255, 188);stroke-width:none"/>
	<polygon points="1688,595 1827,697 1912,582 " style="fill:rgb(158, 249, 183);stroke-width:none"/>
	<polygon points="1999,265 1907,455 2247,393 " style="fill:rgb(149, 241, 176);stroke-width:none"/>
	<polygon points="1907,455 2253,498 2247,393 " style="fill:rgb(157, 232, 176);stroke-width:none"/>
	<polygon points="1907,455 1999,265 1796,233 " style="fill:rgb(142, 255, 182);stroke-width:none"/>
	<polygon points="1907,455 1912,582 2092,679 " style="fill:rgb(160, 250, 184);stroke-width:none"/>
	<polygon points="2253,498 1907,455 2092,679 " style="fill:rgb(161, 243, 182);stroke-width:none"/>
	<polygon points="1733,275 1907,455 1796,233 " style="fill:rgb(142, 255, 186);stroke-width:none"/>
	<polygon points="1907,455 1733,275 1669,552 " style="fill:rgb(149, 255, 191);stroke-width:none"/>
	<polygon points="1688,595 1907,455 1669,552 " style="fill:rgb(154, 255, 189);stroke-width:none"/>
	<polygon points="1907,455 1688,595 1912,582 " style="fill:rgb(156, 255, 187);stroke-width:none"/>
	<polygon points="1998,26 2153,0 1926,0 " style="fill:rgb(110, 177, 135);stroke-width:none"/>
	<polygon points="2153,0 1998,26 2022,37 " style="fill:rgb(110, 165, 130);stroke-width:none"/>
	<polygon points="1998,26 2038,93 2022,37 " style="fill:rgb(112, 183, 138);stroke-width:none"/>
	<polygon points="1927,183 1998,26 1926,0 " style="fill:rgb(115, 207, 149);stroke-width:none"/>
	<polygon points="2038,93 1998,26 1927,183 " style="fill:rgb(119, 207, 150);stroke-width:none"/>
	<polygon points="2219,0 2182,0 2187,114 " style="fill:rgb(113, 93, 103);stroke-width:none"/>
	<polygon points="2475,172 2452,42 2357,89 " style="fill:rgb(137, 0, 55);stroke-width:none"/>
	<polygon points="2452,42 2475,172 2512,87 " style="fill:rgb(138, 0, 54);stroke-width:none"/>
	<polygon points="2246,161 2290,37 2187,114 " style="fill:rgb(125, 95, 108);stroke-width:none"/>
	<polygon points="2290,37 2246,161 2357,89 " style="fill:rgb(126, 53, 92);stroke-width:none"/>
	<polygon points="2399,323 2246,161 2247,393 " style="fill:rgb(149, 149, 139);stroke-width:none"/>
	<polygon points="2246,161 1999,265 2247,393 " style="fill:rgb(143, 194, 155);stroke-width:none"/>
	<polygon points="1999,265 2246,161 2187,114 " style="fill:rgb(131, 175, 143);stroke-width:none"/>
	<polygon points="2399,323 2390,442 2488,448 " style="fill:rgb(163, 149, 145);stroke-width:none"/>
	<polygon points="2488,448 2390,442 2512,536 " style="fill:rgb(167, 178, 158);stroke-width:none"/>
	<polygon points="2390,442 2399,323 2247,393 " style="fill:rgb(159, 168, 150);stroke-width:none"/>
	<polygon points="2253,498 2390,442 2247,393 " style="fill:rgb(161, 199, 164);stroke-width:none"/>
	<polygon points="2390,442 2253,498 2246,604 " style="fill:rgb(165, 215, 172);stroke-width:none"/>
	<polygon points="2512,536 2390,442 2396,714 " style="fill:rgb(171, 207, 171);stroke-width:none"/>
	<polygon points="2390,442 2246,604 2396,714 " style="fill:rgb(169, 222, 176);stroke-width:none"/>
	<polygon points="2299,924 2089,1054 2376,1043 " style="fill:rgb(163, 187, 160);stroke-width:none"/>
	<polygon points="2299,924 2376,1043 2439,955 " style="fill:rgb(168, 211, 171);stroke-width:none"/>
	<polygon points="2378,815 2299,924 2439,955 " style="fill:rgb(170, 226, 178);stroke-width:none"/>
	<polygon points="2038,945 1792,857 1781,992 " style="fill:rgb(162, 142, 141);stroke-width:none"/>
	<polygon points="1974,770 1792,857 2038,945 " style="fill:rgb(164, 183, 159);stroke-width:none"/>
	<polygon points="1792,857 1974,770 1827,697 " style="fill:rgb(163, 206, 167);stroke-width:none"/>
	<polygon points="1792,857 1827,697 1715,754 " style="fill:rgb(161, 202, 165);stroke-width:none"/>
	<polygon points="2512,1292 2082,1227 2512,1297 " style="fill:rgb(156, 148, 141);stroke-width:none"/>
	<polygon points="2512,1292 2512,1267 2082,1227 " style="fill:rgb(156, 148, 141);stroke-width:none"/>
	<polygon points="530,349 508,302 386,264 " style="fill:rgb(218, 0, 20);stroke-width:none"/>
	<polygon points="334,447 530,349 386,264 " style="fill:rgb(197, 0, 53);stroke-width:none"/>
	<polygon points="530,349 334,447 484,523 " style="fill:rgb(159, 96, 122);stroke-width:none"/>
	<polygon points="530,349 484,523 592,477 " style="fill:rgb(154, 139, 137);stroke-width:none"/>
	<polygon points="725,349 530,349 592,477 " style="fill:rgb(169, 75, 117);stroke-width:none"/>
	<polygon points="508,302 530,349 725,349 " style="fill:rgb(193, 0, 73);stroke-width:none"/>
	<polygon points="186,801 263,1032 364,916 " style="fill:rgb(227, 0, 0);stroke-width:none"/>
	<polygon points="146,1063 263,1032 186,801 " style="fill:rgb(255, 0, 0);stroke-width:none"/>
	<polygon points="364,916 263,1032 344,1051 " style="fill:rgb(255, 0, 0);stroke-width:none"/>
	<polygon points="344,1051 263,1032 347,1204 " style="fill:rgb(255, 0, 0);stroke-width:none"/>
	<polygon points="263,1032 146,1063 347,1204 " style="fill:rgb(255, 0, 0);stroke-width:none"/>
	<polygon points="844,822 699,732 682,833 " style="fill:rgb(157, 87, 118);stroke-width:none"/>
	<polygon points="699,732 563,767 682,833 " style="fill:rgb(153, 107, 124);stroke-width:none"/>
	<polygon points="877,485 789,436 658,623 " style="fill:rgb(141, 244, 174);stroke-width:none"/>
	<polygon points="877,485 1088,598 1014,403 " style="fill:rgb(144, 255, 181);stroke-width:none"/>
	<polygon points="789,436 839,363 725,349 " style="fill:rgb(164, 128, 137);stroke-width:none"/>
	<polygon points="725,349 839,363 918,66 " style="fill:rgb(198, 0, 76);stroke-width:none"/>
	<polygon points="877,485 839,363 789,436 " style="fill:rgb(153, 195, 159);stroke-width:none"/>
	<polygon points="839,363 877,485 1014,403 " style="fill:rgb(153, 203, 162);stroke-width:none"/>
	<polygon points="839,363 1071,333 918,66 " style="fill:rgb(187, 14, 100);stroke-width:none"/>
	<polygon points="839,363 1014,403 1071,333 " style="fill:rgb(159, 176, 154);stroke-width:none"/>
	<polygon points="2178,0 2153,0 2187,114 " style="fill:rgb(112, 108, 108);stroke-width:none"/>
	<polygon points="2182,0 2178,0 2187,114 " style="fill:rgb(113, 102, 106);stroke-width:none"/>
	<polygon points="2452,42 2512,52 2512,0 " style="fill:rgb(131, 0, 30);stroke-width:none"/>
	<polygon points="2512,52 2452,42 2512,87 " style="fill:rgb(133, 0, 38);stroke-width:none"/>
	<polygon points="2407,12 2452,42 2512,0 " style="fill:rgb(131, 0, 30);stroke-width:none"/>
	<polygon points="2219,0 2407,12 2512,0 " style="fill:rgb(125, 0, 49);stroke-width:none"/>
	<polygon points="2290,37 2407,12 2219,0 " style="fill:rgb(119, 14, 73);stroke-width:none"/>
	<polygon points="2407,12 2290,37 2357,89 " style="fill:rgb(124, 0, 61);stroke-width:none"/>
	<polygon points="2452,42 2407,12 2357,89 " style="fill:rgb(129, 0, 43);stroke-width:none"/>
	<polygon points="2475,172 2512,133 2512,87 " style="fill:rgb(141, 0, 65);stroke-width:none"/>
	<polygon points="2475,172 2461,253 2512,199 " style="fill:rgb(148, 30, 91);stroke-width:none"/>
	<polygon points="2512,199 2461,253 2512,342 " style="fill:rgb(153, 69, 109);stroke-width:none"/>
	<polygon points="2461,253 2399,323 2512,342 " style="fill:rgb(157, 94, 120);stroke-width:none"/>
	<polygon points="2461,253 2475,172 2357,89 " style="fill:rgb(145, 4, 80);stroke-width:none"/>
	<polygon points="2246,161 2461,253 2357,89 " style="fill:rgb(139, 56, 98);stroke-width:none"/>
	<polygon points="2461,253 2246,161 2399,323 " style="fill:rgb(148, 93, 116);stroke-width:none"/>
	<polygon points="2271,901 2038,945 2089,1054 " style="fill:rgb(163, 178, 156);stroke-width:none"/>
	<polygon points="2299,924 2271,901 2089,1054 " style="fill:rgb(164, 194, 163);stroke-width:none"/>
	<polygon points="2068,850 2271,901 2229,831 " style="fill:rgb(167, 212, 172);stroke-width:none"/>
	<polygon points="2038,945 2271,901 2068,850 " style="fill:rgb(165, 196, 164);stroke-width:none"/>
	<polygon points="2271,901 2299,924 2378,815 " style="fill:rgb(169, 222, 176);stroke-width:none"/>
	<polygon points="2271,901 2252,788 2229,831 " style="fill:rgb(169, 222, 176);stroke-width:none"/>
	<polygon points="2252,788 2271,901 2378,815 " style="fill:rgb(170, 227, 178);stroke-width:none"/>
	<polygon points="1781,992 1755,879 1692,867 " style="fill:rgb(163, 126, 135);stroke-width:none"/>
	<polygon points="1792,857 1755,879 1781,992 " style="fill:rgb(163, 135, 139);stroke-width:none"/>
	<polygon points="1755,879 1715,754 1692,867 " style="fill:rgb(162, 167, 151);stroke-width:none"/>
	<polygon points="1755,879 1792,857 1715,754 " style="fill:rgb(162, 173, 154);stroke-width:none"/>
	<polygon points="699,732 627,643 563,767 " style="fill:rgb(141, 187, 151);stroke-width:none"/>
	<polygon points="627,643 699,732 658,623 " style="fill:rgb(136, 228, 166);stroke-width:none"/>
	<polygon points="563,767 627,643 505,665 " style="fill:rgb(137, 207, 158);stroke-width:none"/>
	<polygon points="627,643 484,523 473,627 " style="fill:rgb(132, 245, 171);stroke-width:none"/>
	<polygon points="505,665 627,643 473,627 " style="fill:rgb(132, 236, 167);stroke-width:none"/>
	<polygon points="484,523 627,643 592,477 " style="fill:rgb(136, 236, 169);stroke-width:none"/>
	<polygon points="627,643 658,623 592,477 " style="fill:rgb(134, 250, 174);stroke-width:none"/>
	<polygon points="699,732 880,659 658,623 " style="fill:rgb(138, 227, 166);stroke-width:none"/>
	<polygon points="880,659 877,485 658,623 " style="fill:rgb(137, 255, 178);stroke-width:none"/>
	<polygon points="880,659 844,822 950,719 " style="fill:rgb(147, 179, 150);stroke-width:none"/>
	<polygon points="880,659 699,732 844,822 " style="fill:rgb(147, 170, 147);stroke-width:none"/>
	<polygon points="1088,598 880,659 950,719 " style="fill:rgb(142, 239, 172);stroke-width:none"/>
	<polygon points="877,485 880,659 1088,598 " style="fill:rgb(140, 255, 182);stroke-width:none"/>
	<polygon points="2512,175 2475,172 2512,199 " style="fill:rgb(146, 11, 83);stroke-width:none"/>
	<polygon points="2512,175 2512,133 2475,172 " style="fill:rgb(144, 0, 75);stroke-width:none"/>
</svg>